<svg xmlns="http://www.w3.org/2000/svg" xmlns:xlink="http://www.w3.org/1999/xlink" width="456" height="757" viewBox="0 0 456 757">
  <defs>
    <clipPath id="clip-path">
      <rect id="Rectángulo_456316" data-name="Rectángulo 456316" width="17.377" height="22.04" fill="none"/>
    </clipPath>
    <clipPath id="clip-path-2">
      <rect id="Rectángulo_456317" data-name="Rectángulo 456317" width="22.26" height="22.758" fill="none"/>
    </clipPath>
    <clipPath id="clip-path-3">
      <rect id="Rectángulo_456318" data-name="Rectángulo 456318" width="14.534" height="18.89" fill="none"/>
    </clipPath>
    <clipPath id="clip-path-4">
      <rect id="Rectángulo_456319" data-name="Rectángulo 456319" width="14.621" height="22.829" fill="none"/>
    </clipPath>
    <clipPath id="clip-path-5">
      <rect id="Rectángulo_456320" data-name="Rectángulo 456320" width="22.466" height="15.872" fill="none"/>
    </clipPath>
    <clipPath id="clip-path-6">
      <rect id="Rectángulo_456321" data-name="Rectángulo 456321" width="17.663" height="16.284" fill="none"/>
    </clipPath>
    <clipPath id="clip-path-7">
      <rect id="Rectángulo_456322" data-name="Rectángulo 456322" width="84.14" height="34.089" fill="none"/>
    </clipPath>
    <clipPath id="clip-path-8">
      <rect id="Rectángulo_456323" data-name="Rectángulo 456323" width="70.842" height="38.027" fill="none"/>
    </clipPath>
    <clipPath id="clip-path-9">
      <rect id="Rectángulo_456324" data-name="Rectángulo 456324" width="57.682" height="81.51" fill="none"/>
    </clipPath>
    <clipPath id="clip-path-10">
      <rect id="Rectángulo_456325" data-name="Rectángulo 456325" width="54.649" height="58.722" fill="none"/>
    </clipPath>
    <clipPath id="clip-path-11">
      <rect id="Rectángulo_456326" data-name="Rectángulo 456326" width="15.952" height="64.398" fill="none"/>
    </clipPath>
    <clipPath id="clip-path-12">
      <rect id="Rectángulo_456327" data-name="Rectángulo 456327" width="15.896" height="47.084" fill="none"/>
    </clipPath>
    <clipPath id="clip-path-13">
      <path id="Trazado_1257697" data-name="Trazado 1257697" d="M150.74,202.232c0,1.255,2.079,2.449,5.74,3.49,7.705,2.2,22.426,3.718,39.476,3.718s31.908-1.454,39.7-3.6c3.7-1.023,5.816-2.2,5.816-3.458,0-3.9,39.461-55.376,14.322-55.376S150.74,198.33,150.74,202.232" transform="translate(-150.74 -147.003)" fill="none"/>
    </clipPath>
    <clipPath id="clip-path-14">
      <path id="Trazado_1257711" data-name="Trazado 1257711" d="M238.74,260.438a1.111,1.111,0,0,0-.105.469,1.23,1.23,0,0,0,.105.477c.533,1.236,3.129,2.38,7.232,3.338,7.323,1.709,19.45,2.83,33.166,2.83,3.1,0,6.109-.058,9.007-.167,9.934-.368,18.477-1.337,24.149-2.663,4.2-.977,6.825-2.151,7.271-3.424a1.031,1.031,0,0,0,.071-.391,1.052,1.052,0,0,0-.067-.38c-.8-2.311-11.49-22.879-23.079-23.96-5.907-.555-12.747-.868-20.036-.868-21.409,0-36.256,21.293-37.715,24.739" transform="translate(-238.635 -235.699)" fill="none"/>
    </clipPath>
    <clipPath id="clip-path-15">
      <rect id="Rectángulo_456330" data-name="Rectángulo 456330" width="58.939" height="32.479" fill="none"/>
    </clipPath>
    <clipPath id="clip-path-16">
      <path id="Trazado_1257724" data-name="Trazado 1257724" d="M104.105,305.744a.506.506,0,0,0-.05.2.579.579,0,0,0,.173.376c2.052,2.234,22.242,3.971,46.859,3.971s44.809-1.737,46.859-3.971a.579.579,0,0,0,.173-.376.5.5,0,0,0-.051-.2c-1.148-2.306-18.684-28.625-43.921-28.625s-48.894,26.32-50.043,28.625" transform="translate(-104.055 -277.119)" fill="none"/>
    </clipPath>
  </defs>
  <g id="Grupo_1206665" data-name="Grupo 1206665" transform="translate(5322 6646)">
    <g id="Grupo_1205708" data-name="Grupo 1205708" transform="translate(-5216.821 -6384.26)">
      <rect id="Rectángulo_456315" data-name="Rectángulo 456315" width="73.831" height="8.882" transform="translate(6.572 0.427)" fill="#e39851"/>
      <path id="Trazado_1257624" data-name="Trazado 1257624" d="M117.035,215.424c-7.364,1.03-14.776,1.66-21.978,2.005a339.761,339.761,0,0,1-41.679-.738c-11.978-.935-19.66-2.128-19.66-2.128L33.1,187.071l-.833-37.261,6.572-22.919h73.831l.434,1.463,6,20.311c1.266,14.037-2.073,66.759-2.073,66.759" transform="translate(-32.269 -117.582)" fill="#fdc083"/>
      <path id="Trazado_1257625" data-name="Trazado 1257625" d="M117.035,224.821c-7.364,1.03-14.776,1.66-21.978,2.005a339.761,339.761,0,0,1-41.679-.738c-11.978-.935-19.66-2.128-19.66-2.128L33.1,196.469l-.833-37.261,29.89-.393,28.129-.373,22.831-.3,5.989-.082c1.266,14.037-2.073,66.759-2.073,66.759" transform="translate(-32.269 -126.98)" fill="#f1ad60"/>
      <path id="Trazado_1257626" data-name="Trazado 1257626" d="M103.189,148.956v.088l-28.129.373,2.73-22.527h23.732Z" transform="translate(-45.17 -117.582)" fill="#fde1b9"/>
      <path id="Trazado_1257627" data-name="Trazado 1257627" d="M102.7,122.873H78.968l.007-.068.21-8.814.006-.427H102.68v9.024Z" transform="translate(-46.348 -113.565)" fill="#fdd795"/>
      <path id="Trazado_1257628" data-name="Trazado 1257628" d="M103.18,158.606v36.442c-11.171,1.714-27.932.427-27.932.427l-.217-36.313.02-.182Z" transform="translate(-45.161 -127.144)" fill="#fdd795"/>
      <path id="Trazado_1257629" data-name="Trazado 1257629" d="M100.63,179.647c0,7.672-4.452,13.891-9.944,13.891s-9.944-6.22-9.944-13.891,4.452-13.892,9.944-13.892,9.944,6.22,9.944,13.892" transform="translate(-46.883 -129.299)" fill="#fff8f1"/>
      <path id="Trazado_1257630" data-name="Trazado 1257630" d="M117.395,224.821c-7.364,1.03-14.776,1.66-21.978,2.005a339.761,339.761,0,0,1-41.679-.738c-11.978-.935-19.66-2.128-19.66-2.128l-.617-27.492a20.656,20.656,0,0,0,3.523,5.446c5.617,6.185,14.64,7.771,22.974,8.245a140.181,140.181,0,0,0,25.006-.813c5.833-.711,11.944-1.938,16.354-5.826,4.614-4.072,6.544-10.331,7.946-16.327a170.833,170.833,0,0,0,4.214-29.05l5.989-.082c1.266,14.037-2.073,66.759-2.073,66.759" transform="translate(-32.628 -126.98)" fill="#e39851"/>
      <path id="Trazado_1257631" data-name="Trazado 1257631" d="M339.608,175.868,326.55,156.18a11.569,11.569,0,0,0-9.274-5.164l-17.956-.573v-.12l-1.514.048c-.246.008-.493.008-.74,0l-1.513-.048v.12l-17.956.573a11.569,11.569,0,0,0-9.274,5.164l-13.058,19.689a11.51,11.51,0,0,0-.825,11.269l14.174,30.122a2.794,2.794,0,0,0,.4.649c5.919,6.815,56.9,6.445,57.11-.379,0-.007,9.473-20.133,14.3-30.392a11.511,11.511,0,0,0-.825-11.269" transform="translate(-98.92 -124.646)" fill="#fdd795"/>
      <path id="Trazado_1257632" data-name="Trazado 1257632" d="M338.2,188.545c-4.377,9.3-12.966,27.548-12.966,27.555-.189,6.186-46.413,6.525-51.782.346a2.644,2.644,0,0,1-.367-.59L261.295,190.8c-.374-.793-.73-1.551-1.062-2.253a10.434,10.434,0,0,1,.747-10.217l11.837-17.852a10.493,10.493,0,0,1,8.411-4.681l16.28-.52,0-.108,1.373.042q.335.01.671,0l1.373-.042v.108l16.28.52a10.481,10.481,0,0,1,8.407,4.681l9.235,13.926,2.606,3.926a10.435,10.435,0,0,1,.747,10.217" transform="translate(-100.696 -126.107)" fill="#fda931"/>
      <path id="Trazado_1257633" data-name="Trazado 1257633" d="M343.112,165.559a3.089,3.089,0,0,1-2.909,2.612,10.676,10.676,0,0,1-4.167-.754c-.625-.189-1.257-.363-1.9-.51a21.864,21.864,0,0,0-3.07-.5,15.378,15.378,0,0,0-2.232-.038q-.545.026-1.09.1a12.211,12.211,0,0,0-1.449.286,15.553,15.553,0,0,0-3.07,1.212h0c-1.419.716-2.774,1.586-4.153,2.393a17.9,17.9,0,0,1-5.452,2.33c-.161.035-.322.063-.483.087-.21.031-.416.056-.622.077-3.947.37-7.761-1.5-11.551-3.242-.877-.4-1.75-.8-2.623-1.156-.112-.045-.22-.091-.332-.133-.36-.147-.723-.283-1.086-.412a12.724,12.724,0,0,0-7.8-.671,20.769,20.769,0,0,0-5.376,2.77c-.028.017-.052.036-.08.05-.129.084-.265.168-.4.248h0c-.258.161-.52.318-.782.468a11.75,11.75,0,0,1-4.028,1.589,12.643,12.643,0,0,1-6.9-1.271c-1.872-.782-3.737-1.73-5.665-2.341a13.279,13.279,0,0,0-2.474-.573c-.321-.038-.642-.066-.964-.08a11.353,11.353,0,0,0-1.194.014,15.651,15.651,0,0,0-6.85,2.236c-.332.189-.653.391-.971.6l-.1.063c-.988.664-2.413,1.373-3.22.5a2.1,2.1,0,0,1-.342-1.729c.363-2.659,2.075-4.925,4.03-6.78q.178-.173.356-.335c.6-.548,1.227-1.076,1.852-1.6a33.868,33.868,0,0,0,4.453-4.139,10.9,10.9,0,0,0,2.054-4.859c.186-.793.367-1.607.615-2.427.052-.178.108-.363.164-.552.168-.559.353-1.142.576-1.7a7.768,7.768,0,0,1,.471-.985,3.256,3.256,0,0,1,2.843-1.813,4.72,4.72,0,0,1,.73.038,9.62,9.62,0,0,1,1.642.353c.356.1.719.223,1.083.353a29.008,29.008,0,0,0,4.519,1.439c2.113.335,4.247.506,6.378.723.363.035.726.073,1.086.115.513.056,1.023.115,1.533.185a58.457,58.457,0,0,0,8.547.981c.737-.01,1.467-.066,2.193-.147.363-.042.726-.087,1.09-.14,1.747-.248,3.486-.6,5.24-.807,2.35-.279,4.726-.3,7.091-.419.37-.014.744-.038,1.118-.066.08,0,.157-.007.237-.014a49.037,49.037,0,0,0,11.257-2.172c.367-.115.73-.234,1.09-.36q1.357-.466,2.682-1.009a2.4,2.4,0,0,1,1.97-.21c.646.339,2.207,1.167,2.337,1.887.049.272.115.552.2.835a10.017,10.017,0,0,0,.374,1.051,20.449,20.449,0,0,0,1.74,3.283c.185.3.377.594.583.891.014.021.028.038.042.059a0,0,0,0,0,0,0,75.232,75.232,0,0,0,5.089,6.479c.3.356.608.7.9,1.044,2.816,3.228,5.191,5.8,5.163,6.577" transform="translate(-97.832 -122.531)" fill="#f95f3e"/>
      <g id="Grupo_1205652" data-name="Grupo 1205652" transform="translate(168.06 27.907)" opacity="0.54">
        <g id="Grupo_1205651" data-name="Grupo 1205651">
          <g id="Grupo_1205650" data-name="Grupo 1205650" clip-path="url(#clip-path)">
            <path id="Trazado_1257634" data-name="Trazado 1257634" d="M290.24,173.4a13.288,13.288,0,0,1-4.81,2.057,12.639,12.639,0,0,1-6.9-1.271c-1.873-.782-3.738-1.729-5.666-2.34,2.581-2.5,5.872-4.555,7.716-7.653,1.879-3.155,2.04-7,2.151-10.671a22.033,22.033,0,0,1,4.5,10.96,40.966,40.966,0,0,0,.6,5.072,6.426,6.426,0,0,0,2.41,3.845" transform="translate(-272.863 -153.517)" fill="#e34a30"/>
          </g>
        </g>
      </g>
      <g id="Grupo_1205655" data-name="Grupo 1205655" transform="translate(203.131 27.621)" opacity="0.54">
        <g id="Grupo_1205654" data-name="Grupo 1205654">
          <g id="Grupo_1205653" data-name="Grupo 1205653" clip-path="url(#clip-path-2)">
            <path id="Trazado_1257635" data-name="Trazado 1257635" d="M345.331,170.931c-1.418.716-2.773,1.586-4.153,2.392a16.973,16.973,0,0,1-5.934,2.418c-4.171.643-8.184-1.331-12.173-3.165,1.614-2.518,3.829-4.8,5.1-7.527a13.161,13.161,0,0,0-.531-11.942c2.323.115,4.271,1.865,5.5,3.842s1.929,4.23,3.053,6.266a17.208,17.208,0,0,0,4.914,5.547,17.512,17.512,0,0,0,3.161,1.837,8.483,8.483,0,0,0,1.065.332" transform="translate(-323.072 -153.107)" fill="#e34a30"/>
          </g>
        </g>
      </g>
      <g id="Grupo_1205658" data-name="Grupo 1205658" transform="translate(230.746 26.779)" opacity="0.54">
        <g id="Grupo_1205657" data-name="Grupo 1205657">
          <g id="Grupo_1205656" data-name="Grupo 1205656" clip-path="url(#clip-path-3)">
            <path id="Trazado_1257636" data-name="Trazado 1257636" d="M377.139,168.151a3.089,3.089,0,0,1-2.909,2.612,10.676,10.676,0,0,1-4.167-.754c-.625-.189-1.257-.363-1.9-.51a19.892,19.892,0,0,1-.887-2.047,112.809,112.809,0,0,1-4.674-15.55,22.924,22.924,0,0,0,3.375,2.144,0,0,0,0,0,0,0c4.177,6.155,11.2,12.767,11.156,14.1" transform="translate(-362.605 -151.902)" fill="#e34a30"/>
          </g>
        </g>
      </g>
      <g id="Grupo_1205661" data-name="Grupo 1205661" transform="translate(151.906 26.57)" opacity="0.54">
        <g id="Grupo_1205660" data-name="Grupo 1205660">
          <g id="Grupo_1205659" data-name="Grupo 1205659" clip-path="url(#clip-path-4)">
            <path id="Trazado_1257637" data-name="Trazado 1257637" d="M264.357,156.856a8.941,8.941,0,0,1-2.571,5.8c-1.858,1.973-4.366,3.262-6.113,5.333a10.021,10.021,0,0,0-2.193,5c-.021.154-.035.311-.042.475l-.1.063c-.988.664-2.413,1.373-3.22.5a2.1,2.1,0,0,1-.343-1.729c.384-2.819,2.288-5.2,4.387-7.115s4.478-3.555,6.3-5.739a10.9,10.9,0,0,0,2.054-4.858c.185-.793.367-1.607.615-2.428.052-.178.108-.363.164-.552.1.367.206.73.311,1.1a14.4,14.4,0,0,1,.744,4.156" transform="translate(-249.737 -151.602)" fill="#e34a30"/>
          </g>
        </g>
      </g>
      <path id="Trazado_1257638" data-name="Trazado 1257638" d="M337.257,137.421v12.158a.167.167,0,0,1,0,.042,1.142,1.142,0,0,1-.524.783c-1.083.838-3.79,1.6-7.663,2.232-.36.056-.73.115-1.114.168q-1.8.267-3.87.489c-2.158.234-4.523.433-7.052.59-.367.024-.74.045-1.118.066-2.071.122-4.247.217-6.5.276q-1.106.031-2.232.052-2.284.047-4.652.045h-.164c-.311,0-.622,0-.932,0-4.663-.014-9.1-.157-13.134-.4l-1.121-.073c-.625-.038-1.24-.084-1.844-.129-.07,0-.136-.01-.2-.014l-1.177-.094c-3.137-.265-5.942-.6-8.31-.978-.377-.063-.747-.122-1.1-.189-1.051-.189-2-.388-2.839-.6a10.1,10.1,0,0,1-3.831-1.54,1.008,1.008,0,0,1-.405-.727V137.421Z" transform="translate(-103.175 -120.757)" fill="#f95f3e"/>
      <g id="Grupo_1205664" data-name="Grupo 1205664" transform="translate(211.615 16.664)" opacity="0.54">
        <g id="Grupo_1205663" data-name="Grupo 1205663">
          <g id="Grupo_1205662" data-name="Grupo 1205662" clip-path="url(#clip-path-5)">
            <path id="Trazado_1257639" data-name="Trazado 1257639" d="M357.683,137.421v12.158a.168.168,0,0,1,0,.042,1.142,1.142,0,0,1-.524.783c-1.5,1.163-6.123,2.183-12.648,2.888a19.472,19.472,0,0,0,2.774-1.491,8.455,8.455,0,0,0,3.074-3.148,4.219,4.219,0,0,0-.136-4.237c-1.065-1.488-3.1-1.823-4.918-2.033q-2.19-.251-4.376-.507c-1.285-.146-3.566.029-4.712-.545-3.119-1.551,1.981-2.494,3.158-2.819,1.271-.353,2.539-.712,3.8-1.093Z" transform="translate(-335.217 -137.421)" fill="#e34a30"/>
          </g>
        </g>
      </g>
      <g id="Grupo_1205667" data-name="Grupo 1205667" transform="translate(164.287 16.664)" opacity="0.54">
        <g id="Grupo_1205666" data-name="Grupo 1205666">
          <g id="Grupo_1205665" data-name="Grupo 1205665" clip-path="url(#clip-path-6)">
            <path id="Trazado_1257640" data-name="Trazado 1257640" d="M285.125,153.7l-1.177-.094a83.177,83.177,0,0,1-12.249-1.764,10.1,10.1,0,0,1-3.832-1.54,1.008,1.008,0,0,1-.405-.727V137.421H277.78c-1.621.831-3.154.842-4.471,2.392a6.952,6.952,0,0,0-1.065,7.066c1.264,2.962,4.436,4.642,7.533,5.533,1.757.5,3.574.835,5.348,1.292" transform="translate(-267.462 -137.421)" fill="#e34a30"/>
          </g>
        </g>
      </g>
      <g id="Grupo_1205670" data-name="Grupo 1205670" transform="translate(155.977 16.243)" opacity="0.52">
        <g id="Grupo_1205669" data-name="Grupo 1205669">
          <g id="Grupo_1205668" data-name="Grupo 1205668" clip-path="url(#clip-path-7)">
            <path id="Trazado_1257641" data-name="Trazado 1257641" d="M339.706,157.027c-.3-.342-.6-.688-.905-1.044a27.608,27.608,0,0,0-3.734.566,31.15,31.15,0,0,0-6.546,2.305c-.108-.22-.213-.44-.325-.657a50.981,50.981,0,0,1-2.717-5.743c-.017-.045-.031-.091-.048-.136a27.758,27.758,0,0,1-1.22-4.95,67.325,67.325,0,0,0,7.133-2.1q1.175-.419,2.326-.891v-1.2q-1.336.555-2.7,1.041a65.139,65.139,0,0,1-6.913,2.04c-.01-.1-.024-.2-.038-.3-.122-1.076-.2-2.155-.234-3.238-.049-1.373-.034-2.745.01-4.118a.557.557,0,0,0-.608-.5.569.569,0,0,0-.5.608c-.049,1.454-.056,2.914.007,4.37q.068,1.724.276,3.43a82.556,82.556,0,0,1-11.034,1.639c-.192-.689-.38-1.377-.552-2.068-.066-.269-.129-.541-.185-.814a15.944,15.944,0,0,1-.22-6.773c.15-.7-.947-.887-1.1-.189a16.635,16.635,0,0,0,.2,7.028c.207.974.461,1.943.731,2.907-.528.035-1.055.073-1.583.1-3.751.206-7.51.213-11.264.1-.084-.625-.156-1.25-.213-1.88-.017-.213-.031-.426-.045-.643a15.242,15.242,0,0,1,.9-6.783c.269-.664-.744-1.132-1.013-.465a17.093,17.093,0,0,0-.937,8.03c.05.566.115,1.136.193,1.7-1.167-.042-2.334-.1-3.5-.161-3-.164-6.011-.36-9.012-.622,0-.429,0-.863.017-1.292.007-.217.017-.43.028-.646a22.668,22.668,0,0,1,1.443-7.038c.258-.664-.752-1.132-1.014-.465a23.712,23.712,0,0,0-1.515,7.388q-.059.974-.06,1.957c-1.76-.168-3.517-.356-5.271-.584q-2.766-.356-5.508-.891c0-.147-.006-.3-.01-.444-.02-.73-.045-1.463-.049-2.2a17.8,17.8,0,0,1,.7-5.777.58.58,0,0,0,0-.377c-.154-.44-.831-.632-1.009-.091a.748.748,0,0,0-.027.091,18.733,18.733,0,0,0-.74,5.8c0,.922.03,1.851.055,2.777-.6-.126-1.2-.258-1.795-.405-1.146-.279-2.33-.566-3.475-.95a15.621,15.621,0,0,1-2.232-.929v1.226a17.394,17.394,0,0,0,1.76.688c.759.258,1.53.479,2.3.688,1.146.311,2.3.58,3.465.825a24.071,24.071,0,0,1-.3,4.624c-.041.231-.091.454-.143.678a21.508,21.508,0,0,1-3.821,7.314,21.791,21.791,0,0,0-9.357-.454c-.626.524-1.251,1.051-1.851,1.6-.119.108-.238.22-.357.335a12.479,12.479,0,0,1,3.455-1.013,19.98,19.98,0,0,1,7.419.492c-.773,1.076-1.537,2.155-2.2,3.273a19.369,19.369,0,0,0-1.22,2.358,11.341,11.341,0,0,1,1.2-.014,34.709,34.709,0,0,1,3.381-5.334c.209.056.422.112.632.171,3.3.9,6.521,2.113,9.9,2.717a21.211,21.211,0,0,0,5,.339c.454-.028.905-.08,1.352-.147.017.761.017,1.523-.007,2.284-.031.884-.1,1.767-.219,2.644.262-.15.524-.307.782-.468h0c.132-.08.268-.164.4-.248a35.585,35.585,0,0,0,.14-4.412c.81-.175,1.61-.395,2.4-.639,1.552-.479,3.078-1.03,4.65-1.442a28.575,28.575,0,0,1,4.89-.821c.374-.028.744-.049,1.118-.063q.1,1.8.094,3.605-.005.812-.042,1.624c.363.129.726.265,1.086.412a55.534,55.534,0,0,0-.028-5.655,23.162,23.162,0,0,1,7.447,1.212,59.058,59.058,0,0,0,6.825,2.379c.029.321.057.643.081.964q.2,2.808.181,5.63c.207-.021.413-.045.623-.077.16-.024.321-.052.481-.087q.01-3.128-.234-6.245c.311.036.622.064.94.071a17.659,17.659,0,0,0,8.289-2.355c1.208-.611,2.4-1.247,3.6-1.855a26.573,26.573,0,0,1,1.282,3.294q.131.436.251.87.545-.079,1.09-.1a30.152,30.152,0,0,0-1.607-4.559,29.656,29.656,0,0,1,3.675-1.516,27.947,27.947,0,0,1,7.045-1.317m-59.9,5.808a60.556,60.556,0,0,1-10.043-2.557c-.486-.143-.981-.283-1.484-.416.248-.353.5-.7.734-1.051A19.7,19.7,0,0,0,272,152.678c.017-.077.038-.15.054-.227a21.833,21.833,0,0,0,.437-5.274q1.483.287,2.972.52c2.585.4,5.187.692,7.793.93.025,1.128.091,2.256.182,3.377.045.555.1,1.111.151,1.662.3,3.036.7,6.071.845,9.12a17.366,17.366,0,0,1-4.624.049m9.957-1.519c-1.4.454-2.8.943-4.241,1.264q-.052-1.037-.133-2.071c-.182-2.256-.461-4.51-.685-6.769-.164-1.669-.3-3.342-.349-5.019,2.246.189,4.495.342,6.741.485q2.955.189,5.921.3c.08.5.168,1.009.255,1.509.189,1.041.384,2.082.566,3.122.2,1.139.381,2.281.514,3.434.08.685.143,1.373.2,2.061a32.587,32.587,0,0,0-8.785,1.683m23.824,1.771a39.46,39.46,0,0,1-4.558-1.652,25.948,25.948,0,0,0-9.371-1.823c-.021-.293-.038-.587-.066-.884-.143-1.537-.387-3.063-.657-4.586s-.569-3.066-.807-4.6a125.97,125.97,0,0,0,12.993-.22c.217.758.437,1.509.639,2.256.2.73.385,1.46.562,2.193a71.149,71.149,0,0,1,1.579,9.392c-.105-.024-.21-.045-.315-.073m12.673-3.1c-2.6,1.366-5.265,2.878-8.2,3.342a10.711,10.711,0,0,1-3.025.038q-.183-1.928-.471-3.852-.44-2.929-1.125-5.809c-.083-.356-.17-.712-.258-1.065-.287-1.142-.615-2.274-.94-3.405a82.828,82.828,0,0,0,9.965-1.418c.308-.063.611-.137.916-.2a30.1,30.1,0,0,0,.919,4.049c.1.325.207.646.321.964a68.667,68.667,0,0,0,3.126,6.727c-.412.206-.821.416-1.229.632" transform="translate(-255.566 -136.818)" fill="#fd9a8d"/>
          </g>
        </g>
      </g>
      <path id="Trazado_1257642" data-name="Trazado 1257642" d="M337.256,135.374c0,2.619-15.624,4.742-34.9,4.742s-34.9-2.123-34.9-4.742,15.625-4.742,34.9-4.742,34.9,2.123,34.9,4.742" transform="translate(-103.175 -118.71)" fill="#e34a30"/>
      <path id="Trazado_1257643" data-name="Trazado 1257643" d="M332.853,136.072c0,1.3-11.78,2.354-26.31,2.354s-26.309-1.054-26.309-2.354,11.779-2.354,26.309-2.354,26.31,1.054,26.31,2.354" transform="translate(-107.026 -119.641)" fill="#d03c29"/>
      <path id="Trazado_1257644" data-name="Trazado 1257644" d="M337.142,152.77a155.248,155.248,0,0,1-26.953,3.741,154.949,154.949,0,0,1-27.173-1.023q-7.582-.958-15.044-2.661c-.875-.2-1.108,1.171-.238,1.37a155.18,155.18,0,0,0,27.124,3.71,157.188,157.188,0,0,0,27.213-1.049q7.665-.97,15.205-2.7a.718.718,0,0,0,.625-.76.7.7,0,0,0-.759-.624" transform="translate(-103.092 -125.38)" fill="#fff8f1"/>
      <path id="Trazado_1257645" data-name="Trazado 1257645" d="M336.72,153.669c-7.538,5.483-17.207,7.054-26.231,8.28-9.7,1.318-19.775,1.645-29.226-1.31a37.554,37.554,0,0,1-13.143-7.067c-.684-.58-1.567.495-.884,1.074,7.133,6.051,16.454,8.887,25.668,9.51a84.351,84.351,0,0,0,15.853-.582,120.287,120.287,0,0,0,14.534-2.55,40.676,40.676,0,0,0,14.244-6.227.7.7,0,0,0-.815-1.127" transform="translate(-103.033 -125.576)" fill="#fff8f1"/>
      <path id="Trazado_1257646" data-name="Trazado 1257646" d="M339.085,196.847c-2.867,6.1-7.541,16.029-10.426,22.156-1.516,3.224-2.54,5.4-2.54,5.4-.189,6.186-46.413,6.525-51.782.346a2.645,2.645,0,0,1-.367-.59l-3.908-8.31c-2.442-5.19-5.53-11.75-7.88-16.748.96.238,1.931.447,2.909.622,7.967,1.436,16.158.685,24.192-.325,11.8-1.481,23.71-3.566,34.4-8.76a54.006,54.006,0,0,0,12.043-7.932l2.606,3.926a10.436,10.436,0,0,1,.747,10.217" transform="translate(-101.583 -134.409)" fill="#f09a2a"/>
      <path id="Trazado_1257647" data-name="Trazado 1257647" d="M288.72,214.075a6.139,6.139,0,0,1-6.132-6.132v-9.909a6.139,6.139,0,0,1,6.132-6.132h3.847a2.715,2.715,0,0,0,1.94-.841c2.523-2.566,6.927-4.1,11.781-4.1s9.257,1.532,11.78,4.1a2.719,2.719,0,0,0,1.941.841h3.847a6.139,6.139,0,0,1,6.132,6.132v9.909a6.139,6.139,0,0,1-6.132,6.132Z" transform="translate(-107.735 -135.693)" fill="#fff8f1"/>
      <path id="Trazado_1257648" data-name="Trazado 1257648" d="M324.76,212.884H289.624a4.04,4.04,0,0,1-4.036-4.035v-9.909a4.04,4.04,0,0,1,4.036-4.035h3.847a4.8,4.8,0,0,0,3.435-1.468c2.105-2.141,6.046-3.472,10.286-3.472s8.18,1.331,10.286,3.472a4.8,4.8,0,0,0,3.435,1.468h3.847a4.04,4.04,0,0,1,4.036,4.035v9.909a4.04,4.04,0,0,1-4.036,4.035M289.624,196.3a2.642,2.642,0,0,0-2.639,2.638v9.909a2.642,2.642,0,0,0,2.639,2.638H324.76a2.642,2.642,0,0,0,2.639-2.638v-9.909a2.642,2.642,0,0,0-2.639-2.638h-3.847a6.187,6.187,0,0,1-4.431-1.885c-1.852-1.884-5.411-3.055-9.29-3.055s-7.437,1.171-9.29,3.054a6.182,6.182,0,0,1-4.431,1.886Z" transform="translate(-108.64 -136.598)" fill="#fdd795"/>
      <path id="Trazado_1257649" data-name="Trazado 1257649" d="M310.693,197.774a2.159,2.159,0,0,1,.838-2.483,2.254,2.254,0,0,1,2.487.893,11.052,11.052,0,0,1,1.992,5.167,14.454,14.454,0,0,1,2.747-4.774,2.374,2.374,0,0,1,1.512-.826,1.921,1.921,0,0,1,1.7,2.192,4.981,4.981,0,0,1-1.511,2.695,4.826,4.826,0,0,1-2.53,1.722c-1.538.277-3.141-.888-4.511-1.445a4.6,4.6,0,0,1-2.723-3.141" transform="translate(-116.184 -138.163)" fill="#fda931"/>
      <path id="Trazado_1257650" data-name="Trazado 1257650" d="M320.872,208.029a4.929,4.929,0,0,1-2.681,4.074,10.02,10.02,0,0,1-4.065,1.34,12.042,12.042,0,0,1-1.4.081c-.213,0-.426-.006-.636-.019a10.977,10.977,0,0,1-3.129-.6c-2.6-.914-4.378-2.753-4.378-4.873,0-2.258,2.02-4.2,4.908-5.045a11.577,11.577,0,0,1,3.141-.451h.094a11.767,11.767,0,0,1,2.236.21,9.311,9.311,0,0,1,3.815,1.607,4.675,4.675,0,0,1,2.095,3.68" transform="translate(-114.367 -140.387)" fill="#fdd795"/>
      <path id="Trazado_1257651" data-name="Trazado 1257651" d="M309.475,207.619a1.556,1.556,0,1,1-1.556-1.556,1.556,1.556,0,0,1,1.556,1.556" transform="translate(-114.903 -141.451)" fill="#fff8f1"/>
      <path id="Trazado_1257652" data-name="Trazado 1257652" d="M309.139,207.874a.966.966,0,1,1-.966-.966.966.966,0,0,1,.966.966" transform="translate(-115.157 -141.706)" fill="#2c262a"/>
      <path id="Trazado_1257653" data-name="Trazado 1257653" d="M313.981,213.507a11.005,11.005,0,0,1-3.129-.6c1.347-3.223,1.9-6.715.53-9.918a11.61,11.61,0,0,1,3.141-.451c1.39,3.586.927,7.341-.542,10.974" transform="translate(-116.256 -140.387)" fill="#673f40"/>
      <path id="Trazado_1257654" data-name="Trazado 1257654" d="M322.311,212.194a10.02,10.02,0,0,1-4.065,1.34,12.241,12.241,0,0,0,.836-10.7,9.3,9.3,0,0,1,3.814,1.607,14.028,14.028,0,0,1-.585,7.754" transform="translate(-118.486 -140.477)" fill="#673f40"/>
      <path id="Trazado_1257655" data-name="Trazado 1257655" d="M332.059,233.308c-1.516,3.224-2.539,5.4-2.539,5.4-.189,6.185-46.414,6.524-51.782.346a2.619,2.619,0,0,1-.367-.59c-.423-.9-1.96-4.167-3.909-8.31,11.446,3.824,23.766,4.876,35.889,5a102.225,102.225,0,0,0,22.707-1.851" transform="translate(-104.984 -148.714)" fill="#da8219"/>
      <g id="Grupo_1205673" data-name="Grupo 1205673" transform="translate(163.067 49.856)" opacity="0.56">
        <g id="Grupo_1205672" data-name="Grupo 1205672">
          <g id="Grupo_1205671" data-name="Grupo 1205671" clip-path="url(#clip-path-8)">
            <path id="Trazado_1257656" data-name="Trazado 1257656" d="M360.019,198.782a192.4,192.4,0,0,1-8.455,18.14c-.758,1.427,1.521,2.466,2.274,1.048a192.338,192.338,0,0,0,8.455-18.14c.6-1.491-1.669-2.543-2.274-1.048" transform="translate(-291.552 -188.894)" fill="#fff8f1"/>
            <path id="Trazado_1257657" data-name="Trazado 1257657" d="M347.527,232.115l-1.512,3.121a1.253,1.253,0,0,0,2.274,1.048l1.512-3.122a1.252,1.252,0,0,0-2.274-1.048" transform="translate(-289.884 -198.952)" fill="#fff8f1"/>
            <path id="Trazado_1257658" data-name="Trazado 1257658" d="M269.644,185.449c-1.509,2.316-3.8,4.964-3.921,7.848-.126,3.053,1.536,6.345,2.554,9.153a1.253,1.253,0,0,0,2.338-.9c-.844-2.327-2.138-4.968-2.365-7.452-.235-2.569,2.01-5.042,3.327-7.063.871-1.336-1.054-2.94-1.934-1.59" transform="translate(-265.716 -184.939)" fill="#fff8f1"/>
          </g>
        </g>
      </g>
      <path id="Trazado_1257659" data-name="Trazado 1257659" d="M282.676,189.544c-1.61,0-1.357,2.492.242,2.492s1.357-2.492-.242-2.492" transform="translate(-107.433 -136.471)" fill="#fdd795"/>
      <path id="Trazado_1257660" data-name="Trazado 1257660" d="M302.343,181.614c-1.61,0-1.357,2.492.242,2.492s1.357-2.492-.242-2.492" transform="translate(-113.363 -134.08)" fill="#fdd795"/>
      <path id="Trazado_1257661" data-name="Trazado 1257661" d="M353.413,185.737c-1.61,0-1.356,2.492.242,2.492s1.357-2.492-.242-2.492" transform="translate(-128.759 -135.323)" fill="#fdd795"/>
      <path id="Trazado_1257662" data-name="Trazado 1257662" d="M122.761,256.967V205.5a7.091,7.091,0,0,0-3.094-5.928c-4.251-2.821-4.251-8.386-4.251-8.386v-7.68l-21.993-.61v-.057l-1.024.029-1.024-.029v.057l-21.993.61v7.68s0,5.564-4.251,8.386a7.091,7.091,0,0,0-3.094,5.928v51.464a11.7,11.7,0,0,0,.938,5.4c1.544,3.156,4.628,4.225,7.889,4.718,4.285.647,8.632,1.034,12.956,1.3q7.281.44,14.582.168c4.746-.185,9.45-.945,14.19-1.233,2.826-.172,5.694-.722,7.751-2.83,2.04-2.091,2.419-4.746,2.419-7.515" transform="translate(-41.243 -134.45)" fill="#d3e8fd"/>
      <g id="Grupo_1205676" data-name="Grupo 1205676" transform="translate(22.315 50.76)" opacity="0.44">
        <g id="Grupo_1205675" data-name="Grupo 1205675">
          <g id="Grupo_1205674" data-name="Grupo 1205674" clip-path="url(#clip-path-9)">
            <path id="Trazado_1257663" data-name="Trazado 1257663" d="M121.9,256.643V207.758a6.735,6.735,0,0,0-2.939-5.63c-4.038-2.68-4.038-7.966-4.038-7.966v-7.295l-20.891-.58v-.054l-.973.027-.972-.027v.054l-20.891.58v7.295s0,5.286-4.038,7.966a6.735,6.735,0,0,0-2.939,5.63v48.885a11.114,11.114,0,0,0,.891,5.126c1.467,3,4.4,4.014,7.494,4.481,4.07.615,8.2.982,12.307,1.231q6.915.418,13.851.159c4.508-.175,8.977-.9,13.479-1.171,2.684-.163,5.409-.686,7.363-2.689,1.938-1.986,2.3-4.508,2.3-7.138" transform="translate(-64.215 -186.233)" fill="#fff"/>
          </g>
        </g>
      </g>
      <path id="Trazado_1257664" data-name="Trazado 1257664" d="M121.476,217.417l-.782,48.309a8.614,8.614,0,0,1-6.824,8.288,96.156,96.156,0,0,1-40.206,0,8.62,8.62,0,0,1-6.832-8.29l0-.28-.358-22.184-.42-25.845Z" transform="translate(-42.453 -144.874)" fill="#fda931"/>
      <g id="Grupo_1205679" data-name="Grupo 1205679" transform="translate(24.374 72.543)" opacity="0.56">
        <g id="Grupo_1205678" data-name="Grupo 1205678">
          <g id="Grupo_1205677" data-name="Grupo 1205677" clip-path="url(#clip-path-10)">
            <path id="Trazado_1257665" data-name="Trazado 1257665" d="M121.812,217.417l-.782,48.309a8.614,8.614,0,0,1-6.824,8.288,96.156,96.156,0,0,1-40.206,0,8.62,8.62,0,0,1-6.832-8.29l0-.28c7.4,2.086,15.662,1.563,23.279-.14,4.676-1.047,9.366-2.547,13.178-5.446a20.922,20.922,0,0,0,5.741-6.718,32.549,32.549,0,0,0,3.181-10.715c1.283-8.64-.42-16.548-.549-25.01Z" transform="translate(-67.163 -217.417)" fill="#e88d18"/>
          </g>
        </g>
      </g>
      <path id="Trazado_1257666" data-name="Trazado 1257666" d="M92.91,217.417a30.133,30.133,0,0,1-4.466,11.563,33.448,33.448,0,0,1-16,12.634,29.437,29.437,0,0,1-5.979,1.648l-.42-25.845Z" transform="translate(-42.453 -144.874)" fill="#fcb85f"/>
      <path id="Trazado_1257667" data-name="Trazado 1257667" d="M121.476,216.312c0,1.414-12.408,2.56-27.714,2.56s-27.713-1.146-27.713-2.56,12.408-2.56,27.713-2.56,27.714,1.146,27.714,2.56" transform="translate(-42.453 -143.769)" fill="#e88d18"/>
      <path id="Trazado_1257668" data-name="Trazado 1257668" d="M103.734,293.48a1.054,1.054,0,0,0-.061-.48l-.129-.238a1.054,1.054,0,0,0-.409-.337,2.456,2.456,0,0,0-.284-.093l-.014,0-.28-.01h-.008a.766.766,0,0,0-.407.133.777.777,0,0,0-.326.257l-.008.01c-.019.022-.135.207-.147.234a1.8,1.8,0,0,0-.09.281,1.308,1.308,0,0,0-.019.337,1.167,1.167,0,0,0,.071.33.931.931,0,0,0,.242.377.775.775,0,0,0,.331.249,2.306,2.306,0,0,0,.265.084l.012,0a1.114,1.114,0,0,0,.571-.056,1.779,1.779,0,0,0,.264-.141,1.169,1.169,0,0,0,.417-.668.793.793,0,0,0,.01-.272" transform="translate(-53.155 -167.456)" fill="#e88d18"/>
      <path id="Trazado_1257669" data-name="Trazado 1257669" d="M117.6,286.233c-1.791,0-1.51,2.772.27,2.772s1.509-2.772-.27-2.772" transform="translate(-57.629 -165.621)" fill="#e88d18"/>
      <path id="Trazado_1257670" data-name="Trazado 1257670" d="M129.91,289.013c-1.791,0-1.509,2.772.27,2.772s1.51-2.772-.27-2.772" transform="translate(-61.34 -166.459)" fill="#e88d18"/>
      <path id="Trazado_1257671" data-name="Trazado 1257671" d="M81.069,275.909c-1.791,0-1.509,2.772.27,2.772s1.51-2.772-.27-2.772" transform="translate(-46.616 -162.508)" fill="#e88d18"/>
      <path id="Trazado_1257672" data-name="Trazado 1257672" d="M74.716,262.409c-1.792,0-1.509,2.772.27,2.772s1.509-2.772-.27-2.772" transform="translate(-44.7 -158.438)" fill="#e88d18"/>
      <path id="Trazado_1257673" data-name="Trazado 1257673" d="M119.586,236.2c-1.791,0-1.509,2.772.27,2.772s1.509-2.772-.27-2.772" transform="translate(-58.228 -150.537)" fill="#e88d18"/>
      <path id="Trazado_1257674" data-name="Trazado 1257674" d="M86.231,232.628c-1.791,0-1.509,2.772.27,2.772s1.509-2.772-.27-2.772" transform="translate(-48.172 -149.46)" fill="#e88d18"/>
      <path id="Trazado_1257675" data-name="Trazado 1257675" d="M115.218,229.054c-1.791,0-1.509,2.772.27,2.772s1.509-2.772-.27-2.772" transform="translate(-56.911 -148.383)" fill="#e88d18"/>
      <path id="Trazado_1257676" data-name="Trazado 1257676" d="M136.07,258.042c-1.791,0-1.509,2.772.27,2.772s1.509-2.772-.27-2.772" transform="translate(-63.198 -157.122)" fill="#e88d18"/>
      <g id="Grupo_1205682" data-name="Grupo 1205682" transform="translate(27.61 61.186)" opacity="0.27">
        <g id="Grupo_1205681" data-name="Grupo 1205681">
          <g id="Grupo_1205680" data-name="Grupo 1205680" clip-path="url(#clip-path-11)">
            <path id="Trazado_1257677" data-name="Trazado 1257677" d="M83.75,201.158c-.587.051-1.174.1-1.76.129a11.384,11.384,0,0,0-.466,2.068,6.741,6.741,0,0,1-.657,2.541c-.8,1.338-2.439,1.731-3.772,2.459-2.478,1.355-4.051,4.1-4.735,6.936a32.832,32.832,0,0,0-.5,8.742q.574,17.824,1.15,35.648a9.9,9.9,0,0,0,.652,3.888,3.08,3.08,0,0,0,3.013,1.961.88.88,0,0,0,.587-.3,1.206,1.206,0,0,0,.155-.722q.067-20.191.133-40.382c.011-3.338.1-6.929,1.988-9.615,1.244-1.769,3.123-2.914,4.617-4.457a12.831,12.831,0,0,0,3.593-8.5c0-.13-.008-.257-.019-.383-1.329.033-2.655.05-3.98-.017" transform="translate(-71.796 -201.158)" fill="#fff"/>
          </g>
        </g>
      </g>
      <g id="Grupo_1205685" data-name="Grupo 1205685" transform="translate(60.21 79.219)" opacity="0.27">
        <g id="Grupo_1205684" data-name="Grupo 1205684">
          <g id="Grupo_1205683" data-name="Grupo 1205683" clip-path="url(#clip-path-12)">
            <path id="Trazado_1257678" data-name="Trazado 1257678" d="M134.353,259.9c.048,3.551-.05,7.436-2.339,10.151a10.1,10.1,0,0,1-3.313,2.469,15.208,15.208,0,0,1-10.235,1.108c3.079-3.592,8.775-4.486,11.1-8.608,1.16-2.061,1.224-4.542,1.211-6.907-.049-9.15-.8-18.326.1-27.432.138-1.4.454-3.016,1.7-3.683.915-.491.789,5.555.8,5.734q.266,4.523.464,9.05.4,9.054.517,18.117" transform="translate(-118.465 -226.974)" fill="#fff"/>
          </g>
        </g>
      </g>
      <path id="Trazado_1257679" data-name="Trazado 1257679" d="M120.077,177.047V183.3a1.29,1.29,0,0,1-1.287,1.285H68.983A1.289,1.289,0,0,1,67.7,183.3v-6.248a1.289,1.289,0,0,1,1.285-1.287H118.79a1.052,1.052,0,0,1,.142.008,1.29,1.29,0,0,1,1.146,1.279" transform="translate(-42.95 -132.315)" fill="#f95f3e"/>
      <path id="Trazado_1257680" data-name="Trazado 1257680" d="M120.077,177.047V183.3a1.29,1.29,0,0,1-1.287,1.285H68.983A1.289,1.289,0,0,1,67.7,183.3v-6.248a1.289,1.289,0,0,1,1.285-1.287h1.01a6.5,6.5,0,0,0-.083,4.339,3.5,3.5,0,0,0,2.949,1.806,12.21,12.21,0,0,0,1.839.121h.087q3.024,0,6.045,0,.955,0,1.911,0,3.141,0,6.285,0,.958,0,1.915,0,3.063,0,6.125,0,.955,0,1.908,0,3.03,0,6.062,0c.632,0,1.264,0,1.9,0q3.017,0,6.032,0c.634,0,1.266,0,1.9,0h.006c1.2,0,2.589-.085,3.326-1.041a3.651,3.651,0,0,0,.592-1.8,20.555,20.555,0,0,0,.14-3.38,1.29,1.29,0,0,1,1.146,1.279" transform="translate(-42.95 -132.315)" fill="#eb4c31"/>
      <path id="Trazado_1257681" data-name="Trazado 1257681" d="M77.129,184.581H75.207q-.112-1.338-.188-2.676-.171-3.069-.158-6.146h1.906q-.013,3.135.177,6.266.072,1.279.184,2.556" transform="translate(-45.109 -132.315)" fill="#fd9b8b"/>
      <path id="Trazado_1257682" data-name="Trazado 1257682" d="M88.527,184.581h-1.92q-.1-1.279-.173-2.56-.174-3.129-.145-6.262h1.9q-.029,3.132.157,6.259c.048.855.11,1.707.182,2.562" transform="translate(-48.554 -132.315)" fill="#fd9b8b"/>
      <path id="Trazado_1257683" data-name="Trazado 1257683" d="M100.154,184.581H98.237c-.048-.855-.1-1.712-.14-2.566q-.168-3.129-.313-6.255H99.7q.148,3.126.314,6.253.069,1.285.143,2.568" transform="translate(-52.02 -132.315)" fill="#fd9b8b"/>
      <path id="Trazado_1257684" data-name="Trazado 1257684" d="M111.6,184.581h-1.908q-.01-1.289-.04-2.573-.062-3.124-.221-6.248h1.915q.154,3.122.214,6.246.029,1.289.039,2.575" transform="translate(-55.53 -132.315)" fill="#fd9b8b"/>
      <path id="Trazado_1257685" data-name="Trazado 1257685" d="M122.973,182q0,1.289-.033,2.582h-1.9c.022-.859.03-1.72.03-2.58q0-3.121-.184-6.241h1.915q.171,3.118.166,6.239" transform="translate(-58.987 -132.315)" fill="#fd9b8b"/>
      <path id="Trazado_1257686" data-name="Trazado 1257686" d="M134.315,181.993q.006,1.292-.02,2.589h-1.9q.026-1.292.015-2.587-.013-3.118-.212-6.235h1.915q.188,3.115.2,6.233" transform="translate(-62.397 -132.315)" fill="#fd9b8b"/>
      <path id="Trazado_1257687" data-name="Trazado 1257687" d="M80.557,259.869a1.026,1.026,0,0,1-1.026-1l-.013-.543a.763.763,0,0,0-.733-.741h-.59a1.027,1.027,0,0,1-1.027-1.027V239.372a1.027,1.027,0,0,1,1.027-1.026h.594a.758.758,0,0,0,.728-.723l.025-.53a1.027,1.027,0,0,1,1.025-.979h33.115a1.027,1.027,0,0,1,1.025.979l.025.53a.757.757,0,0,0,.735.723l.641-.034a1.027,1.027,0,0,1,1.081,1.025v17.249a1.027,1.027,0,0,1-1.074,1.026l-.583-.027-.067,0a.755.755,0,0,0-.736.742l-.013.543a1.027,1.027,0,0,1-1.026,1Z" transform="translate(-45.805 -150.511)" fill="#fff8f1"/>
      <path id="Trazado_1257688" data-name="Trazado 1257688" d="M114.118,259.269H81.041l-.012-.515a1.826,1.826,0,0,0-1.793-1.772h-.557V239.856h.555a1.811,1.811,0,0,0,1.792-1.729l.024-.5h33.06l.024.5a1.81,1.81,0,0,0,1.811,1.729l.044,0,.6-.032v17.189l-.606-.029-.039,0a1.8,1.8,0,0,0-1.813,1.772Zm-32.094-1.055h31.109a2.845,2.845,0,0,1,2.4-2.259V240.883a2.864,2.864,0,0,1-2.386-2.2H82.012a2.863,2.863,0,0,1-2.278,2.185v15.108a2.9,2.9,0,0,1,2.29,2.239" transform="translate(-46.261 -150.966)" fill="#bddefd"/>
      <path id="Trazado_1257689" data-name="Trazado 1257689" d="M118.086,190.317c-7.564.668-15.138,1.477-22.734,1.631a122.533,122.533,0,0,1-22.87-2,.728.728,0,0,0-.588.138.7.7,0,0,0-1.013.14c-1.966,2.557,4.623,3.906,5.974,4.322a79.248,79.248,0,0,0,11.3,2.593q1.422.218,2.85.383a17.789,17.789,0,0,0-5.442,5.634c-2.068,3.126-3.887,6.707-4.144,10.511-.173,2.551,1.146,6.092,4.356,5.262a6.842,6.842,0,0,0,3.741-3.319,24.5,24.5,0,0,0,2.348-4.954c.025-.073.048-.147.073-.219q-1,9.6-2.235,19.176c-.129,1,1.415,1.269,1.544.268q1.413-10.914,2.508-21.865A171.068,171.068,0,0,0,98.177,228.6c.272.97,1.734.405,1.463-.561A167.689,167.689,0,0,1,94.893,204.9a50.612,50.612,0,0,0,2.212,5.419c1.468,3.048,3.472,6.57,7.191,7.024,3.409.416,7.2-1.94,6.222-5.731-.853-3.31-3.437-6.463-5.835-8.8a26.183,26.183,0,0,0-6.791-4.781q.712.021,1.424.031a44.317,44.317,0,0,0,11.155-.9,13.239,13.239,0,0,0,8.4-5.729c.321-.529-.249-1.155-.788-1.108M87.72,215.508c-.771,1.06-2.385,2.712-3.768,1.618-1.016-.8-1.072-2.482-.944-3.654a21.2,21.2,0,0,1,3.56-9c1.547-2.4,3.422-4.767,6.02-6,.022.234.045.468.068.7-.689,5.619-1.561,11.7-4.936,16.341m19.855-6.553c.777,1.3,1.932,3.091,1.444,4.661-.535,1.72-2.861,2.374-4.454,2.178-3.384-.416-5.074-4.018-6.334-6.76a65.267,65.267,0,0,1-3.592-10.37l.027-.308a25,25,0,0,1,12.909,10.6m.608-12.934a59.5,59.5,0,0,1-12.471.348,79.058,79.058,0,0,1-12.091-1.663q-2.985-.648-5.912-1.526-1.561-.468-3.1-1.007c-.49-.171-.988-.337-1.47-.53a122.69,122.69,0,0,0,21.935,1.872c7.163-.12,14.308-.839,21.441-1.484-2.082,2.361-5.258,3.516-8.332,3.99" transform="translate(-43.8 -136.588)" fill="#77a7e4"/>
      <path id="Trazado_1257690" data-name="Trazado 1257690" d="M242.177,225.366l-5.819,33.453a14.228,14.228,0,0,1-10.27,11.292,112.338,112.338,0,0,1-29.362,4.014,121.915,121.915,0,0,1-31.57-4.14,14.229,14.229,0,0,1-10.4-11.322l-5.789-33.3Z" transform="translate(-67.452 -147.271)" fill="#77a7e4"/>
      <path id="Trazado_1257691" data-name="Trazado 1257691" d="M255.414,225.366l-5.819,33.453a14.228,14.228,0,0,1-10.27,11.292,112.338,112.338,0,0,1-29.362,4.014c1.489-.272,2.973-.579,4.452-.909a41.882,41.882,0,0,0,11.122-3.824,18.18,18.18,0,0,0,8.081-8.3,27.776,27.776,0,0,0,1.761-8.938,33.37,33.37,0,0,0-.024-8.334,11.6,11.6,0,0,0-3.853-7.21,16.14,16.14,0,0,0-6.072-2.637,109.624,109.624,0,0,0-14.605-2.86c-4.369-.555-8.723-.745-13.116-.876-3.289-.1-7.1-1.639-3.143-4.471.19-.136.379-.268.574-.4Z" transform="translate(-80.689 -147.271)" fill="#6a9ae3"/>
      <path id="Trazado_1257692" data-name="Trazado 1257692" d="M242.178,222.454c0,1.289-2.17,2.5-5.974,3.551-8.008,2.209-23.275,3.7-40.784,3.7s-32.636-1.562-40.551-3.819c-3.761-1.07-5.9-2.3-5.9-3.586,0-4.009,20.624-7.1,46.448-7.1s46.759,3.245,46.759,7.249" transform="translate(-67.452 -144.207)" fill="#77a7e4"/>
      <path id="Trazado_1257693" data-name="Trazado 1257693" d="M241.476,223.233c0,1.255-2.112,2.434-5.816,3.458-7.8,2.15-22.658,3.6-39.7,3.6s-31.77-1.52-39.475-3.718c-3.661-1.042-5.74-2.235-5.74-3.49,0-3.9,20.077-6.91,45.216-6.91s45.52,3.159,45.52,7.057" transform="translate(-67.986 -144.5)" fill="#5e82cd"/>
      <g id="Grupo_1205689" data-name="Grupo 1205689" transform="translate(82.754 23.357)">
        <g id="Grupo_1205688" data-name="Grupo 1205688" clip-path="url(#clip-path-13)">
          <path id="Trazado_1257694" data-name="Trazado 1257694" d="M240.392,228.272a5.862,5.862,0,0,1-2.3,2.483,39.573,39.573,0,0,1-14.957,5.912c-12.068,2.394-24.413,1.183-36.607-.028-2.584-.26-5.18-.52-7.768-.845a76.006,76.006,0,0,1-16.517-3.647c-2.682-.97-7.99-2.089-8.325-5.736-.342-3.721,2.74-8.212,5.215-9.92,1.514-1.044,3.226-1.619,4.74-2.663,3.635-2.52,6.153-7.731,9.819-9.489a5.8,5.8,0,0,1,2.32-.594c2.611-.1,5.028,1.773,7.636,1.931,3.359.2,6.278-2.385,9.438-3.866a11.742,11.742,0,0,1,1.849-.7,9.517,9.517,0,0,1,9.508,2.96c.175.19.346.39.51.594,1.65,2.028,2.856,4.593,4.775,6.245,4.666,4,11.216,1.113,16.852,2.46,4.012.956,7.4,4.042,10.613,7.071,2.078,1.959,4.378,5.007,3.2,7.837" transform="translate(-151.69 -163.218)" fill="#fff8f1"/>
          <path id="Trazado_1257695" data-name="Trazado 1257695" d="M192.343,209.9c-2.662,0-4.76-2.585-7-3.9a16.274,16.274,0,0,0-3.106-1.22,5.812,5.812,0,0,1,2.319-.594c2.612-.1,5.029,1.773,7.636,1.93,3.358.2,6.278-2.385,9.438-3.865-1,1.271-1.919,2.649-2.939,3.9-1.7,2.079-3.915,3.889-6.347,3.754" transform="translate(-160.235 -163.659)" fill="#f5e7d8"/>
          <path id="Trazado_1257696" data-name="Trazado 1257696" d="M251.125,229.943a5.862,5.862,0,0,1-2.3,2.483,39.573,39.573,0,0,1-14.957,5.912c-12.068,2.394-24.413,1.183-36.607-.028-2.584-.26-5.18-.52-7.768-.844,3.358-6.176,8.881-10.691,14.971-11.99,8.254-1.768,16.743,2.037,25.068.826,2.49-.362,5.421-1.809,5.674-4.788a5.147,5.147,0,0,0-3.927-5.178c-2.1-.5-4.257.158-6.379.52s-4.475.357-6.172-1.206c-2.23-2.056-2.464-5.865-3.043-9.318,1.65,2.028,2.856,4.593,4.775,6.245,4.666,4,11.216,1.113,16.852,2.46,4.012.956,7.4,4.042,10.613,7.071,2.078,1.959,4.378,5.007,3.2,7.837" transform="translate(-162.423 -164.889)" fill="#f5e7d8"/>
        </g>
      </g>
      <path id="Trazado_1257698" data-name="Trazado 1257698" d="M154.361,238.318c-.314-1.553-.33-3.663,1.174-4.159a3.286,3.286,0,0,1,2.247.361c3.758,1.588,16.772,3.619,19.179,4.441.63.216,1.341.689,1.245,1.347-.081.553-.689.847-1.225,1.007-3.611,1.081-7.486.455-11.243.735a7.136,7.136,0,0,0-3,.741c-2.734,1.538-2.88,5.351-2.679,8.484.214,3.34,1,7.154.673,10.479-.445,4.487-1.984-1.765-2.294-3.291q-2.04-10.072-4.081-20.145" transform="translate(-69.026 -149.895)" fill="#83b9ed"/>
      <path id="Trazado_1257699" data-name="Trazado 1257699" d="M321.158,268.259v.043a25.521,25.521,0,0,1-.941,6.377c-.177.643-.383,1.279-.614,1.907a31.355,31.355,0,0,1-8.485,12.358c-.791.729-1.627,1.434-2.5,2.1-7.761,6-18.477,9.734-30.291,9.734a50.409,50.409,0,0,1-28.032-8.152,39.794,39.794,0,0,1-3.623-2.745q-1.188-1.006-2.26-2.082a31.323,31.323,0,0,1-7.146-10.738c-.245-.62-.461-1.252-.653-1.888A25.383,25.383,0,0,1,235.5,268.5v0c0-.073-.009-.147-.009-.221-.01-.2.057-.008.057-.205,0-.14,0-.283.01-.423,1.545-3.7,20.094-6.625,42.744-6.625.538,0,1.07,0,1.6.008.254,0,.513,0,.768,0,.662,0,1.324.016,1.978.027s1.3.023,1.953.039q2.649.064,5.178.182c.528.027,1.051.051,1.57.078,4.6.245,8.864.613,12.64,1.086.264.031.528.066.787.1.168.023.337.043.5.066l.677.093c.288.039.571.082.849.124.216.031.427.062.638.1l.523.082c.518.082,1.023.167,1.512.252.163.031.326.058.485.089.283.051.556.1.83.155q.82.157,1.584.326a.158.158,0,0,1,.043.008c.24.054.475.1.706.159s.48.112.715.17l.691.175c.226.058.446.12.657.178s.423.12.629.182c.235.07.456.14.677.213.657.214,1.248.434,1.776.659.154.066.3.131.446.2s.278.132.408.2.259.135.374.205.221.128.321.194c0,0,.015.008.02.012a4.38,4.38,0,0,1,.441.322,3.615,3.615,0,0,1,.365.337c.052.058.105.116.149.174a2.31,2.31,0,0,1,.144.205,1.562,1.562,0,0,1,.149.314c0,.108,0,.221,0,.33,0,.147.057.081.062.186" transform="translate(-93.538 -158.021)" fill="#fda931"/>
      <path id="Trazado_1257700" data-name="Trazado 1257700" d="M321.143,268.156a1.163,1.163,0,0,1-.077.418c-1.3,3.745-19.95,6.714-42.779,6.714-22.636,0-41.175-2.923-42.744-6.621a1.315,1.315,0,0,1-.11-.512,1.18,1.18,0,0,1,.11-.5c1.545-3.7,20.094-6.625,42.744-6.625,22.844,0,41.512,2.973,42.784,6.718a1.23,1.23,0,0,1,.072.411" transform="translate(-93.519 -158.022)" fill="#fda931"/>
      <path id="Trazado_1257701" data-name="Trazado 1257701" d="M327.546,268.579c-.346,17.835-19.431,32.476-42.831,32.476a50.408,50.408,0,0,1-28.032-8.152,49.4,49.4,0,0,0,14.522,1.829,65.839,65.839,0,0,0,16.408-2.713c5.131-1.465,10.16-3.38,14.191-6.331s6.992-7.051,7.208-11.439c.182-3.76-1.651-7.462-4.492-10.443a23.826,23.826,0,0,0-2-1.861c14.065,1.074,24.042,3.372,24.959,6.074,0,.108,0,.221,0,.33,0,.166.072.061.062.228" transform="translate(-99.925 -158.299)" fill="#f49c28"/>
      <path id="Trazado_1257702" data-name="Trazado 1257702" d="M319.637,268.923a1.022,1.022,0,0,1-.072.392c-.446,1.271-3.071,2.446-7.271,3.423-5.672,1.326-14.214,2.295-24.148,2.663-2.9.109-5.912.167-9.007.167-13.715,0-25.842-1.12-33.166-2.83-4.1-.958-6.7-2.1-7.232-3.337a1.23,1.23,0,0,1-.105-.477,1.1,1.1,0,0,1,.105-.469c1.459-3.446,18.99-6.167,40.4-6.167,7.29,0,14.128.314,20.036.868,11.59,1.082,19.6,3.078,20.4,5.388a1.054,1.054,0,0,1,.067.38" transform="translate(-94.484 -158.401)" fill="#e0743b"/>
      <g id="Grupo_1205693" data-name="Grupo 1205693" transform="translate(144.151 85.313)">
        <g id="Grupo_1205692" data-name="Grupo 1205692" clip-path="url(#clip-path-14)">
          <path id="Trazado_1257703" data-name="Trazado 1257703" d="M316.165,268.1a79.372,79.372,0,0,1-18.989,4.649c-9.22,1.1-18.612.625-27.876-.21a123.283,123.283,0,0,1-17.937-2.668c-2.52-.613-6.079-1.253-8.148-2.633a1.561,1.561,0,0,1-.622-2.269,11.15,11.15,0,0,1,2.114-2.408,71.539,71.539,0,0,1,7.042-5.534c8.716-6.558,15.485-15.011,25.812-19.809a18.612,18.612,0,0,1,1.967-.8,8.77,8.77,0,0,1,3.215-.506,10.806,10.806,0,0,1,5.041,1.9,39.832,39.832,0,0,1,7.708,6.191c1.561,1.628,2.941,3.364,4.483,5.008,4.948,5.29,11.418,9.5,17.565,13.892.847.6,1.747,1.308,1.84,2.217.137,1.4-1.644,2.372-3.215,2.977" transform="translate(-239.751 -235.762)" fill="#fff8f1"/>
          <path id="Trazado_1257704" data-name="Trazado 1257704" d="M316.165,268.1a79.372,79.372,0,0,1-18.989,4.649c-9.22,1.1-18.612.625-27.876-.21a123.283,123.283,0,0,1-17.937-2.668c-2.52-.613-6.079-1.253-8.148-2.633a1.561,1.561,0,0,1-.622-2.269c8.447,2.158,17.521,2.352,26.4,2.083a83.3,83.3,0,0,0,18.289-2.119c2.663-.688,5.335-1.66,7.131-3.388,2.745-2.633,2.877-6.539,1.5-9.8s-4.033-6.037-6.528-8.824c-1.908-2.135-3.827-4.369-6.593-5.76a21.25,21.25,0,0,0-3.269-.747,8.77,8.77,0,0,1,3.215-.506,10.806,10.806,0,0,1,5.041,1.9,39.832,39.832,0,0,1,7.708,6.191c1.561,1.628,2.941,3.364,4.483,5.008,4.948,5.29,11.418,9.5,17.565,13.892.847.6,1.747,1.308,1.84,2.217.137,1.4-1.644,2.372-3.215,2.977" transform="translate(-239.751 -235.762)" fill="#f5e7d8"/>
          <path id="Trazado_1257705" data-name="Trazado 1257705" d="M256.331,272.512c-2,0-1.689,2.506.3,2.506s1.689-2.506-.3-2.506" transform="translate(-243.561 -246.797)" fill="#f5e7d8"/>
          <path id="Trazado_1257706" data-name="Trazado 1257706" d="M261.665,267.666c-2,0-1.689,2.506.3,2.506s1.689-2.506-.3-2.506" transform="translate(-245.169 -245.336)" fill="#f5e7d8"/>
          <path id="Trazado_1257707" data-name="Trazado 1257707" d="M269.765,273.1c-1.755,0-1.478,2.193.265,2.193s1.478-2.193-.265-2.193" transform="translate(-247.662 -246.973)" fill="#f5e7d8"/>
          <path id="Trazado_1257708" data-name="Trazado 1257708" d="M278.432,261.787c-1.755,0-1.478,2.193.265,2.193s1.478-2.193-.265-2.193" transform="translate(-250.275 -243.564)" fill="#f5e7d8"/>
          <path id="Trazado_1257709" data-name="Trazado 1257709" d="M289.543,247.247c-1.755,0-1.479,2.193.265,2.193s1.478-2.193-.265-2.193" transform="translate(-253.625 -239.18)" fill="#f5e7d8"/>
          <path id="Trazado_1257710" data-name="Trazado 1257710" d="M295.321,256.581c-1.755,0-1.478,2.193.265,2.193s1.478-2.193-.265-2.193" transform="translate(-255.367 -241.994)" fill="#f5e7d8"/>
        </g>
      </g>
      <path id="Trazado_1257712" data-name="Trazado 1257712" d="M320.7,280.571c-.177.643-.384,1.279-.614,1.907a78.423,78.423,0,0,1-12.372,3.21,178.094,178.094,0,0,1-20.29,2.338,172.626,172.626,0,0,1-20.809.159,118.1,118.1,0,0,1-20.458-2.849c-2.851-.674-5.663-1.457-8.408-2.38-.244-.62-.46-1.252-.652-1.888.734.26,1.478.5,2.217.74a93.68,93.68,0,0,0,10.644,2.76c13.145,2.621,26.855,2.768,40.269,1.706,10.251-.814,21.092-2.027,30.474-5.7" transform="translate(-94.02 -163.914)" fill="#fdcd8d"/>
      <path id="Trazado_1257713" data-name="Trazado 1257713" d="M314.966,300.5c-.791.729-1.627,1.434-2.5,2.1q-2.319.43-4.66.756a146.476,146.476,0,0,1-18.179,1.252c-6.171.082-12.362-.066-18.514-.481a154.5,154.5,0,0,1-20.593-2.69q-1.187-1.006-2.26-2.082,3.556.814,7.189,1.423a191.725,191.725,0,0,0,36.357,2.248,122.571,122.571,0,0,0,23.16-2.527" transform="translate(-97.386 -169.577)" fill="#fdcd8d"/>
      <path id="Trazado_1257714" data-name="Trazado 1257714" d="M198.091,316.311c-.041.193-.081.386-.122.579-3.189,15.082-21.449,26.812-43.935,27.756q-1.447.061-2.925.061c-23.816,0-43.529-12.086-46.86-27.817l-.122-.579c.974-1.95,15.914-3.575,35.81-4.021,3.585-.082,7.322-.122,11.171-.122,25.237,0,45.834,1.839,46.982,4.144" transform="translate(-53.933 -173.439)" fill="#bddefd"/>
      <path id="Trazado_1257715" data-name="Trazado 1257715" d="M198.12,316.514a.576.576,0,0,1-.173.376c-2.052,2.235-22.242,3.971-46.86,3.971s-44.808-1.737-46.859-3.971a.574.574,0,0,1-.173-.376.5.5,0,0,1,.051-.2c1.148-2.305,21.744-4.144,46.982-4.144s45.834,1.839,46.982,4.144a.5.5,0,0,1,.051.2" transform="translate(-53.911 -173.439)" fill="#77a7e4"/>
      <g id="Grupo_1205696" data-name="Grupo 1205696" transform="translate(85.219 138.728)" opacity="0.22">
        <g id="Grupo_1205695" data-name="Grupo 1205695">
          <g id="Grupo_1205694" data-name="Grupo 1205694" clip-path="url(#clip-path-15)">
            <path id="Trazado_1257716" data-name="Trazado 1257716" d="M213.208,316.311c-.041.193-.081.386-.122.579-3.189,15.082-21.449,26.812-43.935,27.756a40.237,40.237,0,0,0,7.871-4.154c3.118-2.122,6.175-5.535,5.261-9.181-.843-3.342-4.54-4.987-7.841-5.962-5.474-1.6-22.546-1.747-19.9-11.892a4.1,4.1,0,0,1,.508-1.168c3.585-.082,7.322-.122,11.171-.122,25.237,0,45.834,1.839,46.982,4.144" transform="translate(-154.269 -312.167)" fill="#77a7e4"/>
          </g>
        </g>
      </g>
      <g id="Grupo_1205700" data-name="Grupo 1205700" transform="translate(50.144 114.246)">
        <g id="Grupo_1205699" data-name="Grupo 1205699" clip-path="url(#clip-path-16)">
          <path id="Trazado_1257717" data-name="Trazado 1257717" d="M194.664,312.236a3.785,3.785,0,0,1-1.025,1.92,37.14,37.14,0,0,1-21.8,12.654c-6.327,1.127-12.817.579-19.2-.193-9.1-1.087-18.27-2.671-26.832-6.043a54.963,54.963,0,0,1-8.806-3.88,9.864,9.864,0,0,1-2.874-2.488c-2.671-3.727,1.818-7.17,4.591-9.415q7.846-6.353,15.681-12.705c4.143-3.351,8.358-6.754,13.294-8.775a20.564,20.564,0,0,1,11.335-1.432,14.143,14.143,0,0,1,4.153,1.412,27.373,27.373,0,0,1,5.342,4.042q12.156,10.861,24.313,21.743c.944.843,1.971,1.9,1.828,3.159" transform="translate(-106.845 -278.471)" fill="#fff8f1"/>
          <path id="Trazado_1257718" data-name="Trazado 1257718" d="M196.257,312.354a3.784,3.784,0,0,1-1.025,1.92,37.14,37.14,0,0,1-21.8,12.654c-6.327,1.127-12.817.579-19.2-.193-9.1-1.087-18.27-2.671-26.832-6.043a54.958,54.958,0,0,1-8.806-3.88c4.154-.427,8.46-.2,12.654-.224a103.617,103.617,0,0,0,17.448-1.574c5.515-.965,11.152-2.488,15.468-6.053,1.259-1.046,2.488-2.6,2.011-4.174a4.176,4.176,0,0,0-1.869-2.082,15.006,15.006,0,0,0-9.252-2.316c1.554-5.251,9.952-2.519,9.6-10.248-.153-3.128-2.244-5.585-4.032-8.145a14.144,14.144,0,0,1,4.153,1.412,27.371,27.371,0,0,1,5.342,4.042q12.156,10.861,24.313,21.744c.944.843,1.971,1.9,1.828,3.159" transform="translate(-108.438 -278.59)" fill="#f5e7d8"/>
          <path id="Trazado_1257719" data-name="Trazado 1257719" d="M133.893,315.4c-2.08,0-1.753,3.219.314,3.219s1.753-3.219-.314-3.219" transform="translate(-112.626 -288.659)" fill="#f5e7d8"/>
          <path id="Trazado_1257720" data-name="Trazado 1257720" d="M139.888,307.1c-2.08,0-1.753,3.22.314,3.22s1.753-3.22-.314-3.22" transform="translate(-114.434 -286.156)" fill="#f5e7d8"/>
          <path id="Trazado_1257721" data-name="Trazado 1257721" d="M147.013,315.051c-1.56,0-1.315,2.415.235,2.415s1.315-2.415-.235-2.415" transform="translate(-116.688 -288.555)" fill="#f5e7d8"/>
          <path id="Trazado_1257722" data-name="Trazado 1257722" d="M154.853,303.522c-1.56,0-1.315,2.415.235,2.415s1.315-2.415-.235-2.415" transform="translate(-119.051 -285.079)" fill="#f5e7d8"/>
          <path id="Trazado_1257723" data-name="Trazado 1257723" d="M165.921,289.687c-1.56,0-1.315,2.415.235,2.415s1.315-2.415-.235-2.415" transform="translate(-122.388 -280.908)" fill="#f5e7d8"/>
        </g>
      </g>
    </g>
    <path id="Trazado_1257725" data-name="Trazado 1257725" d="M209.347,1.11,42.332,135.99,1.082,439.064,116.661,682.11H302.034L417.612,439.064,376.362,135.99Z" transform="translate(-5303.348 -6609.11)" fill="none" stroke="#216c88" stroke-miterlimit="10" stroke-width="3" opacity="0.5"/>
    <g id="Grupo_1206650" data-name="Grupo 1206650" transform="translate(3646 1624.511)">
      <g id="Rectángulo_456267" data-name="Rectángulo 456267" transform="translate(-8786 -8270.511)" fill="#fff1e8" stroke="#feebde" stroke-width="2">
        <rect width="274" height="76" rx="16" stroke="none"/>
        <rect x="1" y="1" width="272" height="74" rx="15" fill="none"/>
      </g>
      <text id="Aportar_dulzor_a_un_producto." data-name="Aportar dulzor a un producto." transform="translate(-8760 -8243.511)" fill="#12263f" font-size="16" font-family="Roboto-Regular, Roboto" letter-spacing="0.003em"><tspan x="0" y="17">Aportar dulzor a un producto.</tspan></text>
    </g>
    <g id="Grupo_1206651" data-name="Grupo 1206651" transform="translate(3464 1715)">
      <g id="Rectángulo_456267-2" data-name="Rectángulo 456267" transform="translate(-8786 -8271)" fill="#fff1e8" stroke="#feebde" stroke-width="2">
        <rect width="274" height="76" rx="16" stroke="none"/>
        <rect x="1" y="1" width="272" height="74" rx="15" fill="none"/>
      </g>
      <text id="Neutralizar_el_sabor_astringente." data-name="Neutralizar el sabor astringente." transform="translate(-8760 -8255)" fill="#12263f" font-size="16" font-family="Roboto-Regular, Roboto" letter-spacing="0.003em"><tspan x="0" y="17">Neutralizar el sabor </tspan><tspan x="0" y="41">astringente.</tspan></text>
    </g>
    <g id="Grupo_1206652" data-name="Grupo 1206652" transform="translate(3646 1805)">
      <g id="Rectángulo_456267-3" data-name="Rectángulo 456267" transform="translate(-8786 -8271)" fill="#fff1e8" stroke="#feebde" stroke-width="2">
        <rect width="274" height="76" rx="16" stroke="none"/>
        <rect x="1" y="1" width="272" height="74" rx="15" fill="none"/>
      </g>
      <text id="Reducir_el_crecimiento_microbiano." data-name="Reducir el crecimiento microbiano." transform="translate(-8760 -8255)" fill="#12263f" font-size="16" font-family="Roboto-Regular, Roboto" letter-spacing="0.003em"><tspan x="0" y="17">Reducir el crecimiento </tspan><tspan x="0" y="41">microbiano.</tspan></text>
    </g>
    <g id="Grupo_1206653" data-name="Grupo 1206653" transform="translate(3464 2043)">
      <g id="Rectángulo_456267-4" data-name="Rectángulo 456267" transform="translate(-8786 -8271)" fill="#fff1e8" stroke="#feebde" stroke-width="2">
        <rect width="274" height="76" rx="16" stroke="none"/>
        <rect x="1" y="1" width="272" height="74" rx="15" fill="none"/>
      </g>
      <text id="Conservar_y_realzar_el_sabor_de_carnes_curadas." data-name="Conservar y realzar el sabor de carnes curadas." transform="translate(-8760 -8255)" fill="#12263f" font-size="16" font-family="Roboto-Regular, Roboto" letter-spacing="0.003em"><tspan x="0" y="17">Conservar y realzar el sabor de </tspan><tspan x="0" y="41">carnes curadas.</tspan></text>
    </g>
    <g id="Grupo_1206654" data-name="Grupo 1206654" transform="translate(3646 2130)">
      <g id="Rectángulo_456267-5" data-name="Rectángulo 456267" transform="translate(-8786 -8271)" fill="#fff1e8" stroke="#feebde" stroke-width="2">
        <rect width="274" height="76" rx="16" stroke="none"/>
        <rect x="1" y="1" width="272" height="74" rx="15" fill="none"/>
      </g>
      <text id="Conservar_y_realzar_el_sabor_de_carnes_curadas.-2" data-name="Conservar y realzar el sabor de carnes curadas." transform="translate(-8760 -8255)" fill="#12263f" font-size="16" font-family="Roboto-Regular, Roboto" letter-spacing="0.003em"><tspan x="0" y="17">Conservar y realzar el sabor de </tspan><tspan x="0" y="41">carnes curadas.</tspan></text>
    </g>
    <g id="Grupo_1206655" data-name="Grupo 1206655" transform="translate(3464 2217)">
      <g id="Rectángulo_456267-6" data-name="Rectángulo 456267" transform="translate(-8786 -8271)" fill="#fff1e8" stroke="#feebde" stroke-width="2">
        <rect width="274" height="76" rx="16" stroke="none"/>
        <rect x="1" y="1" width="272" height="74" rx="15" fill="none"/>
      </g>
      <text id="Fermentar_panes_bebidas_alcohólicas_y_vinagres." data-name="Fermentar panes, bebidas alcohólicas y vinagres." transform="translate(-8760 -8255)" fill="#12263f" font-size="16" font-family="Roboto-Regular, Roboto" letter-spacing="0.003em"><tspan x="0" y="17">Fermentar panes, bebidas </tspan><tspan x="0" y="41">alcohólicas y vinagres.</tspan></text>
    </g>
    <g id="Grupo_1206656" data-name="Grupo 1206656" transform="translate(3646 2306)">
      <g id="Rectángulo_456267-7" data-name="Rectángulo 456267" transform="translate(-8786 -8271)" fill="#fff1e8" stroke="#feebde" stroke-width="2">
        <rect width="274" height="76" rx="16" stroke="none"/>
        <rect x="1" y="1" width="272" height="74" rx="15" fill="none"/>
      </g>
      <text id="Dar_cuerpo_y_textura_a_jarabes_dulces_helados_y_panes." data-name="Dar cuerpo y textura a jarabes, dulces, helados y panes." transform="translate(-8760 -8255)" fill="#12263f" font-size="16" font-family="Roboto-Regular, Roboto" letter-spacing="0.003em"><tspan x="0" y="17">Dar cuerpo y textura a jarabes, </tspan><tspan x="0" y="41">dulces, helados y panes.</tspan></text>
    </g>
  </g>
</svg>
