<svg xmlns="http://www.w3.org/2000/svg" xmlns:xlink="http://www.w3.org/1999/xlink" width="75.645" height="79.922" viewBox="0 0 75.645 79.922"><defs><clipPath id="a"><rect width="75.645" height="79.922" fill="none"/></clipPath></defs><path d="M25.6,45h6.384V59.739h-6.8Z" transform="translate(9.822 17.548)" fill="#b8d0f3"/><path d="M16.463,8.937l-1.9,25.225H51.124L49.1,8.937Z" transform="translate(5.68 3.485)" fill="#b8d0f3"/><g clip-path="url(#a)"><path d="M55.773,50.038,52.4,11.954A13.131,13.131,0,0,0,39.181,0H28.636A13.131,13.131,0,0,0,15.419,11.954L12.044,50.038A13.405,13.405,0,0,0,25.4,64.215h3.375V74.64a5.343,5.343,0,0,0,10.686,0V64.215h3.375a13.156,13.156,0,0,0,12.8-9.869c0-.139,0-.139.14-.278a38.581,38.581,0,0,0,0-4.031M49.164,13.9l1.968,22.517H16.966l.563-6.95h16.45a1.807,1.807,0,1,0,0-3.614H17.809l1.124-12.232h30.23ZM15.7,50.316l.844-10.425H51.272l.844,10.425v1.807H15.559a8.467,8.467,0,0,0,.14-1.807M28.776,3.475H39.322a9.518,9.518,0,0,1,9.281,6.95H19.356a9.647,9.647,0,0,1,9.42-6.95m7.03,71.165a1.828,1.828,0,0,1-3.656,0V64.215h3.515Zm6.75-13.9H25.4a9.764,9.764,0,0,1-8.716-5.282H51.132a9.246,9.246,0,0,1-8.576,5.282" transform="translate(4.688)" fill="#4e8ae1"/><path d="M39.39,32.5H27.017a1.807,1.807,0,1,0,0,3.614H39.39a1.807,1.807,0,1,0,0-3.614" transform="translate(9.822 12.673)" fill="#4e8ae1"/><path d="M32.176,18.7a1.807,1.807,0,1,1-1.828,1.807A1.818,1.818,0,0,1,32.176,18.7" transform="translate(11.834 7.292)" fill="#4e8ae1"/><path d="M47.35,3.7a1.807,1.807,0,1,1-1.828,1.807A1.818,1.818,0,0,1,47.35,3.7" transform="translate(17.751 1.443)" fill="#4e8ae1"/><path d="M52.408,23.7a1.807,1.807,0,1,1-1.828,1.807A1.817,1.817,0,0,1,52.408,23.7" transform="translate(19.723 9.242)" fill="#4e8ae1"/><path d="M52.408,43.7a1.807,1.807,0,1,1-1.828,1.807A1.817,1.817,0,0,1,52.408,43.7" transform="translate(19.723 17.041)" fill="#4e8ae1"/><path d="M40.977,47.4a1.807,1.807,0,1,1-1.828,1.807A1.818,1.818,0,0,1,40.977,47.4" transform="translate(15.266 18.483)" fill="#4e8ae1"/><path d="M11.944,47.4a1.807,1.807,0,1,1-1.828,1.807A1.818,1.818,0,0,1,11.944,47.4" transform="translate(3.945 18.483)" fill="#4e8ae1"/><path d="M6.886,12.4a1.807,1.807,0,1,1-1.828,1.807A1.817,1.817,0,0,1,6.886,12.4" transform="translate(1.972 4.835)" fill="#4e8ae1"/><path d="M23.274,32.4a1.807,1.807,0,1,1-1.828,1.807A1.817,1.817,0,0,1,23.274,32.4" transform="translate(8.363 12.634)" fill="#4e8ae1"/><path d="M5.343,22.5a5.282,5.282,0,1,0,0,10.564,5.311,5.311,0,0,0,5.343-5.282A5.4,5.4,0,0,0,5.343,22.5m0,6.95a1.807,1.807,0,1,1,1.828-1.807A1.851,1.851,0,0,1,5.343,29.45" transform="translate(0 8.774)" fill="#4e8ae1"/><path d="M57.9,16.016a6.187,6.187,0,0,0-12.373,0,6.187,6.187,0,0,0,12.373,0m-6.187,2.641a2.654,2.654,0,0,1-2.671-2.641,2.672,2.672,0,0,1,5.343,0,2.654,2.654,0,0,1-2.671,2.641" transform="translate(17.751 3.86)" fill="#4e8ae1"/></g></svg>