<svg height="382.315" viewBox="0 0 1020 382.315" width="1020" xmlns="http://www.w3.org/2000/svg" xmlns:xlink="http://www.w3.org/1999/xlink"><clipPath id="a"><path d="m0 0h55.301v285.245h-55.301z"/></clipPath><clipPath id="b"><path d="m0 0h55.301v301.315h-55.301z"/></clipPath><clipPath id="c"><path d="m0 0h436.477v313.479h-436.477z"/></clipPath><g transform="translate(8786 8496.316)"><g fill="#fff1e8" stroke="#feebde" stroke-width="2"><rect height="76" rx="16" stroke="none" width="274" x="-8786" y="-8271"/><rect fill="none" height="74" rx="15" width="272" x="-8785" y="-8270"/></g><text fill="#12263f" font-family="Roboto-Regular, Roboto" font-size="16" letter-spacing=".003em" transform="translate(-8760 -8255)"><tspan x="0" y="17">E-3XX antioxidantes y</tspan><tspan x="0" y="41">reguladores de pH.</tspan></text></g><g transform="translate(9532 8496.316)"><g fill="#fff1e8" stroke="#feebde" stroke-width="2"><rect height="76" rx="16" stroke="none" width="274" x="-8786" y="-8271"/><rect fill="none" height="74" rx="15" width="272" x="-8785" y="-8270"/></g><text fill="#12263f" font-family="Roboto-Regular, Roboto" font-size="16" letter-spacing=".003em" transform="translate(-8760 -8255)"><tspan x="0" y="17">E-6XX a potenciadores de</tspan><tspan x="0" y="41">sabor (umami).</tspan></text></g><g transform="translate(9159 8577.316)"><g fill="#fff1e8" stroke="#feebde" stroke-width="2"><rect height="76" rx="16" stroke="none" width="274" x="-8786" y="-8271"/><rect fill="none" height="74" rx="15" width="272" x="-8785" y="-8270"/></g><text fill="#12263f" font-family="Roboto-Regular, Roboto" font-size="16" letter-spacing=".003em" transform="translate(-8768 -8255.5)"><tspan x="0" y="17">E-9XX a edulcorantes de alta</tspan><tspan x="0" y="41">intensidad y gases de envasado.</tspan></text></g><g transform="translate(8786 8396.316)"><g fill="#fff1e8" stroke="#feebde" stroke-width="2"><rect height="76" rx="16" stroke="none" width="274" x="-8786" y="-8271"/><rect fill="none" height="74" rx="15" width="272" x="-8785" y="-8270"/></g><text fill="#12263f" font-family="Roboto-Regular, Roboto" font-size="16" letter-spacing=".003em" transform="translate(-8760 -8255)"><tspan x="0" y="17">E-2XX conservantes</tspan><tspan x="0" y="41">(antimicrobianos).</tspan></text></g><g transform="translate(9532 8396.316)"><g fill="#fff1e8" stroke="#feebde" stroke-width="2"><rect height="76" rx="16" stroke="none" width="274" x="-8786" y="-8271.187"/><rect fill="none" height="74" rx="15" width="272" x="-8785" y="-8270.187"/></g><text fill="#12263f" font-family="Roboto-Regular, Roboto" font-size="16" letter-spacing=".003em" transform="translate(-8760 -8243.187)"><tspan x="0" y="17">E-5XX antiaglomerantes.</tspan></text></g><g transform="translate(8786 8296.316)"><g fill="#fff1e8" stroke="#feebde" stroke-width="2"><rect height="76" rx="16" stroke="none" width="274" x="-8786" y="-8271"/><rect fill="none" height="74" rx="15" width="272" x="-8785" y="-8270"/></g><text fill="#12263f" font-family="Roboto-Regular, Roboto" font-size="16" letter-spacing=".003em" transform="translate(-8760 -8255)"><tspan x="0" y="17">E-1XX colorantes (agentes</tspan><tspan x="0" y="41">cromáticos).</tspan></text></g><g transform="translate(9532 8296.316)"><g fill="#fff1e8" stroke="#feebde" stroke-width="2"><rect height="76" rx="16" stroke="none" width="274" x="-8786" y="-8271"/><rect fill="none" height="74" rx="15" width="272" x="-8785" y="-8270"/></g><text fill="#12263f" font-family="Roboto-Regular, Roboto" font-size="16" letter-spacing=".003em" transform="translate(-8766 -8255)"><tspan x="0" y="17">los E-4XX agentes de textura</tspan><tspan x="0" y="41">(emulsionantes y estabilizantes).</tspan></text></g><g clip-path="url(#a)" transform="translate(704.272 33.129)"><path d="m55.3 44.994v5.3a4.459 4.459 0 0 1 -4.461 4.459h-4.539v108.947a2.444 2.444 0 0 1 -2.444 2.444h-4.692v3.489a4.859 4.859 0 0 1 -4.859 4.858h-.778v14.209a2.48 2.48 0 0 1 -2.48 2.48h-1.085v94.061l-4.623-6.724v-87.333h-1.085a2.48 2.48 0 0 1 -2.48-2.48v-14.213h-.774a4.859 4.859 0 0 1 -4.858-4.858v-3.489h-4.694a2.444 2.444 0 0 1 -2.448-2.444v-108.942h-4.541a4.46 4.46 0 0 1 -4.459-4.458v-5.3h20.452v-35.234h-12.801a4.461 4.461 0 0 1 -4.461-4.466v-5.3h48.919v5.3a4.46 4.46 0 0 1 -4.459 4.466h-12.8v35.228z" fill="#b9dbf4"/><path d="m0 0h14.397v35.228h-14.397z" fill="#7bafdf" transform="translate(20.452 9.764)"/><path d="m0 0h28.688v44.992h-28.688z" fill="#98c2e8" transform="translate(13.306 54.757)"/><path d="m0 0h14.397v44.992h-14.397z" fill="#7bafdf" transform="translate(20.452 54.757)"/><path d="m8.281 114.66v-5.3h28.688v5.3a4.461 4.461 0 0 1 -4.461 4.461h-19.768a4.461 4.461 0 0 1 -4.459-4.461" fill="#a7d0f0" transform="translate(5.026 -9.606)"/><path d="m34.524 133.268h-23.8a2.444 2.444 0 0 1 -2.444-2.444v-53.516a4.46 4.46 0 0 0 4.459 4.459h19.769a4.46 4.46 0 0 0 4.461-4.459v53.515a2.444 2.444 0 0 1 -2.444 2.444" fill="#599fd5" transform="translate(5.026 27.746)"/><path d="m33.067 68.922v3.489a4.857 4.857 0 0 1 -4.858 4.858h-13.309a4.858 4.858 0 0 1 -4.858-4.858v-3.489z" fill="#9ccbee" transform="translate(6.095 97.221)"/><path d="m20.392 0h-4.624v87.338l4.623 6.724z" fill="#599fd5" transform="translate(9.571 191.184)"/><path d="m0 0h5.604v44.992h-5.604z" fill="#8dbce5" transform="translate(24.849 54.757)"/><path d="m0 0h5.604v35.228h-5.604z" fill="#8dbce5" transform="translate(24.849 9.764)"/><g fill="#367abd"><path d="m13.043 82.772h-7.443v1.739h7.44a.869.869 0 0 0 0-1.739" transform="translate(3.401 67.722)"/><path d="m13.043 88.838h-7.443v1.739h7.44a.869.869 0 0 0 0-1.739" transform="translate(3.401 51.908)"/><path d="m13.043 94.9h-7.443v1.737h7.44a.869.869 0 0 0 0-1.737" transform="translate(3.401 36.096)"/><path d="m13.043 100.97h-7.443v1.737h7.44a.869.869 0 0 0 0-1.737" transform="translate(3.401 20.282)"/><path d="m13.043 107.035h-7.443v1.739h7.44a.869.869 0 0 0 0-1.739" transform="translate(3.401 4.469)"/><path d="m13.043 113.1h-7.443v1.739h7.44a.869.869 0 0 0 0-1.739" transform="translate(3.401 -11.342)"/><path d="m13.043 119.167h-7.443v1.733h7.44a.869.869 0 0 0 0-1.737" transform="translate(3.401 -27.157)"/><path d="m13.043 125.232h-7.443v1.739h7.44a.869.869 0 0 0 0-1.739" transform="translate(3.401 -42.97)"/><path d="m13.043 131.3h-7.443v1.739h7.44a.869.869 0 0 0 0-1.739" transform="translate(3.401 -58.784)"/><path d="m13.043 137.364h-7.443v1.736h7.44a.869.869 0 0 0 0-1.739" transform="translate(3.401 -74.597)"/></g></g><g clip-path="url(#b)" transform="translate(261.353 17.129)"><path d="m55.3 240.252v-5.3a4.459 4.459 0 0 0 -4.461-4.459h-4.539v-108.948a2.444 2.444 0 0 0 -2.444-2.444h-4.692v-3.489a4.859 4.859 0 0 0 -4.859-4.858h-.778v-14.214a2.48 2.48 0 0 0 -2.48-2.48h-1.085v-94.06l-4.623 6.724v87.337h-1.085a2.48 2.48 0 0 0 -2.48 2.48v14.214h-.774a4.859 4.859 0 0 0 -4.858 4.858v3.487h-4.694a2.444 2.444 0 0 0 -2.448 2.445v108.943h-4.541a4.46 4.46 0 0 0 -4.459 4.459v5.3h20.452v51.3h-12.801a4.461 4.461 0 0 0 -4.461 4.463v5.3h48.919v-5.3a4.46 4.46 0 0 0 -4.459-4.461h-12.8v-51.3z" fill="#b9dbf4"/><path d="m0 0h14.397v51.298h-14.397z" fill="#7bafdf" transform="translate(20.452 240.253)"/><path d="m0 0h28.688v32.822h-28.688z" fill="#98c2e8" transform="translate(13.306 197.665)"/><path d="m0 0h14.397v32.822h-14.397z" fill="#7bafdf" transform="translate(20.452 197.665)"/><path d="m8.281 121.67v5.3h28.688v-5.3a4.461 4.461 0 0 0 -4.461-4.461h-19.768a4.461 4.461 0 0 0 -4.459 4.461" fill="#a7d0f0" transform="translate(5.026 71.142)"/><path d="m34.524 77.308h-23.8a2.444 2.444 0 0 0 -2.444 2.444v66.136a4.46 4.46 0 0 1 4.459-4.459h19.769a4.46 4.46 0 0 1 4.461 4.459v-66.136a2.444 2.444 0 0 0 -2.444-2.444" fill="#fef8a6" transform="translate(5.026 46.924)"/><path d="m33.067 77.269v-3.489a4.857 4.857 0 0 0 -4.858-4.858h-13.309a4.858 4.858 0 0 0 -4.858 4.858v3.489z" fill="#9ccbee" transform="translate(6.095 41.834)"/><path d="m20.392 94.062h-4.624v-87.339l4.624-6.723z" fill="#599fd5" transform="translate(9.571)"/><path d="m0 0h5.604v32.371h-5.604z" fill="#8dbce5" transform="translate(24.849 198.117)"/><path d="m0 0h5.604v51.298h-5.604z" fill="#8dbce5" transform="translate(24.849 240.253)"/><g fill="#367abd"><path d="m13.043 84.511h-7.443v-1.739h7.44a.869.869 0 0 1 0 1.739" transform="translate(3.401 50.24)"/><path d="m13.043 90.577h-7.443v-1.739h7.44a.869.869 0 0 1 0 1.739" transform="translate(3.401 53.922)"/><path d="m13.043 96.641h-7.443v-1.741h7.44a.869.869 0 0 1 0 1.737" transform="translate(3.401 57.604)"/><path d="m13.043 102.707h-7.443v-1.737h7.44a.869.869 0 0 1 0 1.737" transform="translate(3.401 61.286)"/><path d="m13.043 108.774h-7.443v-1.739h7.44a.869.869 0 0 1 0 1.739" transform="translate(3.401 64.967)"/><path d="m13.043 114.839h-7.443v-1.739h7.44a.869.869 0 0 1 0 1.739" transform="translate(3.401 68.648)"/><path d="m13.043 120.9h-7.443v-1.737h7.44a.869.869 0 0 1 0 1.737" transform="translate(3.401 72.331)"/><path d="m13.043 126.971h-7.443v-1.739h7.44a.869.869 0 0 1 0 1.739" transform="translate(3.401 76.012)"/><path d="m13.043 133.037h-7.443v-1.737h7.44a.869.869 0 0 1 0 1.739" transform="translate(3.401 79.694)"/><path d="m13.043 139.1h-7.443v-1.739h7.44a.869.869 0 0 1 0 1.739" transform="translate(3.401 83.376)"/></g></g><g clip-path="url(#c)" transform="translate(292.224)"><path d="m81.125 139.113a24.064 24.064 0 1 0 -5.84-33.529 24.063 24.063 0 0 0 5.84 33.529" fill="#91167a" transform="translate(126.382 169.984)"/><path d="m76.084 101.515a19.457 19.457 0 0 1 2.034-2.415 19.525 19.525 0 0 0 31.531 22.174 19.54 19.54 0 1 1 -33.565-19.761" fill="#601160" opacity=".5" transform="translate(129.275 176.651)"/><path d="m80.767 121.076a13.668 13.668 0 1 0 -3.317-19.043 13.671 13.671 0 0 0 3.317 19.043" fill="#975092" transform="translate(133.617 171.523)"/><path d="m80.045 109.973a7.187 7.187 0 1 0 -1.745-10.014 7.188 7.188 0 0 0 1.745 10.014" fill="#c288b4" opacity=".5" transform="translate(137.238 172.735)"/><path d="m76.145 125.037a24.064 24.064 0 1 0 -5.845-33.527 24.061 24.061 0 0 0 5.843 33.526" fill="#91167a" transform="translate(117.503 144.894)"/><path d="m71.1 87.442a19.488 19.488 0 0 1 2.034-2.415 19.524 19.524 0 0 0 31.535 22.173 19.538 19.538 0 1 1 -33.569-19.758" fill="#601160" opacity=".5" transform="translate(120.396 151.561)"/><path d="m75.786 107a13.668 13.668 0 1 0 -3.317-19.043 13.671 13.671 0 0 0 3.317 19.043" fill="#975092" transform="translate(124.738 146.434)"/><path d="m75.064 95.9a7.186 7.186 0 1 0 -1.745-10.011 7.186 7.186 0 0 0 1.745 10.011" fill="#c288b4" opacity=".5" transform="translate(128.359 147.646)"/><path d="m67.129 137.858a24.064 24.064 0 1 0 -5.843-33.526 24.061 24.061 0 0 0 5.843 33.526" fill="#91167a" transform="translate(101.432 167.75)"/><path d="m62.088 100.263a19.9 19.9 0 0 1 2.034-2.415 19.525 19.525 0 0 0 31.531 22.174 20.163 20.163 0 0 1 -1.583 2.732 19.549 19.549 0 0 1 -31.982-22.491" fill="#601160" opacity=".5" transform="translate(104.325 174.414)"/><path d="m66.77 119.824a13.669 13.669 0 1 0 -3.317-19.043 13.669 13.669 0 0 0 3.317 19.043" fill="#975092" transform="translate(108.667 169.286)"/><path d="m66.049 108.717a7.186 7.186 0 1 0 -1.749-10.012 7.186 7.186 0 0 0 1.747 10.011" fill="#c288b4" opacity=".5" transform="translate(112.287 170.499)"/><path d="m40.568 100.017a24.065 24.065 0 1 0 -5.843-33.526 24.063 24.063 0 0 0 5.843 33.526" fill="#91167a" transform="translate(54.087 100.297)"/><path d="m35.527 62.42a19.456 19.456 0 0 1 2.034-2.412 19.525 19.525 0 0 0 31.531 22.174 20.133 20.133 0 0 1 -1.583 2.73 19.549 19.549 0 0 1 -31.982-22.492" fill="#601160" transform="translate(56.98 106.964)"/><path d="m40.209 81.981a13.668 13.668 0 1 0 -3.317-19.043 13.671 13.671 0 0 0 3.317 19.043" fill="#975092" transform="translate(61.322 101.836)"/><path d="m39.486 70.875a7.186 7.186 0 1 0 -1.745-10.011 7.186 7.186 0 0 0 1.745 10.011" fill="#c288b4" opacity=".5" transform="translate(64.941 103.048)"/><path d="m31.551 112.839a24.063 24.063 0 1 0 -5.843-33.526 24.061 24.061 0 0 0 5.843 33.526" fill="#91167a" transform="translate(38.015 123.151)"/><path d="m26.509 75.244a19.7 19.7 0 0 1 2.034-2.415 19.525 19.525 0 0 0 31.531 22.171 19.539 19.539 0 1 1 -33.565-19.756" fill="#601160" opacity=".5" transform="translate(40.908 129.818)"/><path d="m31.193 94.8a13.668 13.668 0 1 0 -3.317-19.043 13.671 13.671 0 0 0 3.317 19.043" fill="#975092" transform="translate(45.251 124.689)"/><path d="m30.47 83.7a7.186 7.186 0 1 0 -1.745-10.011 7.187 7.187 0 0 0 1.745 10.011" fill="#c288b4" opacity=".5" transform="translate(48.87 125.903)"/><path d="m71.505 113.187a24.064 24.064 0 1 0 -5.84-33.529 24.063 24.063 0 0 0 5.84 33.529" fill="#91167a" transform="translate(109.235 123.771)"/><path d="m66.464 75.588a19.662 19.662 0 0 1 2.036-2.412 19.525 19.525 0 0 0 31.529 22.174 19.54 19.54 0 1 1 -33.565-19.762" fill="#601160" opacity=".5" transform="translate(112.128 130.436)"/><path d="m71.148 95.149a13.668 13.668 0 1 0 -3.32-19.043 13.671 13.671 0 0 0 3.32 19.043" fill="#975092" transform="translate(116.47 125.308)"/><path d="m70.425 84.046a7.187 7.187 0 1 0 -1.745-10.014 7.186 7.186 0 0 0 1.745 10.014" fill="#c288b4" transform="translate(120.09 126.52)"/><path d="m62.489 126.006a24.064 24.064 0 1 0 -5.84-33.526 24.062 24.062 0 0 0 5.84 33.526" fill="#91167a" transform="translate(93.164 146.623)"/><path d="m57.449 88.41a19.459 19.459 0 0 1 2.034-2.41 19.525 19.525 0 0 0 31.531 22.174 19.844 19.844 0 0 1 -1.583 2.73 19.549 19.549 0 0 1 -31.982-22.494" fill="#601160" opacity=".5" transform="translate(96.056 153.291)"/><path d="m62.131 107.971a13.668 13.668 0 1 0 -3.317-19.043 13.671 13.671 0 0 0 3.317 19.043" fill="#975092" transform="translate(100.398 148.161)"/><path d="m61.408 96.865a7.186 7.186 0 1 0 -1.745-10.011 7.186 7.186 0 0 0 1.745 10.011" fill="#c288b4" opacity=".5" transform="translate(104.02 149.375)"/><path d="m53.474 138.828a24.064 24.064 0 1 0 -5.844-33.528 24.061 24.061 0 0 0 5.843 33.526" fill="#91167a" transform="translate(77.092 169.476)"/><path d="m48.433 101.233a19.487 19.487 0 0 1 2.034-2.415 19.525 19.525 0 0 0 31.533 22.174 19.539 19.539 0 1 1 -33.565-19.759" fill="#601160" opacity=".5" transform="translate(79.985 176.143)"/><path d="m53.115 120.793a13.668 13.668 0 1 0 -3.315-19.044 13.671 13.671 0 0 0 3.317 19.043" fill="#975092" transform="translate(84.327 171.016)"/><path d="m52.4 109.686a7.185 7.185 0 1 0 -1.747-10.011 7.188 7.188 0 0 0 1.747 10.011" fill="#c288b4" opacity=".5" transform="translate(87.946 172.228)"/><path d="m53.717 100.677a24.064 24.064 0 1 0 -5.843-33.529 24.063 24.063 0 0 0 5.843 33.529" fill="#91167a" transform="translate(77.526 101.472)"/><path d="m48.675 63.079a19.911 19.911 0 0 1 2.034-2.412 19.525 19.525 0 0 0 31.531 22.174 19.54 19.54 0 1 1 -33.565-19.762" fill="#601160" opacity=".5" transform="translate(80.419 108.139)"/><path d="m53.359 82.639a13.668 13.668 0 1 0 -3.317-19.039 13.671 13.671 0 0 0 3.317 19.043" fill="#975092" transform="translate(84.762 103.009)"/><path d="m52.636 71.537a7.187 7.187 0 1 0 -1.745-10.014 7.189 7.189 0 0 0 1.745 10.014" fill="#c288b4" opacity=".5" transform="translate(88.381 104.223)"/><path d="m44.7 113.5a24.062 24.062 0 1 0 -5.843-33.526 24.063 24.063 0 0 0 5.843 33.526" fill="#91167a" transform="translate(61.455 124.325)"/><path d="m39.659 75.9a19.456 19.456 0 0 1 2.034-2.412 19.525 19.525 0 0 0 31.531 22.174 19.54 19.54 0 1 1 -33.565-19.762" fill="#601160" opacity=".5" transform="translate(64.348 130.992)"/><path d="m44.343 95.46a13.668 13.668 0 1 0 -3.317-19.043 13.671 13.671 0 0 0 3.317 19.043" fill="#975092" transform="translate(68.691 125.863)"/><path d="m43.62 84.355a7.186 7.186 0 1 0 -1.745-10.011 7.185 7.185 0 0 0 1.745 10.011" fill="#c288b4" opacity=".5" transform="translate(72.31 127.076)"/><path d="m35.685 126.317a24.063 24.063 0 1 0 -5.844-33.527 24.061 24.061 0 0 0 5.843 33.526" fill="#91167a" transform="translate(45.384 147.178)"/><path d="m30.643 88.721a19.456 19.456 0 0 1 2.034-2.412 19.524 19.524 0 0 0 31.531 22.171 19.539 19.539 0 1 1 -33.565-19.759" fill="#601160" opacity=".5" transform="translate(48.277 153.846)"/><path d="m35.326 108.282a13.668 13.668 0 1 0 -3.32-19.043 13.671 13.671 0 0 0 3.32 19.043" fill="#975092" transform="translate(52.618 148.718)"/><path d="m34.6 97.176a7.186 7.186 0 1 0 -1.745-10.011 7.186 7.186 0 0 0 1.745 10.011" fill="#c288b4" opacity=".5" transform="translate(56.238 149.929)"/><path d="m67.373 99.707a24.063 24.063 0 1 0 -5.843-33.529 24.066 24.066 0 0 0 5.843 33.529" fill="#91167a" transform="translate(101.867 99.743)"/><path d="m62.33 62.109a19.458 19.458 0 0 1 2.034-2.409 19.525 19.525 0 0 0 31.536 22.171 19.54 19.54 0 1 1 -33.57-19.762" fill="#601160" transform="translate(104.759 106.41)"/><path d="m67.014 81.669a13.668 13.668 0 1 0 -3.314-19.043 13.671 13.671 0 0 0 3.317 19.043" fill="#975092" transform="translate(109.102 101.28)"/><path d="m66.291 70.567a7.187 7.187 0 1 0 -1.745-10.014 7.188 7.188 0 0 0 1.745 10.014" fill="#c288b4" transform="translate(112.721 102.493)"/><path d="m58.357 112.525a24.063 24.063 0 1 0 -5.844-33.525 24.063 24.063 0 0 0 5.843 33.526" fill="#91167a" transform="translate(85.796 122.596)"/><path d="m53.314 74.93a19.458 19.458 0 0 1 2.034-2.412 19.526 19.526 0 0 0 31.531 22.174 19.54 19.54 0 1 1 -33.565-19.762" fill="#601160" opacity=".5" transform="translate(88.688 129.263)"/><path d="m58 94.492a13.668 13.668 0 1 0 -3.317-19.043 13.671 13.671 0 0 0 3.317 19.043" fill="#975092" transform="translate(93.031 124.135)"/><path d="m57.275 83.385a7.186 7.186 0 1 0 -1.745-10.011 7.186 7.186 0 0 0 1.745 10.011" fill="#c288b4" opacity=".5" transform="translate(96.65 125.347)"/><path d="m49.339 125.348a24.064 24.064 0 1 0 -5.839-33.527 24.06 24.06 0 0 0 5.84 33.526" fill="#91167a" transform="translate(69.724 145.451)"/><path d="m44.3 87.754a19.691 19.691 0 0 1 2.034-2.415 19.525 19.525 0 0 0 31.531 22.174 19.875 19.875 0 0 1 -1.583 2.732 19.549 19.549 0 0 1 -31.982-22.491" fill="#601160" opacity=".5" transform="translate(72.617 152.117)"/><path d="m48.981 107.314a13.669 13.669 0 1 0 -3.317-19.044 13.671 13.671 0 0 0 3.317 19.043" fill="#975092" transform="translate(76.958 146.987)"/><path d="m48.259 96.206a7.186 7.186 0 1 0 -1.745-10.011 7.186 7.186 0 0 0 1.745 10.011" fill="#c288b4" opacity=".5" transform="translate(80.579 148.2)"/><path d="m40.323 138.17a24.064 24.064 0 1 0 -5.84-33.526 24.063 24.063 0 0 0 5.84 33.526" fill="#91167a" transform="translate(53.653 168.303)"/><path d="m35.283 100.575a19.485 19.485 0 0 1 2.034-2.415 19.525 19.525 0 0 0 31.531 22.174 19.539 19.539 0 1 1 -33.565-19.759" fill="#601160" opacity=".5" transform="translate(56.545 174.97)"/><path d="m39.965 120.132a13.668 13.668 0 1 0 -3.317-19.043 13.668 13.668 0 0 0 3.317 19.043" fill="#975092" transform="translate(60.887 169.84)"/><path d="m39.243 109.029a7.186 7.186 0 1 0 -1.743-10.012 7.186 7.186 0 0 0 1.745 10.011" fill="#c288b4" opacity=".5" transform="translate(64.508 171.055)"/><g fill="#71a42d"><path d="m12.688 93.258a51.5 51.5 0 0 0 50.85-5.248c6.083-4.474 11.219-10.348 18-13.665-5.39-4.282-11.358-8.064-18.036-9.725-11.161-2.774-22.981.679-33.27 5.813s-19.706 11.948-30.232 16.584c4.391 1.722 8.4 4.282 12.688 6.241" transform="translate(0 113.431)"/><path d="m71.564 55.186a51.51 51.51 0 0 1 -21.339 46.454c-6.2 4.318-13.406 7.287-18.732 12.644-2.321-6.48-3.979-13.348-3.4-20.2.966-11.461 8.039-21.539 16.214-29.631s17.655-14.815 25.432-23.288c.22 4.708 1.352 9.327 1.825 14.021" transform="translate(49.87 73.377)"/><path d="m29.565 120.524a40.543 40.543 0 0 0 18.912-35.524c-.25-5.938-1.831-11.873-1.018-17.761-5.164 1.639-10.256 3.873-14.274 7.507-6.717 6.071-9.655 15.312-10.821 24.286s-.854 18.125-2.449 27.038c3.052-2.112 6.486-3.606 9.65-5.546" transform="translate(35.498 119.853)"/><path d="m83.43 83.83a40.537 40.537 0 0 1 -40.243-.075c-5.12-3.019-9.608-7.212-15.184-9.271 3.882-3.784 8.253-7.218 13.353-9.049 8.52-3.058 18.053-1.291 26.52 1.912s16.383 7.794 25 10.587c-3.3 1.7-6.238 4.021-9.441 5.9" transform="translate(49.915 113.813)"/></g><path d="m50.515 101.9c-4.922-2.474-8.005-7.465-10.582-12.335a162.541 162.541 0 0 1 -14.933-40.489 7.333 7.333 0 0 0 -5.6-.437c4.438 8.673 5.309 18.729 8.9 27.786 3.066 7.744 8.036 14.566 13.106 21.172a15.113 15.113 0 0 0 3.859 3.918 5.251 5.251 0 0 0 5.251.387" fill="#c6db69" transform="translate(34.588 86.056)"/><path d="m116.464 76.815c-31.709 30.477-30.132 78.414.345 110.126s78.311 35.185 110.023 4.708 29.027-77.353-1.45-109.066-77.209-36.245-108.918-5.768" fill="#b72125" transform="translate(166.327 100.211)"/><path d="m117.043 77.736c-27.881 26.8-26.492 68.945.3 96.825s68.857 30.939 96.739 4.139 25.524-68.01-1.272-95.891-67.887-31.868-95.768-5.072" fill="#ef6c5a" transform="translate(172.343 106.287)"/><path d="m149.055 76.09-20.649 20.345a6.09 6.09 0 0 0 2.655 10.209l27.947 7.708a6.087 6.087 0 0 0 7.51-7.4l-7.293-28.059a6.091 6.091 0 0 0 -10.17-2.8" fill="#e31f23" transform="translate(225.642 132.498)"/><path d="m139.035 80.72a9.555 9.555 0 0 0 -2.919 2.251 1.218 1.218 0 0 0 .529 2.037 9.606 9.606 0 0 0 3.648.543 2.5 2.5 0 0 0 -1.258-4.83" fill="#ffab00" transform="translate(241.984 143.741)"/><path d="m139.876 83.964a9.552 9.552 0 0 0 -3.659-.473 1.216 1.216 0 0 0 -1.063 1.811 9.506 9.506 0 0 0 2.193 2.966 2.5 2.5 0 0 0 2.529-4.3" fill="#ffab00" transform="translate(240.631 148.823)"/><path d="m138.828 82.291a9.576 9.576 0 0 1 -2.966 2.2 1.216 1.216 0 0 1 -1.811-1.066 9.614 9.614 0 0 1 .47-3.659 2.5 2.5 0 0 1 4.307 2.529" fill="#ffab00" transform="translate(238.944 139.981)"/><path d="m160.339 97.961-27.844-8.055a6.088 6.088 0 0 0 -7.6 7.31l6.945 28.142a6.091 6.091 0 0 0 10.134 2.933l20.9-20.09a6.088 6.088 0 0 0 -2.529-10.24" fill="#e31f23" transform="translate(222.288 159.815)"/><path d="m136.9 98.625a9.573 9.573 0 0 0 -3.392-1.444 1.217 1.217 0 0 0 -1.516 1.455 9.553 9.553 0 0 0 1.311 3.448 2.5 2.5 0 0 0 3.6-3.459" fill="#ffab00" transform="translate(235.216 173.141)"/><path d="m134.233 101.565a9.6 9.6 0 0 0 -1.377-3.422 1.218 1.218 0 0 0 -2.1-.042 9.642 9.642 0 0 0 -1.514 3.364 2.5 2.5 0 0 0 4.992.1" fill="#ffab00" transform="translate(230.372 173.828)"/><path d="m136.378 99.465a9.509 9.509 0 0 1 -3.361-1.514 1.211 1.211 0 0 1 .042-2.1 9.55 9.55 0 0 1 3.42-1.38 2.5 2.5 0 0 1 -.1 4.992" fill="#ffab00" transform="translate(236.059 168.398)"/><path d="m149.346 123.542-8.046-27.847a6.092 6.092 0 0 0 -10.242-2.532l-20.092 20.9a6.093 6.093 0 0 0 2.927 10.134l28.145 6.953a6.092 6.092 0 0 0 7.312-7.6" fill="#e31f23" transform="translate(194.754 162.727)"/><path d="m120.345 105.176a9.578 9.578 0 0 0 -.587-3.64 1.221 1.221 0 0 0 -2.042-.506 9.631 9.631 0 0 0 -2.218 2.949 2.5 2.5 0 0 0 4.847 1.2" fill="#ffab00" transform="translate(205.744 179.432)"/><path d="m117.074 103.768a9.586 9.586 0 0 0 2.159-2.991 1.217 1.217 0 0 0 -1.085-1.8 9.6 9.6 0 0 0 -3.653.518 2.5 2.5 0 1 0 2.579 4.274" fill="#ffab00" transform="translate(201.937 176.425)"/><path d="m118.772 104.764a9.526 9.526 0 0 1 -.518-3.651 1.218 1.218 0 0 1 1.8-1.085 9.517 9.517 0 0 1 2.986 2.156 2.495 2.495 0 1 1 -4.271 2.579" fill="#ffab00" transform="translate(210.788 178.032)"/><path d="m225.383 82.584c.036.042.072.081.109.12l-108.568 104.349-.117-.114c-30.477-31.709-32.052-79.646-.342-110.123s78.441-25.941 108.918 5.768" fill="#b72125" transform="translate(166.326 100.213)"/><path d="m217.185 85.178c.034.034.065.071.1.108l-97.542 93.744-.1-.1c-27.38-28.489-28.794-71.554-.307-98.934s70.472-23.3 97.852 5.184" fill="#d32a37" transform="translate(170.497 101.929)"/><path d="m169.834 61.328s-36.994-15.159-66.872 21.219c0 0 24.511-21.158 66.872-21.219" fill="#ef6c5a" opacity=".5" transform="translate(180.549 112.093)"/><path d="m131.505 78.772c5.632.882 11.38.306 17.076.573s11.664 1.536 15.844 5.409a31.279 31.279 0 0 1 -6.99-34.392c-1.052 5.5 1.53 11.13 5.189 15.362s8.35 7.415 12.591 11.069a17.625 17.625 0 0 1 4.911 5.882 7.666 7.666 0 0 1 .189 6.077c1.742-2.5 4.174-4.115 6.405-6.4 2.579-2.641 13.189-4.964 16.628-6.269-1.439 3.386-4.179 13.9-6.923 16.369-2.373 2.137-4.082 4.5-6.65 6.147a7.651 7.651 0 0 1 6.063.429 17.6 17.6 0 0 1 5.685 5.142c3.478 4.382 6.478 9.191 10.562 13.017s9.608 6.628 15.142 5.8a31.283 31.283 0 0 1 -34.088-8.347c3.706 4.332 4.736 10.348 4.778 16.047s-.762 11.419-.1 17.085 3.1 11.511 7.991 14.433c-8.158-.067-15.551-4.975-21.186-10.874-3.754-3.932-7.04-8.539-8.2-13.848a35.757 35.757 0 0 1 -.659-6.355q-.263-6.928-.02-13.862a36.431 36.431 0 0 1 -3.7 10.715 23.95 23.95 0 0 1 -8.4 9.458c-5.64 3.417-13.125 3.681-17.752 8.384 1.789-6.252 3.6-12.546 6.5-18.364a45.178 45.178 0 0 1 3.247-5.515 45.221 45.221 0 0 1 -5.64 3.025c-5.929 2.674-12.29 4.227-18.607 5.771 4.881-4.438 5.44-11.909 9.079-17.407a23.95 23.95 0 0 1 9.783-8.016 36.364 36.364 0 0 1 10.855-3.264q-6.933-.038-13.851-.57a35.844 35.844 0 0 1 -6.325-.913c-5.259-1.372-9.733-4.839-13.512-8.745-5.671-5.863-10.281-13.445-10.025-21.6 2.724 5.006 8.475 7.68 14.1 8.559" fill="#71a42d" transform="translate(209.248 89.772)"/><path d="m153.739 49.852c-.039.008-.075.014-.109.022a3.367 3.367 0 0 0 -2.666 4.046 52.828 52.828 0 0 1 -.373 24.661 79.73 79.73 0 0 1 -11.982 25.73l2.09 2.248a71.923 71.923 0 0 0 17.215-53.708 3.424 3.424 0 0 0 -4.176-3" fill="#c6db69" transform="translate(247.074 88.717)"/><path d="m54.336 150.775-.058-.62a71.355 71.355 0 0 1 29.659-64.663l39.353-28.025a128.569 128.569 0 0 0 20.8-18.529l22.79-25.238a41.539 41.539 0 0 1 50.978-8.484l.584.323a41.536 41.536 0 0 1 19.786 47.745l-9.348 32.689a128.207 128.207 0 0 0 -4.708 27.46l-2.949 48.221a71.343 71.343 0 0 1 -39.161 59.39l-.8.4a70.99 70.99 0 0 1 -46.966 6.032 117 117 0 0 1 -60.831-34.314 70.574 70.574 0 0 1 -19.127-42.389" fill="#549a53" transform="translate(96.213)"/><path d="m83.445 86.922 39.355-28.028a136.636 136.636 0 0 0 22.115-19.7l22.785-25.229a33.306 33.306 0 0 1 41.06-6.834l.584.32c.131.072.25.161.381.237l-108.564 195.69c-.1-.056-.2-.1-.292-.15a113.123 113.123 0 0 1 -26.748-20.81 62.711 62.711 0 0 1 -16.915-37.555l-.058-.6a63.475 63.475 0 0 1 26.3-57.336" fill="#f8f29e" transform="translate(101.394 5.156)"/><path d="m74.34 58.3a49.977 49.977 0 1 0 67.946-19.458 49.98 49.98 0 0 0 -67.946 19.458" fill="#a35e2f" transform="translate(121.311 58.044)"/><path d="m77.223 56.384a37.638 37.638 0 1 0 51.177-14.653 37.642 37.642 0 0 0 -51.177 14.653" fill="#c37d46" transform="translate(129.216 65.951)"/><path d="m196.912 42.834-9.346 32.692a136.413 136.413 0 0 0 -5.006 29.186l-2.949 48.226a63.47 63.47 0 0 1 -34.729 52.662l-.8.4a63.117 63.117 0 0 1 -41.618 5.356 110.012 110.012 0 0 1 -29.664-11.05l108.561-195.69a33.29 33.29 0 0 1 15.551 38.218" fill="#549a53" transform="translate(129.759 8.228)"/><path d="m133.251 51.907-4.193 14.661a61.288 61.288 0 0 0 -2.243 13.089l-1.324 21.628a28.462 28.462 0 0 1 -15.574 23.615l-.359.181a28.313 28.313 0 0 1 -18.662 2.4 49.288 49.288 0 0 1 -13.309-4.956l48.688-87.76a14.931 14.931 0 0 1 6.976 17.14" fill="#7db840" transform="translate(138.299 61.972)"/><path d="m84.957 120.188a63.213 63.213 0 0 0 37.452-6.071l.8-.4a63.243 63.243 0 0 0 34.726-52.648l.05-.8c.292-4.8-6.717-5.726-7.663-1.007q-1.006 5.025-1.948 10.081c-5.174 27.692-33.974 49.882-63.417 50.845" fill="#7db840" opacity=".5" transform="translate(151.436 100.108)"/></g></svg>