<svg xmlns="http://www.w3.org/2000/svg" xmlns:xlink="http://www.w3.org/1999/xlink" width="81.24" height="80" viewBox="0 0 81.24 80"><defs><clipPath id="a"><rect width="81.24" height="80" fill="none"/></clipPath></defs><g transform="translate(0 0)" clip-path="url(#a)"><path d="M7.99,45.623a3.7,3.7,0,1,1-3.7,3.7,3.667,3.667,0,0,1,3.7-3.7" transform="translate(1.992 21.192)" fill="#b8d0f3"/><path d="M11.895,13.084a1.977,1.977,0,0,1,0,2.963L8.934,19.159,5.969,22.268a1.975,1.975,0,0,1-2.963,0L1.97,21.381a1.975,1.975,0,0,1,0-2.963l6.073-6.371a1.979,1.979,0,0,1,2.964,0Z" transform="translate(0.605 5.286)" fill="#b8d0f3"/><path d="M14.76,33.829,8.241,27.606a1.976,1.976,0,0,1,0-2.961L11.2,21.533l2.964-3.112a1.976,1.976,0,0,1,2.961,0l2.964,2.815L34.168,34.716a1.981,1.981,0,0,1,0,2.964L31.2,40.792,28.241,43.9a1.978,1.978,0,0,1-2.961,0L18.76,37.68l-1.63-1.629Z" transform="translate(3.519 8.247)" fill="#fff"/><path d="M28.322,41.277l2.961-3.111a2.252,2.252,0,0,0,0-2.964L17.211,21.72c2.519-3.257,6.371-5.332,12.148-5.332a15.673,15.673,0,0,1,13.926,8.3,16.025,16.025,0,0,1,13.926-8.3c29.926,0,10.073,54.222-6.371,54.222a16.415,16.415,0,0,1-7.26-1.778h-.592a16.415,16.415,0,0,1-7.26,1.778c-9.481,0-20.3-18.517-21.631-33.925l1.779,1.63L22.4,44.537a2.255,2.255,0,0,0,2.964,0Z" transform="translate(6.549 7.612)" fill="#b8d0f3"/><path d="M51.615,4a11.885,11.885,0,0,1-.148,4.593,9.926,9.926,0,0,1-2.667,4.89,9.289,9.289,0,0,1-5.036,2.665,14.941,14.941,0,0,1-4.443.148,15.714,15.714,0,0,1,.146-4.591,11.083,11.083,0,0,1,2.667-5.038A10.6,10.6,0,0,1,47.022,4a15.891,15.891,0,0,1,4.593,0" transform="translate(18.219 1.778)" fill="#b8d0f3"/><path d="M24.054,1.315a4.592,4.592,0,1,1-4.593,4.593,4.522,4.522,0,0,1,4.593-4.593" transform="translate(9.04 0.611)" fill="#b8d0f3"/><path d="M35.756,29.749H35.31a1.755,1.755,0,0,1-1.333-2.223c1.778-7.11,1.037-11.555.149-13.925A6.935,6.935,0,0,0,31.9,10.193L33.83,7.081c.3.149,7.7,5.038,3.7,21.335a1.744,1.744,0,0,1-1.778,1.333" transform="translate(14.82 3.289)" fill="#4e8ae1"/><path d="M38.758,51.5a1.823,1.823,0,0,1-1.482-.741,1.728,1.728,0,0,1,.445-2.519c5.186-3.7,7.11-10.666,7.11-10.666a1.833,1.833,0,1,1,3.556.889c-.146.3-2.222,8.3-8.592,12.741a2.155,2.155,0,0,1-1.037.3" transform="translate(17.15 16.798)" fill="#4e8ae1"/><path d="M41.776,18.945h0a11.239,11.239,0,0,1-2.223-.148,1.887,1.887,0,0,1-1.63-1.63,15.134,15.134,0,0,1,.148-5.186,11.754,11.754,0,0,1,3.26-5.924,11.574,11.574,0,0,1,5.777-3.111A12.875,12.875,0,0,1,52.442,2.8a1.888,1.888,0,0,1,1.629,1.63,16.078,16.078,0,0,1-.148,5.334,11.833,11.833,0,0,1-3.259,5.777A13,13,0,0,1,44.738,18.8a18.9,18.9,0,0,1-2.961.148m-.149-3.7a6.146,6.146,0,0,0,2.37-.3,7.133,7.133,0,0,0,4.149-2.223,9.655,9.655,0,0,0,2.223-4,13.189,13.189,0,0,0,.3-2.519,13.059,13.059,0,0,0-2.519.3,7.629,7.629,0,0,0-4,2.223,8.084,8.084,0,0,0-2.223,4.147,4.384,4.384,0,0,0-.3,2.37" transform="translate(17.54 1.204)" fill="#4e8ae1"/><path d="M12.446,24.355a2.4,2.4,0,0,1-1.334-.444L5.778,18.725a1.886,1.886,0,0,1,2.668-2.667l5.332,5.186a1.877,1.877,0,0,1,0,2.667,4.725,4.725,0,0,1-1.333.444" transform="translate(2.426 7.201)" fill="#4e8ae1"/><path d="M35.076,46.083a2.392,2.392,0,0,1-1.333-.445L23.076,35.417a1.886,1.886,0,0,1,2.667-2.667L36.409,42.973a1.876,1.876,0,0,1,0,2.665,3.508,3.508,0,0,1-1.333.445" transform="translate(10.461 14.954)" fill="#4e8ae1"/><path d="M51.558,73A17.111,17.111,0,0,1,44,71.221,17.12,17.12,0,0,1,36.448,73C31.262,73,25.632,68.7,20.89,60.85c-4.3-7.11-7.406-15.852-8-23.555a1.954,1.954,0,0,1,1.63-2.074,1.954,1.954,0,0,1,2.074,1.629A52.877,52.877,0,0,0,24,58.777c4,6.519,8.592,10.37,12.445,10.37a13.559,13.559,0,0,0,6.368-1.63,1.882,1.882,0,0,1,.889-.148H44.3a1.876,1.876,0,0,1,.887.148,14.521,14.521,0,0,0,6.372,1.63c4,0,9.035-4.445,13.185-11.556,4.147-7.26,6.813-16.3,6.813-23.555,0-4.591-1.037-8.444-3.112-11.11-2.219-2.815-5.776-4.3-10.515-4.3a13.761,13.761,0,0,0-12.3,7.407,1.8,1.8,0,0,1-3.261,0,13.756,13.756,0,0,0-12.295-7.407c-4.889,0-8.444,1.482-10.666,4.593a1.808,1.808,0,0,1-2.963-2.074c2.963-4,7.555-6.075,13.629-6.075A17.478,17.478,0,0,1,44,21.889a17.469,17.469,0,0,1,13.926-6.816c5.924,0,10.37,1.926,13.481,5.779,2.667,3.257,3.849,7.851,3.849,13.331,0,7.853-2.664,17.334-7.255,25.334C63.113,68.11,57.187,73,51.558,73" transform="translate(5.98 7.001)" fill="#4e8ae1"/><path d="M27.3,46.907h0a4.263,4.263,0,0,1-2.667-1.037L7.6,29.574a4.047,4.047,0,0,1-1.185-2.816,3.91,3.91,0,0,1,1.037-2.815l6.073-6.371a4.047,4.047,0,0,1,2.815-1.185A4.258,4.258,0,0,1,19,17.425l17.037,16.3a4.045,4.045,0,0,1,1.186,2.815A3.913,3.913,0,0,1,36.19,39.35l-6.075,6.372A4.053,4.053,0,0,1,27.3,46.907M16.337,20.092a.145.145,0,0,0-.148.149L10.116,26.61v.148a.144.144,0,0,0,.146.148L27.3,43.2h.148a.145.145,0,0,0,.148-.148l6.075-6.371v-.148a.145.145,0,0,0-.149-.148l-17.037-16.3Z" transform="translate(2.978 7.612)" fill="#4e8ae1"/><path d="M4.946,25.43a4.266,4.266,0,0,1-2.667-1.037L1.242,23.5a3.978,3.978,0,0,1-.148-5.63L7.167,11.5a4.048,4.048,0,0,1,2.815-1.186,4.266,4.266,0,0,1,2.667,1.037l1.037.89a4.045,4.045,0,0,1,1.186,2.815,3.91,3.91,0,0,1-1.037,2.813L7.759,24.244A4.039,4.039,0,0,1,4.946,25.43M9.982,13.874a.145.145,0,0,0-.148.149L3.761,20.392c-.149.149-.149.3,0,.3l1.037.89h.148a.145.145,0,0,0,.148-.149l6.075-6.369v-.149a.145.145,0,0,0-.149-.148l-1.037-.889c.149.149.149,0,0,0" transform="translate(0 4.793)" fill="#4e8ae1"/><path d="M15.811,35a2.378,2.378,0,0,1-1.333-.445,1.876,1.876,0,0,1,0-2.665l3.852-4A1.885,1.885,0,1,1,21,30.561l-3.7,3.852A1.907,1.907,0,0,1,15.811,35" transform="translate(6.467 12.699)" fill="#4e8ae1"/><path d="M13.08,32.374a2.389,2.389,0,0,1-1.333-.445,1.876,1.876,0,0,1,0-2.665l3.852-4a1.885,1.885,0,0,1,2.667,2.665l-3.853,4a1.812,1.812,0,0,1-1.333.445" transform="translate(5.198 11.477)" fill="#4e8ae1"/><path d="M10.348,29.745A2.4,2.4,0,0,1,9.015,29.3a1.877,1.877,0,0,1,0-2.667l3.852-4A1.885,1.885,0,1,1,15.534,25.3l-3.852,4a1.816,1.816,0,0,1-1.334.445" transform="translate(3.929 10.256)" fill="#4e8ae1"/><path d="M8.6,55.466a5.63,5.63,0,1,1,5.631-5.63A5.829,5.829,0,0,1,8.6,55.466m0-7.407a1.926,1.926,0,1,0,1.926,1.926A2.069,2.069,0,0,0,8.6,48.059" transform="translate(1.381 20.534)" fill="#4e8ae1"/><path d="M24.665,13.037a6.576,6.576,0,0,1-6.519-6.519,6.519,6.519,0,0,1,13.037,0,6.576,6.576,0,0,1-6.519,6.519m0-9.184a2.815,2.815,0,1,0,2.815,2.815,2.812,2.812,0,0,0-2.815-2.815" transform="translate(8.429 0)" fill="#4e8ae1"/></g></svg>