<svg xmlns="http://www.w3.org/2000/svg" xmlns:xlink="http://www.w3.org/1999/xlink" width="75.199" height="80" viewBox="0 0 75.199 80"><defs><clipPath id="a"><rect width="75.199" height="80" fill="none"/></clipPath></defs><path d="M13.018,18.954H6.352V65.621H48.086V18.954Z" transform="translate(2.048 6.112)" fill="#b8d0f3"/><g transform="translate(0 0)"><g clip-path="url(#a)"><path d="M54.256,8.772A2.533,2.533,0,1,1,51.722,11.3a2.532,2.532,0,0,1,2.534-2.533" transform="translate(16.679 2.829)" fill="#fff"/><path d="M4.644,2.521A3.333,3.333,0,1,1,1.31,5.854,3.331,3.331,0,0,1,4.644,2.521" transform="translate(0.422 0.813)" fill="#fff"/><path d="M54.3,6.41v3.2H12.7V6.41a5.208,5.208,0,0,1,5.2-5.2H49.237A5.27,5.27,0,0,1,54.3,6.41" transform="translate(4.096 0.39)" fill="#b8d0f3"/><path d="M14.751,7.562c-.8,1.467-7.333,13.333-8.4,15.067H48.085S56.352,7.7,56.486,7.562Z" transform="translate(2.048 2.438)" fill="#fff"/><rect width="41.734" height="6.667" transform="translate(8.4 71.733)" fill="#fff"/><path d="M46.176,7.562l-4,7.2-4.268,7.867V75.962L54.576,70.9V22.628Z" transform="translate(12.224 2.438)" fill="#fff"/><path d="M16.87,45.356a7.3,7.3,0,0,1,7.067-5.733A7.158,7.158,0,0,1,31,45.356a5.042,5.042,0,0,1,.132,1.467,7.2,7.2,0,1,1-14.4,0,4.994,4.994,0,0,1,.134-1.467M23,47.489a1.447,1.447,0,0,0-.534-1.2,1.686,1.686,0,0,0-1.2-.533,1.3,1.3,0,0,0-1.2.533,1.694,1.694,0,0,0-.533,1.2,1.765,1.765,0,0,0,1.732,1.734,1.444,1.444,0,0,0,1.2-.534,1.3,1.3,0,0,0,.534-1.2m2.133-1.2a1.694,1.694,0,0,0-.533,1.2,1.765,1.765,0,0,0,1.734,1.734,1.447,1.447,0,0,0,1.2-.534,1.684,1.684,0,0,0,.534-1.2,1.451,1.451,0,0,0-.534-1.2,1.626,1.626,0,0,0-1.2-.4,2.15,2.15,0,0,0-1.2.4" transform="translate(5.397 12.777)" fill="#fff"/><path d="M29.084,32.019a9.948,9.948,0,0,1,4.533,4.533,9.726,9.726,0,0,1,1.066,4.4,10.189,10.189,0,0,1-3.065,7.2,7.3,7.3,0,0,0-7.067-5.733,7.156,7.156,0,0,0-7.066,5.733,10.185,10.185,0,0,1-3.067-7.2,9.743,9.743,0,0,1,1.066-4.4,9.364,9.364,0,0,1,4.535-4.533,10.159,10.159,0,0,1,9.065,0" transform="translate(4.649 9.981)" fill="#fff"/><path d="M27.509,26.213s5.866,6.4,2.533,11.866a9.361,9.361,0,0,0-4.533-4.533,25.338,25.338,0,0,0,2-7.333" transform="translate(8.225 8.453)" fill="#fff"/><path d="M18.107,26.213a24.338,24.338,0,0,0,2,7.333,9.954,9.954,0,0,0-4.533,4.533c-3.334-5.466,2.533-11.866,2.533-11.866" transform="translate(4.692 8.453)" fill="#fff"/><path d="M57.175,34.51a1.689,1.689,0,0,1,.533,1.2,1.3,1.3,0,0,1-.533,1.2,1.981,1.981,0,0,1-1.2.533,1.765,1.765,0,0,1-1.734-1.732,1.448,1.448,0,0,1,.534-1.2,1.616,1.616,0,0,1,2.4,0" transform="translate(17.491 10.956)" fill="#4e8ae1"/><path d="M45.782,42.072a1.694,1.694,0,0,1,.533,1.2,1.3,1.3,0,0,1-.533,1.2,1.985,1.985,0,0,1-1.2.534,1.765,1.765,0,0,1-1.734-1.734,1.447,1.447,0,0,1,.534-1.2,1.616,1.616,0,0,1,2.4,0" transform="translate(13.817 13.395)" fill="#4e8ae1"/><path d="M34.49,49.633a1.694,1.694,0,0,1,.533,1.2,1.447,1.447,0,0,1-.533,1.2,1.984,1.984,0,0,1-1.2.533,1.765,1.765,0,0,1-1.734-1.734,1.447,1.447,0,0,1,.534-1.2,1.683,1.683,0,0,1,1.2-.533,1.984,1.984,0,0,1,1.2.533" transform="translate(10.176 15.833)" fill="#4e8ae1"/><path d="M25.619,44.794a1.694,1.694,0,0,1,.533,1.2,1.446,1.446,0,0,1-.533,1.2,1.684,1.684,0,0,1-1.2.534,1.766,1.766,0,0,1-1.735-1.734,1.451,1.451,0,0,1,.534-1.2,1.689,1.689,0,0,1,1.2-.533,2.5,2.5,0,0,1,1.2.533" transform="translate(7.315 14.273)" fill="#4e8ae1"/><path d="M21.889,44.794a1.694,1.694,0,0,1,.533,1.2,1.446,1.446,0,0,1-.533,1.2,1.684,1.684,0,0,1-1.2.534,1.766,1.766,0,0,1-1.735-1.734,1.451,1.451,0,0,1,.534-1.2,1.689,1.689,0,0,1,1.2-.533,4.7,4.7,0,0,1,1.2.533" transform="translate(6.112 14.273)" fill="#4e8ae1"/><path d="M13.015,26.948a1.689,1.689,0,0,1,.533,1.2,1.3,1.3,0,0,1-.533,1.2,1.981,1.981,0,0,1-1.2.533,1.766,1.766,0,0,1-1.734-1.732,1.448,1.448,0,0,1,.534-1.2,1.616,1.616,0,0,1,2.4,0" transform="translate(3.251 8.518)" fill="#4e8ae1"/><path d="M4.243,25.738a1.689,1.689,0,0,1,.533,1.2,1.3,1.3,0,0,1-.533,1.2,1.686,1.686,0,0,1-1.2.533A1.766,1.766,0,0,1,1.31,26.939a1.448,1.448,0,0,1,.534-1.2,1.691,1.691,0,0,1,1.2-.533,1.448,1.448,0,0,1,1.2.533" transform="translate(0.422 8.128)" fill="#4e8ae1"/><path d="M2.933,48.423a1.688,1.688,0,0,1,.533,1.2,1.3,1.3,0,0,1-.533,1.2,1.686,1.686,0,0,1-1.2.533A1.765,1.765,0,0,1,0,49.622a1.447,1.447,0,0,1,.534-1.2,1.683,1.683,0,0,1,1.2-.533,1.3,1.3,0,0,1,1.2.533" transform="translate(0 15.443)" fill="#4e8ae1"/><path d="M24.327,56.013a8.879,8.879,0,0,1-8.8-8.8,7.587,7.587,0,0,1,.134-1.734,8.848,8.848,0,0,1,17.334,0,7.662,7.662,0,0,1,.132,1.734,8.878,8.878,0,0,1-8.8,8.8m0-14.4a5.545,5.545,0,0,0-5.334,4.4,2.934,2.934,0,0,0-.134,1.067,5.467,5.467,0,1,0,10.934,0,2.6,2.6,0,0,0-.134-1.067,5.543,5.543,0,0,0-5.334-4.4" transform="translate(5.007 12.387)" fill="#4e8ae1"/><path d="M30.464,40.1a2.464,2.464,0,0,1-.932-.267A1.583,1.583,0,0,1,29,37.563c1.332-2.265.667-4.8-.268-6.667A20.819,20.819,0,0,1,27.4,34.63a1.641,1.641,0,0,1-1.468.934,1.745,1.745,0,0,1-1.732-1.6,1.007,1.007,0,0,1,.132-.667A24.136,24.136,0,0,0,26.2,26.5a1.7,1.7,0,0,1,1.2-1.467,1.616,1.616,0,0,1,1.732.4C29.4,25.7,35.8,32.9,31.8,39.3a1.47,1.47,0,0,1-1.334.8" transform="translate(7.803 8.037)" fill="#4e8ae1"/><path d="M16,40.1a1.843,1.843,0,0,1-1.467-.8c-4-6.4,2.4-13.6,2.666-13.866a1.414,1.414,0,0,1,1.734-.4,1.92,1.92,0,0,1,1.2,1.467A23.108,23.108,0,0,0,22,33.3a1.2,1.2,0,0,1,.134.667A1.766,1.766,0,0,1,20.4,35.7a1.729,1.729,0,0,1-1.6-1.067c-.533-1.2-.934-2.533-1.334-3.733-.932,2-1.6,4.533-.266,6.667a1.561,1.561,0,0,1-.533,2.267c0,.267-.266.267-.667.267" transform="translate(4.264 8.03)" fill="#4e8ae1"/><path d="M17.975,50.142a1.629,1.629,0,0,1-1.2-.533,11.61,11.61,0,0,1-3.466-8.267,11.465,11.465,0,0,1,1.2-5.2,10.945,10.945,0,0,1,5.2-5.2,11.859,11.859,0,0,1,10.4,0,10.939,10.939,0,0,1,5.2,5.2,11.466,11.466,0,0,1,1.2,5.2,11.17,11.17,0,0,1-3.468,8.267,1.7,1.7,0,0,1-2.4-2.4,8.482,8.482,0,0,0,2.534-6,8.957,8.957,0,0,0-.8-3.733,8.424,8.424,0,0,0-3.733-3.733,9.088,9.088,0,0,0-3.733-.934,7.4,7.4,0,0,0-3.733.934,8.424,8.424,0,0,0-3.733,3.733,8.936,8.936,0,0,0-.8,3.733,8.482,8.482,0,0,0,2.534,6,1.691,1.691,0,0,1,0,2.4,1.632,1.632,0,0,1-1.2.533" transform="translate(4.292 9.591)" fill="#4e8ae1"/><path d="M38.316,78a1.676,1.676,0,0,1-1.6-1.2,1.745,1.745,0,0,1,1.067-2.132L53.249,70V23.33L45.116,8.662a1.67,1.67,0,1,1,2.932-1.6l8.4,15.066a1.9,1.9,0,0,1,.266.8v48.4a1.723,1.723,0,0,1-1.2,1.6L38.849,78Z" transform="translate(11.817 2.003)" fill="#4e8ae1"/><path d="M38.312,24.663a1.875,1.875,0,0,1-.8-.267,1.707,1.707,0,0,1-.667-2.265l8.4-15.067a1.671,1.671,0,1,1,2.935,1.6L39.912,23.6a1.929,1.929,0,0,1-1.6,1.067" transform="translate(11.822 2.003)" fill="#4e8ae1"/><path d="M6.754,24.663a1.87,1.87,0,0,1-.8-.267,1.705,1.705,0,0,1-.667-2.265l8.4-15.067a1.67,1.67,0,1,1,2.933,1.6l-8.4,15.067a1.442,1.442,0,0,1-1.467.934" transform="translate(1.646 2.003)" fill="#4e8ae1"/><path d="M54.727,11.733h-41.6A1.765,1.765,0,0,1,11.392,10V6.8a6.83,6.83,0,0,1,6.8-6.8H49.525a6.829,6.829,0,0,1,6.8,6.8V10a1.574,1.574,0,0,1-1.6,1.732m-40-3.333h38.4V6.934A3.529,3.529,0,0,0,49.66,3.468H18.327a3.528,3.528,0,0,0-3.466,3.466V8.4Z" transform="translate(3.674 0)" fill="#4e8ae1"/><path d="M44.583,51.318a1.765,1.765,0,0,1-1.734-1.734V7.985a1.734,1.734,0,0,1,3.468,0V49.718a1.746,1.746,0,0,1-1.734,1.6" transform="translate(13.817 2.016)" fill="#4e8ae1"/><path d="M48.508,74.343H6.775a1.765,1.765,0,0,1-1.734-1.734V19.275a1.765,1.765,0,0,1,1.734-1.732H48.508a1.765,1.765,0,0,1,1.734,1.732V72.609a1.863,1.863,0,0,1-1.734,1.734m-40-3.333h38.4v-50H8.507Z" transform="translate(1.626 5.657)" fill="#4e8ae1"/><path d="M48.508,56.3H6.773a1.734,1.734,0,0,1,0-3.467H48.508a1.765,1.765,0,0,1,1.734,1.734A1.863,1.863,0,0,1,48.508,56.3" transform="translate(1.626 17.036)" fill="#4e8ae1"/><path d="M33.291,49.971a1.765,1.765,0,0,1-1.734-1.734V43.171a1.734,1.734,0,1,1,3.468,0v5.066a1.863,1.863,0,0,1-1.734,1.734" transform="translate(10.176 13.362)" fill="#4e8ae1"/><path d="M11.815,27.676a1.765,1.765,0,0,1-1.732-1.734V19.275a1.733,1.733,0,0,1,3.466,0v6.667a1.765,1.765,0,0,1-1.734,1.734" transform="translate(3.251 5.657)" fill="#4e8ae1"/><path d="M5.066,11.343a5.066,5.066,0,1,1,5.066-5.066,5.064,5.064,0,0,1-5.066,5.066m0-6.667a1.734,1.734,0,1,0,0,3.468A1.765,1.765,0,0,0,6.8,6.41,1.681,1.681,0,0,0,5.066,4.676" transform="translate(0 0.39)" fill="#4e8ae1"/><path d="M54.646,15.929A4.133,4.133,0,1,1,58.779,11.8a4.153,4.153,0,0,1-4.133,4.133m0-5.066a.86.86,0,0,0-.8.8.8.8,0,1,0,1.6,0,.861.861,0,0,0-.8-.8" transform="translate(16.288 2.471)" fill="#4e8ae1"/></g></g></svg>