<svg xmlns="http://www.w3.org/2000/svg" xmlns:xlink="http://www.w3.org/1999/xlink" width="82.916" height="80" viewBox="0 0 82.916 80"><defs><clipPath id="a"><rect width="82.916" height="80" fill="none"/></clipPath></defs><g transform="translate(0 0)" clip-path="url(#a)"><path d="M26.157,51.722a3.472,3.472,0,1,1-3.471,3.473,3.44,3.44,0,0,1,3.471-3.473" transform="translate(8.566 19.529)" fill="#fff"/><path d="M28.678,1.311a3.438,3.438,0,0,1,3.471,3.473,3.472,3.472,0,0,1-6.944,0,3.439,3.439,0,0,1,3.473-3.473" transform="translate(9.517 0.495)" fill="#fff"/><path d="M3.849,36.6a2.637,2.637,0,0,1,2.638,2.639,2.554,2.554,0,0,1-2.638,2.638A2.554,2.554,0,0,1,1.21,39.238,2.637,2.637,0,0,1,3.849,36.6" transform="translate(0.457 13.819)" fill="#fff"/><path d="M27.293,32.263a4.306,4.306,0,1,1-4.306,4.306,4.327,4.327,0,0,1,4.306-4.306" transform="translate(8.679 12.181)" fill="#b8d0f3"/><path d="M21.143,22.383a4.306,4.306,0,1,1-4.3,4.306,4.421,4.421,0,0,1,4.3-4.306" transform="translate(6.358 8.451)" fill="#b8d0f3"/><path d="M33.9,19.963a5.972,5.972,0,1,1-5.972,5.972A6.107,6.107,0,0,1,33.9,19.963m.833,5.833a.833.833,0,1,0-.833.833.8.8,0,0,0,.833-.833" transform="translate(10.545 7.537)" fill="#b8d0f3"/><path d="M77.641,39.112a6.659,6.659,0,0,1,.139,10.14,6.818,6.818,0,0,1-9.168-.141,6.7,6.7,0,0,1-1.249-1.526,5.265,5.265,0,0,0-4.028-2.5l-2.361-.139a23.236,23.236,0,0,1-5.138,10.278l5.277,6.111a1.716,1.716,0,0,0,1.112.555,4.956,4.956,0,0,1,4.3,5.417,5.078,5.078,0,0,1-4.722,4.722,5.19,5.19,0,0,1-5.417-5.14,1.571,1.571,0,0,0-.416-1.109L50.7,59.807A23.306,23.306,0,0,1,37.64,63.7,23.791,23.791,0,0,1,24.169,59.53l-6.53,5.277A5.131,5.131,0,0,0,15.7,68.835v.555a6.973,6.973,0,0,1-6.389,6.25A6.783,6.783,0,0,1,7.917,62.168c.417,0,.7-.139,1.11-.139a4.98,4.98,0,0,0,3.334-1.249l7.223-5.834a23.586,23.586,0,0,1-5.417-15A24.458,24.458,0,0,1,18.474,26.2l-1.249-1.389A5.138,5.138,0,0,0,12.918,23h-.557A10.2,10.2,0,0,1,2.222,12.862,10.051,10.051,0,0,1,12.5,2.723a10.209,10.209,0,0,1,10,9.862,10.341,10.341,0,0,1-.557,3.611,5.272,5.272,0,0,0,.971,5.138l.141.139a23.679,23.679,0,0,1,14.721-5.138,24.02,24.02,0,0,1,14.584,5L58.2,16.612A5.412,5.412,0,0,0,60,13.834,5.958,5.958,0,0,1,65.7,9.528a5.993,5.993,0,0,1,.694,11.945H65.278a4.9,4.9,0,0,0-3.611,1.112l-4.721,3.75c2.777,3.889,4.443,14.167,4.443,14.444l3.057.278a4.95,4.95,0,0,0,4.028-1.528,1.893,1.893,0,0,1,.555-.417,6.546,6.546,0,0,1,8.611,0M49.585,32.306a5.972,5.972,0,1,0-5.972,5.972,5.929,5.929,0,0,0,5.972-5.972M47.918,49.252a.833.833,0,1,0-.833.832c.416.139.833-.277.833-.832m-8.473-1.667a4.306,4.306,0,1,0-4.3,4.3,4.326,4.326,0,0,0,4.3-4.3M30.974,34.112a4.306,4.306,0,1,0-4.306,4.3,4.52,4.52,0,0,0,4.306-4.3" transform="translate(0.833 1.027)" fill="#fff"/><path d="M9.422,77.84A8.839,8.839,0,0,1,3.171,75.2a8.361,8.361,0,0,1-2.36-6.389,8.707,8.707,0,0,1,7.082-7.917,4.724,4.724,0,0,1,1.39-.139,3.409,3.409,0,0,0,2.222-.833L17.339,55.2a25.451,25.451,0,0,1-4.722-14.722A26.237,26.237,0,0,1,16.5,26.866l-.138-.417A3.7,3.7,0,0,0,13.588,25.2h-.694a11.945,11.945,0,1,1,.139-23.889,11.58,11.58,0,0,1,8.2,3.471,12.015,12.015,0,0,1,3.611,8.056A14.352,14.352,0,0,1,24.284,17a3.065,3.065,0,0,0,0,2.223,25.394,25.394,0,0,1,14.167-4.306A24.893,24.893,0,0,1,53.034,19.5l4.86-3.889a4.229,4.229,0,0,0,1.251-1.806A7.708,7.708,0,0,1,66.5,8.255a7.555,7.555,0,0,1,5.556,2.36,7.3,7.3,0,0,1,2.084,5.695,7.586,7.586,0,0,1-6.807,7.083H65.95a3.213,3.213,0,0,0-2.361.694l-3.473,2.779c1.947,3.611,3.2,9.443,3.612,12.361l1.665.139a3.62,3.62,0,0,0,2.779-.973,3.027,3.027,0,0,1,.7-.555,8.957,8.957,0,0,1,5.277-1.806A8.123,8.123,0,0,1,79.7,38.116,8.635,8.635,0,0,1,82.616,44.5a8.3,8.3,0,0,1-2.776,6.389,8.614,8.614,0,0,1-5.695,2.223,8.963,8.963,0,0,1-5.833-2.223,10.481,10.481,0,0,1-1.529-1.945,3.458,3.458,0,0,0-2.777-1.665l-.973-.139a25.388,25.388,0,0,1-4.167,8.472l4.306,5a6.85,6.85,0,0,1-.555,13.612H62.2a6.816,6.816,0,0,1-6.805-6.807l-4.3-5a25.614,25.614,0,0,1-25.974-.416l-5.554,4.583a3.575,3.575,0,0,0-1.39,2.639v.694A8.513,8.513,0,0,1,10.115,77.7a1.831,1.831,0,0,1-.693.141m4.166-55.974a6.453,6.453,0,0,1,5.279,2.5l1.249,1.389a1.678,1.678,0,0,1,.139,2.084,21.814,21.814,0,0,0,.973,26.528,2.241,2.241,0,0,1,.416,1.249,1.418,1.418,0,0,1-.694,1.112l-7.221,5.833a7.181,7.181,0,0,1-4.445,1.528,1.759,1.759,0,0,0-.833.139A5.176,5.176,0,0,0,4.283,68.95,4.712,4.712,0,0,0,5.673,72.7,4.668,4.668,0,0,0,9.56,74.228a4.948,4.948,0,0,0,4.722-4.583v-.416a6.58,6.58,0,0,1,2.639-5.279l6.527-5.277a1.884,1.884,0,0,1,2.084-.139,22.507,22.507,0,0,0,12.5,3.889A22.006,22.006,0,0,0,50.117,58.81a1.888,1.888,0,0,1,2.222.28L57.617,65.2a3.5,3.5,0,0,1,.832,2.361,3.36,3.36,0,0,0,3.613,3.332,3.546,3.546,0,0,0,3.193-3.055,3.369,3.369,0,0,0-2.916-3.611,3.615,3.615,0,0,1-2.223-1.249l-5.277-6.112a1.688,1.688,0,0,1,0-2.222,20.767,20.767,0,0,0,4.722-9.584,1.8,1.8,0,0,1,1.807-1.389l2.36.139a6.758,6.758,0,0,1,5.417,3.334,3.716,3.716,0,0,0,.973,1.11,5.191,5.191,0,0,0,3.473,1.389,4.729,4.729,0,0,0,3.332-1.249,4.964,4.964,0,0,0,1.667-3.75,4.88,4.88,0,0,0-1.806-3.75,4.974,4.974,0,0,0-3.332-1.251,4.86,4.86,0,0,0-3.057,1.112c-.138.139-.277.278-.416.278a7.194,7.194,0,0,1-4.861,1.944h-.555L61.506,42.7a1.777,1.777,0,0,1-1.667-1.529c-.138-1.11-1.8-10.277-4.028-13.473a1.733,1.733,0,0,1,.278-2.36l4.722-3.751a7.286,7.286,0,0,1,4.861-1.528H66.5a4.42,4.42,0,0,0,3.751-3.889,3.971,3.971,0,0,0-1.112-3.195,4.456,4.456,0,0,0-3.055-1.389,4.047,4.047,0,0,0-4.027,3.055A7.83,7.83,0,0,1,59.7,18.255l-5.835,4.722a1.69,1.69,0,0,1-2.222,0,21.977,21.977,0,0,0-27.222,0A1.735,1.735,0,0,1,22.06,22.7l.139.139a6.772,6.772,0,0,1-1.249-6.805,10.561,10.561,0,0,0,.416-2.918,8.619,8.619,0,0,0-8.333-8.194h-.139a8.506,8.506,0,0,0-8.472,8.472,8.417,8.417,0,0,0,8.472,8.472h.694Z" transform="translate(0.301 0.495)" fill="#4e8ae1"/><path d="M34.358,34.032A7.639,7.639,0,1,1,42,26.393a7.617,7.617,0,0,1-7.639,7.639m0-11.945a4.166,4.166,0,1,0,4.166,4.167,4.09,4.09,0,0,0-4.166-4.167" transform="translate(10.088 7.08)" fill="#4e8ae1"/><path d="M32.987,27.56a2.639,2.639,0,1,1,2.638-2.639,2.554,2.554,0,0,1-2.638,2.639m0-3.473a.8.8,0,0,0-.833.833.9.9,0,0,0,.833.833.8.8,0,0,0,.833-.833c.138-.416-.278-.833-.833-.833" transform="translate(11.459 8.413)" fill="#4e8ae1"/><path d="M35.507,39.861a2.639,2.639,0,1,1,2.638-2.639,2.729,2.729,0,0,1-2.638,2.639m0-3.473a.833.833,0,1,0,.832.833.9.9,0,0,0-.832-.833" transform="translate(12.41 13.057)" fill="#4e8ae1"/><path d="M21.6,33.117a5.972,5.972,0,1,1,5.972-5.972A6.016,6.016,0,0,1,21.6,33.117m0-8.472a2.5,2.5,0,1,0,2.5,2.5,2.489,2.489,0,0,0-2.5-2.5" transform="translate(5.901 7.994)" fill="#4e8ae1"/><path d="M27.75,42.9a5.972,5.972,0,1,1,5.972-5.972A5.928,5.928,0,0,1,27.75,42.9m0-8.472a2.5,2.5,0,1,0,2.5,2.5,2.49,2.49,0,0,0-2.5-2.5" transform="translate(8.222 11.686)" fill="#4e8ae1"/><path d="M29.173,10.556A5.278,5.278,0,1,1,34.45,5.279a5.277,5.277,0,0,1-5.277,5.277m0-6.944a1.839,1.839,0,0,0-1.806,1.806,1.806,1.806,0,0,0,3.612,0,1.752,1.752,0,0,0-1.806-1.806" transform="translate(9.022 0)" fill="#4e8ae1"/><path d="M26.653,60.966a5.277,5.277,0,1,1,5.278-5.277,5.277,5.277,0,0,1-5.278,5.277m0-6.944a1.806,1.806,0,1,0,1.806,1.806,1.839,1.839,0,0,0-1.806-1.806" transform="translate(8.07 19.034)" fill="#4e8ae1"/><path d="M4.306,44a4.3,4.3,0,1,1,4.3-4.3,4.327,4.327,0,0,1-4.3,4.3m0-5.138a.833.833,0,1,0,0,1.667.9.9,0,0,0,.832-.833.8.8,0,0,0-.832-.833" transform="translate(0 13.362)" fill="#4e8ae1"/></g></svg>