<svg xmlns="http://www.w3.org/2000/svg" xmlns:xlink="http://www.w3.org/1999/xlink" width="83.725" height="80" viewBox="0 0 83.725 80"><defs><clipPath id="a"><rect width="83.725" height="80" fill="none"/></clipPath></defs><g transform="translate(0 0)" clip-path="url(#a)"><path d="M54.125,41.3A2.825,2.825,0,1,1,51.3,44.125,2.825,2.825,0,0,1,54.125,41.3" transform="translate(24.983 20.113)" fill="#fff"/><path d="M45.117,6.3A3.717,3.717,0,1,1,41.4,10.017,3.717,3.717,0,0,1,45.117,6.3" transform="translate(20.161 3.068)" fill="#fff"/><path d="M10.425,16.3A2.825,2.825,0,1,1,7.6,19.125,2.825,2.825,0,0,1,10.425,16.3" transform="translate(3.701 7.938)" fill="#fff"/><path d="M21.01,1.3A4.61,4.61,0,1,1,16.4,5.91,4.61,4.61,0,0,1,21.01,1.3" transform="translate(7.987 0.633)" fill="#fff"/><path d="M42.552,26.3V65.259H31.4V26.3Z" transform="translate(15.291 12.808)" fill="#fff"/><path d="M27.552,43.67V64.042H16.4V28.8H27.552Z" transform="translate(7.987 14.025)" fill="#b8d0f3"/><path d="M50.052,18.8V68.911H38.9V18.8Z" transform="translate(18.944 9.155)" fill="#b8d0f3"/><rect width="11.152" height="20.52" transform="translate(35.539 57.695)" fill="#fff"/><rect width="11.152" height="27.955" transform="translate(13.234 50.26)" fill="#fff"/><path d="M54.571,14.295a1.885,1.885,0,0,1,.595,1.338,1.615,1.615,0,0,1-.595,1.338,1.885,1.885,0,0,1-1.338.595A1.968,1.968,0,0,1,51.3,15.633a1.615,1.615,0,0,1,.595-1.338,1.885,1.885,0,0,1,1.338-.595,3.674,3.674,0,0,1,1.338.595" transform="translate(24.983 6.672)" fill="#4e8ae1"/><path d="M33.271,6.795a1.885,1.885,0,0,1,.595,1.338,1.615,1.615,0,0,1-.595,1.338,1.885,1.885,0,0,1-1.338.595A1.968,1.968,0,0,1,30,8.133a1.615,1.615,0,0,1,.595-1.338,1.8,1.8,0,0,1,2.677,0" transform="translate(14.61 3.019)" fill="#4e8ae1"/><path d="M24.571,20.595a1.885,1.885,0,0,1,.595,1.338,1.615,1.615,0,0,1-.595,1.338,1.885,1.885,0,0,1-1.338.595A1.968,1.968,0,0,1,21.3,21.933a1.615,1.615,0,0,1,.595-1.338A1.885,1.885,0,0,1,23.233,20a2.215,2.215,0,0,1,1.338.595" transform="translate(10.373 9.74)" fill="#4e8ae1"/><path d="M9.571,5.595a1.885,1.885,0,0,1,.595,1.338,1.615,1.615,0,0,1-.595,1.338,1.885,1.885,0,0,1-1.338.595A1.968,1.968,0,0,1,6.3,6.933a1.615,1.615,0,0,1,.595-1.338A1.885,1.885,0,0,1,8.233,5a2.215,2.215,0,0,1,1.338.595" transform="translate(3.068 2.435)" fill="#4e8ae1"/><path d="M5.771,43.095a1.885,1.885,0,0,1,.595,1.338,1.45,1.45,0,0,1-.595,1.338,2.215,2.215,0,0,1-1.338.595A1.968,1.968,0,0,1,2.5,44.433a1.615,1.615,0,0,1,.595-1.338A1.885,1.885,0,0,1,4.433,42.5a1.885,1.885,0,0,1,1.338.595" transform="translate(1.217 20.697)" fill="#4e8ae1"/><path d="M3.271,25.595a1.885,1.885,0,0,1,.595,1.338,1.615,1.615,0,0,1-.595,1.338,2.215,2.215,0,0,1-1.338.595A1.968,1.968,0,0,1,0,26.933a1.615,1.615,0,0,1,.595-1.338A1.885,1.885,0,0,1,1.933,25a1.885,1.885,0,0,1,1.338.595" transform="translate(0 12.175)" fill="#4e8ae1"/><path d="M9.533,64.173A1.968,1.968,0,0,1,7.6,62.24V34.433A1.968,1.968,0,0,1,9.533,32.5H20.686a1.933,1.933,0,1,1,0,3.866H11.317V62.388a1.919,1.919,0,0,1-1.784,1.784" transform="translate(3.701 15.827)" fill="#4e8ae1"/><path d="M17.033,66.608A1.968,1.968,0,0,1,15.1,64.675V29.433A1.968,1.968,0,0,1,17.033,27.5H28.186a1.968,1.968,0,0,1,1.933,1.933V44.3a1.933,1.933,0,0,1-3.866,0V31.217H18.817V64.675a1.947,1.947,0,0,1-1.784,1.933" transform="translate(7.354 13.392)" fill="#4e8ae1"/><path d="M24.533,61.738A1.968,1.968,0,0,1,22.6,59.8V39.433A1.968,1.968,0,0,1,24.533,37.5H35.686a1.933,1.933,0,1,1,0,3.866H26.317V59.954a1.919,1.919,0,0,1-1.784,1.784" transform="translate(11.006 18.262)" fill="#4e8ae1"/><path d="M32.033,67.825A1.968,1.968,0,0,1,30.1,65.892V26.933A1.968,1.968,0,0,1,32.033,25H43.186a1.933,1.933,0,0,1,0,3.866H33.817V66.041a1.919,1.919,0,0,1-1.784,1.784" transform="translate(14.658 12.175)" fill="#4e8ae1"/><path d="M50.734,71.478A1.968,1.968,0,0,1,48.8,69.545V21.217H41.366V69.545a1.933,1.933,0,0,1-3.866,0V19.433A1.968,1.968,0,0,1,39.433,17.5H50.586a1.968,1.968,0,0,1,1.933,1.933v50.26a1.919,1.919,0,0,1-1.784,1.784" transform="translate(18.262 8.522)" fill="#4e8ae1"/><path d="M72.648,55.066H5.733a1.933,1.933,0,1,1,0-3.866H72.648a1.933,1.933,0,1,1,0,3.866" transform="translate(1.851 24.934)" fill="#4e8ae1"/><path d="M11.01,18.669a.892.892,0,1,0,0,1.784.892.892,0,1,0,0-1.784m0,5.651a4.61,4.61,0,1,1,4.61-4.61,4.633,4.633,0,0,1-4.61,4.61" transform="translate(3.117 7.354)" fill="#4e8ae1"/><path d="M54.71,43.669a.892.892,0,1,0,.892.892c.149-.446-.3-.892-.892-.892m0,5.651a4.61,4.61,0,1,1,4.61-4.61,4.539,4.539,0,0,1-4.61,4.61" transform="translate(24.398 19.528)" fill="#4e8ae1"/><path d="M21.643,3.717a2.825,2.825,0,1,0,2.825,2.825,2.823,2.823,0,0,0-2.825-2.825m0,9.368A6.6,6.6,0,0,1,15.1,6.543a6.543,6.543,0,0,1,13.086,0,6.6,6.6,0,0,1-6.543,6.543" transform="translate(7.354 0)" fill="#4e8ae1"/><path d="M45.751,8.766A1.933,1.933,0,1,0,47.684,10.7a2.206,2.206,0,0,0-1.933-1.933m0,7.435A5.651,5.651,0,1,1,51.4,10.551,5.746,5.746,0,0,1,45.751,16.2" transform="translate(19.528 2.386)" fill="#4e8ae1"/></g></svg>