<svg xmlns="http://www.w3.org/2000/svg" xmlns:xlink="http://www.w3.org/1999/xlink" width="81.529" height="80" viewBox="0 0 81.529 80"><defs><clipPath id="a"><rect width="81.529" height="80" fill="none"/></clipPath></defs><g transform="translate(0 0)"><g transform="translate(0 0)" clip-path="url(#a)"><path d="M52.61,25H9.981V53.85H38.4a17.7,17.7,0,0,1-2.843-12.077A18.659,18.659,0,0,1,52.61,25" transform="translate(4.086 10.236)" fill="#fff"/><path d="M3.909,46.681a2.7,2.7,0,1,1-2.7,2.7,2.7,2.7,0,0,1,2.7-2.7" transform="translate(0.495 19.11)" fill="#fff"/><path d="M6.073,2.621A3.552,3.552,0,1,1,2.52,6.173,3.552,3.552,0,0,1,6.073,2.621" transform="translate(1.032 1.073)" fill="#fff"/><path d="M48.922,6.352a3.552,3.552,0,1,1-3.553,3.553,3.552,3.552,0,0,1,3.553-3.553" transform="translate(18.573 2.601)" fill="#fff"/><path d="M60.129,25.4a8.269,8.269,0,0,1-4.689,5.684,6.372,6.372,0,0,1-2.841.569,7.979,7.979,0,0,1-4.406-1.28,6.9,6.9,0,0,0,1.137-2.985h.141a8.051,8.051,0,0,1,3.411-2.7,7.384,7.384,0,0,1,7.247.71" transform="translate(19.729 9.841)" fill="#fff"/><path d="M49.586,31.239h0a6.5,6.5,0,0,1-4.4-3.977c0-.144-.142-.144-.142-.286a6.138,6.138,0,0,1,1-5.4,6.5,6.5,0,0,1,4.4,3.98,6.282,6.282,0,0,1,.285,2.84,9.121,9.121,0,0,1-1.137,2.843" transform="translate(18.335 8.833)" fill="#fff"/><path d="M31.014,53.88A17.689,17.689,0,0,1,28.171,41.8,18.784,18.784,0,0,1,45.222,25.035a13.809,13.809,0,0,1,3.411,0,20.144,20.144,0,0,1,3.126.569c0,.141,0,.141.142.285a6.528,6.528,0,0,0,4.4,3.977,8.333,8.333,0,0,0,4.406,1.278A18.7,18.7,0,0,1,45.222,62.263H44.8A18.693,18.693,0,0,1,31.014,53.88" transform="translate(11.473 10.206)" fill="#fff"/><path d="M52.284,54h.426a6.047,6.047,0,0,1-5.967,5.683H16.049a6,6,0,0,1-5.967-5.967V45.47H38.5A18.748,18.748,0,0,0,52.284,54" transform="translate(4.127 18.614)" fill="#b8d0f3"/><path d="M52.61,32.6H9.981A21.049,21.049,0,0,1,19.36,15.405a10.872,10.872,0,0,0,4.83-8.952H38.4a10.874,10.874,0,0,0,4.831,8.952A21.048,21.048,0,0,1,52.61,32.6" transform="translate(4.086 2.642)" fill="#b8d0f3"/><path d="M38.958,4.153V8.415H17.643V4.153A2.852,2.852,0,0,1,20.486,1.31h15.63a2.851,2.851,0,0,1,2.843,2.843" transform="translate(7.222 0.537)" fill="#fff"/><path d="M55.073,51.67c0,.142.141.427.141.568a1.786,1.786,0,0,1-1.28,1.705c-.142,0-.426.142-.568.142a1.786,1.786,0,0,1-1.705-1.278c0-.142-.14-.427-.14-.569A1.786,1.786,0,0,1,52.8,50.532a1.868,1.868,0,0,1,2.275,1.137" transform="translate(21.091 20.657)" fill="#4e8ae1"/><path d="M53.863,17.7c0,.142.141.426.141.568a1.787,1.787,0,0,1-1.28,1.705c-.14,0-.424.142-.568.142a1.789,1.789,0,0,1-1.705-1.278c0-.144-.141-.427-.141-.569a1.785,1.785,0,0,1,1.278-1.705A1.748,1.748,0,0,1,53.863,17.7" transform="translate(20.595 6.744)" fill="#4e8ae1"/><path d="M43.781,2.573c0,.144.141.427.141.568a1.785,1.785,0,0,1-1.28,1.705c-.142,0-.426.144-.568.144a1.789,1.789,0,0,1-1.705-1.28c0-.142-.141-.426-.141-.569a1.784,1.784,0,0,1,1.278-1.7,1.75,1.75,0,0,1,2.275,1.136" transform="translate(16.468 0.553)" fill="#4e8ae1"/><path d="M17.264,41.588c0,.142.142.427.142.568a1.787,1.787,0,0,1-1.28,1.705c-.142,0-.426.142-.568.142a1.788,1.788,0,0,1-1.705-1.278c0-.142-.142-.427-.142-.569a1.789,1.789,0,0,1,1.28-1.705,1.865,1.865,0,0,1,2.273,1.137" transform="translate(5.613 16.529)" fill="#4e8ae1"/><path d="M12.223,11.34c0,.144.142.427.142.568a1.784,1.784,0,0,1-1.278,1.705c-.142,0-.427.144-.569.144a1.785,1.785,0,0,1-1.7-1.28c0-.142-.144-.426-.144-.569a1.786,1.786,0,0,1,1.28-1.7,1.862,1.862,0,0,1,2.273,1.136" transform="translate(3.549 4.148)" fill="#4e8ae1"/><path d="M5.972,34.027c0,.142.142.427.142.568A1.787,1.787,0,0,1,4.835,36.3c-.142,0-.426.142-.568.142a1.788,1.788,0,0,1-1.705-1.278c0-.142-.142-.427-.142-.569A1.787,1.787,0,0,1,3.7,32.89a1.863,1.863,0,0,1,2.273,1.137" transform="translate(0.99 13.434)" fill="#4e8ae1"/><path d="M39.495,10.8H35.943a1.847,1.847,0,1,1,0-3.694h1.846V4.547a1.12,1.12,0,0,0-1.137-1.136H21.022a1.121,1.121,0,0,0-1.136,1.136V7.1h1.848a1.847,1.847,0,0,1,0,3.694H18.179a1.881,1.881,0,0,1-1.846-1.848V4.689A4.731,4.731,0,0,1,21.022,0h15.63a4.732,4.732,0,0,1,4.69,4.689V8.951A2.109,2.109,0,0,1,39.495,10.8" transform="translate(6.686 0)" fill="#4e8ae1"/><path d="M47.137,77.936H16.586a7.793,7.793,0,0,1-7.815-7.815V33.176A23.254,23.254,0,0,1,19,14.42,8.816,8.816,0,0,0,22.98,6.889a1.882,1.882,0,0,1,1.848-1.848H39.037a1.882,1.882,0,0,1,1.848,1.848,9,9,0,0,0,3.979,7.532A23.257,23.257,0,0,1,55.094,33.176a1.762,1.762,0,0,1-1.705,1.848,1.64,1.64,0,0,1-1.7-1.705,19.546,19.546,0,0,0-8.669-15.772,12.161,12.161,0,0,1-5.4-8.668H26.676a12.162,12.162,0,0,1-5.4,8.668,19.748,19.748,0,0,0-8.666,15.772V70.4a4.275,4.275,0,0,0,4.262,4.265H47.137a4.222,4.222,0,0,0,4.263-3.98,1.777,1.777,0,1,1,3.552.142,7.771,7.771,0,0,1-7.815,7.1" transform="translate(3.591 2.064)" fill="#4e8ae1"/><path d="M53.134,33.858h0a10,10,0,0,1-5.4-1.563c-.142,0-.142-.142-.283-.285a1.981,1.981,0,0,1-.427-2.131,1.747,1.747,0,0,1,1.563-1,1.715,1.715,0,0,1-.142-2.131,8.35,8.35,0,0,1,4.121-3.268,9.67,9.67,0,0,1,8.952,1,1.579,1.579,0,0,1,.71,1.989A9.793,9.793,0,0,1,56.4,33.29a10.416,10.416,0,0,1-3.268.568M50.15,29.6a7.624,7.624,0,0,0,2.984.712,5.713,5.713,0,0,0,2.131-.427,5.631,5.631,0,0,0,3.127-3.126,5.892,5.892,0,0,0-4.406,0,5.337,5.337,0,0,0-2.558,2.131,2.741,2.741,0,0,1-1.278.71" transform="translate(19.192 9.339)" fill="#4e8ae1"/><path d="M50,33.49a1.076,1.076,0,0,1-.567-.141A7.845,7.845,0,0,1,43.9,28.374c0-.141-.144-.283-.144-.426a7.805,7.805,0,0,1,1.28-6.962,2.087,2.087,0,0,1,1.989-.71,7.85,7.85,0,0,1,5.542,4.972,8.033,8.033,0,0,1,.427,3.7,9.1,9.1,0,0,1-1.421,3.7v.141A1.81,1.81,0,0,1,50,33.49M47.447,24.4a5.789,5.789,0,0,0-.142,2.7v.142a4.722,4.722,0,0,0,1.848,2.273c.142-.283.142-.568.285-.853a4.572,4.572,0,0,0-.142-1.989A4.161,4.161,0,0,0,47.447,24.4" transform="translate(17.774 8.286)" fill="#4e8ae1"/><path d="M47.423,64.722a6.919,6.919,0,0,1-1.707-.142H45.29a20.682,20.682,0,0,1-15.2-9.236,19.788,19.788,0,0,1-3.125-13.216A20.48,20.48,0,0,1,45.716,23.8,1.711,1.711,0,0,1,46,27.209a17.114,17.114,0,0,0-15.489,15.2A17.442,17.442,0,0,0,33.07,53.354a16.924,16.924,0,0,0,12.5,7.673h.285a17.249,17.249,0,0,0,18.33-15.2,17.033,17.033,0,0,0-4.263-13.075,1.811,1.811,0,0,1,2.7-2.414,20.671,20.671,0,0,1,5.116,15.772,19.905,19.905,0,0,1-7.389,13.641,19.411,19.411,0,0,1-12.93,4.974" transform="translate(10.979 9.736)" fill="#4e8ae1"/><path d="M47.364,27.9h-.426a20.093,20.093,0,0,0-2.843-.568,11.5,11.5,0,0,0-3.126,0,1.711,1.711,0,1,1-.283-3.411,17.285,17.285,0,0,1,3.836,0,14.558,14.558,0,0,1,3.409.712,1.739,1.739,0,0,1,1.28,2.13A2.145,2.145,0,0,1,47.364,27.9" transform="translate(16.009 9.751)" fill="#4e8ae1"/><path d="M42.871,52.57h-.142a10.622,10.622,0,0,1-7.53-4.121,11.366,11.366,0,0,1-2.416-8.242A11.163,11.163,0,0,1,45,30.261a1.789,1.789,0,1,1-.426,3.552,7.644,7.644,0,0,0-8.384,6.82A7.844,7.844,0,0,0,37.9,46.176a7.326,7.326,0,0,0,5.116,2.7,1.768,1.768,0,0,1,1.563,1.99,1.568,1.568,0,0,1-1.705,1.705" transform="translate(13.398 12.368)" fill="#4e8ae1"/><path d="M39.039,47.754H10.617a1.847,1.847,0,0,1,0-3.694H39.039a1.88,1.88,0,0,1,1.846,1.846,1.977,1.977,0,0,1-1.846,1.848" transform="translate(3.591 18.037)" fill="#4e8ae1"/><path d="M53.147,27.287H10.518A1.881,1.881,0,0,1,8.67,25.439a1.859,1.859,0,0,1,1.705-1.846H53a1.88,1.88,0,0,1,1.848,1.846,1.612,1.612,0,0,1-1.705,1.848" transform="translate(3.549 9.659)" fill="#4e8ae1"/><path d="M15.66,43.288a1.882,1.882,0,0,1-1.848-1.848V30.784a1.848,1.848,0,1,1,3.7,0V41.44a1.977,1.977,0,0,1-1.848,1.848" transform="translate(5.654 11.846)" fill="#4e8ae1"/><path d="M49.458,15.841a5.4,5.4,0,1,1,5.4-5.4,5.491,5.491,0,0,1-5.4,5.4m0-7.106a1.848,1.848,0,1,0,1.848,1.849,1.979,1.979,0,0,0-1.848-1.849" transform="translate(18.036 2.064)" fill="#4e8ae1"/><path d="M6.609,12.009a5.4,5.4,0,1,1,5.4-5.4,5.49,5.49,0,0,1-5.4,5.4m0-7.1a1.848,1.848,0,1,0,0,3.7A1.882,1.882,0,0,0,8.457,6.75,2.108,2.108,0,0,0,6.609,4.9" transform="translate(0.495 0.496)" fill="#4e8ae1"/><path d="M4.4,54.28a4.4,4.4,0,0,1,0-8.81,4.4,4.4,0,1,1,0,8.81m0-5.257a.853.853,0,0,0,0,1.705.853.853,0,0,0,0-1.705" transform="translate(0 18.614)" fill="#4e8ae1"/></g></g></svg>