<svg xmlns="http://www.w3.org/2000/svg" xmlns:xlink="http://www.w3.org/1999/xlink" width="80.106" height="80" viewBox="0 0 80.106 80"><defs><clipPath id="a"><rect width="80.106" height="80" fill="none"/></clipPath></defs><g transform="translate(0 0)" clip-path="url(#a)"><path d="M40.215,23.29A3.515,3.515,0,1,1,36.7,26.806a3.514,3.514,0,0,1,3.516-3.516" transform="translate(14.479 9.188)" fill="#fff"/><path d="M31.948,29.577a7.874,7.874,0,0,1-5.624,13.5A8.634,8.634,0,0,1,20.7,40.825,7.738,7.738,0,0,1,18.45,35.2,7.971,7.971,0,0,1,20.7,29.577a7.745,7.745,0,0,1,5.623-2.249,7.418,7.418,0,0,1,5.624,2.249" transform="translate(7.279 10.775)" fill="#b8d0f3"/><path d="M38.72,50.987a7.739,7.739,0,0,0,2.251-5.623,7.972,7.972,0,0,0-2.251-5.626A7.742,7.742,0,0,0,33.1,37.49a7.97,7.97,0,0,0-5.623,2.249,7.874,7.874,0,0,0,5.623,13.5,7.413,7.413,0,0,0,5.624-2.249M59.809,11.2a34.254,34.254,0,0,1,7.452,37.258c-.28.563-.562,1.125-.842,1.828a35.69,35.69,0,0,1-6.61,9.42,34.922,34.922,0,0,1-7.872,5.9c-.845.423-1.548.845-2.39,1.266A34.3,34.3,0,1,1,59.809,11.2M56.716,37.912a3.48,3.48,0,0,0-4.921-4.923,3.524,3.524,0,0,0,0,4.923,3.4,3.4,0,0,0,4.921,0m-6.186,18.7a1.69,1.69,0,1,0-2.39,0,1.905,1.905,0,0,0,2.39,0" transform="translate(0.507 0.472)" fill="#fff"/><path d="M48.173,61.494a1.721,1.721,0,0,1-1.266-.562L35.941,49.965a1.789,1.789,0,0,1,2.53-2.531L49.438,58.4a1.783,1.783,0,0,1,0,2.531,2.092,2.092,0,0,1-1.265.562" transform="translate(13.972 18.506)" fill="#4e8ae1"/><path d="M59.847,49.979a1.721,1.721,0,0,1-1.265-.562L47.333,38.168a1.789,1.789,0,0,1,2.531-2.53L61.111,46.885a1.782,1.782,0,0,1,0,2.532,1.529,1.529,0,0,1-1.265.562" transform="translate(18.466 13.852)" fill="#4e8ae1"/><path d="M41.541,59.337a1.724,1.724,0,0,1-1.265-.562,1.784,1.784,0,0,1,0-2.532l16.17-16.168a1.789,1.789,0,0,1,2.53,2.531L42.806,58.914a2.271,2.271,0,0,1-1.265.423" transform="translate(15.682 15.602)" fill="#4e8ae1"/><path d="M21.286,31.886a1.721,1.721,0,0,1-1.266-.562l-2.531-2.531a1.789,1.789,0,0,1,2.531-2.53l2.531,2.53a1.783,1.783,0,0,1,0,2.531,1.528,1.528,0,0,1-1.265.562" transform="translate(6.692 10.153)" fill="#4e8ae1"/><path d="M31.026,41.627a1.721,1.721,0,0,1-1.265-.562l-2.39-2.39a1.79,1.79,0,0,1,2.53-2.532l2.532,2.532a1.781,1.781,0,0,1,0,2.53,2.388,2.388,0,0,1-1.407.423" transform="translate(10.591 14.051)" fill="#4e8ae1"/><path d="M24.613,30.561a1.861,1.861,0,0,1-1.828-1.828V25.218a1.829,1.829,0,0,1,3.658,0v3.514a1.966,1.966,0,0,1-1.83,1.828" transform="translate(8.989 9.228)" fill="#4e8ae1"/><path d="M24.613,44.374a1.861,1.861,0,0,1-1.828-1.828V39.031a1.829,1.829,0,0,1,3.658,0v3.514a1.966,1.966,0,0,1-1.83,1.828" transform="translate(8.989 14.677)" fill="#4e8ae1"/><path d="M28.636,31.886a1.718,1.718,0,0,1-1.265-.562,1.783,1.783,0,0,1,0-2.531l2.53-2.53a1.79,1.79,0,1,1,2.532,2.53L29.9,31.324a1.718,1.718,0,0,1-1.265.562" transform="translate(10.591 10.153)" fill="#4e8ae1"/><path d="M18.755,41.666A1.726,1.726,0,0,1,17.49,41.1a1.784,1.784,0,0,1,0-2.532l2.53-2.53a1.79,1.79,0,1,1,2.532,2.53L20.02,41.244a1.72,1.72,0,0,1-1.265.423" transform="translate(6.692 14.011)" fill="#4e8ae1"/><path d="M19.961,35.213H16.447a1.828,1.828,0,1,1,0-3.655h3.514a1.828,1.828,0,1,1,0,3.655" transform="translate(5.768 12.45)" fill="#4e8ae1"/><path d="M33.774,35.213H30.26a1.828,1.828,0,1,1,0-3.655h3.514a1.828,1.828,0,1,1,0,3.655" transform="translate(11.217 12.45)" fill="#4e8ae1"/><path d="M36.134,71.987h0A35.966,35.966,0,0,1,10.685,61.442a35.939,35.939,0,1,1,50.755-50.9,35.087,35.087,0,0,1,9.843,18.7,36.588,36.588,0,0,1-2.11,20.526c-.28.563-.561,1.268-.842,1.83a32.369,32.369,0,0,1-7.03,9.841,38.944,38.944,0,0,1-8.155,6.186q-1.266.634-2.53,1.265a36.144,36.144,0,0,1-14.482,3.094m0-68.612A32.641,32.641,0,0,0,3.514,35.994,32.477,32.477,0,0,0,49.209,65.8a11.19,11.19,0,0,0,2.249-1.125,35.779,35.779,0,0,0,7.452-5.624,32.007,32.007,0,0,0,6.327-8.858,8.636,8.636,0,0,0,.7-1.687,32.5,32.5,0,0,0-7.03-35.431,31.274,31.274,0,0,0-22.777-9.7" transform="translate(0 0)" fill="#4e8ae1"/><path d="M14.844,54.994a1.721,1.721,0,0,1-1.266-.562A29.031,29.031,0,0,1,54.632,13.376a1.79,1.79,0,1,1-2.53,2.532A25.451,25.451,0,0,0,16.109,51.9a1.784,1.784,0,0,1,0,2.532,1.718,1.718,0,0,1-1.265.562" transform="translate(2.029 1.949)" fill="#4e8ae1"/><path d="M26.84,45.313A9.793,9.793,0,0,1,19.951,42.5,9.7,9.7,0,0,1,26.84,25.911a9.79,9.79,0,0,1,6.889,2.813,9.55,9.55,0,0,1,2.813,6.889,9.6,9.6,0,0,1-9.7,9.7m0-15.747A6.243,6.243,0,1,0,31.2,31.394a5.637,5.637,0,0,0-4.359-1.828" transform="translate(6.762 10.222)" fill="#4e8ae1"/><path d="M34.2,24.914a5.34,5.34,0,0,1-5.342-5.342V17.743a1.718,1.718,0,0,0-.562-1.265,1.781,1.781,0,0,0-1.266-.562A1.859,1.859,0,0,0,25.2,17.743v1.828a5.685,5.685,0,0,1-1.548,3.8,5.19,5.19,0,0,1-3.795,1.547,5.341,5.341,0,0,1-5.344-5.342V16.056a1.828,1.828,0,0,1,3.656,0v3.516A1.859,1.859,0,0,0,20,21.4a1.716,1.716,0,0,0,1.266-.562,2.093,2.093,0,0,0,.562-1.265V17.743A5.34,5.34,0,0,1,27.172,12.4a5.7,5.7,0,0,1,3.8,1.547,5.2,5.2,0,0,1,1.545,3.8v1.828A1.86,1.86,0,0,0,34.341,21.4a1.719,1.719,0,0,0,1.268-.562,2.093,2.093,0,0,0,.562-1.265V17.743A5.34,5.34,0,0,1,41.513,12.4h3.516a1.828,1.828,0,0,1,0,3.655H41.513a1.86,1.86,0,0,0-1.827,1.828v1.828a5.691,5.691,0,0,1-1.548,3.8A6.713,6.713,0,0,1,34.2,24.914" transform="translate(5.728 4.892)" fill="#4e8ae1"/><path d="M40.742,32.524a5.693,5.693,0,0,1-3.8-1.547,5.272,5.272,0,0,1,3.8-9,5.7,5.7,0,0,1,3.8,1.545,5.181,5.181,0,0,1,0,7.452,5.431,5.431,0,0,1-3.8,1.547m0-7.03a1.721,1.721,0,0,0-1.266.562,1.828,1.828,0,0,0,1.266,3.093,1.524,1.524,0,0,0,1.265-.562,1.783,1.783,0,0,0,0-2.531,1.372,1.372,0,0,0-1.265-.562" transform="translate(13.952 8.671)" fill="#4e8ae1"/><path d="M36.635,44.357a3.664,3.664,0,0,1-2.39-.986,3.484,3.484,0,0,1,0-4.779,3.293,3.293,0,0,1,2.39-.985,3.663,3.663,0,0,1,2.39.985,3.291,3.291,0,0,1,.985,2.39,3.669,3.669,0,0,1-.985,2.389,2.9,2.9,0,0,1-2.39.986m0-3.516h0l-.141.141h.282l-.141-.141c.141.141.141,0,0,0" transform="translate(13.136 14.837)" fill="#4e8ae1"/></g></svg>