<svg xmlns="http://www.w3.org/2000/svg" xmlns:xlink="http://www.w3.org/1999/xlink" width="98.165" height="90" viewBox="0 0 98.165 90">
  <defs>
    <clipPath id="clip-path">
      <rect id="Rectángulo_455586" data-name="Rectángulo 455586" width="98.165" height="90" fill="none"/>
    </clipPath>
  </defs>
  <g id="Grupo_1204167" data-name="Grupo 1204167" transform="translate(0 0)">
    <g id="Grupo_1204166" data-name="Grupo 1204166" transform="translate(0 0)" clip-path="url(#clip-path)">
      <path id="Trazado_1255200" data-name="Trazado 1255200" d="M91.15,36.822a4.043,4.043,0,0,1,4.083,4.084,4.694,4.694,0,0,1-1.143,2.94,3.936,3.936,0,0,1-2.94,1.143H5.4a4.044,4.044,0,0,1-4.083-4.083,4.691,4.691,0,0,1,1.143-2.94A3.936,3.936,0,0,1,5.4,36.822H91.15Z" transform="translate(0.808 22.633)" fill="#fff"/>
      <path id="Trazado_1255201" data-name="Trazado 1255201" d="M34.265,41.779a10.29,10.29,0,1,1-10.29,10.29,10.289,10.289,0,0,1,10.29-10.29" transform="translate(14.737 25.68)" fill="#b8d0f3"/>
      <path id="Trazado_1255202" data-name="Trazado 1255202" d="M49.394,12.14a2.439,2.439,0,0,1,2.449,2.613L50.7,22.267a8.209,8.209,0,0,0-1.306,1.959,7.261,7.261,0,0,0-1.308-1.8l-1.143-7.678a2.441,2.441,0,0,1,2.451-2.613" transform="translate(28.845 7.462)" fill="#fff"/>
      <path id="Trazado_1255203" data-name="Trazado 1255203" d="M63.614,16.489c18.131,0,6.044,32.668-3.92,32.668a16.7,16.7,0,0,1-2.777-.489,6.686,6.686,0,0,0-3.593,0,9.966,9.966,0,0,1-2.777.489c-9.964,0-21.887-32.668-3.92-32.668a9.9,9.9,0,0,1,7.187,3.266,16.976,16.976,0,0,1,1.308,1.8,13.555,13.555,0,0,1,1.306-1.96,10.727,10.727,0,0,1,7.187-3.1" transform="translate(22.954 10.135)" fill="#b8d0f3"/>
      <path id="Trazado_1255204" data-name="Trazado 1255204" d="M39.489,1.417A4.083,4.083,0,1,1,35.406,5.5a4.084,4.084,0,0,1,4.083-4.082" transform="translate(21.763 0.871)" fill="#fff"/>
      <path id="Trazado_1255205" data-name="Trazado 1255205" d="M8.908,3.945A5.064,5.064,0,1,1,3.844,9.009,5.064,5.064,0,0,1,8.908,3.945" transform="translate(2.363 2.425)" fill="#fff"/>
      <path id="Trazado_1255206" data-name="Trazado 1255206" d="M14.689,12.342a12.247,12.247,0,0,1,4.574,9.8,5,5,0,0,1-.165,1.634c-.326.326-.652.491-.815.817a12.209,12.209,0,0,0-3.594,8.821A12.209,12.209,0,0,0,11.1,24.592c-.326-.326-.652-.491-.817-.817,0-.652-.163-1.143-.163-1.8a12.158,12.158,0,0,1,4.574-9.638" transform="translate(6.217 7.586)" fill="#b8d0f3"/>
      <path id="Trazado_1255207" data-name="Trazado 1255207" d="M26.607,17.727a12.443,12.443,0,0,1-3.593,10.126,17.772,17.772,0,0,1-2.777,2.125c-.165.165-.491.165-.654.326a11.287,11.287,0,0,1-6.533.98V29.977a12.219,12.219,0,0,1,3.593-8.821l.817-.817a13.131,13.131,0,0,1,9.147-2.613" transform="translate(8.021 10.858)" fill="#fff"/>
      <path id="Trazado_1255208" data-name="Trazado 1255208" d="M18.192,37.073h0v1.308A11.987,11.987,0,0,1,8.065,34.95,12.631,12.631,0,0,1,4.471,24.823a13.082,13.082,0,0,1,6.535.982c.163.161.489.161.654.326A9.7,9.7,0,0,1,14.6,28.252a12.917,12.917,0,0,1,3.594,8.821" transform="translate(2.715 15.195)" fill="#fff"/>
      <path id="Trazado_1255209" data-name="Trazado 1255209" d="M26.669,24.7a12.445,12.445,0,0,1-3.593,10.126,11.984,11.984,0,0,1-10.127,3.431V36.95a12.024,12.024,0,0,1,6.533-10.944c.163-.163.489-.163.652-.328a15.2,15.2,0,0,1,6.535-.978" transform="translate(7.959 15.156)" fill="#fff"/>
      <path id="Trazado_1255210" data-name="Trazado 1255210" d="M18.13,30.079h0v1.306a11.283,11.283,0,0,1-6.533-.98,1.246,1.246,0,0,0-.654-.326,11.446,11.446,0,0,1-2.777-2.125A12.621,12.621,0,0,1,4.573,17.829a13.1,13.1,0,0,1,9.31,2.777c.326.326.652.488.817.817a12.809,12.809,0,0,1,3.43,8.656" transform="translate(2.777 10.92)" fill="#fff"/>
      <path id="Trazado_1255211" data-name="Trazado 1255211" d="M56.048,4.11a2.157,2.157,0,0,1,.98,2.777,2.217,2.217,0,0,1-1.8,1.143,2.057,2.057,0,0,1-.98-.165,2.213,2.213,0,0,1-1.143-1.8,2.085,2.085,0,0,1,.163-.982,2.217,2.217,0,0,1,1.8-1.143,2.057,2.057,0,0,1,.98.165" transform="translate(32.644 2.425)" fill="#4e8ae1"/>
      <path id="Trazado_1255212" data-name="Trazado 1255212" d="M39.662,11.7a2.157,2.157,0,0,1,.978,2.777,2.219,2.219,0,0,1-1.8,1.143,2.057,2.057,0,0,1-.98-.165,2.213,2.213,0,0,1-1.143-1.8,2.085,2.085,0,0,1,.163-.982,2.217,2.217,0,0,1,1.8-1.143,2.07,2.07,0,0,1,.982.165" transform="translate(22.571 7.088)" fill="#4e8ae1"/>
      <path id="Trazado_1255213" data-name="Trazado 1255213" d="M30.759,1.578a2.158,2.158,0,0,1,.98,2.777,2.221,2.221,0,0,1-1.8,1.143,2.093,2.093,0,0,1-.98-.161,2.223,2.223,0,0,1-1.143-1.8,2.068,2.068,0,0,1,.163-.978,2.213,2.213,0,0,1,1.8-1.143,2.1,2.1,0,0,1,.98.161" transform="translate(17.099 0.871)" fill="#4e8ae1"/>
      <path id="Trazado_1255214" data-name="Trazado 1255214" d="M27.015,9.167A2.156,2.156,0,0,1,28,11.944a2.217,2.217,0,0,1-1.8,1.143,2.075,2.075,0,0,1-.98-.163,2.221,2.221,0,0,1-1.143-1.8,2.078,2.078,0,0,1,.163-.98A2.217,2.217,0,0,1,26.035,9a2.057,2.057,0,0,1,.98.165" transform="translate(14.798 5.533)" fill="#4e8ae1"/>
      <path id="Trazado_1255215" data-name="Trazado 1255215" d="M15.584,1.578a2.156,2.156,0,0,1,.98,2.777,2.217,2.217,0,0,1-1.8,1.143,2.09,2.09,0,0,1-.98-.161,2.224,2.224,0,0,1-1.145-1.8,2.05,2.05,0,0,1,.165-.978,2.213,2.213,0,0,1,1.8-1.143,2.087,2.087,0,0,1,.978.161" transform="translate(7.772 0.871)" fill="#4e8ae1"/>
      <path id="Trazado_1255216" data-name="Trazado 1255216" d="M35.011,65.067a12.25,12.25,0,1,1,12.25-12.25,12.34,12.34,0,0,1-12.25,12.25m0-20.419a8.167,8.167,0,1,0,8.167,8.169,8.088,8.088,0,0,0-8.167-8.169" transform="translate(13.99 24.934)" fill="#4e8ae1"/>
      <path id="Trazado_1255217" data-name="Trazado 1255217" d="M91.959,47.82H6.207A6.2,6.2,0,0,1,0,41.613,6.619,6.619,0,0,1,1.8,37.2a6.308,6.308,0,0,1,4.41-1.8H91.959a6.205,6.205,0,0,1,6.208,6.207,6.137,6.137,0,0,1-6.208,6.207M6.207,39.653a2,2,0,0,0-1.469.652,2.067,2.067,0,0,0-.654,1.471A2.162,2.162,0,0,0,6.207,43.9H91.959a2,2,0,0,0,1.471-.652,2.076,2.076,0,0,0,.654-1.471,2.161,2.161,0,0,0-2.125-2.123Z" transform="translate(0 21.763)" fill="#4e8ae1"/>
      <path id="Trazado_1255218" data-name="Trazado 1255218" d="M48.838,25.361a1.947,1.947,0,0,1-1.96-1.8l-1.143-7.678v-.163a4.417,4.417,0,0,1,1.143-3.431,4.361,4.361,0,0,1,3.268-1.469,4.117,4.117,0,0,1,3.266,1.469,4.417,4.417,0,0,1,1.143,3.431v.163L53.413,23.4a1.918,1.918,0,0,1-2.286,1.634,2.324,2.324,0,0,1-.98-.326,1.416,1.416,0,0,1-.98.489c-.163.163-.163.163-.328.163m.817-9.963.491,2.939.489-2.939c0-.165,0-.165-.163-.328a.569.569,0,0,0-.326-.163c-.163,0-.328,0-.328.163s-.163.163-.163.328" transform="translate(28.093 6.653)" fill="#4e8ae1"/>
      <path id="Trazado_1255219" data-name="Trazado 1255219" d="M60.613,52.026a11.131,11.131,0,0,1-3.43-.652,6.141,6.141,0,0,0-2.451,0,17.544,17.544,0,0,1-3.43.652c-3.593,0-7.513-3.1-10.616-8.656a33.817,33.817,0,0,1-4.573-15.68c0-3.594.817-6.535,2.613-8.658,1.306-1.8,4.083-3.757,8.821-3.757a11.863,11.863,0,0,1,8.493,3.594,11.59,11.59,0,0,1,8.493-3.594c4.737,0,7.515,2.125,8.821,3.757a14.009,14.009,0,0,1,2.613,8.658,31.994,31.994,0,0,1-4.573,15.68c-3.266,5.553-7.187,8.656-10.781,8.656m-4.573-4.9a9.638,9.638,0,0,1,2.286.328c1.471.326,2.123.489,2.286.489,2.123,0,4.9-2.613,7.187-6.533a29.2,29.2,0,0,0,3.92-13.72,10.249,10.249,0,0,0-1.632-6.044c-1.308-1.634-3.105-2.286-5.718-2.286a7.319,7.319,0,0,0-5.553,2.448,8.974,8.974,0,0,0-1.143,1.471,1.984,1.984,0,0,1-3.594,0,9.069,9.069,0,0,0-.98-1.306,7.553,7.553,0,0,0-5.716-2.613c-2.614,0-4.411.817-5.554,2.286S40.2,25.076,40.2,27.69a29.22,29.22,0,0,0,3.919,13.72c2.288,3.92,5.064,6.533,7.187,6.533a7.2,7.2,0,0,0,2.286-.489,12.641,12.641,0,0,1,2.451-.328" transform="translate(22.198 9.389)" fill="#4e8ae1"/>
      <path id="Trazado_1255220" data-name="Trazado 1255220" d="M57.206,33.391a.987.987,0,0,1-.654-.163,1.988,1.988,0,0,1-1.143-2.614c.98-2.776,1.143-5.39.326-6.533a2.585,2.585,0,0,0-2.123-.815,2.123,2.123,0,0,1,0-4.247A6.318,6.318,0,0,1,59,21.632c1.632,2.449,1.632,6.207.163,10.453a2.3,2.3,0,0,1-1.96,1.306" transform="translate(31.649 11.69)" fill="#4e8ae1"/>
      <path id="Trazado_1255221" data-name="Trazado 1255221" d="M15.165,41.217a5.506,5.506,0,0,1-1.632-.165,2.077,2.077,0,0,1-1.8-1.8V37.787A14.315,14.315,0,0,1,15.982,27.5a13.1,13.1,0,0,1,3.43-2.451,3.565,3.565,0,0,0,.815-.489,13.1,13.1,0,0,1,7.513-1.143,2.078,2.078,0,0,1,1.8,1.8A14.166,14.166,0,0,1,25.29,36.97a13.588,13.588,0,0,1-10.126,4.247M25.455,27.5a7,7,0,0,0-3.593.978c-.166.165-.329.165-.656.328a9.528,9.528,0,0,0-2.451,1.8,10.12,10.12,0,0,0-2.937,6.7,10.46,10.46,0,0,0,6.694-2.94A11.4,11.4,0,0,0,25.455,27.5" transform="translate(7.213 14.318)" fill="#4e8ae1"/>
      <path id="Trazado_1255222" data-name="Trazado 1255222" d="M17.527,41.148A14.763,14.763,0,0,1,7.4,37.064,15.1,15.1,0,0,1,3.153,25.3a1.93,1.93,0,0,1,1.8-1.8,14.858,14.858,0,0,1,7.513,1.143c.326.163.491.326.817.489a13.074,13.074,0,0,1,3.43,2.451,14.316,14.316,0,0,1,4.248,10.29v1.469a1.932,1.932,0,0,1-1.8,1.8ZM7.236,27.428a10.3,10.3,0,0,0,3.1,6.7,10.116,10.116,0,0,0,6.7,2.94,10.122,10.122,0,0,0-2.94-6.7,23.4,23.4,0,0,0-2.451-1.8c-.163-.165-.326-.165-.652-.326-1.306-.328-2.614-.654-3.757-.817" transform="translate(1.911 14.387)" fill="#4e8ae1"/>
      <path id="Trazado_1255223" data-name="Trazado 1255223" d="M19.97,26.708h-.328a2.032,2.032,0,0,1-1.8-2.288c0-.489.163-.978.163-1.469A10.54,10.54,0,0,0,15.4,16.089a10.231,10.231,0,0,0-2.613,6.861,4.52,4.52,0,0,0,.163,1.469,2.056,2.056,0,1,1-4.083.491A8.649,8.649,0,0,1,8.7,22.787a14.409,14.409,0,0,1,5.39-11.27,1.987,1.987,0,0,1,2.614,0,14.651,14.651,0,0,1,5.39,11.27,7.966,7.966,0,0,1-.163,1.96,1.888,1.888,0,0,1-1.96,1.96" transform="translate(5.348 6.777)" fill="#4e8ae1"/>
      <path id="Trazado_1255224" data-name="Trazado 1255224" d="M15.165,34.375a5.559,5.559,0,0,1-1.632-.163,2.08,2.08,0,0,1-1.8-1.8V30.946a14.32,14.32,0,0,1,4.247-10.29q.489-.492.98-.98A15.379,15.379,0,0,1,27.74,16.409a2.077,2.077,0,0,1,1.8,1.8A14.162,14.162,0,0,1,25.29,29.966a15.446,15.446,0,0,1-3.265,2.449,3.523,3.523,0,0,0-.819.491,13.212,13.212,0,0,1-6.042,1.469m10.29-13.72A9.961,9.961,0,0,0,19.574,23.1c-.328.163-.491.491-.654.654a10.118,10.118,0,0,0-2.939,6.7,10.383,10.383,0,0,0,3.756-.815c.163-.165.326-.165.652-.328a7.885,7.885,0,0,0,2.286-1.8,13.34,13.34,0,0,0,2.779-6.859" transform="translate(7.213 10.052)" fill="#4e8ae1"/>
      <path id="Trazado_1255225" data-name="Trazado 1255225" d="M17.465,34.354a14.09,14.09,0,0,1-5.881-1.308,3.567,3.567,0,0,1-.815-.488A15.561,15.561,0,0,1,7.5,30.108,15.09,15.09,0,0,1,3.254,18.347a1.931,1.931,0,0,1,1.8-1.8c.491,0,.98-.163,1.634-.163a14.6,14.6,0,0,1,9.147,3.266c.326.326.652.491.98.817A14.314,14.314,0,0,1,21.059,30.76v1.471a1.931,1.931,0,0,1-1.8,1.8,4.182,4.182,0,0,1-1.8.326M7.174,20.635a10.311,10.311,0,0,0,3.1,6.7,12.53,12.53,0,0,0,2.286,1.794c.163.163.328.163.654.326a9.678,9.678,0,0,0,3.757.817,10.115,10.115,0,0,0-2.94-6.7l-.654-.654a10.415,10.415,0,0,0-6.207-2.286" transform="translate(1.973 10.073)" fill="#4e8ae1"/>
      <path id="Trazado_1255226" data-name="Trazado 1255226" d="M13.655,41.891a2.162,2.162,0,0,1-2.123-2.123V33.887a2.123,2.123,0,0,1,4.247,0v5.881a2.162,2.162,0,0,1-2.123,2.123" transform="translate(7.088 19.525)" fill="#4e8ae1"/>
      <path id="Trazado_1255227" data-name="Trazado 1255227" d="M40.3,12.415A6.208,6.208,0,1,1,46.5,6.208,6.2,6.2,0,0,1,40.3,12.415m0-8.167A2.161,2.161,0,0,0,38.174,6.37a2.123,2.123,0,1,0,4.247,0A2.161,2.161,0,0,0,40.3,4.248" transform="translate(20.955 0)" fill="#4e8ae1"/>
      <path id="Trazado_1255228" data-name="Trazado 1255228" d="M30.353,30.561A5.064,5.064,0,1,1,35.416,25.5a5.089,5.089,0,0,1-5.064,5.064m0-6.207a.98.98,0,1,0,.98.98c.165-.489-.326-.98-.98-.98" transform="translate(15.544 12.56)" fill="#4e8ae1"/>
      <path id="Trazado_1255229" data-name="Trazado 1255229" d="M9.716,17A7.25,7.25,0,0,1,2.529,9.816,7.249,7.249,0,0,1,9.716,2.631,7.249,7.249,0,0,1,16.9,9.816,7.25,7.25,0,0,1,9.716,17m0-10.29a3.1,3.1,0,0,0-3.1,3.1,3,3,0,0,0,3.1,3.1,3,3,0,0,0,3.1-3.1,3.1,3.1,0,0,0-3.1-3.1" transform="translate(1.554 1.617)" fill="#4e8ae1"/>
    </g>
  </g>
</svg>
