<svg xmlns="http://www.w3.org/2000/svg" xmlns:xlink="http://www.w3.org/1999/xlink" width="79.862" height="80" viewBox="0 0 79.862 80"><defs><clipPath id="a"><rect width="79.862" height="80" fill="none"/></clipPath></defs><g transform="translate(0 0)"><g transform="translate(0 0)" clip-path="url(#a)"><path d="M5.041,32.868,7.263,43.423l3.055,14.724A9.8,9.8,0,0,0,19.9,65.923H56.153a9.8,9.8,0,0,0,9.582-7.776l3.055-14.863,2.223-10.416Z" transform="translate(1.903 12.41)" fill="#b8d0f3"/><path d="M31.334,38.413a8.75,8.75,0,1,1-8.75,8.75,8.751,8.751,0,0,1,8.75-8.75" transform="translate(8.527 14.503)" fill="#fff"/><path d="M5.992,7.662a3.472,3.472,0,1,1-3.471,3.473A3.473,3.473,0,0,1,5.992,7.662" transform="translate(0.952 2.893)" fill="#fff"/><path d="M52.2,1.311a4.306,4.306,0,1,1-4.3,4.3,4.305,4.305,0,0,1,4.3-4.3" transform="translate(18.083 0.495)" fill="#fff"/><path d="M73.255,26.516a4.328,4.328,0,0,1,4.306,4.306,4.269,4.269,0,0,1-4.306,4.3H5.615a4.327,4.327,0,0,1-4.3-4.3,4.694,4.694,0,0,1,1.251-3.057,4.086,4.086,0,0,1,3.054-1.249h67.64Z" transform="translate(0.495 10.011)" fill="#fff"/><path d="M30.763,11.393H30.9c3.334,0,6.25,3.751,6.805,8.75-3.75.138-6.805,4.721-6.805,10.416,0-5.695-3.055-10.278-6.805-10.416.416-5,3.195-8.611,6.666-8.75" transform="translate(9.098 4.301)" fill="#fff"/><path d="M40.845,11.393h0c3.473,0,6.389,3.751,6.944,8.75-3.75.138-6.8,4.721-6.8,10.416,0-5.695-3.057-10.278-6.807-10.416.416-5,3.195-8.611,6.666-8.75" transform="translate(12.905 4.301)" fill="#fff"/><path d="M25.836,17.744h.139c3.75.139,6.805,4.722,6.805,10.416a8.527,8.527,0,0,1-.139,1.806H18.892c0-.554-.139-1.112-.139-1.806.139-5.833,3.195-10.416,7.083-10.416" transform="translate(7.081 6.699)" fill="#b8d0f3"/><path d="M45.962,17.744h0c3.889,0,7.085,4.722,7.085,10.416a8.527,8.527,0,0,1-.139,1.806H39.159c0-.554-.141-1.112-.141-1.806,0-5.833,3.057-10.416,6.944-10.416" transform="translate(14.732 6.699)" fill="#b8d0f3"/><path d="M20.819,11.393c3.334,0,6.25,3.751,6.807,8.75-3.75.138-6.807,4.721-6.807,10.416,0-5.695-3.055-10.278-6.805-10.416.416-5,3.195-8.75,6.805-8.75h0" transform="translate(5.291 4.301)" fill="#fff"/><path d="M35.918,5.142c3.473,0,6.25,3.751,6.805,8.75-3.332,0-6.25,3.75-6.805,8.749h-.277c-.555-4.86-3.334-8.611-6.807-8.749.833-5,3.612-8.75,7.083-8.75" transform="translate(10.887 1.941)" fill="#b8d0f3"/><path d="M35.918,17.744h.141c3.748.139,6.8,4.722,6.8,10.416a8.527,8.527,0,0,1-.139,1.806H28.974c0-.554-.139-1.112-.139-1.806.139-5.833,3.2-10.416,7.083-10.416" transform="translate(10.887 6.699)" fill="#b8d0f3"/><path d="M56.3,50.451c0,.139.141.417.141.555a1.747,1.747,0,0,1-1.251,1.667c-.139,0-.416.139-.555.139a1.745,1.745,0,0,1-1.667-1.249c0-.141-.139-.417-.139-.557a1.745,1.745,0,0,1,1.251-1.667A1.615,1.615,0,0,1,56.3,50.451" transform="translate(19.948 18.576)" fill="#4e8ae1"/><path d="M52.573,12.643c0,.139.139.417.139.555a1.746,1.746,0,0,1-1.251,1.667c-.139,0-.416.139-.555.139a1.743,1.743,0,0,1-1.667-1.249c0-.139-.139-.417-.139-.557a1.745,1.745,0,0,1,1.251-1.667,1.7,1.7,0,0,1,2.222,1.112" transform="translate(18.539 4.301)" fill="#4e8ae1"/><path d="M31.1,2.58c0,.139.138.417.138.555A1.744,1.744,0,0,1,29.986,4.8h-.555a1.746,1.746,0,0,1-1.667-1.249c0-.141-.139-.417-.139-.555a1.746,1.746,0,0,1,1.251-1.667A1.782,1.782,0,0,1,31.1,2.58" transform="translate(10.431 0.475)" fill="#4e8ae1"/><path d="M25.836,5.142c3.473,0,6.25,3.751,6.805,8.75-3.332,0-6.25,3.75-6.805,8.749H25.56c-.555-4.86-3.334-8.611-6.807-8.749.833-5,3.612-8.75,7.083-8.75" transform="translate(7.081 1.941)" fill="#b8d0f3"/><path d="M15.892,17.744c3.751.139,6.807,4.722,6.807,10.416a8.527,8.527,0,0,1-.139,1.806H8.809c0-.554-.138-1.112-.138-1.806C8.809,22.327,12,17.744,15.892,17.744h0" transform="translate(3.274 6.699)" fill="#b8d0f3"/><path d="M13.454,3.753c0,.139.139.417.139.555a1.747,1.747,0,0,1-1.251,1.667c-.138,0-.416.139-.555.139A1.746,1.746,0,0,1,10.12,4.864c0-.139-.139-.417-.139-.557a1.745,1.745,0,0,1,1.251-1.667,1.82,1.82,0,0,1,2.222,1.112" transform="translate(3.769 0.969)" fill="#4e8ae1"/><path d="M5.891,17.7c0,.139.139.417.139.555A1.746,1.746,0,0,1,4.78,19.925H4.225a1.745,1.745,0,0,1-1.667-1.249c0-.139-.138-.417-.138-.555a1.744,1.744,0,0,1,1.249-1.667A1.785,1.785,0,0,1,5.891,17.7" transform="translate(0.914 6.185)" fill="#4e8ae1"/><path d="M4.681,49.123c0,.139.139.416.139.555a1.747,1.747,0,0,1-1.251,1.667c-.138,0-.415.139-.555.139a1.746,1.746,0,0,1-1.667-1.249c0-.141-.136-.417-.136-.557a1.741,1.741,0,0,1,1.248-1.667,1.963,1.963,0,0,1,2.222,1.112" transform="translate(0.457 18.1)" fill="#4e8ae1"/><path d="M31.791,58.036A10.417,10.417,0,1,1,42.208,47.62,10.491,10.491,0,0,1,31.791,58.036m0-17.36a6.944,6.944,0,1,0,6.944,6.944,6.964,6.964,0,0,0-6.944-6.944" transform="translate(8.071 14.047)" fill="#4e8ae1"/><path d="M29.431,51.489a1.84,1.84,0,0,1-1.806-1.806V42.739a1.806,1.806,0,0,1,3.612,0v6.944a1.839,1.839,0,0,1-1.806,1.806" transform="translate(10.431 15.455)" fill="#4e8ae1"/><path d="M33.854,47.065H26.91a1.805,1.805,0,1,1,0-3.611h6.944a1.805,1.805,0,0,1,0,3.611" transform="translate(9.479 16.407)" fill="#4e8ae1"/><path d="M56.654,68.091H20.4A11.582,11.582,0,0,1,9.153,58.925L3.737,33.646a1.843,1.843,0,0,1,1.389-2.084,1.842,1.842,0,0,1,2.083,1.39L12.486,58.23a8,8,0,0,0,7.779,6.389h36.25a7.89,7.89,0,0,0,7.778-6.389L69.57,32.952a1.77,1.77,0,1,1,3.471.694L67.764,58.925a11.316,11.316,0,0,1-11.11,9.166" transform="translate(1.403 11.909)" fill="#4e8ae1"/><path d="M33.161,16.015a1.577,1.577,0,0,1-1.667-1.528C31.079,10.459,28.857,7.4,26.356,7.4s-4.722,3.055-5.14,7.083a1.773,1.773,0,0,1-1.665,1.528,1.819,1.819,0,0,1-1.806-1.667v-.139c.7-5.972,4.306-10.277,8.611-10.277s7.917,4.3,8.611,10.277v.139a2.061,2.061,0,0,1-1.806,1.667" transform="translate(6.7 1.484)" fill="#4e8ae1"/><path d="M43.243,16.015a1.577,1.577,0,0,1-1.667-1.528C41.16,10.459,38.938,7.4,36.439,7.4s-4.724,3.055-5.14,7.083a1.776,1.776,0,0,1-1.667,1.528,1.817,1.817,0,0,1-1.8-1.667v-.139c.694-5.972,4.3-10.277,8.611-10.277s7.916,4.3,8.61,10.277v.139a2.061,2.061,0,0,1-1.806,1.667" transform="translate(10.507 1.484)" fill="#4e8ae1"/><path d="M28.082,22.266a1.577,1.577,0,0,1-1.667-1.528c-.416-4.028-2.638-7.083-5-7.083-2.5,0-4.724,3.055-5.138,7.083a1.778,1.778,0,0,1-1.667,1.528A1.819,1.819,0,0,1,12.805,20.6V20.46c.694-5.972,4.3-10.277,8.611-10.277h.139c4.166.138,7.776,4.444,8.472,10.277V20.6a2.384,2.384,0,0,1-1.945,1.667" transform="translate(4.835 3.844)" fill="#4e8ae1"/><path d="M38.126,22.266a1.577,1.577,0,0,1-1.667-1.528c-.416-4.028-2.638-7.083-5-7.083-2.5,0-4.583,3.055-5,7.083a1.774,1.774,0,0,1-1.667,1.528,1.817,1.817,0,0,1-1.8-1.667V20.46c.694-5.833,4.166-10.139,8.472-10.277h.277c4.167.138,7.779,4.444,8.473,10.277V20.6a2.771,2.771,0,0,1-2.084,1.667" transform="translate(8.68 3.844)" fill="#4e8ae1"/><path d="M48.246,22.266a1.576,1.576,0,0,1-1.665-1.528c-.417-4.028-2.639-7.083-5.138-7.083s-4.585,3.055-5,7.083a1.777,1.777,0,0,1-1.667,1.528A1.819,1.819,0,0,1,32.969,20.6V20.46c.694-5.833,4.167-10.139,8.473-10.277h.138c4.3,0,7.917,4.3,8.611,10.277V20.6a2.384,2.384,0,0,1-1.945,1.667" transform="translate(12.448 3.844)" fill="#4e8ae1"/><path d="M23.042,32.09H22.9a1.727,1.727,0,0,1-1.528-1.944c0-.555.139-.973.139-1.529,0-4.583-2.361-8.61-5.14-8.61s-5.137,4.027-5.137,8.75a5.737,5.737,0,0,0,.138,1.526A1.748,1.748,0,1,1,7.9,30.7a9.059,9.059,0,0,1-.141-1.944c0-6.805,3.751-12.223,8.752-12.223h.138c4.722.141,8.473,5.418,8.473,12.083a9.085,9.085,0,0,1-.141,1.947,2.4,2.4,0,0,1-1.944,1.526" transform="translate(2.931 6.242)" fill="#4e8ae1"/><path d="M33.123,32.09h-.139a1.727,1.727,0,0,1-1.528-1.944c0-.555.141-.973.141-1.529,0-4.583-2.363-8.61-5.14-8.61s-5.138,4.027-5.138,8.61a5.747,5.747,0,0,0,.138,1.529,1.748,1.748,0,0,1-3.471.417,9.173,9.173,0,0,1-.139-1.947c0-6.665,3.75-12.083,8.472-12.083H26.6c4.721.141,8.472,5.418,8.472,12.083a9.173,9.173,0,0,1-.139,1.947,2.06,2.06,0,0,1-1.806,1.526" transform="translate(6.738 6.242)" fill="#4e8ae1"/><path d="M43.205,32.09h-.139a1.727,1.727,0,0,1-1.528-1.944c0-.555.141-.973.141-1.529,0-4.583-2.361-8.61-5.14-8.61S31.4,24.034,31.4,28.617a5.747,5.747,0,0,0,.138,1.529,1.748,1.748,0,0,1-3.471.417,9.173,9.173,0,0,1-.139-1.947c0-6.665,3.75-12.083,8.473-12.083h.277c4.721.141,8.472,5.418,8.472,12.083a9.173,9.173,0,0,1-.139,1.947,2.06,2.06,0,0,1-1.806,1.526" transform="translate(10.545 6.242)" fill="#4e8ae1"/><path d="M53.326,32.128h-.139a1.727,1.727,0,0,1-1.528-1.944c0-.555.139-.973.139-1.529,0-4.721-2.361-8.749-5.277-8.749-2.779,0-5.14,4.028-5.14,8.611a5.687,5.687,0,0,0,.139,1.528,1.749,1.749,0,0,1-3.473.416,9.237,9.237,0,0,1-.138-1.944c0-6.667,3.748-12.084,8.471-12.084h.141c4.86,0,8.749,5.277,8.749,12.222a9.262,9.262,0,0,1-.138,1.947,2.061,2.061,0,0,1-1.806,1.526" transform="translate(14.314 6.204)" fill="#4e8ae1"/><path d="M73.751,37.427H6.111A6.165,6.165,0,0,1,0,31.316,6.165,6.165,0,0,1,6.111,25.2h67.64a6.165,6.165,0,0,1,6.111,6.111,6.093,6.093,0,0,1-1.8,4.3,6.63,6.63,0,0,1-4.306,1.806M6.111,28.816a2.641,2.641,0,0,0-1.806.7,2.3,2.3,0,0,0-.693,1.8,2.636,2.636,0,0,0,2.639,2.638H73.889a2.646,2.646,0,0,0,1.807-.693,2.3,2.3,0,0,0,.694-1.806,2.638,2.638,0,0,0-2.639-2.639Z" transform="translate(0 9.516)" fill="#4e8ae1"/><path d="M6.654,42.73V39.118H23.459a1.689,1.689,0,0,1,1.667,1.667,1.818,1.818,0,0,1-1.667,1.806Z" transform="translate(2.512 14.77)" fill="#4e8ae1"/><path d="M56.457,42.592H39.512a1.84,1.84,0,0,1-1.8-1.807,1.722,1.722,0,0,1,1.8-1.665H56.457a1.839,1.839,0,0,1,1.806,1.806,1.723,1.723,0,0,1-1.806,1.667" transform="translate(14.237 14.77)" fill="#4e8ae1"/><path d="M6.487,16.806a5.277,5.277,0,1,1,5.277-5.277,5.366,5.366,0,0,1-5.277,5.277m0-6.944a1.805,1.805,0,1,0,1.806,1.806A1.941,1.941,0,0,0,6.487,9.862" transform="translate(0.457 2.36)" fill="#4e8ae1"/><path d="M52.691,12.222a6.167,6.167,0,0,1-6.112-6.111,6.112,6.112,0,0,1,12.225,0,6.167,6.167,0,0,1-6.112,6.111m0-8.611A2.637,2.637,0,0,0,50.053,6.25a2.553,2.553,0,0,0,2.638,2.638,2.639,2.639,0,1,0,0-5.277" transform="translate(17.587 0)" fill="#4e8ae1"/></g></g></svg>