<svg id="Grupo_1204316" data-name="Grupo 1204316" xmlns="http://www.w3.org/2000/svg" xmlns:xlink="http://www.w3.org/1999/xlink" width="86.655" height="110" viewBox="0 0 86.655 110">
  <defs>
    <clipPath id="clip-path">
      <rect id="Rectángulo_455687" data-name="Rectángulo 455687" width="86.655" height="110" fill="none"/>
    </clipPath>
  </defs>
  <g id="Grupo_1204315" data-name="Grupo 1204315" transform="translate(0 0)" clip-path="url(#clip-path)">
    <path id="Trazado_1255611" data-name="Trazado 1255611" d="M51.155,20.738l-6.537,6.535L31.359,14.014l9.9-9.9a9.249,9.249,0,0,1,13.259,0,9.387,9.387,0,0,1,2.8,6.537,9.067,9.067,0,0,1-2.8,6.537Z" transform="translate(26.535 1.113)" fill="#b8d0f3"/>
    <path id="Trazado_1255612" data-name="Trazado 1255612" d="M52.416,26.271l-6.537,6.535-5.042-4.855-9.9-9.9L25.9,13.01l6.722-6.535,3.362,3.362L49.054,22.909Z" transform="translate(21.913 5.478)" fill="#b8d0f3"/>
    <path id="Trazado_1255613" data-name="Trazado 1255613" d="M54.639,22.643,21.584,55.7a6.877,6.877,0,0,1-9.9,0,6.877,6.877,0,0,1,0-9.9L44.742,12.746Z" transform="translate(8.11 10.785)" fill="#fff"/>
    <path id="Trazado_1255614" data-name="Trazado 1255614" d="M43.826,25.492a5.789,5.789,0,1,1-5.79,5.79,5.7,5.7,0,0,1,5.79-5.79" transform="translate(32.185 21.57)" fill="#b8d0f3"/>
    <path id="Trazado_1255615" data-name="Trazado 1255615" d="M9.828,7.789a4.67,4.67,0,0,1,0,9.34,4.746,4.746,0,0,1-4.669-4.671A4.624,4.624,0,0,1,9.828,7.789" transform="translate(4.365 6.591)" fill="#b8d0f3"/>
    <path id="Trazado_1255616" data-name="Trazado 1255616" d="M21.368,59.732c0,3.921-2.987,7.283-6.535,7.283S8.3,63.842,8.3,59.732c0-3.548,4.3-7.844,6.537-11.581,2.241,3.923,6.535,7.846,6.535,11.581" transform="translate(7.019 40.744)" fill="#b8d0f3"/>
    <path id="Trazado_1255617" data-name="Trazado 1255617" d="M26.783,49.653a5.877,5.877,0,0,1-5.6,6.162,5.877,5.877,0,0,1-5.6-6.162c0-3.175,3.735-6.726,5.6-9.9,1.682,3.36,5.6,6.722,5.6,9.9" transform="translate(13.182 33.64)" fill="#b8d0f3"/>
    <path id="Trazado_1255618" data-name="Trazado 1255618" d="M45.695,30.814a2.288,2.288,0,0,1-1.68-.746,2.369,2.369,0,0,1,0-3.364l9.9-9.9a7.217,7.217,0,0,0,2.055-5.042,7.568,7.568,0,0,0-2.055-5.044A6.894,6.894,0,0,0,48.87,4.669a7.566,7.566,0,0,0-5.044,2.053l-9.9,9.9a2.377,2.377,0,1,1-3.362-3.36l9.9-9.9A11.274,11.274,0,0,1,48.684,0,12.079,12.079,0,0,1,56.9,3.362a11.273,11.273,0,0,1,3.362,8.215A12.072,12.072,0,0,1,56.9,19.795l-9.9,9.9c0,.932-.746,1.121-1.307,1.121" transform="translate(25.272 0)" fill="#4e8ae1"/>
    <path id="Trazado_1255619" data-name="Trazado 1255619" d="M17.648,61.086a8.76,8.76,0,0,1-6.535-2.8A9.33,9.33,0,0,1,8.5,51.748a8.765,8.765,0,0,1,2.8-6.537L44.355,12.157a2.377,2.377,0,1,1,3.362,3.36L14.287,48.386a4.5,4.5,0,0,0-1.307,3.362,5.372,5.372,0,0,0,1.307,3.364,4.381,4.381,0,0,0,3.175,1.307,5.378,5.378,0,0,0,3.362-1.307L53.879,22.054a2.377,2.377,0,1,1,3.362,3.362L24.184,58.472a9.332,9.332,0,0,1-6.535,2.614" transform="translate(7.19 9.694)" fill="#4e8ae1"/>
    <path id="Trazado_1255620" data-name="Trazado 1255620" d="M46.907,36.327a2.281,2.281,0,0,1-1.68-.746l-19.8-19.8a2.769,2.769,0,0,1-.748-1.68,2.277,2.277,0,0,1,.748-1.68l6.535-6.537a2.367,2.367,0,0,1,3.362,0l19.8,19.8a2.365,2.365,0,0,1,0,3.36L48.4,35.581a1.7,1.7,0,0,1-1.5.746M30.286,14.1,46.721,30.537l3.362-3.362L33.648,10.742Z" transform="translate(20.886 4.387)" fill="#4e8ae1"/>
    <path id="Trazado_1255621" data-name="Trazado 1255621" d="M46.939,19.12a2.281,2.281,0,0,1-1.68-.746l-8.217-8.217A2.377,2.377,0,1,1,40.4,6.8l8.219,8.215a2.372,2.372,0,0,1,0,3.364,3.362,3.362,0,0,1-1.682.746" transform="translate(30.751 5.157)" fill="#4e8ae1"/>
    <path id="Trazado_1255622" data-name="Trazado 1255622" d="M15.96,70.283c-4.855,0-8.777-4.3-8.777-9.524,0-3.175,2.241-6.164,4.294-9.151A30.269,30.269,0,0,0,13.9,48.059a2.144,2.144,0,0,1,2.055-1.121,2.148,2.148,0,0,1,2.055,1.121,34.9,34.9,0,0,0,2.614,3.735c2.055,2.8,4.3,5.79,4.3,8.965-.188,5.228-4.11,9.524-8.965,9.524m-.186-17a4.134,4.134,0,0,1-.748.934c-1.68,2.241-3.362,4.669-3.362,6.349,0,2.614,1.868,4.855,4.11,4.855s4.108-2.241,4.108-4.855c0-1.68-1.68-3.921-3.362-6.162a3.908,3.908,0,0,0-.746-1.121" transform="translate(6.078 39.717)" fill="#4e8ae1"/>
    <path id="Trazado_1255623" data-name="Trazado 1255623" d="M22.208,59.273c-4.3,0-7.844-3.737-7.844-8.592,0-2.8,1.868-5.415,3.735-8.031.748-1.121,1.5-2.055,2.055-2.989a2.149,2.149,0,0,1,2.055-1.121,2.147,2.147,0,0,1,2.055,1.121A25.123,25.123,0,0,0,26.5,42.837c1.866,2.43,3.735,5.044,3.735,7.844-.186,4.669-3.735,8.592-8.031,8.592m-.186-14.2c-.186.188-.186.373-.373.561-1.309,1.866-2.8,3.921-2.8,5.228,0,2.055,1.494,3.923,3.175,3.923,1.868,0,3.175-1.682,3.175-3.923,0-1.307-1.494-3.362-2.8-5.044a.972.972,0,0,0-.373-.746" transform="translate(12.154 32.612)" fill="#4e8ae1"/>
    <path id="Trazado_1255624" data-name="Trazado 1255624" d="M10.941,20.568a7.1,7.1,0,1,1,7.1-7.1,7.095,7.095,0,0,1-7.1,7.1m0-9.34a2.428,2.428,0,1,0,2.428,2.428,2.472,2.472,0,0,0-2.428-2.428" transform="translate(3.253 5.393)" fill="#4e8ae1"/>
    <path id="Trazado_1255625" data-name="Trazado 1255625" d="M44.938,40.612a8.217,8.217,0,1,1,8.217-8.217,8.29,8.29,0,0,1-8.217,8.217m0-11.766a3.548,3.548,0,1,0,3.548,3.548,3.434,3.434,0,0,0-3.548-3.548" transform="translate(31.072 20.458)" fill="#4e8ae1"/>
    <path id="Trazado_1255626" data-name="Trazado 1255626" d="M4.35,29.57a2.469,2.469,0,0,1-2.428-2.426V20.232A2.472,2.472,0,0,1,4.35,17.8a2.472,2.472,0,0,1,2.428,2.428v7.1A2.444,2.444,0,0,1,4.35,29.57" transform="translate(1.626 15.065)" fill="#4e8ae1"/>
    <path id="Trazado_1255627" data-name="Trazado 1255627" d="M9.524,24.48h-7.1a2.428,2.428,0,1,1,0-4.855h7.1a2.428,2.428,0,1,1,0,4.855" transform="translate(0 16.606)" fill="#4e8ae1"/>
    <path id="Trazado_1255628" data-name="Trazado 1255628" d="M44.814,52.416a2.471,2.471,0,0,1-2.428-2.426v-7.1a2.428,2.428,0,0,1,4.855,0v7.1a2.471,2.471,0,0,1-2.428,2.426" transform="translate(35.866 34.239)" fill="#4e8ae1"/>
    <path id="Trazado_1255629" data-name="Trazado 1255629" d="M49.988,47.241h-7.1a2.428,2.428,0,0,1,0-4.855h7.1a2.472,2.472,0,0,1,2.428,2.428,2.354,2.354,0,0,1-2.428,2.428" transform="translate(34.239 35.866)" fill="#4e8ae1"/>
  </g>
</svg>
