<svg xmlns="http://www.w3.org/2000/svg" width="31.541" height="90.322" viewBox="0 0 31.541 90.322">
  <g id="Grupo_1204306" data-name="Grupo 1204306" transform="translate(31.541) rotate(90)">
    <g id="Grupo_78414" data-name="Grupo 78414" transform="translate(0 0)">
      <path id="Trazado_114078" data-name="Trazado 114078" d="M77.921,0c-3.553,0-5.306,2.388-6.715,4.309-1.427,1.943-2.394,3.133-4.213,3.133s-2.784-1.191-4.208-3.133C61.377,2.388,59.623,0,56.072,0s-5.306,2.388-6.715,4.309c-1.425,1.943-2.392,3.133-4.209,3.133S42.366,6.251,40.94,4.309C39.531,2.388,37.778,0,34.227,0s-5.3,2.39-6.712,4.31c-1.425,1.941-2.39,3.132-4.206,3.132S20.529,6.251,19.1,4.31C17.695,2.388,15.943,0,12.392,0S7.089,2.388,5.68,4.31C4.254,6.251,3.29,7.442,1.474,7.442A1.373,1.373,0,0,0,0,8.682a1.372,1.372,0,0,0,1.474,1.24c3.549,0,5.3-2.388,6.712-4.309,1.424-1.943,2.39-3.133,4.206-3.133s2.78,1.191,4.206,3.133c1.409,1.92,3.162,4.309,6.712,4.309s5.3-2.388,6.71-4.309c1.425-1.943,2.39-3.133,4.208-3.133s2.782,1.191,4.208,3.133c1.409,1.92,3.162,4.309,6.713,4.309s5.3-2.388,6.715-4.309c1.424-1.943,2.39-3.133,4.209-3.133s2.782,1.191,4.208,3.133c1.407,1.92,3.162,4.309,6.713,4.309S72.3,7.534,73.71,5.613C75.137,3.671,76.1,2.48,77.921,2.48s2.786,1.191,4.213,3.133c1.409,1.92,3.164,4.309,6.717,4.309a1.37,1.37,0,0,0,1.472-1.24,1.371,1.371,0,0,0-1.472-1.24c-1.819,0-2.786-1.191-4.213-3.133C83.229,2.388,81.475,0,77.921,0Z" transform="translate(0 21.619)" fill="#fdc9a6"/>
      <path id="Trazado_114079" data-name="Trazado 114079" d="M77.921,0c-3.553,0-5.306,2.39-6.715,4.309-1.427,1.944-2.394,3.135-4.213,3.135S64.209,6.253,62.785,4.31C61.377,2.39,59.623,0,56.072,0s-5.306,2.39-6.715,4.31c-1.425,1.943-2.392,3.133-4.209,3.133S42.366,6.253,40.94,4.31C39.531,2.39,37.778,0,34.227,0s-5.3,2.391-6.712,4.31c-1.425,1.943-2.39,3.133-4.206,3.133S20.529,6.253,19.1,4.31C17.695,2.39,15.943,0,12.392,0S7.089,2.39,5.68,4.31C4.254,6.253,3.29,7.443,1.474,7.443A1.372,1.372,0,0,0,0,8.683a1.373,1.373,0,0,0,1.474,1.24c3.549,0,5.3-2.39,6.712-4.31,1.424-1.941,2.39-3.132,4.206-3.132s2.78,1.191,4.206,3.132c1.409,1.92,3.162,4.31,6.712,4.31s5.3-2.39,6.71-4.31c1.425-1.941,2.39-3.132,4.208-3.132s2.782,1.191,4.208,3.132c1.409,1.92,3.162,4.31,6.713,4.31s5.3-2.39,6.715-4.31c1.424-1.941,2.39-3.132,4.209-3.132s2.782,1.191,4.208,3.132c1.407,1.92,3.162,4.31,6.713,4.31s5.308-2.39,6.717-4.31c1.427-1.941,2.394-3.132,4.211-3.132s2.786,1.191,4.213,3.132c1.409,1.92,3.164,4.31,6.717,4.31a1.371,1.371,0,0,0,1.472-1.24,1.37,1.37,0,0,0-1.472-1.24c-1.819,0-2.786-1.191-4.213-3.133C83.229,2.39,81.475,0,77.921,0Z" transform="translate(0 10.808)" fill="#fdc9a6"/>
      <path id="Trazado_114080" data-name="Trazado 114080" d="M77.921,0c-3.553,0-5.306,2.388-6.715,4.309-1.427,1.943-2.394,3.133-4.213,3.133s-2.784-1.191-4.208-3.133C61.377,2.388,59.623,0,56.072,0s-5.306,2.388-6.715,4.309c-1.425,1.943-2.392,3.133-4.209,3.133S42.366,6.251,40.94,4.309C39.531,2.388,37.778,0,34.227,0s-5.3,2.388-6.712,4.309c-1.425,1.943-2.39,3.133-4.206,3.133S20.529,6.251,19.1,4.309C17.695,2.388,15.943,0,12.392,0S7.089,2.388,5.68,4.309C4.254,6.251,3.29,7.442,1.474,7.442A1.372,1.372,0,0,0,0,8.682a1.373,1.373,0,0,0,1.474,1.24c3.549,0,5.3-2.39,6.712-4.31,1.424-1.941,2.39-3.132,4.206-3.132s2.78,1.191,4.206,3.132c1.409,1.92,3.162,4.31,6.712,4.31s5.3-2.39,6.71-4.309c1.425-1.943,2.39-3.133,4.208-3.133s2.782,1.191,4.208,3.133c1.409,1.919,3.162,4.309,6.713,4.309s5.3-2.39,6.715-4.309c1.424-1.943,2.39-3.133,4.209-3.133s2.782,1.191,4.208,3.133c1.407,1.919,3.162,4.309,6.713,4.309S72.3,7.532,73.71,5.613C75.137,3.671,76.1,2.48,77.921,2.48s2.786,1.191,4.213,3.133C83.542,7.532,85.3,9.922,88.85,9.922a1.371,1.371,0,0,0,1.472-1.24,1.37,1.37,0,0,0-1.472-1.24c-1.819,0-2.786-1.191-4.213-3.133C83.229,2.388,81.475,0,77.921,0Z" transform="translate(0 0)" fill="#fdc9a6"/>
    </g>
  </g>
</svg>
