<svg id="Grupo_1204314" data-name="Grupo 1204314" xmlns="http://www.w3.org/2000/svg" xmlns:xlink="http://www.w3.org/1999/xlink" width="102.557" height="110" viewBox="0 0 102.557 110">
  <defs>
    <clipPath id="clip-path">
      <rect id="Rectángulo_455485" data-name="Rectángulo 455485" width="102.557" height="110" fill="none"/>
    </clipPath>
  </defs>
  <g id="Grupo_1204057" data-name="Grupo 1204057" transform="translate(0 0)" clip-path="url(#clip-path)">
    <path id="Trazado_1254715" data-name="Trazado 1254715" d="M10.438,18.575a3.318,3.318,0,1,1-3.357,3.318,3.4,3.4,0,0,1,3.357-3.318" transform="translate(5.972 15.665)" fill="#fff"/>
    <path id="Trazado_1254716" data-name="Trazado 1254716" d="M19.468,23.276a6.344,6.344,0,0,0,3.1,11.9h1.642a6.413,6.413,0,0,0,6.383,7.755h1.642a6.413,6.413,0,0,0,6.383,7.753H49.748a5.412,5.412,0,0,0,2.918-.723l3.464,3.427a2.333,2.333,0,0,0,3.285,0,2.267,2.267,0,0,0,0-3.246l-3.467-3.427a7.453,7.453,0,0,0,.732-2.883v-11a6.446,6.446,0,0,0-7.843-6.31V25.079a6.447,6.447,0,0,0-7.843-6.31V17.145a6.31,6.31,0,0,0-6.385-6.312,6.684,6.684,0,0,0-5.655,3.248l-3.829-3.788a6.441,6.441,0,0,0-9.121,0,6.261,6.261,0,0,0,0,9.016Z" transform="translate(11.879 7.085)" fill="#b8d0f3"/>
    <path id="Trazado_1254717" data-name="Trazado 1254717" d="M91.3,37.565A2.336,2.336,0,0,0,89,35.287H4.759a2.336,2.336,0,0,0-2.306,2.278V48.083a22.349,22.349,0,0,0,22.17,22.265,8.842,8.842,0,0,0,8.866,8.767h26.6a8.844,8.844,0,0,0,8.868-8.767A22.462,22.462,0,0,0,91.126,48.083V37.565Z" transform="translate(2.069 29.759)" fill="#fff"/>
    <path id="Trazado_1254718" data-name="Trazado 1254718" d="M54.218,52.175a2.4,2.4,0,1,1-2.424,2.4,2.409,2.409,0,0,1,2.424-2.4" transform="translate(43.679 44)" fill="#4e8ae1"/>
    <path id="Trazado_1254719" data-name="Trazado 1254719" d="M35.3,39.675a2.4,2.4,0,1,1-2.424,2.4,2.409,2.409,0,0,1,2.424-2.4" transform="translate(27.726 33.459)" fill="#4e8ae1"/>
    <path id="Trazado_1254720" data-name="Trazado 1254720" d="M52.919,12.275a2.211,2.211,0,1,1-2.238,2.21,2.225,2.225,0,0,1,2.238-2.21" transform="translate(42.74 10.352)" fill="#4e8ae1"/>
    <path id="Trazado_1254721" data-name="Trazado 1254721" d="M41.571,17.175a2.4,2.4,0,1,1-2.422,2.4,2.409,2.409,0,0,1,2.422-2.4" transform="translate(33.015 14.484)" fill="#4e8ae1"/>
    <path id="Trazado_1254722" data-name="Trazado 1254722" d="M25.185,17.175a2.4,2.4,0,1,1-2.424,2.4,2.411,2.411,0,0,1,2.424-2.4" transform="translate(19.195 14.484)" fill="#4e8ae1"/>
    <path id="Trazado_1254723" data-name="Trazado 1254723" d="M32.772,3.375a2.4,2.4,0,1,1-2.424,2.4,2.411,2.411,0,0,1,2.424-2.4" transform="translate(25.593 2.847)" fill="#4e8ae1"/>
    <path id="Trazado_1254724" data-name="Trazado 1254724" d="M20.127.875a2.4,2.4,0,1,1-2.424,2.4,2.409,2.409,0,0,1,2.424-2.4" transform="translate(14.929 0.738)" fill="#4e8ae1"/>
    <path id="Trazado_1254725" data-name="Trazado 1254725" d="M8.7,4.675a2.4,2.4,0,1,1-2.424,2.4A2.409,2.409,0,0,1,8.7,4.675" transform="translate(5.289 3.943)" fill="#4e8ae1"/>
    <path id="Trazado_1254726" data-name="Trazado 1254726" d="M2.424,19.675a2.4,2.4,0,1,1,0,4.794,2.4,2.4,0,1,1,0-4.794" transform="translate(0 16.593)" fill="#4e8ae1"/>
    <path id="Trazado_1254727" data-name="Trazado 1254727" d="M21.341,29.675a2.4,2.4,0,1,1-2.424,2.4,2.409,2.409,0,0,1,2.424-2.4" transform="translate(15.953 25.026)" fill="#4e8ae1"/>
    <path id="Trazado_1254728" data-name="Trazado 1254728" d="M47.944,55.875a2.4,2.4,0,1,1-2.422,2.4,2.411,2.411,0,0,1,2.422-2.4" transform="translate(38.39 47.121)" fill="#4e8ae1"/>
    <path id="Trazado_1254729" data-name="Trazado 1254729" d="M3.638,54.675a2.4,2.4,0,1,1-2.424,2.4,2.411,2.411,0,0,1,2.424-2.4" transform="translate(1.024 46.109)" fill="#4e8ae1"/>
    <path id="Trazado_1254730" data-name="Trazado 1254730" d="M94.635,37.071a2.456,2.456,0,0,0-2.424-2.4H3.64a2.457,2.457,0,0,0-2.426,2.4v11.06a23.5,23.5,0,0,0,23.309,23.41,9.3,9.3,0,0,0,9.323,9.217H61.817a9.3,9.3,0,0,0,9.324-9.217,23.619,23.619,0,0,0,23.309-23.41V37.071Zm-77.012,6.82H5.876V39.283H17.623ZM6.062,48.5H17.623a23.474,23.474,0,0,0,9.7,18.433H25.083A18.8,18.8,0,0,1,6.062,48.5M66.479,71.728a4.591,4.591,0,0,1-4.662,4.608H33.846a4.592,4.592,0,0,1-4.662-4.608c4.662-.186,33.191-.186,37.294,0m23.495-23.6A19.071,19.071,0,0,1,70.768,67.119H68.53a23.738,23.738,0,0,0,9.7-18.988,2.456,2.456,0,0,0-2.426-2.4,2.3,2.3,0,0,0-2.236,2.4A19.072,19.072,0,0,1,54.359,67.119H41.306A18.923,18.923,0,0,1,22.285,48.686H54.917a2.4,2.4,0,1,0,0-4.794H22.285V39.283H89.973Z" transform="translate(1.024 29.242)" fill="#4e8ae1"/>
    <path id="Trazado_1254731" data-name="Trazado 1254731" d="M19.308,23.332A6.485,6.485,0,0,0,22.479,35.5h1.679a6.556,6.556,0,0,0,6.525,7.928h1.677a6.557,6.557,0,0,0,6.527,7.926H50.263a5.52,5.52,0,0,0,2.982-.739l3.543,3.5a2.385,2.385,0,0,0,3.359,0,2.32,2.32,0,0,0,0-3.318l-3.545-3.5a7.634,7.634,0,0,0,.747-2.947V33.1a6.591,6.591,0,0,0-8.018-6.452V25.175a6.593,6.593,0,0,0-8.018-6.452V17.064a6.45,6.45,0,0,0-6.525-6.452A6.83,6.83,0,0,0,29,13.933L25.089,10.06a6.585,6.585,0,0,0-9.324,0,6.4,6.4,0,0,0,0,9.217Zm-.559-9.954a2.048,2.048,0,0,1,2.8,0l6.9,6.82a2.324,2.324,0,0,0,2.61.553,2.221,2.221,0,0,0,1.493-2.21V17.064a1.858,1.858,0,0,1,1.864-1.843,1.994,1.994,0,0,1,1.865,1.843v6.267a2.2,2.2,0,0,0,1.864,2.214,2.4,2.4,0,0,0,2.61-1.108,2.147,2.147,0,0,1,1.679-1.106A1.858,1.858,0,0,1,44.3,25.175v6.083A2.193,2.193,0,0,0,46.16,33.47a2.4,2.4,0,0,0,2.612-1.1,2.138,2.138,0,0,1,1.677-1.108A1.857,1.857,0,0,1,52.313,33.1V43.426L38.888,30.154a2.383,2.383,0,0,0-3.357,0,2.315,2.315,0,0,0,0,3.316L48.956,46.744H38.7A1.858,1.858,0,0,1,36.837,44.9a1.773,1.773,0,0,1,1.119-1.661,2.123,2.123,0,0,0,1.119-2.579,2.206,2.206,0,0,0-2.238-1.843H30.684a1.858,1.858,0,0,1-1.865-1.843,1.772,1.772,0,0,1,1.119-1.661,2.125,2.125,0,0,0,1.119-2.581,2.208,2.208,0,0,0-2.238-1.843H22.665A1.858,1.858,0,0,1,20.8,29.046,1.994,1.994,0,0,1,22.665,27.2h1.493a2.422,2.422,0,0,0,2.236-1.475,2.26,2.26,0,0,0-.559-2.579l-6.9-6.82a2.057,2.057,0,0,1-.186-2.951" transform="translate(11.645 6.853)" fill="#4e8ae1"/>
    <path id="Trazado_1254732" data-name="Trazado 1254732" d="M9.419,40.9A8.227,8.227,0,0,0,15.2,38.5a8.111,8.111,0,1,0,0-11.429A8.195,8.195,0,0,0,1.214,32.786a8.355,8.355,0,0,0,8.2,8.111M21.166,29.283a3.52,3.52,0,0,1,3.543,3.5,3.409,3.409,0,0,1-3.543,3.5,3.5,3.5,0,1,1,0-7m-11.747,0a3.52,3.52,0,0,1,3.543,3.5,3.409,3.409,0,0,1-3.543,3.5,3.409,3.409,0,0,1-3.543-3.5,3.52,3.52,0,0,1,3.543-3.5" transform="translate(1.024 20.809)" fill="#4e8ae1"/>
    <path id="Trazado_1254733" data-name="Trazado 1254733" d="M12.144,34.11a7.043,7.043,0,0,0,7.086-7,6.762,6.762,0,0,0-4.662-6.452V14.569a2.424,2.424,0,0,0-4.848,0v6.085A6.822,6.822,0,0,0,5.058,27.29a7.008,7.008,0,0,0,7.086,6.82m0-9.217a2.4,2.4,0,1,1-2.424,2.4,2.454,2.454,0,0,1,2.424-2.4" transform="translate(4.266 10.268)" fill="#4e8ae1"/>
    <path id="Trazado_1254734" data-name="Trazado 1254734" d="M42.971,29.447a8.664,8.664,0,0,0,8.577-8.664,8.8,8.8,0,0,0,6.155-2.4,8.376,8.376,0,0,0,1.491-9.954L63.67,4.009a2.32,2.32,0,0,0,0-3.318,2.383,2.383,0,0,0-3.357,0L55.837,5.115a8.058,8.058,0,0,0-4.1-1.106,8.545,8.545,0,0,0-8.577,8.664,8.392,8.392,0,1,0-.188,16.774M48.938,9.724a3.859,3.859,0,0,1,5.408,0,3.753,3.753,0,0,1,0,5.346,3.859,3.859,0,0,1-5.408,0,3.753,3.753,0,0,1,0-5.346m-5.967,7.558a3.917,3.917,0,0,1,3.917,3.871,3.8,3.8,0,0,1-3.917,3.871,3.871,3.871,0,1,1,0-7.742" transform="translate(29.005 0)" fill="#4e8ae1"/>
    <path id="Trazado_1254735" data-name="Trazado 1254735" d="M44.308,29.18a7.086,7.086,0,1,0,7.086-7,7.043,7.043,0,0,0-7.086,7m9.324,0a2.424,2.424,0,1,1-2.424-2.4,2.456,2.456,0,0,1,2.424,2.4" transform="translate(37.366 18.701)" fill="#4e8ae1"/>
    <path id="Trazado_1254736" data-name="Trazado 1254736" d="M40.463,32.3a13.986,13.986,0,0,0,27.971,0,13.986,13.986,0,0,0-27.971,0m23.311,0a9.324,9.324,0,1,1-9.325-9.217A9.18,9.18,0,0,1,63.774,32.3" transform="translate(34.123 15.581)" fill="#4e8ae1"/>
  </g>
</svg>
