<svg xmlns="http://www.w3.org/2000/svg" xmlns:xlink="http://www.w3.org/1999/xlink" width="1021" height="683.511" viewBox="0 0 1021 683.511">
  <defs>
    <clipPath id="clip-path">
      <rect id="Rectángulo_456316" data-name="Rectángulo 456316" width="32.403" height="41.099" fill="none"/>
    </clipPath>
    <clipPath id="clip-path-2">
      <rect id="Rectángulo_456317" data-name="Rectángulo 456317" width="41.508" height="42.437" fill="none"/>
    </clipPath>
    <clipPath id="clip-path-3">
      <rect id="Rectángulo_456318" data-name="Rectángulo 456318" width="27.102" height="35.225" fill="none"/>
    </clipPath>
    <clipPath id="clip-path-4">
      <rect id="Rectángulo_456319" data-name="Rectángulo 456319" width="27.265" height="42.57" fill="none"/>
    </clipPath>
    <clipPath id="clip-path-5">
      <rect id="Rectángulo_456320" data-name="Rectángulo 456320" width="41.894" height="29.596" fill="none"/>
    </clipPath>
    <clipPath id="clip-path-6">
      <rect id="Rectángulo_456321" data-name="Rectángulo 456321" width="32.937" height="30.365" fill="none"/>
    </clipPath>
    <clipPath id="clip-path-7">
      <rect id="Rectángulo_456322" data-name="Rectángulo 456322" width="156.898" height="63.567" fill="none"/>
    </clipPath>
    <clipPath id="clip-path-8">
      <rect id="Rectángulo_456323" data-name="Rectángulo 456323" width="132.1" height="70.91" fill="none"/>
    </clipPath>
    <clipPath id="clip-path-9">
      <rect id="Rectángulo_456324" data-name="Rectángulo 456324" width="107.561" height="151.993" fill="none"/>
    </clipPath>
    <clipPath id="clip-path-10">
      <rect id="Rectángulo_456325" data-name="Rectángulo 456325" width="101.905" height="109.501" fill="none"/>
    </clipPath>
    <clipPath id="clip-path-11">
      <rect id="Rectángulo_456326" data-name="Rectángulo 456326" width="29.747" height="120.084" fill="none"/>
    </clipPath>
    <clipPath id="clip-path-12">
      <rect id="Rectángulo_456327" data-name="Rectángulo 456327" width="29.642" height="87.799" fill="none"/>
    </clipPath>
    <clipPath id="clip-path-13">
      <path id="Trazado_1257697" data-name="Trazado 1257697" d="M150.74,249.99c0,2.341,3.878,4.567,10.7,6.509,14.368,4.1,41.818,6.933,73.612,6.933s59.5-2.712,74.035-6.721c6.906-1.907,10.845-4.107,10.845-6.448C319.937,243,393.521,147,346.643,147s-195.9,95.71-195.9,102.987" transform="translate(-150.74 -147.003)" fill="none"/>
    </clipPath>
    <clipPath id="clip-path-14">
      <path id="Trazado_1257711" data-name="Trazado 1257711" d="M238.832,281.83a2.071,2.071,0,0,0-.2.875,2.293,2.293,0,0,0,.2.89c.994,2.306,5.835,4.438,13.487,6.224,13.656,3.187,36.269,5.277,61.845,5.277,5.773,0,11.392-.108,16.8-.311,18.525-.686,34.454-2.493,45.032-4.965,7.83-1.822,12.726-4.012,13.558-6.384a1.924,1.924,0,0,0,.133-.729,1.962,1.962,0,0,0-.125-.709c-1.485-4.309-21.426-42.662-43.036-44.679-11.016-1.034-23.769-1.619-37.361-1.619-39.922,0-67.607,39.705-70.328,46.131" transform="translate(-238.635 -235.699)" fill="none"/>
    </clipPath>
    <clipPath id="clip-path-15">
      <rect id="Rectángulo_456330" data-name="Rectángulo 456330" width="109.905" height="60.564" fill="none"/>
    </clipPath>
    <clipPath id="clip-path-16">
      <path id="Trazado_1257724" data-name="Trazado 1257724" d="M104.149,330.5a.944.944,0,0,0-.094.379,1.08,1.08,0,0,0,.323.7c3.826,4.166,41.474,7.4,87.38,7.4s83.556-3.239,87.38-7.4a1.08,1.08,0,0,0,.323-.7.925.925,0,0,0-.1-.379c-2.14-4.3-34.84-53.378-81.9-53.378S106.29,326.2,104.149,330.5" transform="translate(-104.055 -277.119)" fill="none"/>
    </clipPath>
  </defs>
  <g id="Grupo_1206664" data-name="Grupo 1206664" transform="translate(-289.873 -5035)">
    <g id="Grupo_1205708" data-name="Grupo 1205708" transform="translate(66.831 -38.145)">
      <rect id="Rectángulo_456315" data-name="Rectángulo 456315" width="137.675" height="16.562" transform="translate(516.733 5288.6)" fill="#e39851"/>
      <path id="Trazado_1257624" data-name="Trazado 1257624" d="M190.334,291.979c-13.733,1.92-27.553,3.095-40.982,3.74a633.558,633.558,0,0,1-77.719-1.377c-22.335-1.744-36.66-3.968-36.66-3.968l-1.15-51.264-1.554-69.482,12.254-42.738H182.2l.809,2.728L194.2,167.493c2.362,26.176-3.866,124.487-3.866,124.487" transform="translate(472.21 5178.271)" fill="#fdc083"/>
      <path id="Trazado_1257625" data-name="Trazado 1257625" d="M190.334,282.549c-13.733,1.92-27.553,3.095-40.982,3.74a633.551,633.551,0,0,1-77.719-1.377c-22.335-1.744-36.66-3.968-36.66-3.968l-1.15-51.264L32.269,160.2l55.737-.733,52.452-.7,42.574-.555,11.168-.152c2.362,26.176-3.866,124.487-3.866,124.487" transform="translate(472.21 5187.702)" fill="#f1ad60"/>
      <path id="Trazado_1257626" data-name="Trazado 1257626" d="M127.512,168.037v.164l-52.452.7,5.09-42.006H124.4Z" transform="translate(485.156 5178.271)" fill="#fde1b9"/>
      <path id="Trazado_1257627" data-name="Trazado 1257627" d="M123.222,130.923H78.968l.013-.126.392-16.436.012-.8h43.8v16.828Z" transform="translate(486.339 5174.239)" fill="#fdd795"/>
      <path id="Trazado_1257628" data-name="Trazado 1257628" d="M127.521,158.606V226.56c-20.832,3.2-52.086.8-52.086.8l-.4-67.714.038-.34Z" transform="translate(485.147 5187.866)" fill="#fdd795"/>
      <path id="Trazado_1257629" data-name="Trazado 1257629" d="M117.828,191.66c0,14.306-8.3,25.9-18.543,25.9s-18.543-11.6-18.543-25.9,8.3-25.9,18.543-25.9,18.543,11.6,18.543,25.9" transform="translate(486.875 5190.03)" fill="#fff8f1"/>
      <path id="Trazado_1257630" data-name="Trazado 1257630" d="M189.973,282.549c-13.733,1.92-27.553,3.095-40.982,3.74a633.551,633.551,0,0,1-77.719-1.377c-22.335-1.744-36.66-3.968-36.66-3.968l-1.15-51.264a38.518,38.518,0,0,0,6.569,10.156c10.474,11.534,27.3,14.491,42.839,15.375a261.4,261.4,0,0,0,46.628-1.516c10.878-1.326,22.272-3.613,30.5-10.865,8.6-7.593,12.2-19.265,14.818-30.446a318.555,318.555,0,0,0,7.858-54.17l11.168-.152c2.361,26.176-3.866,124.487-3.866,124.487" transform="translate(472.571 5187.702)" fill="#e39851"/>
      <path id="Trazado_1257631" data-name="Trazado 1257631" d="M414.2,197.957l-24.35-36.712a21.573,21.573,0,0,0-17.293-9.63l-33.483-1.069v-.224l-2.823.09c-.459.014-.92.014-1.379,0l-2.821-.09v.224l-33.483,1.069a21.573,21.573,0,0,0-17.293,9.63l-24.35,36.714a21.463,21.463,0,0,0-1.538,21.013c8.391,17.833,24.305,51.652,26.431,56.17a5.212,5.212,0,0,0,.754,1.21c11.038,12.709,106.107,12.017,106.495-.707,0-.013,17.664-37.542,26.668-56.672a21.465,21.465,0,0,0-1.538-21.014" transform="translate(539.096 5185.36)" fill="#fdd795"/>
      <path id="Trazado_1257632" data-name="Trazado 1257632" d="M406.475,217.408c-8.162,17.345-24.178,51.37-24.178,51.383-.352,11.535-86.547,12.167-96.559.645a4.932,4.932,0,0,1-.684-1.1c-1.771-3.764-14.095-29.961-21.982-46.726-.7-1.478-1.361-2.892-1.98-4.2a19.456,19.456,0,0,1,1.394-19.051l22.073-33.289a19.567,19.567,0,0,1,15.684-8.728l30.358-.97-.007-.2,2.56.078q.625.02,1.25,0l2.561-.078v.2l30.357.97A19.544,19.544,0,0,1,383,165.068l17.221,25.967,4.86,7.322a19.459,19.459,0,0,1,1.394,19.051" transform="translate(540.878 5186.826)" fill="#fda931"/>
      <path id="Trazado_1257633" data-name="Trazado 1257633" d="M423.854,184.8c-.091,2.651-2.787,4.591-5.425,4.872s-5.231-.638-7.771-1.407c-1.166-.352-2.345-.677-3.536-.951a40.778,40.778,0,0,0-5.725-.925,28.68,28.68,0,0,0-4.163-.072q-1.016.049-2.032.2a22.779,22.779,0,0,0-2.7.534,29,29,0,0,0-5.725,2.26h-.007c-2.645,1.335-5.172,2.957-7.745,4.463a33.379,33.379,0,0,1-10.166,4.344c-.3.065-.6.117-.9.163-.391.059-.775.1-1.159.143-7.359.69-14.473-2.794-21.539-6.045-1.635-.749-3.263-1.485-4.891-2.156-.208-.085-.41-.169-.619-.248-.671-.273-1.348-.527-2.026-.768-4.808-1.719-9.627-2.6-14.538-1.25-3.622,1-6.807,3.139-10.024,5.165-.052.033-.1.066-.15.092-.241.156-.495.313-.742.462h-.007c-.482.3-.97.593-1.459.873a21.91,21.91,0,0,1-7.51,2.963c-4.442.71-8.662-.612-12.87-2.371-3.491-1.459-6.969-3.225-10.564-4.365a24.76,24.76,0,0,0-4.612-1.068c-.6-.072-1.2-.124-1.8-.15a21.178,21.178,0,0,0-2.227.026,29.185,29.185,0,0,0-12.773,4.169c-.619.352-1.218.729-1.811,1.127-.059.039-.124.078-.182.117-1.843,1.237-4.5,2.56-6,.925a3.918,3.918,0,0,1-.638-3.224c.677-4.957,3.869-9.184,7.516-12.643q.332-.322.664-.625c1.122-1.023,2.287-2.006,3.453-2.983a63.147,63.147,0,0,0,8.3-7.719c2.273-2.716,3.074-5.8,3.829-9.06.347-1.478.684-3,1.148-4.526.1-.332.2-.677.306-1.029.313-1.042.658-2.13,1.075-3.165a14.485,14.485,0,0,1,.879-1.837,6.071,6.071,0,0,1,5.3-3.38,8.8,8.8,0,0,1,1.361.07,17.942,17.942,0,0,1,3.061.659c.664.2,1.342.417,2.02.658,2.885,1.009,5.835,2.273,8.427,2.683,3.94.625,7.919.944,11.893,1.348.677.065,1.355.137,2.025.215.957.1,1.908.215,2.859.345,5.308.716,10.584,1.9,15.938,1.83,1.374-.02,2.735-.124,4.09-.274.677-.078,1.355-.163,2.032-.26,3.258-.462,6.5-1.12,9.77-1.5,4.383-.521,8.813-.554,13.222-.782.69-.026,1.387-.072,2.084-.124.15-.007.293-.013.443-.026a91.439,91.439,0,0,0,20.992-4.051c.684-.215,1.361-.436,2.033-.672q2.53-.869,5-1.882c1.179-.482,2.546-.983,3.673-.391,1.2.632,4.116,2.177,4.357,3.518.091.508.215,1.029.365,1.557a18.7,18.7,0,0,0,.7,1.96,38.128,38.128,0,0,0,3.245,6.122c.345.554.7,1.107,1.088,1.661.026.039.052.072.078.111a.006.006,0,0,0,.007.007,140.281,140.281,0,0,0,9.489,12.082c.567.664,1.133,1.309,1.687,1.947,5.251,6.019,9.679,10.812,9.627,12.265" transform="translate(538.004 5183.237)" fill="#f95f3e"/>
      <g id="Grupo_1205652" data-name="Grupo 1205652" transform="translate(817.863 5339.844)" opacity="0.54">
        <g id="Grupo_1205651" data-name="Grupo 1205651">
          <g id="Grupo_1205650" data-name="Grupo 1205650" clip-path="url(#clip-path)">
            <path id="Trazado_1257634" data-name="Trazado 1257634" d="M305.266,190.585a24.779,24.779,0,0,1-8.969,3.836c-4.442.71-8.662-.612-12.869-2.371-3.492-1.459-6.97-3.224-10.565-4.364,4.813-4.671,10.949-8.494,14.388-14.271,3.5-5.882,3.8-13.059,4.012-19.9a41.085,41.085,0,0,1,8.383,20.438c.365,3.159.371,6.369,1.127,9.458a11.983,11.983,0,0,0,4.494,7.171" transform="translate(-272.863 -153.517)" fill="#e34a30"/>
          </g>
        </g>
      </g>
      <g id="Grupo_1205655" data-name="Grupo 1205655" transform="translate(883.263 5339.31)" opacity="0.54">
        <g id="Grupo_1205654" data-name="Grupo 1205654">
          <g id="Grupo_1205653" data-name="Grupo 1205653" clip-path="url(#clip-path-2)">
            <path id="Trazado_1257635" data-name="Trazado 1257635" d="M364.58,186.344c-2.644,1.335-5.171,2.957-7.745,4.461-3.51,2.058-7.079,3.895-11.065,4.508-7.777,1.2-15.261-2.483-22.7-5.9,3.009-4.7,7.139-8.942,9.51-14.036a24.541,24.541,0,0,0-.99-22.268c4.331.215,7.965,3.478,10.251,7.164s3.6,7.888,5.693,11.685A32.089,32.089,0,0,0,356.7,182.3a32.654,32.654,0,0,0,5.9,3.426,15.819,15.819,0,0,0,1.986.619" transform="translate(-323.072 -153.107)" fill="#e34a30"/>
          </g>
        </g>
      </g>
      <g id="Grupo_1205658" data-name="Grupo 1205658" transform="translate(934.756 5337.74)" opacity="0.54">
        <g id="Grupo_1205657" data-name="Grupo 1205657">
          <g id="Grupo_1205656" data-name="Grupo 1205656" clip-path="url(#clip-path-3)">
            <path id="Trazado_1257636" data-name="Trazado 1257636" d="M389.707,182.2c-.091,2.651-2.787,4.591-5.425,4.872s-5.231-.638-7.771-1.407c-1.166-.352-2.345-.677-3.536-.951a37.088,37.088,0,0,1-1.654-3.816,210.348,210.348,0,0,1-8.715-29,42.751,42.751,0,0,0,6.293,4,.006.006,0,0,0,.006.007c7.789,11.477,20.894,23.807,20.8,26.294" transform="translate(-362.605 -151.902)" fill="#e34a30"/>
          </g>
        </g>
      </g>
      <g id="Grupo_1205661" data-name="Grupo 1205661" transform="translate(787.741 5337.349)" opacity="0.54">
        <g id="Grupo_1205660" data-name="Grupo 1205660">
          <g id="Grupo_1205659" data-name="Grupo 1205659" clip-path="url(#clip-path-4)">
            <path id="Trazado_1257637" data-name="Trazado 1257637" d="M277,161.4a16.673,16.673,0,0,1-4.793,10.812c-3.465,3.68-8.142,6.083-11.4,9.945a18.687,18.687,0,0,0-4.09,9.327c-.039.287-.065.58-.078.886-.059.039-.124.078-.182.117-1.843,1.237-4.5,2.559-6,.925a3.913,3.913,0,0,1-.64-3.224c.716-5.257,4.267-9.692,8.181-13.268s8.349-6.63,11.757-10.7c2.273-2.716,3.074-5.8,3.829-9.059.345-1.478.684-3,1.146-4.528.1-.332.2-.677.306-1.029.2.684.384,1.361.58,2.046A26.851,26.851,0,0,1,277,161.4" transform="translate(-249.737 -151.602)" fill="#e34a30"/>
          </g>
        </g>
      </g>
      <path id="Trazado_1257638" data-name="Trazado 1257638" d="M397.61,137.421v22.672a.311.311,0,0,1-.007.078,2.129,2.129,0,0,1-.977,1.46c-2.019,1.563-7.068,2.989-14.29,4.162-.671.1-1.361.215-2.078.313q-3.351.5-7.217.912c-4.025.436-8.434.808-13.151,1.1-.684.046-1.381.085-2.084.124-3.862.228-7.919.4-12.127.515q-2.063.059-4.163.1-4.259.088-8.675.085h-.306c-.58,0-1.159,0-1.739-.006-8.7-.026-16.967-.293-24.49-.742l-2.091-.137c-1.166-.072-2.312-.156-3.439-.241-.13-.007-.254-.02-.378-.026l-2.195-.176c-5.85-.495-11.079-1.114-15.5-1.824-.7-.117-1.394-.228-2.053-.352-1.96-.352-3.732-.723-5.295-1.114-3.523-.879-5.985-1.85-7.144-2.872a1.879,1.879,0,0,1-.755-1.356V137.421Z" transform="translate(543.366 5181.457)" fill="#f95f3e"/>
      <g id="Grupo_1205664" data-name="Grupo 1205664" transform="translate(899.082 5318.878)" opacity="0.54">
        <g id="Grupo_1205663" data-name="Grupo 1205663">
          <g id="Grupo_1205662" data-name="Grupo 1205662" clip-path="url(#clip-path-5)">
            <path id="Trazado_1257639" data-name="Trazado 1257639" d="M377.111,137.421v22.672a.311.311,0,0,1-.007.078,2.129,2.129,0,0,1-.977,1.46c-2.8,2.169-11.418,4.07-23.585,5.386a36.307,36.307,0,0,0,5.172-2.781,15.765,15.765,0,0,0,5.731-5.869,7.867,7.867,0,0,0-.254-7.9c-1.986-2.774-5.783-3.4-9.171-3.79q-4.084-.469-8.16-.946c-2.4-.272-6.649.053-8.787-1.016-5.816-2.892,3.694-4.65,5.889-5.256,2.371-.658,4.735-1.329,7.092-2.038Z" transform="translate(-335.217 -137.421)" fill="#e34a30"/>
          </g>
        </g>
      </g>
      <g id="Grupo_1205667" data-name="Grupo 1205667" transform="translate(810.828 5318.878)" opacity="0.54">
        <g id="Grupo_1205666" data-name="Grupo 1205666">
          <g id="Grupo_1205665" data-name="Grupo 1205665" clip-path="url(#clip-path-6)">
            <path id="Trazado_1257640" data-name="Trazado 1257640" d="M300.4,167.786l-2.195-.176a155.1,155.1,0,0,1-22.841-3.289c-3.525-.879-5.987-1.85-7.146-2.872a1.879,1.879,0,0,1-.755-1.356V137.421H286.7c-3.022,1.55-5.881,1.57-8.336,4.461a12.963,12.963,0,0,0-1.986,13.177c2.358,5.524,8.271,8.657,14.048,10.317,3.277.938,6.664,1.557,9.972,2.41" transform="translate(-267.462 -137.421)" fill="#e34a30"/>
          </g>
        </g>
      </g>
      <g id="Grupo_1205670" data-name="Grupo 1205670" transform="translate(795.333 5318.093)" opacity="0.52">
        <g id="Grupo_1205669" data-name="Grupo 1205669">
          <g id="Grupo_1205668" data-name="Grupo 1205668" clip-path="url(#clip-path-7)">
            <path id="Trazado_1257641" data-name="Trazado 1257641" d="M412.464,174.5c-.554-.638-1.12-1.283-1.688-1.947a51.486,51.486,0,0,0-6.962,1.055,58.086,58.086,0,0,0-12.206,4.3c-.2-.41-.4-.821-.606-1.224a95.071,95.071,0,0,1-5.067-10.708c-.033-.085-.059-.169-.09-.254a51.759,51.759,0,0,1-2.274-9.23,125.544,125.544,0,0,0,13.3-3.921q2.19-.782,4.337-1.661v-2.24q-2.491,1.036-5.033,1.941a121.461,121.461,0,0,1-12.891,3.8c-.02-.189-.044-.378-.072-.567-.228-2.006-.365-4.018-.436-6.037-.091-2.559-.064-5.119.02-7.68a1.039,1.039,0,0,0-1.133-.931,1.061,1.061,0,0,0-.931,1.133c-.091,2.711-.1,5.433.013,8.149q.127,3.214.514,6.4a153.94,153.94,0,0,1-20.576,3.056c-.358-1.284-.709-2.567-1.029-3.857-.124-.5-.241-1.009-.345-1.517a29.73,29.73,0,0,1-.41-12.629c.28-1.309-1.765-1.654-2.045-.352a31.02,31.02,0,0,0,.371,13.1c.386,1.817.86,3.622,1.362,5.42-.985.065-1.968.137-2.952.189-6.995.384-14,.4-21,.182-.156-1.166-.292-2.332-.4-3.505-.033-.4-.057-.795-.085-1.2a28.422,28.422,0,0,1,1.687-12.648c.5-1.237-1.387-2.111-1.889-.868a31.872,31.872,0,0,0-1.747,14.974c.092,1.055.215,2.118.36,3.173-2.177-.078-4.352-.182-6.527-.3-5.6-.306-11.21-.671-16.8-1.161,0-.8.008-1.609.033-2.41.013-.4.033-.8.052-1.2A42.269,42.269,0,0,1,312,140.2c.481-1.239-1.4-2.111-1.89-.867a44.217,44.217,0,0,0-2.825,13.776q-.109,1.817-.112,3.648c-3.282-.314-6.558-.664-9.829-1.089q-5.158-.664-10.271-1.661c-.007-.274-.012-.554-.02-.827-.038-1.361-.085-2.729-.091-4.1a33.194,33.194,0,0,1,1.3-10.773,1.082,1.082,0,0,0,0-.7c-.287-.821-1.55-1.179-1.882-.169a1.394,1.394,0,0,0-.051.169,34.932,34.932,0,0,0-1.381,10.819c0,1.719.056,3.452.1,5.178-1.12-.234-2.24-.482-3.346-.755-2.137-.521-4.345-1.055-6.48-1.771a29.137,29.137,0,0,1-4.163-1.732v2.286a32.451,32.451,0,0,0,3.282,1.283c1.415.482,2.853.892,4.285,1.283,2.137.58,4.293,1.081,6.461,1.538a44.886,44.886,0,0,1-.567,8.623c-.077.43-.169.847-.267,1.263-1.224,5.086-4.1,9.4-7.125,13.639-5.718-1.342-11.821-2.045-17.448-.847-1.167.977-2.333,1.96-3.452,2.983-.221.2-.444.41-.666.625a23.27,23.27,0,0,1,6.442-1.889,37.258,37.258,0,0,1,13.834.918c-1.441,2.006-2.867,4.018-4.11,6.1a36.125,36.125,0,0,0-2.274,4.4,21.178,21.178,0,0,1,2.229-.026,64.728,64.728,0,0,1,6.3-9.946c.389.1.787.208,1.179.319,6.155,1.687,12.159,3.94,18.457,5.067a39.557,39.557,0,0,0,9.314.633c.847-.052,1.688-.15,2.52-.274.033,1.42.033,2.84-.013,4.259-.059,1.648-.189,3.3-.409,4.93.488-.28.977-.573,1.459-.873h.007c.246-.15.5-.306.741-.462a66.355,66.355,0,0,0,.261-8.227c1.511-.326,3-.736,4.481-1.192,2.894-.892,5.74-1.921,8.671-2.69a53.281,53.281,0,0,1,9.118-1.53c.7-.052,1.387-.091,2.084-.117q.2,3.361.176,6.722-.01,1.514-.078,3.028c.677.241,1.355.495,2.025.769a103.551,103.551,0,0,0-.052-10.545,43.19,43.19,0,0,1,13.886,2.26c4.24,1.459,8.343,3.51,12.726,4.436.053.6.106,1.2.151,1.8q.381,5.236.337,10.5c.387-.039.77-.085,1.162-.143.3-.046.6-.1.9-.163q.02-5.832-.436-11.646c.58.066,1.159.119,1.752.132,5.478.15,10.655-1.975,15.456-4.391,2.253-1.14,4.468-2.325,6.715-3.458a49.555,49.555,0,0,1,2.391,6.141q.244.813.468,1.623,1.016-.147,2.033-.2a56.236,56.236,0,0,0-3-8.5,55.3,55.3,0,0,1,6.853-2.826,52.114,52.114,0,0,1,13.137-2.455M300.77,185.332c-6.431-.755-12.553-2.937-18.728-4.767-.905-.267-1.83-.528-2.768-.775.462-.658.926-1.309,1.369-1.96a36.741,36.741,0,0,0,5.563-11.438c.031-.143.07-.28.1-.423a40.715,40.715,0,0,0,.815-9.834q2.765.535,5.542.969c4.821.744,9.673,1.291,14.531,1.734.047,2.1.171,4.207.339,6.3.085,1.036.182,2.071.281,3.1.559,5.661,1.308,11.32,1.575,17.006a32.383,32.383,0,0,1-8.622.091m18.568-2.833c-2.612.847-5.224,1.758-7.908,2.358q-.1-1.934-.247-3.862c-.339-4.207-.86-8.409-1.276-12.623-.306-3.113-.56-6.233-.651-9.359,4.188.352,8.382.638,12.571.905q5.51.352,11.04.56c.15.938.313,1.882.475,2.813.352,1.941.716,3.882,1.055,5.822.371,2.123.711,4.254.959,6.4.149,1.277.266,2.56.365,3.842a60.765,60.765,0,0,0-16.382,3.139m44.426,3.3a73.571,73.571,0,0,1-8.5-3.081,48.388,48.388,0,0,0-17.475-3.4c-.039-.547-.07-1.094-.124-1.648-.267-2.866-.722-5.712-1.224-8.553-.508-2.859-1.062-5.718-1.5-8.584a234.89,234.89,0,0,0,24.229-.41c.405,1.413.814,2.813,1.192,4.207.371,1.361.718,2.722,1.049,4.09a132.668,132.668,0,0,1,2.945,17.514c-.2-.046-.391-.085-.587-.137m23.632-5.79c-4.84,2.546-9.817,5.366-15.288,6.233a19.973,19.973,0,0,1-5.64.072q-.342-3.6-.879-7.184-.821-5.461-2.1-10.832c-.155-.664-.318-1.329-.481-1.986-.535-2.13-1.148-4.24-1.753-6.35a154.449,154.449,0,0,0,18.582-2.644c.574-.117,1.14-.255,1.708-.379a56.123,56.123,0,0,0,1.713,7.55c.184.606.386,1.2.6,1.8a128.044,128.044,0,0,0,5.829,12.545c-.768.384-1.53.775-2.291,1.179" transform="translate(-255.566 -136.818)" fill="#fd9a8d"/>
          </g>
        </g>
      </g>
      <path id="Trazado_1257642" data-name="Trazado 1257642" d="M397.61,139.475c0,4.883-29.135,8.843-65.075,8.843s-65.075-3.96-65.075-8.843,29.135-8.843,65.075-8.843,65.075,3.96,65.075,8.843" transform="translate(543.366 5179.403)" fill="#e34a30"/>
      <path id="Trazado_1257643" data-name="Trazado 1257643" d="M378.353,138.108c0,2.424-21.966,4.39-49.06,4.39s-49.059-1.965-49.059-4.39,21.965-4.39,49.059-4.39,49.06,1.966,49.06,4.39" transform="translate(547.23 5180.336)" fill="#d03c29"/>
      <path id="Trazado_1257644" data-name="Trazado 1257644" d="M397.634,152.78a289.492,289.492,0,0,1-50.26,6.976,288.936,288.936,0,0,1-50.67-1.907q-14.138-1.786-28.053-4.963c-1.631-.373-2.066,2.184-.444,2.556a289.365,289.365,0,0,0,50.579,6.918A293.113,293.113,0,0,0,369.53,160.4q14.292-1.809,28.354-5.042a1.34,1.34,0,0,0,1.164-1.417,1.3,1.3,0,0,0-1.415-1.164" transform="translate(543.283 5186.097)" fill="#fff8f1"/>
      <path id="Trazado_1257645" data-name="Trazado 1257645" d="M397.018,153.9c-14.057,10.225-32.087,13.153-48.914,15.439-18.095,2.458-36.875,3.067-54.5-2.444A70.026,70.026,0,0,1,269.1,153.715c-1.275-1.081-2.922.922-1.648,2,13.3,11.284,30.681,16.571,47.863,17.733a157.292,157.292,0,0,0,29.561-1.085,224.3,224.3,0,0,0,27.1-4.756c9.427-2.346,18.658-5.863,26.561-11.611a1.3,1.3,0,0,0-1.52-2.1" transform="translate(543.223 5186.292)" fill="#fff8f1"/>
      <path id="Trazado_1257646" data-name="Trazado 1257646" d="M405.584,209.077c-5.347,11.366-14.062,29.889-19.442,41.314-2.827,6.011-4.736,10.062-4.736,10.069-.352,11.535-86.547,12.167-96.559.645a4.933,4.933,0,0,1-.684-1.1c-.788-1.674-3.654-7.77-7.288-15.5-4.554-9.678-10.311-21.91-14.694-31.231,1.791.443,3.6.834,5.425,1.159,14.857,2.678,30.13,1.276,45.111-.606,21.995-2.761,44.212-6.65,64.155-16.335A100.706,100.706,0,0,0,399.331,182.7l4.86,7.322a19.459,19.459,0,0,1,1.394,19.051" transform="translate(541.769 5195.157)" fill="#f09a2a"/>
      <path id="Trazado_1257647" data-name="Trazado 1257647" d="M294.022,237.518a11.447,11.447,0,0,1-11.434-11.434V207.608a11.447,11.447,0,0,1,11.434-11.434h7.173a5.063,5.063,0,0,0,3.618-1.568c4.7-4.786,12.917-7.642,21.967-7.642s17.263,2.856,21.967,7.642a5.07,5.07,0,0,0,3.618,1.568h7.173a11.447,11.447,0,0,1,11.434,11.434v18.477a11.447,11.447,0,0,1-11.434,11.434Z" transform="translate(547.943 5196.446)" fill="#fff8f1"/>
      <path id="Trazado_1257648" data-name="Trazado 1257648" d="M358.632,232.7H293.114a7.534,7.534,0,0,1-7.526-7.525V206.7a7.534,7.534,0,0,1,7.526-7.525h7.173a8.941,8.941,0,0,0,6.406-2.738c3.926-3.992,11.275-6.474,19.18-6.474s15.254,2.481,19.18,6.474a8.941,8.941,0,0,0,6.406,2.738h7.173a7.534,7.534,0,0,1,7.526,7.525v18.478a7.534,7.534,0,0,1-7.526,7.525m-65.518-30.922a4.927,4.927,0,0,0-4.921,4.92v18.478a4.927,4.927,0,0,0,4.921,4.92h65.518a4.927,4.927,0,0,0,4.921-4.92V206.7a4.927,4.927,0,0,0-4.921-4.92h-7.173a11.536,11.536,0,0,1-8.263-3.516c-3.454-3.513-10.091-5.7-17.323-5.7s-13.868,2.183-17.322,5.695a11.528,11.528,0,0,1-8.263,3.517Z" transform="translate(548.85 5197.354)" fill="#fdd795"/>
      <path id="Trazado_1257649" data-name="Trazado 1257649" d="M310.763,200.036c-.4-1.717-.031-3.876,1.563-4.629s3.487.324,4.638,1.666c2.266,2.644,3.03,6.221,3.715,9.635,1.322-3.182,2.7-6.45,5.122-8.9a4.427,4.427,0,0,1,2.819-1.541c1.953-.074,3.367,2.143,3.168,4.087s-1.5,3.582-2.817,5.025-2.811,2.867-4.718,3.211c-2.867.516-5.858-1.656-8.412-2.694a8.57,8.57,0,0,1-5.077-5.858" transform="translate(556.422 5198.925)" fill="#fda931"/>
      <path id="Trazado_1257650" data-name="Trazado 1257650" d="M334.957,212.781c0,3.019-1.927,5.729-5,7.6a18.685,18.685,0,0,1-7.58,2.5,22.458,22.458,0,0,1-2.61.151c-.4,0-.795-.012-1.185-.035a20.466,20.466,0,0,1-5.834-1.127c-4.853-1.705-8.164-5.133-8.164-9.087,0-4.21,3.767-7.831,9.152-9.408a21.589,21.589,0,0,1,5.856-.84h.176a21.944,21.944,0,0,1,4.169.391,17.364,17.364,0,0,1,7.113,3c2.429,1.822,3.906,4.223,3.906,6.862" transform="translate(554.597 5201.156)" fill="#fdd795"/>
      <path id="Trazado_1257651" data-name="Trazado 1257651" d="M312.166,208.965a2.9,2.9,0,1,1-2.9-2.9,2.9,2.9,0,0,1,2.9,2.9" transform="translate(555.135 5202.225)" fill="#fff8f1"/>
      <path id="Trazado_1257652" data-name="Trazado 1257652" d="M310.81,208.709a1.8,1.8,0,1,1-1.8-1.8,1.8,1.8,0,0,1,1.8,1.8" transform="translate(555.391 5202.48)" fill="#2c262a"/>
      <path id="Trazado_1257653" data-name="Trazado 1257653" d="M316.686,223a20.521,20.521,0,0,1-5.834-1.127c2.511-6.01,3.539-12.521.987-18.495a21.65,21.65,0,0,1,5.858-.841c2.592,6.687,1.728,13.688-1.011,20.463" transform="translate(556.494 5201.156)" fill="#673f40"/>
      <path id="Trazado_1257654" data-name="Trazado 1257654" d="M325.826,220.288a18.685,18.685,0,0,1-7.579,2.5,22.825,22.825,0,0,0,1.559-19.955,17.351,17.351,0,0,1,7.112,3,26.158,26.158,0,0,1-1.092,14.46" transform="translate(558.731 5201.247)" fill="#673f40"/>
      <path id="Trazado_1257655" data-name="Trazado 1257655" d="M382.728,236.035c-2.827,6.011-4.735,10.063-4.735,10.07-.352,11.534-86.549,12.166-96.559.645a4.885,4.885,0,0,1-.684-1.1c-.789-1.674-3.655-7.771-7.289-15.5,21.344,7.131,44.316,9.092,66.923,9.333,14.121.143,28.6-.449,42.343-3.452" transform="translate(545.181 5209.513)" fill="#da8219"/>
      <g id="Grupo_1205673" data-name="Grupo 1205673" transform="translate(808.554 5380.772)" opacity="0.56">
        <g id="Grupo_1205672" data-name="Grupo 1205672">
          <g id="Grupo_1205671" data-name="Grupo 1205671" clip-path="url(#clip-path-8)">
            <path id="Trazado_1257656" data-name="Trazado 1257656" d="M367.462,199.409A358.776,358.776,0,0,1,351.7,233.235c-1.413,2.661,2.836,4.6,4.24,1.954A358.643,358.643,0,0,0,371.7,201.363c1.124-2.781-3.113-4.743-4.24-1.954" transform="translate(-239.789 -180.97)" fill="#fff8f1"/>
            <path id="Trazado_1257657" data-name="Trazado 1257657" d="M348.95,232.716q-1.409,2.911-2.819,5.82c-1.313,2.711,2.931,4.657,4.24,1.955q1.409-2.911,2.819-5.821c1.313-2.711-2.931-4.657-4.24-1.954" transform="translate(-241.462 -170.877)" fill="#fff8f1"/>
            <path id="Trazado_1257658" data-name="Trazado 1257658" d="M273.04,185.891c-2.815,4.319-7.09,9.257-7.311,14.634-.236,5.693,2.864,11.831,4.763,17.069,1.024,2.823,5.386,1.159,4.36-1.671-1.574-4.34-3.987-9.264-4.41-13.9-.438-4.791,3.749-9.4,6.2-13.17,1.624-2.492-1.966-5.482-3.605-2.965" transform="translate(-265.716 -184.939)" fill="#fff8f1"/>
          </g>
        </g>
      </g>
      <path id="Trazado_1257659" data-name="Trazado 1257659" d="M283.618,189.544c-3,0-2.53,4.646.452,4.646,3,0,2.53-4.646-.452-4.646" transform="translate(547.64 5197.227)" fill="#fdd795"/>
      <path id="Trazado_1257660" data-name="Trazado 1257660" d="M303.285,181.614c-3,0-2.53,4.646.452,4.646,3,0,2.53-4.646-.452-4.646" transform="translate(553.59 5194.827)" fill="#fdd795"/>
      <path id="Trazado_1257661" data-name="Trazado 1257661" d="M354.355,185.737c-3,0-2.53,4.646.452,4.646,3,0,2.53-4.646-.452-4.646" transform="translate(569.041 5196.075)" fill="#fdd795"/>
      <path id="Trazado_1257662" data-name="Trazado 1257662" d="M175.271,321.064V225.1a13.223,13.223,0,0,0-5.77-11.053c-7.927-5.261-7.927-15.637-7.927-15.637V184.086l-41.011-1.138v-.107l-1.91.053-1.91-.053v.107l-41.011,1.138v14.321s0,10.376-7.927,15.637a13.223,13.223,0,0,0-5.77,11.053v95.966c0,3.522.155,6.806,1.749,10.063,2.88,5.885,8.629,7.879,14.711,8.8,7.991,1.206,16.1,1.928,24.16,2.415q13.577.821,27.191.314c8.849-.345,17.622-1.762,26.46-2.3,5.269-.32,10.618-1.347,14.454-5.278,3.8-3.9,4.511-8.851,4.511-14.013" transform="translate(481.216 5195.199)" fill="#d3e8fd"/>
      <g id="Grupo_1205676" data-name="Grupo 1205676" transform="translate(546.09 5382.458)" opacity="0.44">
        <g id="Grupo_1205675" data-name="Grupo 1205675">
          <g id="Grupo_1205674" data-name="Grupo 1205674" clip-path="url(#clip-path-9)">
            <path id="Trazado_1257663" data-name="Trazado 1257663" d="M171.775,317.528V226.371a12.558,12.558,0,0,0-5.481-10.5c-7.53-5-7.53-14.854-7.53-14.854v-13.6l-38.955-1.082v-.1l-1.814.049-1.813-.049v.1l-38.955,1.082v13.6s0,9.858-7.53,14.854a12.558,12.558,0,0,0-5.481,10.5v91.157c0,3.345.147,6.466,1.662,9.559,2.735,5.589,8.2,7.484,13.974,8.356,7.59,1.146,15.289,1.831,22.948,2.3q12.9.78,25.828.3c8.405-.327,16.739-1.674,25.134-2.183,5-.3,10.086-1.279,13.73-5.013,3.613-3.7,4.284-8.407,4.284-13.311" transform="translate(-64.214 -186.233)" fill="#fff"/>
          </g>
        </g>
      </g>
      <path id="Trazado_1257664" data-name="Trazado 1257664" d="M169.4,217.417,167.946,307.5a16.062,16.062,0,0,1-12.725,15.455,179.3,179.3,0,0,1-74.973,0A16.073,16.073,0,0,1,67.508,307.5l-.008-.522-.668-41.366-.783-48.194Z" transform="translate(482.43 5205.659)" fill="#fda931"/>
      <g id="Grupo_1205679" data-name="Grupo 1205679" transform="translate(549.93 5423.076)" opacity="0.56">
        <g id="Grupo_1205678" data-name="Grupo 1205678">
          <g id="Grupo_1205677" data-name="Grupo 1205677" clip-path="url(#clip-path-10)">
            <path id="Trazado_1257665" data-name="Trazado 1257665" d="M169.067,217.417,167.609,307.5a16.062,16.062,0,0,1-12.725,15.455,179.3,179.3,0,0,1-74.973,0A16.073,16.073,0,0,1,67.171,307.5l-.008-.522c13.8,3.889,29.206,2.915,43.409-.261,8.719-1.952,17.465-4.749,24.574-10.155a39.014,39.014,0,0,0,10.706-12.528c3.31-6.148,4.9-13.074,5.932-19.98,2.393-16.111-.783-30.857-1.024-46.638Z" transform="translate(-67.163 -217.417)" fill="#e88d18"/>
          </g>
        </g>
      </g>
      <path id="Trazado_1257666" data-name="Trazado 1257666" d="M116.139,217.417a56.19,56.19,0,0,1-8.328,21.561c-7.029,10.792-17.819,18.912-29.83,23.559a54.891,54.891,0,0,1-11.15,3.074l-.783-48.194Z" transform="translate(482.43 5205.659)" fill="#fcb85f"/>
      <path id="Trazado_1257667" data-name="Trazado 1257667" d="M169.4,218.526c0,2.636-23.137,4.774-51.678,4.774s-51.677-2.137-51.677-4.774,23.137-4.774,51.677-4.774,51.678,2.137,51.678,4.774" transform="translate(482.43 5204.55)" fill="#e88d18"/>
      <path id="Trazado_1257668" data-name="Trazado 1257668" d="M105.625,294.483a1.966,1.966,0,0,0-.115-.895c-.079-.148-.16-.3-.24-.444a1.964,1.964,0,0,0-.763-.628,4.565,4.565,0,0,0-.53-.173l-.026,0-.522-.02h-.016a1.428,1.428,0,0,0-.759.249,1.449,1.449,0,0,0-.608.479l-.016.02c-.035.042-.251.387-.275.436a3.344,3.344,0,0,0-.168.525,2.439,2.439,0,0,0-.035.628,2.177,2.177,0,0,0,.133.615,1.737,1.737,0,0,0,.452.7,1.446,1.446,0,0,0,.617.465,4.287,4.287,0,0,0,.495.156l.022.005a2.077,2.077,0,0,0,1.065-.1,3.315,3.315,0,0,0,.492-.263,2.18,2.18,0,0,0,.778-1.245,1.478,1.478,0,0,0,.018-.507" transform="translate(493.17 5228.32)" fill="#e88d18"/>
      <path id="Trazado_1257669" data-name="Trazado 1257669" d="M118.649,286.233c-3.34,0-2.815,5.17.5,5.17,3.341,0,2.815-5.17-.5-5.17" transform="translate(497.66 5226.479)" fill="#e88d18"/>
      <path id="Trazado_1257670" data-name="Trazado 1257670" d="M130.958,289.013c-3.34,0-2.815,5.17.5,5.17,3.341,0,2.815-5.17-.5-5.17" transform="translate(501.384 5227.32)" fill="#e88d18"/>
      <path id="Trazado_1257671" data-name="Trazado 1257671" d="M82.117,275.909c-3.34,0-2.815,5.17.5,5.17,3.341,0,2.815-5.17-.5-5.17" transform="translate(486.608 5223.356)" fill="#e88d18"/>
      <path id="Trazado_1257672" data-name="Trazado 1257672" d="M75.764,262.409c-3.341,0-2.815,5.17.5,5.17,3.341,0,2.815-5.17-.5-5.17" transform="translate(484.685 5219.271)" fill="#e88d18"/>
      <path id="Trazado_1257673" data-name="Trazado 1257673" d="M120.634,236.2c-3.34,0-2.815,5.17.5,5.17,3.34,0,2.813-5.17-.5-5.17" transform="translate(498.261 5211.342)" fill="#e88d18"/>
      <path id="Trazado_1257674" data-name="Trazado 1257674" d="M87.279,232.628c-3.34,0-2.815,5.17.5,5.17,3.34,0,2.813-5.17-.5-5.17" transform="translate(488.169 5210.261)" fill="#e88d18"/>
      <path id="Trazado_1257675" data-name="Trazado 1257675" d="M116.266,229.054c-3.34,0-2.815,5.17.5,5.17,3.341,0,2.815-5.17-.5-5.17" transform="translate(496.939 5209.18)" fill="#e88d18"/>
      <path id="Trazado_1257676" data-name="Trazado 1257676" d="M137.118,258.042c-3.34,0-2.815,5.17.5,5.17,3.341,0,2.815-5.17-.5-5.17" transform="translate(503.248 5217.95)" fill="#e88d18"/>
      <g id="Grupo_1205682" data-name="Grupo 1205682" transform="translate(555.965 5401.898)" opacity="0.27">
        <g id="Grupo_1205681" data-name="Grupo 1205681">
          <g id="Grupo_1205680" data-name="Grupo 1205680" clip-path="url(#clip-path-11)">
            <path id="Trazado_1257677" data-name="Trazado 1257677" d="M94.086,201.158c-1.094.1-2.188.181-3.281.241a21.226,21.226,0,0,0-.869,3.855,12.571,12.571,0,0,1-1.226,4.737c-1.485,2.494-4.548,3.228-7.034,4.586-4.62,2.527-7.555,7.637-8.83,12.934s-1.107,10.841-.93,16.3q1.071,33.236,2.144,66.474a18.46,18.46,0,0,0,1.215,7.25c1.038,2.222,3.285,4.024,5.619,3.658a1.641,1.641,0,0,0,1.1-.556,2.248,2.248,0,0,0,.289-1.347q.125-37.65.247-75.3c.021-6.225.182-12.92,3.707-17.93,2.32-3.3,5.824-5.433,8.609-8.312a23.926,23.926,0,0,0,6.7-15.845c0-.242-.014-.479-.035-.715-2.477.061-4.951.092-7.422-.031" transform="translate(-71.796 -201.158)" fill="#fff"/>
          </g>
        </g>
      </g>
      <g id="Grupo_1205685" data-name="Grupo 1205685" transform="translate(616.753 5435.525)" opacity="0.27">
        <g id="Grupo_1205684" data-name="Grupo 1205684">
          <g id="Grupo_1205683" data-name="Grupo 1205683" clip-path="url(#clip-path-12)">
            <path id="Trazado_1257678" data-name="Trazado 1257678" d="M148.091,288.379c.09,6.622-.092,13.866-4.362,18.929a18.83,18.83,0,0,1-6.178,4.6,28.359,28.359,0,0,1-19.086,2.066c5.742-6.7,16.363-8.365,20.692-16.051,2.164-3.844,2.282-8.469,2.259-12.88-.091-17.062-1.489-34.174.191-51.152.258-2.617.847-5.623,3.164-6.867,1.706-.916,1.472,10.358,1.491,10.693q.5,8.435.865,16.876.737,16.883.964,33.784" transform="translate(-118.465 -226.974)" fill="#fff"/>
          </g>
        </g>
      </g>
      <path id="Trazado_1257679" data-name="Trazado 1257679" d="M165.371,178.161v11.651a2.406,2.406,0,0,1-2.4,2.4H70.095a2.4,2.4,0,0,1-2.4-2.4V178.161a2.4,2.4,0,0,1,2.4-2.4H162.97a1.96,1.96,0,0,1,.264.016,2.4,2.4,0,0,1,2.136,2.385" transform="translate(482.929 5193.056)" fill="#f95f3e"/>
      <path id="Trazado_1257680" data-name="Trazado 1257680" d="M165.371,178.161v11.651a2.406,2.406,0,0,1-2.4,2.4H70.095a2.4,2.4,0,0,1-2.4-2.4V178.161a2.4,2.4,0,0,1,2.4-2.4h1.883c-.856,2.519-1.158,5.785-.155,8.091.913,2.111,3.114,3.013,5.5,3.367a22.764,22.764,0,0,0,3.428.225h.163q5.639-.008,11.272-.009,1.78-.006,3.564,0,5.858-.006,11.72-.008,1.786-.006,3.572,0,5.711-.006,11.422-.009,1.78-.006,3.559,0,5.65-.006,11.3-.008c1.179,0,2.356,0,3.539,0q5.625-.006,11.247-.008c1.183,0,2.36,0,3.543,0h.012c2.247,0,4.827-.159,6.2-1.941a6.808,6.808,0,0,0,1.1-3.363,38.328,38.328,0,0,0,.261-6.3,2.4,2.4,0,0,1,2.136,2.385" transform="translate(482.929 5193.056)" fill="#eb4c31"/>
      <path id="Trazado_1257681" data-name="Trazado 1257681" d="M79.091,192.209H75.507q-.209-2.5-.35-4.99-.318-5.723-.294-11.46h3.555q-.023,5.846.331,11.684.135,2.386.343,4.766" transform="translate(485.096 5193.056)" fill="#fd9b8b"/>
      <path id="Trazado_1257682" data-name="Trazado 1257682" d="M90.465,192.209H86.885q-.2-2.386-.322-4.774-.324-5.834-.27-11.676h3.539q-.055,5.84.293,11.672c.09,1.594.2,3.183.339,4.778" transform="translate(488.552 5193.056)" fill="#fd9b8b"/>
      <path id="Trazado_1257683" data-name="Trazado 1257683" d="M102.2,192.209H98.628c-.09-1.594-.18-3.193-.261-4.786q-.313-5.834-.584-11.664h3.568q.275,5.828.586,11.66.129,2.4.266,4.789" transform="translate(492.031 5193.056)" fill="#fd9b8b"/>
      <path id="Trazado_1257684" data-name="Trazado 1257684" d="M113.471,192.209h-3.559q-.02-2.4-.074-4.8-.115-5.826-.412-11.651H113q.287,5.822.4,11.647.055,2.4.073,4.8" transform="translate(495.554 5193.056)" fill="#fd9b8b"/>
      <path id="Trazado_1257685" data-name="Trazado 1257685" d="M124.773,187.394q0,2.4-.061,4.814h-3.534c.04-1.6.056-3.208.056-4.81q0-5.82-.343-11.638h3.572q.318,5.815.31,11.634" transform="translate(499.022 5193.056)" fill="#fd9b8b"/>
      <path id="Trazado_1257686" data-name="Trazado 1257686" d="M136.141,187.383q.012,2.409-.036,4.827h-3.535q.049-2.409.029-4.823-.023-5.815-.395-11.626h3.57q.35,5.809.367,11.623" transform="translate(502.445 5193.056)" fill="#fd9b8b"/>
      <path id="Trazado_1257687" data-name="Trazado 1257687" d="M83.488,280.41a1.913,1.913,0,0,1-1.913-1.869l-.025-1.013a1.422,1.422,0,0,0-1.366-1.382h-1.1a1.914,1.914,0,0,1-1.915-1.915V242.189a1.914,1.914,0,0,1,1.915-1.913H80.19a1.413,1.413,0,0,0,1.357-1.348l.047-.989a1.915,1.915,0,0,1,1.912-1.825h61.75a1.915,1.915,0,0,1,1.912,1.825l.047.989a1.412,1.412,0,0,0,1.37,1.348l1.2-.064a1.915,1.915,0,0,1,2.015,1.912v32.165a1.916,1.916,0,0,1-2,1.913l-1.086-.051-.125-.008a1.408,1.408,0,0,0-1.372,1.383l-.023,1.013a1.914,1.914,0,0,1-1.913,1.869Z" transform="translate(485.794 5211.316)" fill="#fff8f1"/>
      <path id="Trazado_1257688" data-name="Trazado 1257688" d="M144.764,277.984H83.083l-.022-.961a3.4,3.4,0,0,0-3.344-3.3H78.679V241.785h1.036a3.377,3.377,0,0,0,3.341-3.224l.044-.938h61.648l.044.938a3.376,3.376,0,0,0,3.376,3.224c.027,0,.055,0,.082,0l1.12-.06v32.053l-1.129-.053c-.025,0-.048,0-.073,0a3.363,3.363,0,0,0-3.381,3.3Zm-59.847-1.968h58.01A5.306,5.306,0,0,1,147.4,271.8V243.7a5.34,5.34,0,0,1-4.449-4.107H84.895a5.338,5.338,0,0,1-4.248,4.074V271.84a5.407,5.407,0,0,1,4.27,4.176" transform="translate(486.251 5211.773)" fill="#bddefd"/>
      <path id="Trazado_1257689" data-name="Trazado 1257689" d="M159.219,190.651c-14.1,1.245-28.227,2.754-42.393,3.041-14.355.292-28.51-1.352-42.645-3.73a1.357,1.357,0,0,0-1.1.257,1.308,1.308,0,0,0-1.889.261c-3.667,4.769,8.622,7.284,11.141,8.059a147.774,147.774,0,0,0,21.074,4.835q2.651.406,5.314.714c-4.193,2.5-7.454,6.436-10.148,10.506-3.857,5.829-7.249,12.507-7.728,19.6-.322,4.757,2.136,11.361,8.123,9.812,3.148-.815,5.329-3.56,6.975-6.188a45.685,45.685,0,0,0,4.379-9.238c.047-.135.09-.274.137-.409q-1.86,17.9-4.167,35.759c-.241,1.863,2.638,2.367,2.879.5q2.636-20.351,4.676-40.772a318.991,318.991,0,0,0,8.245,38.372c.507,1.808,3.234.756,2.729-1.046a312.7,312.7,0,0,1-8.853-43.147,94.386,94.386,0,0,0,4.125,10.105c2.738,5.683,6.475,12.25,13.408,13.1,6.358.776,13.423-3.618,11.6-10.687-1.59-6.173-6.41-12.052-10.88-16.416a48.825,48.825,0,0,0-12.663-8.916q1.329.039,2.655.057c6.9.087,14.067-.008,20.8-1.676,6.382-1.58,12.2-4.974,15.67-10.683.6-.986-.465-2.154-1.469-2.066m-56.624,46.974c-1.438,1.977-4.448,5.057-7.026,3.018-1.894-1.5-2-4.628-1.76-6.814.666-6.063,3.368-11.716,6.639-16.791,2.885-4.478,6.381-8.889,11.225-11.2.04.436.083.873.126,1.31-1.286,10.478-2.911,21.816-9.205,30.472m37.023-12.219c1.45,2.423,3.6,5.764,2.692,8.692-1,3.208-5.335,4.427-8.306,4.061-6.31-.775-9.462-7.492-11.811-12.6a121.7,121.7,0,0,1-6.7-19.336l.051-.574a46.616,46.616,0,0,1,24.072,19.762m1.135-24.118a110.955,110.955,0,0,1-23.256.649,147.414,147.414,0,0,1-22.546-3.1q-5.566-1.207-11.025-2.845-2.911-.873-5.779-1.877c-.914-.319-1.842-.629-2.742-.989a228.784,228.784,0,0,0,40.9,3.491c13.358-.224,26.68-1.564,39.982-2.768-3.882,4.4-9.806,6.557-15.537,7.44" transform="translate(483.782 5197.344)" fill="#77a7e4"/>
      <path id="Trazado_1257690" data-name="Trazado 1257690" d="M322.775,225.366l-10.85,62.38A26.532,26.532,0,0,1,292.773,308.8a209.481,209.481,0,0,1-54.751,7.484,227.34,227.34,0,0,1-58.87-7.72,26.534,26.534,0,0,1-19.387-21.112l-10.8-62.09Z" transform="translate(507.517 5208.064)" fill="#77a7e4"/>
      <path id="Trazado_1257691" data-name="Trazado 1257691" d="M309.492,225.366l-10.85,62.38A26.532,26.532,0,0,1,279.49,308.8a209.48,209.48,0,0,1-54.751,7.484c2.777-.508,5.544-1.08,8.3-1.7,7.159-1.606,14.307-3.594,20.739-7.131s12.12-8.764,15.069-15.477c2.286-5.208,2.812-11,3.284-16.666.427-5.18.826-10.424-.046-15.541s-3.13-10.2-7.185-13.445c-3.229-2.595-7.32-3.846-11.322-4.917a204.42,204.42,0,0,0-27.235-5.334c-8.146-1.034-16.266-1.388-24.458-1.633-6.134-.181-13.246-3.057-5.861-8.338.354-.254.707-.5,1.071-.744Z" transform="translate(520.801 5208.064)" fill="#6a9ae3"/>
      <path id="Trazado_1257692" data-name="Trazado 1257692" d="M322.776,228.723c0,2.4-4.046,4.663-11.141,6.622-14.932,4.119-43.4,6.9-76.052,6.9s-60.856-2.912-75.617-7.122c-7.013-2-11-4.281-11-6.686,0-7.475,38.458-13.236,86.613-13.236s87.192,6.052,87.192,13.518" transform="translate(507.518 5204.99)" fill="#77a7e4"/>
      <path id="Trazado_1257693" data-name="Trazado 1257693" d="M319.937,229.336c0,2.341-3.939,4.539-10.845,6.448-14.538,4.009-42.251,6.72-74.037,6.72s-59.242-2.834-73.611-6.932c-6.827-1.943-10.7-4.168-10.7-6.509,0-7.277,37.438-12.886,84.315-12.886s84.882,5.891,84.882,13.16" transform="translate(508.053 5205.284)" fill="#5e82cd"/>
      <g id="Grupo_1205689" data-name="Grupo 1205689" transform="translate(658.793 5331.359)">
        <g id="Grupo_1205688" data-name="Grupo 1205688" clip-path="url(#clip-path-13)">
          <path id="Trazado_1257694" data-name="Trazado 1257694" d="M315.193,252.039a10.93,10.93,0,0,1-4.3,4.629c-8.528,5.874-18.173,9.093-27.89,11.023-22.5,4.464-45.524,2.207-68.261-.052-4.818-.485-9.658-.969-14.484-1.575-10.407-1.306-20.778-3.176-30.8-6.8-5-1.809-14.9-3.895-15.524-10.7-.638-6.939,5.11-15.314,9.725-18.5,2.823-1.947,6.016-3.019,8.839-4.967,6.778-4.7,11.474-14.415,18.31-17.694a10.824,10.824,0,0,1,4.326-1.108c4.869-.181,9.376,3.306,14.238,3.6,6.264.38,11.706-4.448,17.6-7.208a21.89,21.89,0,0,1,3.448-1.314,17.747,17.747,0,0,1,17.729,5.52c.327.354.646.727.951,1.107,3.077,3.781,5.326,8.566,8.9,11.646,8.7,7.467,20.915,2.076,31.424,4.586,7.482,1.782,13.8,7.537,19.791,13.186,3.875,3.652,8.164,9.337,5.972,14.615" transform="translate(-149.787 -130.731)" fill="#fff8f1"/>
          <path id="Trazado_1257695" data-name="Trazado 1257695" d="M201.083,216.519c-4.964,0-8.876-4.819-13.055-7.277a30.343,30.343,0,0,0-5.791-2.276,10.838,10.838,0,0,1,4.324-1.107c4.87-.181,9.377,3.306,14.239,3.6,6.263.382,11.706-4.447,17.6-7.207-1.857,2.371-3.578,4.941-5.48,7.268-3.172,3.876-7.3,7.251-11.836,7" transform="translate(-141.211 -130.288)" fill="#f5e7d8"/>
          <path id="Trazado_1257696" data-name="Trazado 1257696" d="M304.422,250.362a10.93,10.93,0,0,1-4.3,4.629c-8.528,5.875-18.173,9.093-27.89,11.023-22.5,4.464-45.524,2.207-68.261-.052-4.818-.485-9.658-.969-14.484-1.575,6.263-11.517,16.561-19.935,27.917-22.358,15.392-3.3,31.221,3.8,46.744,1.54,4.644-.675,10.109-3.374,10.581-8.929.406-4.733-3.4-8.722-7.323-9.656s-7.939.294-11.895.969-8.345.666-11.509-2.25c-4.159-3.833-4.594-10.937-5.675-17.375,3.077,3.781,5.326,8.566,8.9,11.646,8.7,7.467,20.915,2.076,31.424,4.586,7.482,1.782,13.8,7.537,19.791,13.186,3.875,3.652,8.164,9.337,5.972,14.615" transform="translate(-139.016 -129.054)" fill="#f5e7d8"/>
        </g>
      </g>
      <path id="Trazado_1257698" data-name="Trazado 1257698" d="M154.508,241.991c-.586-2.9-.616-6.831,2.19-7.755,1.374-.453,2.856.109,4.19.673,7.008,2.961,31.275,6.749,35.764,8.282,1.175.4,2.5,1.284,2.321,2.513-.151,1.032-1.284,1.579-2.283,1.877-6.733,2.015-13.959.849-20.966,1.37a13.307,13.307,0,0,0-5.588,1.382c-5.1,2.868-5.37,9.977-5,15.819.4,6.229,1.87,13.341,1.256,19.541-.83,8.366-3.7-3.292-4.278-6.138q-3.8-18.782-7.611-37.564" transform="translate(509.097 5210.697)" fill="#83b9ed"/>
      <path id="Trazado_1257699" data-name="Trazado 1257699" d="M395.233,274.514v.079a47.59,47.59,0,0,1-1.755,11.891c-.331,1.2-.715,2.385-1.145,3.556a58.467,58.467,0,0,1-15.822,23.045c-1.476,1.359-3.034,2.674-4.662,3.918-14.471,11.189-34.454,18.151-56.485,18.151-19.965,0-38.257-5.769-52.271-15.2a74.2,74.2,0,0,1-6.755-5.118q-2.216-1.876-4.215-3.882A58.408,58.408,0,0,1,238.8,290.93c-.457-1.157-.86-2.335-1.218-3.521a47.331,47.331,0,0,1-2.067-12.439v-.008c-.008-.137-.017-.275-.017-.412-.018-.369.107-.014.107-.383,0-.261,0-.528.018-.788,2.881-6.9,37.469-12.353,79.707-12.353,1,0,2,0,2.989.014.474,0,.957,0,1.431.007,1.235.008,2.47.03,3.688.051s2.433.043,3.642.073q4.939.119,9.656.339c.985.051,1.959.1,2.927.145,8.581.456,16.528,1.142,23.571,2.024.492.059.985.124,1.467.189.314.043.628.079.931.122.43.057.851.116,1.262.173.537.073,1.064.152,1.584.232.4.057.8.116,1.191.18l.974.152c.966.152,1.907.311,2.82.47.3.057.608.108.9.165.528.1,1.037.189,1.547.289q1.53.293,2.953.608a.293.293,0,0,1,.081.014c.447.1.886.194,1.316.3.456.1.895.21,1.334.318s.867.218,1.288.326.832.224,1.226.332.788.224,1.172.34c.439.13.851.261,1.262.4,1.226.4,2.326.81,3.311,1.23.287.122.564.245.832.375s.518.246.761.376.483.253.7.383.412.238.6.361c.009.008.027.016.036.022a8.177,8.177,0,0,1,.823.6,6.741,6.741,0,0,1,.68.629c.1.108.2.216.277.324a4.326,4.326,0,0,1,.268.383,2.912,2.912,0,0,1,.277.586c.009.2.009.412.009.615,0,.275.107.151.116.346" transform="translate(533.695 5218.853)" fill="#fda931"/>
      <path id="Trazado_1257700" data-name="Trazado 1257700" d="M395.259,274.32a2.167,2.167,0,0,1-.143.78c-2.416,6.983-37.2,12.52-79.77,12.52-42.21,0-76.78-5.45-79.707-12.345a2.453,2.453,0,0,1-.206-.955,2.2,2.2,0,0,1,.206-.939c2.881-6.9,37.469-12.353,79.707-12.353,42.6,0,77.408,5.544,79.78,12.527a2.293,2.293,0,0,1,.134.766" transform="translate(533.676 5218.854)" fill="#fda931"/>
      <path id="Trazado_1257701" data-name="Trazado 1257701" d="M388.822,274.315c-.645,33.258-36.234,60.559-79.868,60.559-19.965,0-38.257-5.768-52.271-15.2a92.127,92.127,0,0,0,27.08,3.411,122.771,122.771,0,0,0,30.6-5.059c9.567-2.733,18.945-6.3,26.462-11.8s13.038-13.148,13.441-21.331c.34-7.012-3.078-13.915-8.377-19.473a44.418,44.418,0,0,0-3.73-3.47c26.228,2,44.832,6.289,46.542,11.327.009.2.009.412.009.615,0,.31.134.115.116.426" transform="translate(540.105 5219.131)" fill="#f49c28"/>
      <path id="Trazado_1257702" data-name="Trazado 1257702" d="M389.682,274.661a1.907,1.907,0,0,1-.134.731c-.832,2.371-5.727,4.56-13.558,6.382-10.577,2.472-26.505,4.279-45.03,4.965-5.4.2-11.025.311-16.8.311-25.575,0-48.189-2.089-61.846-5.277-7.651-1.786-12.491-3.918-13.485-6.224a2.294,2.294,0,0,1-.2-.89,2.048,2.048,0,0,1,.2-.875c2.721-6.425,35.411-11.5,75.331-11.5,13.593,0,26.345.586,37.361,1.619,21.612,2.018,36.547,5.74,38.033,10.048a1.966,1.966,0,0,1,.125.709" transform="translate(534.645 5219.234)" fill="#e0743b"/>
      <g id="Grupo_1205693" data-name="Grupo 1205693" transform="translate(773.28 5446.889)">
        <g id="Grupo_1205692" data-name="Grupo 1205692" clip-path="url(#clip-path-14)">
          <path id="Trazado_1257703" data-name="Trazado 1257703" d="M380.007,295.944a148.012,148.012,0,0,1-35.41,8.668c-17.194,2.042-34.706,1.166-51.982-.391-11.262-1.016-22.56-2.337-33.448-4.976-4.7-1.142-11.335-2.337-15.194-4.909-1.908-1.275-1.936-2.756-1.159-4.231a20.788,20.788,0,0,1,3.943-4.49c3.905-3.811,8.67-6.958,13.132-10.32,16.253-12.23,28.875-27.99,48.132-36.939a34.706,34.706,0,0,1,3.668-1.49,16.354,16.354,0,0,1,6-.943c3.505.184,6.617,1.821,9.4,3.546a74.275,74.275,0,0,1,14.374,11.544c2.911,3.036,5.485,6.273,8.36,9.339,9.226,9.864,21.291,17.715,32.754,25.9,1.579,1.127,3.258,2.44,3.431,4.134.255,2.61-3.066,4.423-6,5.551" transform="translate(-237.515 -235.636)" fill="#fff8f1"/>
          <path id="Trazado_1257704" data-name="Trazado 1257704" d="M380.007,295.944a148.012,148.012,0,0,1-35.41,8.668c-17.194,2.042-34.706,1.166-51.982-.391-11.262-1.016-22.56-2.337-33.448-4.976-4.7-1.142-11.335-2.337-15.194-4.909-1.908-1.275-1.936-2.756-1.159-4.231,15.752,4.025,32.672,4.386,49.235,3.884,11.509-.347,23.136-1.112,34.1-3.951,4.965-1.283,9.948-3.1,13.3-6.317,5.119-4.911,5.365-12.193,2.8-18.267S334.732,254.2,330.078,249c-3.559-3.981-7.137-8.146-12.293-10.741a39.627,39.627,0,0,0-6.1-1.394,16.354,16.354,0,0,1,6-.943c3.505.184,6.617,1.821,9.4,3.546a74.275,74.275,0,0,1,14.374,11.544c2.911,3.036,5.485,6.273,8.36,9.339,9.226,9.864,21.291,17.715,32.754,25.9,1.579,1.127,3.258,2.44,3.431,4.134.255,2.61-3.066,4.423-6,5.551" transform="translate(-237.515 -235.636)" fill="#f5e7d8"/>
          <path id="Trazado_1257705" data-name="Trazado 1257705" d="M257.5,272.512c-3.738,0-3.15,4.674.564,4.674,3.738,0,3.15-4.674-.564-4.674" transform="translate(-233.692 -224.561)" fill="#f5e7d8"/>
          <path id="Trazado_1257706" data-name="Trazado 1257706" d="M262.837,267.666c-3.738,0-3.15,4.674.564,4.674,3.738,0,3.15-4.674-.564-4.674" transform="translate(-232.078 -226.028)" fill="#f5e7d8"/>
          <path id="Trazado_1257707" data-name="Trazado 1257707" d="M270.791,273.1c-3.272,0-2.756,4.09.494,4.09,3.271,0,2.756-4.09-.494-4.09" transform="translate(-229.576 -224.385)" fill="#f5e7d8"/>
          <path id="Trazado_1257708" data-name="Trazado 1257708" d="M279.458,261.787c-3.272,0-2.756,4.09.494,4.09,3.271,0,2.756-4.09-.494-4.09" transform="translate(-226.954 -227.806)" fill="#f5e7d8"/>
          <path id="Trazado_1257709" data-name="Trazado 1257709" d="M290.57,247.247c-3.273,0-2.758,4.09.494,4.09,3.269,0,2.756-4.09-.494-4.09" transform="translate(-223.592 -232.205)" fill="#f5e7d8"/>
          <path id="Trazado_1257710" data-name="Trazado 1257710" d="M296.347,256.581c-3.272,0-2.756,4.09.494,4.09,3.271,0,2.756-4.09-.494-4.09" transform="translate(-221.844 -229.381)" fill="#f5e7d8"/>
        </g>
      </g>
      <path id="Trazado_1257712" data-name="Trazado 1257712" d="M392.993,280.571c-.331,1.2-.716,2.385-1.145,3.556a146.24,146.24,0,0,1-23.071,5.985,332.087,332.087,0,0,1-37.835,4.36,321.913,321.913,0,0,1-38.8.3,220.248,220.248,0,0,1-38.149-5.313c-5.316-1.257-10.56-2.717-15.679-4.438-.456-1.157-.858-2.335-1.217-3.521,1.369.485,2.756.933,4.134,1.381a174.692,174.692,0,0,0,19.848,5.146c24.511,4.887,50.078,5.162,75.09,3.181,19.115-1.517,39.33-3.78,56.825-10.633" transform="translate(534.179 5224.766)" fill="#fdcd8d"/>
      <path id="Trazado_1257713" data-name="Trazado 1257713" d="M372.649,301.488c-1.476,1.359-3.034,2.674-4.662,3.918q-4.324.8-8.689,1.409a273.111,273.111,0,0,1-33.9,2.334c-11.508.152-23.052-.122-34.524-.9a288.1,288.1,0,0,1-38.4-5.016q-2.214-1.876-4.215-3.882,6.631,1.518,13.406,2.653c22.2,3.729,45.164,4.756,67.8,4.192,14.532-.361,29.173-1.633,43.187-4.713" transform="translate(537.557 5230.449)" fill="#fdcd8d"/>
      <path id="Trazado_1257714" data-name="Trazado 1257714" d="M279.344,319.894c-.076.36-.151.72-.228,1.08-5.946,28.123-40,50-81.926,51.758q-2.7.113-5.454.113c-44.41,0-81.169-22.537-87.381-51.871l-.227-1.08c1.817-3.635,29.676-6.666,66.776-7.5,6.685-.152,13.653-.228,20.832-.228,47.061,0,85.468,3.428,87.608,7.727" transform="translate(493.951 5234.325)" fill="#bddefd"/>
      <path id="Trazado_1257715" data-name="Trazado 1257715" d="M279.461,320.273a1.075,1.075,0,0,1-.322.7c-3.826,4.167-41.476,7.4-87.381,7.4s-83.554-3.238-87.38-7.4a1.071,1.071,0,0,1-.323-.7.926.926,0,0,1,.1-.379c2.14-4.3,40.547-7.727,87.608-7.727s85.468,3.428,87.608,7.727a.925.925,0,0,1,.1.379" transform="translate(493.929 5234.325)" fill="#77a7e4"/>
      <g id="Grupo_1205696" data-name="Grupo 1205696" transform="translate(663.389 5546.492)" opacity="0.22">
        <g id="Grupo_1205695" data-name="Grupo 1205695">
          <g id="Grupo_1205694" data-name="Grupo 1205694" clip-path="url(#clip-path-15)">
            <path id="Trazado_1257716" data-name="Trazado 1257716" d="M264.174,319.894c-.076.36-.151.72-.228,1.08-5.946,28.123-40,50-81.926,51.758a75.033,75.033,0,0,0,14.677-7.746c5.815-3.957,11.515-10.321,9.811-17.119-1.572-6.231-8.465-9.3-14.621-11.117-10.208-2.992-42.042-3.258-37.1-22.176a7.642,7.642,0,0,1,.947-2.178c6.685-.152,13.653-.228,20.832-.228,47.061,0,85.468,3.428,87.608,7.727" transform="translate(-154.269 -312.167)" fill="#77a7e4"/>
          </g>
        </g>
      </g>
      <g id="Grupo_1205700" data-name="Grupo 1205700" transform="translate(597.984 5500.841)">
        <g id="Grupo_1205699" data-name="Grupo 1205699" clip-path="url(#clip-path-16)">
          <path id="Trazado_1257717" data-name="Trazado 1257717" d="M265.014,338.723A7.057,7.057,0,0,1,263.1,342.3a69.257,69.257,0,0,1-40.66,23.6c-11.8,2.1-23.9,1.08-35.794-.359-16.968-2.027-34.069-4.981-50.035-11.268-4.393-1.723-11.268-4.034-16.42-7.234a18.4,18.4,0,0,1-5.359-4.64c-4.981-6.95,3.389-13.371,8.56-17.556Q138.025,313,152.636,301.15c7.725-6.25,15.586-12.594,24.789-16.363,6.648-2.728,14.166-3.958,21.136-2.67a26.375,26.375,0,0,1,7.745,2.632c3.693,1.932,6.837,4.753,9.962,7.538q22.668,20.253,45.338,40.546c1.761,1.572,3.674,3.542,3.409,5.89" transform="translate(-101.255 -275.762)" fill="#fff8f1"/>
          <path id="Trazado_1257718" data-name="Trazado 1257718" d="M263.415,338.6a7.057,7.057,0,0,1-1.912,3.579,69.257,69.257,0,0,1-40.66,23.6c-11.8,2.1-23.9,1.08-35.794-.359-16.968-2.027-34.069-4.981-50.035-11.268-4.393-1.723-11.268-4.034-16.42-7.234,7.746-.8,15.776-.379,23.6-.417a193.214,193.214,0,0,0,32.536-2.936c10.284-1.8,20.8-4.64,28.844-11.287,2.348-1.951,4.64-4.848,3.75-7.784a7.787,7.787,0,0,0-3.486-3.882,27.983,27.983,0,0,0-17.252-4.318c2.9-9.791,18.559-4.7,17.9-19.11-.285-5.833-4.185-10.415-7.518-15.188a26.374,26.374,0,0,1,7.745,2.632c3.693,1.932,6.837,4.753,9.962,7.538q22.668,20.253,45.338,40.546c1.761,1.572,3.674,3.542,3.409,5.89" transform="translate(-99.656 -275.643)" fill="#f5e7d8"/>
          <path id="Trazado_1257719" data-name="Trazado 1257719" d="M135.11,315.4c-3.879,0-3.268,6,.585,6,3.879,0,3.268-6-.585-6" transform="translate(-95.454 -265.538)" fill="#f5e7d8"/>
          <path id="Trazado_1257720" data-name="Trazado 1257720" d="M141.1,307.1c-3.879,0-3.268,6,.585,6,3.879,0,3.268-6-.585-6" transform="translate(-93.64 -268.05)" fill="#f5e7d8"/>
          <path id="Trazado_1257721" data-name="Trazado 1257721" d="M147.926,315.051c-2.91,0-2.451,4.5.439,4.5,2.909,0,2.451-4.5-.439-4.5" transform="translate(-91.378 -265.643)" fill="#f5e7d8"/>
          <path id="Trazado_1257722" data-name="Trazado 1257722" d="M155.766,303.522c-2.91,0-2.451,4.5.439,4.5,2.909,0,2.451-4.5-.439-4.5" transform="translate(-89.006 -269.131)" fill="#f5e7d8"/>
          <path id="Trazado_1257723" data-name="Trazado 1257723" d="M166.834,289.687c-2.91,0-2.451,4.5.438,4.5,2.91,0,2.451-4.5-.438-4.5" transform="translate(-85.657 -273.317)" fill="#f5e7d8"/>
        </g>
      </g>
    </g>
    <path id="Trazado_1257725" data-name="Trazado 1257725" d="M318.045,1.11,63.861,123.518,1.082,398.568l175.9,220.573H459.106l175.9-220.573-62.779-275.05Z" transform="translate(482.291 5069.213)" fill="none" stroke="#216c88" stroke-miterlimit="10" stroke-width="3" opacity="0.2"/>
    <g id="Grupo_1205524" data-name="Grupo 1205524" transform="translate(9448.873 13305.511)">
      <g id="Rectángulo_456267" data-name="Rectángulo 456267" transform="translate(-8786 -8270.511)" fill="#fff1e8" stroke="#feebde" stroke-width="2">
        <rect width="274" height="76" rx="16" stroke="none"/>
        <rect x="1" y="1" width="272" height="74" rx="15" fill="none"/>
      </g>
      <text id="Aportar_dulzor_a_un_producto." data-name="Aportar dulzor a un producto." transform="translate(-8760 -8243.511)" fill="#12263f" font-size="16" font-family="Roboto-Regular, Roboto" letter-spacing="0.003em"><tspan x="0" y="17">Aportar dulzor a un producto.</tspan></text>
    </g>
    <g id="Grupo_1205704" data-name="Grupo 1205704" transform="translate(9075.873 13737.511)">
      <g id="Rectángulo_456267-2" data-name="Rectángulo 456267" transform="translate(-8786 -8271)" fill="#fff1e8" stroke="#feebde" stroke-width="2">
        <rect width="274" height="76" rx="16" stroke="none"/>
        <rect x="1" y="1" width="272" height="74" rx="15" fill="none"/>
      </g>
      <text id="Dar_cuerpo_y_textura_a_jarabes_dulces_helados_y_panes." data-name="Dar cuerpo y textura a jarabes, dulces, helados y panes." transform="translate(-8760 -8255)" fill="#12263f" font-size="16" font-family="Roboto-Regular, Roboto" letter-spacing="0.003em"><tspan x="0" y="17">Dar cuerpo y textura a jarabes, </tspan><tspan x="0" y="41">dulces, helados y panes.</tspan></text>
    </g>
    <g id="Grupo_1205707" data-name="Grupo 1205707" transform="translate(9115.873 13412.511)">
      <g id="Rectángulo_456267-3" data-name="Rectángulo 456267" transform="translate(-8786 -8271)" fill="#fff1e8" stroke="#feebde" stroke-width="2">
        <rect width="274" height="76" rx="16" stroke="none"/>
        <rect x="1" y="1" width="272" height="74" rx="15" fill="none"/>
      </g>
      <text id="Mejorar_control_del_punto_de_congelación_y_cristatalización." data-name="Mejorar control del punto de congelación y cristatalización." transform="translate(-8760 -8255)" fill="#12263f" font-size="16" font-family="Roboto-Regular, Roboto" letter-spacing="0.003em"><tspan x="0" y="17">Mejorar control del punto de </tspan><tspan x="0" y="41">congelación y cristatalización.</tspan></text>
    </g>
    <g id="Grupo_1205705" data-name="Grupo 1205705" transform="translate(9822.873 13737.511)">
      <g id="Rectángulo_456267-4" data-name="Rectángulo 456267" transform="translate(-8786 -8271)" fill="#fff1e8" stroke="#feebde" stroke-width="2">
        <rect width="274" height="76" rx="16" stroke="none"/>
        <rect x="1" y="1" width="272" height="74" rx="15" fill="none"/>
      </g>
      <text id="Reducir_el_crecimiento_microbiano." data-name="Reducir el crecimiento microbiano." transform="translate(-8760 -8255)" fill="#12263f" font-size="16" font-family="Roboto-Regular, Roboto" letter-spacing="0.003em"><tspan x="0" y="17">Reducir el crecimiento </tspan><tspan x="0" y="41">microbiano.</tspan></text>
    </g>
    <g id="Grupo_1205706" data-name="Grupo 1205706" transform="translate(9782.873 13412.511)">
      <g id="Rectángulo_456267-5" data-name="Rectángulo 456267" transform="translate(-8786 -8271)" fill="#fff1e8" stroke="#feebde" stroke-width="2">
        <rect width="274" height="76" rx="16" stroke="none"/>
        <rect x="1" y="1" width="272" height="74" rx="15" fill="none"/>
      </g>
      <text id="Neutralizar_el_sabor_astringente." data-name="Neutralizar el sabor astringente." transform="translate(-8760 -8255)" fill="#12263f" font-size="16" font-family="Roboto-Regular, Roboto" letter-spacing="0.003em"><tspan x="0" y="17">Neutralizar el sabor </tspan><tspan x="0" y="41">astringente.</tspan></text>
    </g>
    <g id="Grupo_1205702" data-name="Grupo 1205702" transform="translate(9272.873 13913.511)">
      <g id="Rectángulo_456267-6" data-name="Rectángulo 456267" transform="translate(-8786 -8271)" fill="#fff1e8" stroke="#feebde" stroke-width="2">
        <rect width="274" height="76" rx="16" stroke="none"/>
        <rect x="1" y="1" width="272" height="74" rx="15" fill="none"/>
      </g>
      <text id="Fermentar_panes_bebidas_alcohólicas_y_vinagres." data-name="Fermentar panes, bebidas alcohólicas y vinagres." transform="translate(-8760 -8255)" fill="#12263f" font-size="16" font-family="Roboto-Regular, Roboto" letter-spacing="0.003em"><tspan x="0" y="17">Fermentar panes, bebidas </tspan><tspan x="0" y="41">alcohólicas y vinagres.</tspan></text>
    </g>
    <g id="Grupo_1205703" data-name="Grupo 1205703" transform="translate(9624.873 13913.511)">
      <g id="Rectángulo_456267-7" data-name="Rectángulo 456267" transform="translate(-8786 -8271)" fill="#fff1e8" stroke="#feebde" stroke-width="2">
        <rect width="274" height="76" rx="16" stroke="none"/>
        <rect x="1" y="1" width="272" height="74" rx="15" fill="none"/>
      </g>
      <text id="Conservar_y_realzar_el_sabor_de_carnes_curadas." data-name="Conservar y realzar el sabor de carnes curadas." transform="translate(-8760 -8255)" fill="#12263f" font-size="16" font-family="Roboto-Regular, Roboto" letter-spacing="0.003em"><tspan x="0" y="17">Conservar y realzar el sabor de </tspan><tspan x="0" y="41">carnes curadas.</tspan></text>
    </g>
  </g>
</svg>
