<svg xmlns="http://www.w3.org/2000/svg" xmlns:xlink="http://www.w3.org/1999/xlink" width="456" height="752" viewBox="0 0 456 752">
  <defs>
    <clipPath id="clip-path">
      <rect id="Rectángulo_456692" data-name="Rectángulo 456692" width="436.477" height="313.479" fill="none"/>
    </clipPath>
    <clipPath id="clip-path-2">
      <rect id="Rectángulo_456685" data-name="Rectángulo 456685" width="55.301" height="285.245" fill="none"/>
    </clipPath>
    <clipPath id="clip-path-3">
      <rect id="Rectángulo_456691" data-name="Rectángulo 456691" width="55.301" height="301.315" fill="none"/>
    </clipPath>
  </defs>
  <g id="Grupo_1206662" data-name="Grupo 1206662" transform="translate(2996 10639)">
    <g id="Grupo_1206621" data-name="Grupo 1206621" transform="translate(-2986 -10447.793)" clip-path="url(#clip-path)">
      <path id="Trazado_1258779" data-name="Trazado 1258779" d="M81.125,139.113a24.064,24.064,0,1,0-5.84-33.529,24.063,24.063,0,0,0,5.84,33.529" transform="translate(126.382 169.984)" fill="#91167a"/>
      <path id="Trazado_1258780" data-name="Trazado 1258780" d="M76.084,101.515A19.457,19.457,0,0,1,78.118,99.1a19.525,19.525,0,0,0,31.531,22.174,19.54,19.54,0,1,1-33.565-19.761" transform="translate(129.275 176.651)" fill="#601160" opacity="0.5"/>
      <path id="Trazado_1258781" data-name="Trazado 1258781" d="M80.767,121.076a13.668,13.668,0,1,0-3.317-19.043,13.671,13.671,0,0,0,3.317,19.043" transform="translate(133.617 171.523)" fill="#975092"/>
      <path id="Trazado_1258782" data-name="Trazado 1258782" d="M80.045,109.973A7.187,7.187,0,1,0,78.3,99.959a7.188,7.188,0,0,0,1.745,10.014" transform="translate(137.238 172.735)" fill="#c288b4" opacity="0.5"/>
      <path id="Trazado_1258783" data-name="Trazado 1258783" d="M76.145,125.037A24.064,24.064,0,1,0,70.3,91.51a24.061,24.061,0,0,0,5.843,33.526" transform="translate(117.503 144.894)" fill="#91167a"/>
      <path id="Trazado_1258784" data-name="Trazado 1258784" d="M71.1,87.442a19.488,19.488,0,0,1,2.034-2.415A19.524,19.524,0,0,0,104.669,107.2,19.538,19.538,0,1,1,71.1,87.442" transform="translate(120.396 151.561)" fill="#601160" opacity="0.5"/>
      <path id="Trazado_1258785" data-name="Trazado 1258785" d="M75.786,107a13.668,13.668,0,1,0-3.317-19.043A13.671,13.671,0,0,0,75.786,107" transform="translate(124.738 146.434)" fill="#975092"/>
      <path id="Trazado_1258786" data-name="Trazado 1258786" d="M75.064,95.9a7.186,7.186,0,1,0-1.745-10.011A7.186,7.186,0,0,0,75.064,95.9" transform="translate(128.359 147.646)" fill="#c288b4" opacity="0.5"/>
      <path id="Trazado_1258787" data-name="Trazado 1258787" d="M67.129,137.858a24.064,24.064,0,1,0-5.843-33.526,24.061,24.061,0,0,0,5.843,33.526" transform="translate(101.432 167.75)" fill="#91167a"/>
      <path id="Trazado_1258788" data-name="Trazado 1258788" d="M62.088,100.263a19.9,19.9,0,0,1,2.034-2.415,19.525,19.525,0,0,0,31.531,22.174,20.163,20.163,0,0,1-1.583,2.732,19.549,19.549,0,0,1-31.982-22.491" transform="translate(104.325 174.414)" fill="#601160" opacity="0.5"/>
      <path id="Trazado_1258789" data-name="Trazado 1258789" d="M66.77,119.824a13.669,13.669,0,1,0-3.317-19.043,13.669,13.669,0,0,0,3.317,19.043" transform="translate(108.667 169.286)" fill="#975092"/>
      <path id="Trazado_1258790" data-name="Trazado 1258790" d="M66.049,108.717A7.186,7.186,0,1,0,64.3,98.705a7.186,7.186,0,0,0,1.747,10.011" transform="translate(112.287 170.499)" fill="#c288b4" opacity="0.5"/>
      <path id="Trazado_1258791" data-name="Trazado 1258791" d="M40.568,100.017a24.065,24.065,0,1,0-5.843-33.526,24.063,24.063,0,0,0,5.843,33.526" transform="translate(54.087 100.297)" fill="#91167a"/>
      <path id="Trazado_1258792" data-name="Trazado 1258792" d="M35.527,62.42a19.456,19.456,0,0,1,2.034-2.412A19.525,19.525,0,0,0,69.092,82.182a20.133,20.133,0,0,1-1.583,2.73A19.549,19.549,0,0,1,35.527,62.42" transform="translate(56.98 106.964)" fill="#601160"/>
      <path id="Trazado_1258793" data-name="Trazado 1258793" d="M40.209,81.981a13.668,13.668,0,1,0-3.317-19.043,13.671,13.671,0,0,0,3.317,19.043" transform="translate(61.322 101.836)" fill="#975092"/>
      <path id="Trazado_1258794" data-name="Trazado 1258794" d="M39.486,70.875a7.186,7.186,0,1,0-1.745-10.011,7.186,7.186,0,0,0,1.745,10.011" transform="translate(64.941 103.048)" fill="#c288b4" opacity="0.5"/>
      <path id="Trazado_1258795" data-name="Trazado 1258795" d="M31.551,112.839a24.063,24.063,0,1,0-5.843-33.526,24.061,24.061,0,0,0,5.843,33.526" transform="translate(38.015 123.151)" fill="#91167a"/>
      <path id="Trazado_1258796" data-name="Trazado 1258796" d="M26.509,75.244a19.7,19.7,0,0,1,2.034-2.415A19.525,19.525,0,0,0,60.074,95,19.539,19.539,0,1,1,26.509,75.244" transform="translate(40.908 129.818)" fill="#601160" opacity="0.5"/>
      <path id="Trazado_1258797" data-name="Trazado 1258797" d="M31.193,94.8a13.668,13.668,0,1,0-3.317-19.043A13.671,13.671,0,0,0,31.193,94.8" transform="translate(45.251 124.689)" fill="#975092"/>
      <path id="Trazado_1258798" data-name="Trazado 1258798" d="M30.47,83.7a7.186,7.186,0,1,0-1.745-10.011A7.187,7.187,0,0,0,30.47,83.7" transform="translate(48.87 125.903)" fill="#c288b4" opacity="0.5"/>
      <path id="Trazado_1258799" data-name="Trazado 1258799" d="M71.505,113.187a24.064,24.064,0,1,0-5.84-33.529,24.063,24.063,0,0,0,5.84,33.529" transform="translate(109.235 123.771)" fill="#91167a"/>
      <path id="Trazado_1258800" data-name="Trazado 1258800" d="M66.464,75.588A19.662,19.662,0,0,1,68.5,73.176,19.525,19.525,0,0,0,100.029,95.35,19.54,19.54,0,1,1,66.464,75.588" transform="translate(112.128 130.436)" fill="#601160" opacity="0.5"/>
      <path id="Trazado_1258801" data-name="Trazado 1258801" d="M71.148,95.149a13.668,13.668,0,1,0-3.32-19.043,13.671,13.671,0,0,0,3.32,19.043" transform="translate(116.47 125.308)" fill="#975092"/>
      <path id="Trazado_1258802" data-name="Trazado 1258802" d="M70.425,84.046A7.187,7.187,0,1,0,68.68,74.032a7.186,7.186,0,0,0,1.745,10.014" transform="translate(120.09 126.52)" fill="#c288b4"/>
      <path id="Trazado_1258803" data-name="Trazado 1258803" d="M62.489,126.006a24.064,24.064,0,1,0-5.84-33.526,24.062,24.062,0,0,0,5.84,33.526" transform="translate(93.164 146.623)" fill="#91167a"/>
      <path id="Trazado_1258804" data-name="Trazado 1258804" d="M57.449,88.41A19.459,19.459,0,0,1,59.483,86a19.525,19.525,0,0,0,31.531,22.174,19.844,19.844,0,0,1-1.583,2.73A19.549,19.549,0,0,1,57.449,88.41" transform="translate(96.056 153.291)" fill="#601160" opacity="0.5"/>
      <path id="Trazado_1258805" data-name="Trazado 1258805" d="M62.131,107.971a13.668,13.668,0,1,0-3.317-19.043,13.671,13.671,0,0,0,3.317,19.043" transform="translate(100.398 148.161)" fill="#975092"/>
      <path id="Trazado_1258806" data-name="Trazado 1258806" d="M61.408,96.865a7.186,7.186,0,1,0-1.745-10.011,7.186,7.186,0,0,0,1.745,10.011" transform="translate(104.02 149.375)" fill="#c288b4" opacity="0.5"/>
      <path id="Trazado_1258807" data-name="Trazado 1258807" d="M53.474,138.828A24.064,24.064,0,1,0,47.63,105.3a24.061,24.061,0,0,0,5.843,33.526" transform="translate(77.092 169.476)" fill="#91167a"/>
      <path id="Trazado_1258808" data-name="Trazado 1258808" d="M48.433,101.233a19.487,19.487,0,0,1,2.034-2.415A19.525,19.525,0,0,0,82,120.992a19.539,19.539,0,1,1-33.565-19.759" transform="translate(79.985 176.143)" fill="#601160" opacity="0.5"/>
      <path id="Trazado_1258809" data-name="Trazado 1258809" d="M53.115,120.793A13.668,13.668,0,1,0,49.8,101.749a13.671,13.671,0,0,0,3.317,19.043" transform="translate(84.327 171.016)" fill="#975092"/>
      <path id="Trazado_1258810" data-name="Trazado 1258810" d="M52.4,109.686a7.185,7.185,0,1,0-1.747-10.011A7.188,7.188,0,0,0,52.4,109.686" transform="translate(87.946 172.228)" fill="#c288b4" opacity="0.5"/>
      <path id="Trazado_1258811" data-name="Trazado 1258811" d="M53.717,100.677a24.064,24.064,0,1,0-5.843-33.529,24.063,24.063,0,0,0,5.843,33.529" transform="translate(77.526 101.472)" fill="#91167a"/>
      <path id="Trazado_1258812" data-name="Trazado 1258812" d="M48.675,63.079a19.911,19.911,0,0,1,2.034-2.412A19.525,19.525,0,0,0,82.24,82.841,19.54,19.54,0,1,1,48.675,63.079" transform="translate(80.419 108.139)" fill="#601160" opacity="0.5"/>
      <path id="Trazado_1258813" data-name="Trazado 1258813" d="M53.359,82.639A13.668,13.668,0,1,0,50.042,63.6a13.671,13.671,0,0,0,3.317,19.043" transform="translate(84.762 103.009)" fill="#975092"/>
      <path id="Trazado_1258814" data-name="Trazado 1258814" d="M52.636,71.537a7.187,7.187,0,1,0-1.745-10.014,7.189,7.189,0,0,0,1.745,10.014" transform="translate(88.381 104.223)" fill="#c288b4" opacity="0.5"/>
      <path id="Trazado_1258815" data-name="Trazado 1258815" d="M44.7,113.5a24.062,24.062,0,1,0-5.843-33.526A24.063,24.063,0,0,0,44.7,113.5" transform="translate(61.455 124.325)" fill="#91167a"/>
      <path id="Trazado_1258816" data-name="Trazado 1258816" d="M39.659,75.9a19.456,19.456,0,0,1,2.034-2.412A19.525,19.525,0,0,0,73.224,95.662,19.54,19.54,0,1,1,39.659,75.9" transform="translate(64.348 130.992)" fill="#601160" opacity="0.5"/>
      <path id="Trazado_1258817" data-name="Trazado 1258817" d="M44.343,95.46a13.668,13.668,0,1,0-3.317-19.043A13.671,13.671,0,0,0,44.343,95.46" transform="translate(68.691 125.863)" fill="#975092"/>
      <path id="Trazado_1258818" data-name="Trazado 1258818" d="M43.62,84.355a7.186,7.186,0,1,0-1.745-10.011A7.185,7.185,0,0,0,43.62,84.355" transform="translate(72.31 127.076)" fill="#c288b4" opacity="0.5"/>
      <path id="Trazado_1258819" data-name="Trazado 1258819" d="M35.685,126.317A24.063,24.063,0,1,0,29.841,92.79a24.061,24.061,0,0,0,5.843,33.526" transform="translate(45.384 147.178)" fill="#91167a"/>
      <path id="Trazado_1258820" data-name="Trazado 1258820" d="M30.643,88.721a19.456,19.456,0,0,1,2.034-2.412A19.524,19.524,0,0,0,64.208,108.48,19.539,19.539,0,1,1,30.643,88.721" transform="translate(48.277 153.846)" fill="#601160" opacity="0.5"/>
      <path id="Trazado_1258821" data-name="Trazado 1258821" d="M35.326,108.282a13.668,13.668,0,1,0-3.32-19.043,13.671,13.671,0,0,0,3.32,19.043" transform="translate(52.618 148.718)" fill="#975092"/>
      <path id="Trazado_1258822" data-name="Trazado 1258822" d="M34.6,97.176a7.186,7.186,0,1,0-1.745-10.011A7.186,7.186,0,0,0,34.6,97.176" transform="translate(56.238 149.929)" fill="#c288b4" opacity="0.5"/>
      <path id="Trazado_1258823" data-name="Trazado 1258823" d="M67.373,99.707a24.063,24.063,0,1,0-5.843-33.529,24.066,24.066,0,0,0,5.843,33.529" transform="translate(101.867 99.743)" fill="#91167a"/>
      <path id="Trazado_1258824" data-name="Trazado 1258824" d="M62.33,62.109A19.458,19.458,0,0,1,64.364,59.7,19.525,19.525,0,0,0,95.9,81.871,19.54,19.54,0,1,1,62.33,62.109" transform="translate(104.759 106.41)" fill="#601160"/>
      <path id="Trazado_1258825" data-name="Trazado 1258825" d="M67.014,81.669A13.668,13.668,0,1,0,63.7,62.626a13.671,13.671,0,0,0,3.317,19.043" transform="translate(109.102 101.28)" fill="#975092"/>
      <path id="Trazado_1258826" data-name="Trazado 1258826" d="M66.291,70.567a7.187,7.187,0,1,0-1.745-10.014,7.188,7.188,0,0,0,1.745,10.014" transform="translate(112.721 102.493)" fill="#c288b4"/>
      <path id="Trazado_1258827" data-name="Trazado 1258827" d="M58.357,112.525A24.063,24.063,0,1,0,52.513,79a24.063,24.063,0,0,0,5.843,33.526" transform="translate(85.796 122.596)" fill="#91167a"/>
      <path id="Trazado_1258828" data-name="Trazado 1258828" d="M53.314,74.93a19.458,19.458,0,0,1,2.034-2.412A19.526,19.526,0,0,0,86.879,94.692,19.54,19.54,0,1,1,53.314,74.93" transform="translate(88.688 129.263)" fill="#601160" opacity="0.5"/>
      <path id="Trazado_1258829" data-name="Trazado 1258829" d="M58,94.492a13.668,13.668,0,1,0-3.317-19.043A13.671,13.671,0,0,0,58,94.492" transform="translate(93.031 124.135)" fill="#975092"/>
      <path id="Trazado_1258830" data-name="Trazado 1258830" d="M57.275,83.385A7.186,7.186,0,1,0,55.53,73.374a7.186,7.186,0,0,0,1.745,10.011" transform="translate(96.65 125.347)" fill="#c288b4" opacity="0.5"/>
      <path id="Trazado_1258831" data-name="Trazado 1258831" d="M49.339,125.348A24.064,24.064,0,1,0,43.5,91.821a24.06,24.06,0,0,0,5.84,33.526" transform="translate(69.724 145.451)" fill="#91167a"/>
      <path id="Trazado_1258832" data-name="Trazado 1258832" d="M44.3,87.754a19.691,19.691,0,0,1,2.034-2.415,19.525,19.525,0,0,0,31.531,22.174,19.875,19.875,0,0,1-1.583,2.732A19.549,19.549,0,0,1,44.3,87.754" transform="translate(72.617 152.117)" fill="#601160" opacity="0.5"/>
      <path id="Trazado_1258833" data-name="Trazado 1258833" d="M48.981,107.314A13.669,13.669,0,1,0,45.664,88.27a13.671,13.671,0,0,0,3.317,19.043" transform="translate(76.958 146.987)" fill="#975092"/>
      <path id="Trazado_1258834" data-name="Trazado 1258834" d="M48.259,96.206a7.186,7.186,0,1,0-1.745-10.011,7.186,7.186,0,0,0,1.745,10.011" transform="translate(80.579 148.2)" fill="#c288b4" opacity="0.5"/>
      <path id="Trazado_1258835" data-name="Trazado 1258835" d="M40.323,138.17a24.064,24.064,0,1,0-5.84-33.526,24.063,24.063,0,0,0,5.84,33.526" transform="translate(53.653 168.303)" fill="#91167a"/>
      <path id="Trazado_1258836" data-name="Trazado 1258836" d="M35.283,100.575a19.485,19.485,0,0,1,2.034-2.415,19.525,19.525,0,0,0,31.531,22.174,19.539,19.539,0,1,1-33.565-19.759" transform="translate(56.545 174.97)" fill="#601160" opacity="0.5"/>
      <path id="Trazado_1258837" data-name="Trazado 1258837" d="M39.965,120.132a13.668,13.668,0,1,0-3.317-19.043,13.668,13.668,0,0,0,3.317,19.043" transform="translate(60.887 169.84)" fill="#975092"/>
      <path id="Trazado_1258838" data-name="Trazado 1258838" d="M39.243,109.029A7.186,7.186,0,1,0,37.5,99.017a7.186,7.186,0,0,0,1.745,10.011" transform="translate(64.508 171.055)" fill="#c288b4" opacity="0.5"/>
      <path id="Trazado_1258839" data-name="Trazado 1258839" d="M12.688,93.258a51.5,51.5,0,0,0,50.85-5.248c6.083-4.474,11.219-10.348,18-13.665-5.39-4.282-11.358-8.064-18.036-9.725-11.161-2.774-22.981.679-33.27,5.813S10.526,82.381,0,87.017c4.391,1.722,8.4,4.282,12.688,6.241" transform="translate(0 113.431)" fill="#71a42d"/>
      <path id="Trazado_1258840" data-name="Trazado 1258840" d="M71.564,55.186A51.51,51.51,0,0,1,50.225,101.64c-6.2,4.318-13.406,7.287-18.732,12.644-2.321-6.48-3.979-13.348-3.4-20.2.966-11.461,8.039-21.539,16.214-29.631S61.962,49.638,69.739,41.165c.22,4.708,1.352,9.327,1.825,14.021" transform="translate(49.87 73.377)" fill="#71a42d"/>
      <path id="Trazado_1258841" data-name="Trazado 1258841" d="M29.565,120.524A40.543,40.543,0,0,0,48.477,85c-.25-5.938-1.831-11.873-1.018-17.761-5.164,1.639-10.256,3.873-14.274,7.507-6.717,6.071-9.655,15.312-10.821,24.286s-.854,18.125-2.449,27.038c3.052-2.112,6.486-3.606,9.65-5.546" transform="translate(35.498 119.853)" fill="#71a42d"/>
      <path id="Trazado_1258842" data-name="Trazado 1258842" d="M83.43,83.83a40.537,40.537,0,0,1-40.243-.075c-5.12-3.019-9.608-7.212-15.184-9.271,3.882-3.784,8.253-7.218,13.353-9.049,8.52-3.058,18.053-1.291,26.52,1.912s16.383,7.794,25,10.587c-3.3,1.7-6.238,4.021-9.441,5.9" transform="translate(49.915 113.813)" fill="#71a42d"/>
      <path id="Trazado_1258843" data-name="Trazado 1258843" d="M50.515,101.9c-4.922-2.474-8.005-7.465-10.582-12.335A162.541,162.541,0,0,1,25,49.076a7.333,7.333,0,0,0-5.6-.437c4.438,8.673,5.309,18.729,8.9,27.786,3.066,7.744,8.036,14.566,13.106,21.172a15.113,15.113,0,0,0,3.859,3.918,5.251,5.251,0,0,0,5.251.387" transform="translate(34.588 86.056)" fill="#c6db69"/>
      <path id="Trazado_1258844" data-name="Trazado 1258844" d="M116.464,76.815c-31.709,30.477-30.132,78.414.345,110.126s78.311,35.185,110.023,4.708,29.027-77.353-1.45-109.066-77.209-36.245-108.918-5.768" transform="translate(166.327 100.211)" fill="#b72125"/>
      <path id="Trazado_1258845" data-name="Trazado 1258845" d="M117.043,77.736c-27.881,26.8-26.492,68.945.3,96.825S186.2,205.5,214.082,178.7s25.524-68.01-1.272-95.891-67.887-31.868-95.768-5.072" transform="translate(172.343 106.287)" fill="#ef6c5a"/>
      <path id="Trazado_1258846" data-name="Trazado 1258846" d="M149.055,76.09,128.406,96.435a6.09,6.09,0,0,0,2.655,10.209l27.947,7.708a6.087,6.087,0,0,0,7.51-7.4l-7.293-28.059a6.091,6.091,0,0,0-10.17-2.8" transform="translate(225.642 132.498)" fill="#e31f23"/>
      <path id="Trazado_1258847" data-name="Trazado 1258847" d="M139.035,80.72a9.555,9.555,0,0,0-2.919,2.251,1.218,1.218,0,0,0,.529,2.037,9.606,9.606,0,0,0,3.648.543,2.5,2.5,0,0,0-1.258-4.83" transform="translate(241.984 143.741)" fill="#ffab00"/>
      <path id="Trazado_1258848" data-name="Trazado 1258848" d="M139.876,83.964a9.552,9.552,0,0,0-3.659-.473,1.216,1.216,0,0,0-1.063,1.811,9.506,9.506,0,0,0,2.193,2.966,2.5,2.5,0,0,0,2.529-4.3" transform="translate(240.631 148.823)" fill="#ffab00"/>
      <path id="Trazado_1258849" data-name="Trazado 1258849" d="M138.828,82.291a9.576,9.576,0,0,1-2.966,2.2,1.216,1.216,0,0,1-1.811-1.066,9.614,9.614,0,0,1,.47-3.659,2.5,2.5,0,0,1,4.307,2.529" transform="translate(238.944 139.981)" fill="#ffab00"/>
      <path id="Trazado_1258850" data-name="Trazado 1258850" d="M160.339,97.961l-27.844-8.055a6.088,6.088,0,0,0-7.6,7.31l6.945,28.142a6.091,6.091,0,0,0,10.134,2.933l20.9-20.09a6.088,6.088,0,0,0-2.529-10.24" transform="translate(222.288 159.815)" fill="#e31f23"/>
      <path id="Trazado_1258851" data-name="Trazado 1258851" d="M136.9,98.625a9.573,9.573,0,0,0-3.392-1.444,1.217,1.217,0,0,0-1.516,1.455,9.553,9.553,0,0,0,1.311,3.448,2.5,2.5,0,0,0,3.6-3.459" transform="translate(235.216 173.141)" fill="#ffab00"/>
      <path id="Trazado_1258852" data-name="Trazado 1258852" d="M134.233,101.565a9.6,9.6,0,0,0-1.377-3.422,1.218,1.218,0,0,0-2.1-.042,9.642,9.642,0,0,0-1.514,3.364,2.5,2.5,0,0,0,4.992.1" transform="translate(230.372 173.828)" fill="#ffab00"/>
      <path id="Trazado_1258853" data-name="Trazado 1258853" d="M136.378,99.465a9.509,9.509,0,0,1-3.361-1.514,1.211,1.211,0,0,1,.042-2.1,9.55,9.55,0,0,1,3.42-1.38,2.5,2.5,0,0,1-.1,4.992" transform="translate(236.059 168.398)" fill="#ffab00"/>
      <path id="Trazado_1258854" data-name="Trazado 1258854" d="M149.346,123.542,141.3,95.695a6.092,6.092,0,0,0-10.242-2.532l-20.092,20.9a6.093,6.093,0,0,0,2.927,10.134l28.145,6.953a6.092,6.092,0,0,0,7.312-7.6" transform="translate(194.754 162.727)" fill="#e31f23"/>
      <path id="Trazado_1258855" data-name="Trazado 1258855" d="M120.345,105.176a9.578,9.578,0,0,0-.587-3.64,1.221,1.221,0,0,0-2.042-.506,9.631,9.631,0,0,0-2.218,2.949,2.5,2.5,0,0,0,4.847,1.2" transform="translate(205.744 179.432)" fill="#ffab00"/>
      <path id="Trazado_1258856" data-name="Trazado 1258856" d="M117.074,103.768a9.586,9.586,0,0,0,2.159-2.991,1.217,1.217,0,0,0-1.085-1.8,9.6,9.6,0,0,0-3.653.518,2.5,2.5,0,1,0,2.579,4.274" transform="translate(201.937 176.425)" fill="#ffab00"/>
      <path id="Trazado_1258857" data-name="Trazado 1258857" d="M118.772,104.764a9.526,9.526,0,0,1-.518-3.651,1.218,1.218,0,0,1,1.8-1.085,9.517,9.517,0,0,1,2.986,2.156,2.495,2.495,0,1,1-4.271,2.579" transform="translate(210.788 178.032)" fill="#ffab00"/>
      <path id="Trazado_1258858" data-name="Trazado 1258858" d="M225.383,82.584c.036.042.072.081.109.12L116.924,187.053l-.117-.114c-30.477-31.709-32.052-79.646-.342-110.123s78.441-25.941,108.918,5.768" transform="translate(166.326 100.213)" fill="#b72125"/>
      <path id="Trazado_1258860" data-name="Trazado 1258860" d="M217.185,85.178c.034.034.065.071.1.108l-97.542,93.744-.1-.1c-27.38-28.489-28.794-71.554-.307-98.934s70.472-23.3,97.852,5.184" transform="translate(170.497 101.929)" fill="#d32a37"/>
      <path id="Trazado_1258859" data-name="Trazado 1258859" d="M169.834,61.328S132.84,46.169,102.962,82.547c0,0,24.511-21.158,66.872-21.219" transform="translate(180.549 112.093)" fill="#ef6c5a" opacity="0.5"/>
      <path id="Trazado_1258861" data-name="Trazado 1258861" d="M131.505,78.772c5.632.882,11.38.306,17.076.573s11.664,1.536,15.844,5.409a31.279,31.279,0,0,1-6.99-34.392c-1.052,5.5,1.53,11.13,5.189,15.362s8.35,7.415,12.591,11.069a17.625,17.625,0,0,1,4.911,5.882,7.666,7.666,0,0,1,.189,6.077c1.742-2.5,4.174-4.115,6.405-6.4,2.579-2.641,13.189-4.964,16.628-6.269-1.439,3.386-4.179,13.9-6.923,16.369-2.373,2.137-4.082,4.5-6.65,6.147a7.651,7.651,0,0,1,6.063.429,17.6,17.6,0,0,1,5.685,5.142c3.478,4.382,6.478,9.191,10.562,13.017s9.608,6.628,15.142,5.8a31.283,31.283,0,0,1-34.088-8.347c3.706,4.332,4.736,10.348,4.778,16.047s-.762,11.419-.1,17.085,3.1,11.511,7.991,14.433c-8.158-.067-15.551-4.975-21.186-10.874-3.754-3.932-7.04-8.539-8.2-13.848a35.757,35.757,0,0,1-.659-6.355q-.263-6.928-.02-13.862a36.431,36.431,0,0,1-3.7,10.715,23.95,23.95,0,0,1-8.4,9.458c-5.64,3.417-13.125,3.681-17.752,8.384,1.789-6.252,3.6-12.546,6.5-18.364a45.178,45.178,0,0,1,3.247-5.515,45.221,45.221,0,0,1-5.64,3.025c-5.929,2.674-12.29,4.227-18.607,5.771,4.881-4.438,5.44-11.909,9.079-17.407a23.95,23.95,0,0,1,9.783-8.016,36.364,36.364,0,0,1,10.855-3.264q-6.933-.038-13.851-.57a35.844,35.844,0,0,1-6.325-.913c-5.259-1.372-9.733-4.839-13.512-8.745-5.671-5.863-10.281-13.445-10.025-21.6,2.724,5.006,8.475,7.68,14.1,8.559" transform="translate(209.248 89.772)" fill="#71a42d"/>
      <path id="Trazado_1258862" data-name="Trazado 1258862" d="M153.739,49.852c-.039.008-.075.014-.109.022a3.367,3.367,0,0,0-2.666,4.046,52.828,52.828,0,0,1-.373,24.661,79.73,79.73,0,0,1-11.982,25.73l2.09,2.248a71.923,71.923,0,0,0,17.215-53.708,3.424,3.424,0,0,0-4.176-3" transform="translate(247.074 88.717)" fill="#c6db69"/>
      <path id="Trazado_1258863" data-name="Trazado 1258863" d="M54.336,150.775l-.058-.62A71.355,71.355,0,0,1,83.937,85.492L123.29,57.467a128.569,128.569,0,0,0,20.8-18.529L166.88,13.7a41.539,41.539,0,0,1,50.978-8.484l.584.323a41.536,41.536,0,0,1,19.786,47.745L228.88,85.973a128.207,128.207,0,0,0-4.708,27.46l-2.949,48.221a71.343,71.343,0,0,1-39.161,59.39l-.8.4a70.99,70.99,0,0,1-46.966,6.032,117,117,0,0,1-60.831-34.314,70.574,70.574,0,0,1-19.127-42.389" transform="translate(96.213 0)" fill="#549a53"/>
      <path id="Trazado_1258864" data-name="Trazado 1258864" d="M83.445,86.922,122.8,58.894a136.636,136.636,0,0,0,22.115-19.7L167.7,13.965A33.306,33.306,0,0,1,208.76,7.131l.584.32c.131.072.25.161.381.237L101.161,203.378c-.1-.056-.2-.1-.292-.15a113.123,113.123,0,0,1-26.748-20.81,62.711,62.711,0,0,1-16.915-37.555l-.058-.6a63.475,63.475,0,0,1,26.3-57.336" transform="translate(101.394 5.156)" fill="#f8f29e"/>
      <path id="Trazado_1258865" data-name="Trazado 1258865" d="M74.34,58.3a49.977,49.977,0,1,0,67.946-19.458A49.98,49.98,0,0,0,74.34,58.3" transform="translate(121.311 58.044)" fill="#a35e2f"/>
      <path id="Trazado_1258866" data-name="Trazado 1258866" d="M77.223,56.384A37.638,37.638,0,1,0,128.4,41.731,37.642,37.642,0,0,0,77.223,56.384" transform="translate(129.216 65.951)" fill="#c37d46"/>
      <path id="Trazado_1258867" data-name="Trazado 1258867" d="M196.912,42.834l-9.346,32.692a136.413,136.413,0,0,0-5.006,29.186l-2.949,48.226A63.47,63.47,0,0,1,144.882,205.6l-.8.4a63.117,63.117,0,0,1-41.618,5.356A110.012,110.012,0,0,1,72.8,200.306L181.361,4.616a33.29,33.29,0,0,1,15.551,38.218" transform="translate(129.759 8.228)" fill="#549a53"/>
      <path id="Trazado_1258868" data-name="Trazado 1258868" d="M133.251,51.907l-4.193,14.661a61.288,61.288,0,0,0-2.243,13.089l-1.324,21.628A28.462,28.462,0,0,1,109.917,124.9l-.359.181a28.313,28.313,0,0,1-18.662,2.4,49.288,49.288,0,0,1-13.309-4.956l48.688-87.76a14.931,14.931,0,0,1,6.976,17.14" transform="translate(138.299 61.972)" fill="#7db840"/>
      <path id="Trazado_1258869" data-name="Trazado 1258869" d="M84.957,120.188a63.213,63.213,0,0,0,37.452-6.071l.8-.4a63.243,63.243,0,0,0,34.726-52.648l.05-.8c.292-4.8-6.717-5.726-7.663-1.007q-1.006,5.025-1.948,10.081C143.2,97.035,114.4,119.225,84.957,120.188" transform="translate(151.436 100.108)" fill="#7db840" opacity="0.5"/>
    </g>
    <g id="Grupo_1206632" data-name="Grupo 1206632" transform="translate(0 -0.187)">
      <g id="Rectángulo_456267" data-name="Rectángulo 456267" transform="translate(-2956 -10462.813)" fill="#fff1e8" stroke="#feebde" stroke-width="2">
        <rect width="274" height="76" rx="16" stroke="none"/>
        <rect x="1" y="1" width="272" height="74" rx="15" fill="none"/>
      </g>
      <text id="E-3XX_antioxidantes_y_reguladores_de_pH." data-name="E-3XX antioxidantes y reguladores de pH." transform="translate(-2930 -10446.813)" fill="#12263f" font-size="16" font-family="Roboto-Regular, Roboto" letter-spacing="0.003em"><tspan x="0" y="17">E-3XX antioxidantes y </tspan><tspan x="0" y="41">reguladores de pH.</tspan></text>
    </g>
    <g id="Grupo_1206635" data-name="Grupo 1206635" transform="translate(0 -58.187)">
      <g id="Rectángulo_456267-2" data-name="Rectángulo 456267" transform="translate(-2854 -9904.813)" fill="#fff1e8" stroke="#feebde" stroke-width="2">
        <rect width="274" height="76" rx="16" stroke="none"/>
        <rect x="1" y="1" width="272" height="74" rx="15" fill="none"/>
      </g>
      <text id="E-9XX_a_edulcorantes_de_alta_intensidad_y_gases_de_envasado." data-name="E-9XX a edulcorantes de alta intensidad y gases de envasado." transform="translate(-2836 -9889.313)" fill="#12263f" font-size="16" font-family="Roboto-Regular, Roboto" letter-spacing="0.003em"><tspan x="0" y="17">E-9XX a edulcorantes de alta </tspan><tspan x="0" y="41">intensidad y gases de envasado.</tspan></text>
    </g>
    <g id="Grupo_1206631" data-name="Grupo 1206631" transform="translate(0 11.813)">
      <g id="Rectángulo_456267-3" data-name="Rectángulo 456267" transform="translate(-2956 -10562.813)" fill="#fff1e8" stroke="#feebde" stroke-width="2">
        <rect width="274" height="76" rx="16" stroke="none"/>
        <rect x="1" y="1" width="272" height="74" rx="15" fill="none"/>
      </g>
      <text id="E-2XX_conservantes_antimicrobianos_." data-name="E-2XX conservantes (antimicrobianos)." transform="translate(-2930 -10546.813)" fill="#12263f" font-size="16" font-family="Roboto-Regular, Roboto" letter-spacing="0.003em"><tspan x="0" y="17">E-2XX conservantes </tspan><tspan x="0" y="41">(antimicrobianos).</tspan></text>
    </g>
    <g id="Grupo_1206636" data-name="Grupo 1206636" transform="translate(0 23.813)">
      <g id="Grupo_1206630" data-name="Grupo 1206630">
        <g id="Rectángulo_456267-4" data-name="Rectángulo 456267" transform="translate(-2956 -10662.813)" fill="#fff1e8" stroke="#feebde" stroke-width="2">
          <rect width="274" height="76" rx="16" stroke="none"/>
          <rect x="1" y="1" width="272" height="74" rx="15" fill="none"/>
        </g>
      </g>
      <text id="E-1XX_colorantes_agentes_cromáticos_." data-name="E-1XX colorantes (agentes cromáticos)." transform="translate(-2930 -10646.813)" fill="#12263f" font-size="16" font-family="Roboto-Regular, Roboto" letter-spacing="0.003em"><tspan x="0" y="17">E-1XX colorantes (agentes </tspan><tspan x="0" y="41">cromáticos).</tspan></text>
    </g>
    <g id="Grupo_1206637" data-name="Grupo 1206637" transform="translate(0 6)">
      <g id="Rectángulo_456267-5" data-name="Rectángulo 456267" transform="translate(-2855 -10057)" fill="#fff1e8" stroke="#feebde" stroke-width="2">
        <rect width="274" height="76" rx="16" stroke="none"/>
        <rect x="1" y="1" width="272" height="74" rx="15" fill="none"/>
      </g>
      <text id="E-6XX_a_potenciadores_de_sabor_umami_." data-name="E-6XX a potenciadores de sabor (umami)." transform="translate(-2829 -10041)" fill="#12263f" font-size="16" font-family="Roboto-Regular, Roboto" letter-spacing="0.003em"><tspan x="0" y="17">E-6XX a potenciadores de </tspan><tspan x="0" y="41">sabor (umami).</tspan></text>
    </g>
    <g id="Grupo_1206634" data-name="Grupo 1206634" transform="translate(0 -6)">
      <g id="Rectángulo_456267-6" data-name="Rectángulo 456267" transform="translate(-2855 -10111)" fill="#fff1e8" stroke="#feebde" stroke-width="2">
        <rect width="274" height="54" rx="16" stroke="none"/>
        <rect x="1" y="1" width="272" height="52" rx="15" fill="none"/>
      </g>
      <text id="E-5XX_antiaglomerantes." data-name="E-5XX antiaglomerantes." transform="translate(-2829 -10094)" fill="#12263f" font-size="16" font-family="Roboto-Regular, Roboto" letter-spacing="0.003em"><tspan x="0" y="17">E-5XX antiaglomerantes.</tspan></text>
    </g>
    <g id="Grupo_1206633" data-name="Grupo 1206633">
      <g id="Rectángulo_456267-7" data-name="Rectángulo 456267" transform="translate(-2855 -10204.813)" fill="#fff1e8" stroke="#feebde" stroke-width="2">
        <rect width="274" height="76" rx="16" stroke="none"/>
        <rect x="1" y="1" width="272" height="74" rx="15" fill="none"/>
      </g>
      <text id="los_E-4XX_agentes_de_textura_emulsionantes_y_estabilizantes_." data-name="los E-4XX agentes de textura (emulsionantes y estabilizantes)." transform="translate(-2835 -10188.813)" fill="#12263f" font-size="16" font-family="Roboto-Regular, Roboto" letter-spacing="0.003em"><tspan x="0" y="17">los E-4XX agentes de textura </tspan><tspan x="0" y="41">(emulsionantes y estabilizantes).</tspan></text>
    </g>
    <g id="Grupo_1206617" data-name="Grupo 1206617" transform="translate(-2996 -10629)" clip-path="url(#clip-path-2)">
      <path id="Trazado_1258749" data-name="Trazado 1258749" d="M55.3,44.994v5.3a4.459,4.459,0,0,1-4.461,4.459H46.3V163.7a2.444,2.444,0,0,1-2.444,2.444H39.164v3.489a4.859,4.859,0,0,1-4.859,4.858h-.778V188.7a2.48,2.48,0,0,1-2.48,2.48H29.962v94.061l-4.623-6.724V191.184H24.254a2.48,2.48,0,0,1-2.48-2.48V174.491H21a4.859,4.859,0,0,1-4.858-4.858v-3.489H11.448A2.444,2.444,0,0,1,9,163.7V54.758H4.459A4.46,4.46,0,0,1,0,50.3v-5.3H20.452V9.766H7.651A4.461,4.461,0,0,1,3.19,5.3V0H52.109V5.3A4.46,4.46,0,0,1,47.65,9.766h-12.8V44.994Z" fill="#b9dbf4"/>
      <rect id="Rectángulo_456680" data-name="Rectángulo 456680" width="14.397" height="35.228" transform="translate(20.452 9.764)" fill="#7bafdf"/>
      <rect id="Rectángulo_456681" data-name="Rectángulo 456681" width="28.688" height="44.992" transform="translate(13.306 54.757)" fill="#98c2e8"/>
      <rect id="Rectángulo_456682" data-name="Rectángulo 456682" width="14.397" height="44.992" transform="translate(20.452 54.757)" fill="#7bafdf"/>
      <path id="Trazado_1258750" data-name="Trazado 1258750" d="M8.281,114.66v-5.3H36.969v5.3a4.461,4.461,0,0,1-4.461,4.461H12.74a4.461,4.461,0,0,1-4.459-4.461" transform="translate(5.026 -9.606)" fill="#a7d0f0"/>
      <path id="Trazado_1258751" data-name="Trazado 1258751" d="M34.524,133.268h-23.8a2.444,2.444,0,0,1-2.444-2.444V77.308a4.46,4.46,0,0,0,4.459,4.459H32.508a4.46,4.46,0,0,0,4.461-4.459v53.515a2.444,2.444,0,0,1-2.444,2.444" transform="translate(5.026 27.746)" fill="#599fd5"/>
      <path id="Trazado_1258752" data-name="Trazado 1258752" d="M33.067,68.922v3.489a4.857,4.857,0,0,1-4.858,4.858H14.9a4.858,4.858,0,0,1-4.858-4.858V68.922Z" transform="translate(6.095 97.221)" fill="#9ccbee"/>
      <path id="Trazado_1258753" data-name="Trazado 1258753" d="M20.392,0H15.768V87.338l4.623,6.724Z" transform="translate(9.571 191.184)" fill="#599fd5"/>
      <rect id="Rectángulo_456683" data-name="Rectángulo 456683" width="5.604" height="44.992" transform="translate(24.849 54.757)" fill="#8dbce5"/>
      <rect id="Rectángulo_456684" data-name="Rectángulo 456684" width="5.604" height="35.228" transform="translate(24.849 9.764)" fill="#8dbce5"/>
      <path id="Trazado_1258754" data-name="Trazado 1258754" d="M13.043,82.772H5.6v1.739h7.44a.869.869,0,0,0,0-1.739" transform="translate(3.401 67.722)" fill="#367abd"/>
      <path id="Trazado_1258755" data-name="Trazado 1258755" d="M13.043,88.838H5.6v1.739h7.44a.869.869,0,0,0,0-1.739" transform="translate(3.401 51.908)" fill="#367abd"/>
      <path id="Trazado_1258756" data-name="Trazado 1258756" d="M13.043,94.9H5.6v1.737h7.44a.869.869,0,0,0,0-1.737" transform="translate(3.401 36.096)" fill="#367abd"/>
      <path id="Trazado_1258757" data-name="Trazado 1258757" d="M13.043,100.97H5.6v1.737h7.44a.869.869,0,0,0,0-1.737" transform="translate(3.401 20.282)" fill="#367abd"/>
      <path id="Trazado_1258758" data-name="Trazado 1258758" d="M13.043,107.035H5.6v1.739h7.44a.869.869,0,0,0,0-1.739" transform="translate(3.401 4.469)" fill="#367abd"/>
      <path id="Trazado_1258759" data-name="Trazado 1258759" d="M13.043,113.1H5.6v1.739h7.44a.869.869,0,0,0,0-1.739" transform="translate(3.401 -11.342)" fill="#367abd"/>
      <path id="Trazado_1258760" data-name="Trazado 1258760" d="M13.043,119.167H5.6V120.9h7.44a.869.869,0,0,0,0-1.737" transform="translate(3.401 -27.157)" fill="#367abd"/>
      <path id="Trazado_1258761" data-name="Trazado 1258761" d="M13.043,125.232H5.6v1.739h7.44a.869.869,0,0,0,0-1.739" transform="translate(3.401 -42.97)" fill="#367abd"/>
      <path id="Trazado_1258762" data-name="Trazado 1258762" d="M13.043,131.3H5.6v1.739h7.44a.869.869,0,0,0,0-1.739" transform="translate(3.401 -58.784)" fill="#367abd"/>
      <path id="Trazado_1258763" data-name="Trazado 1258763" d="M13.043,137.364H5.6V139.1h7.44a.869.869,0,0,0,0-1.739" transform="translate(3.401 -74.597)" fill="#367abd"/>
    </g>
    <g id="Grupo_1206619" data-name="Grupo 1206619" transform="translate(-2595.301 -10198.315)" clip-path="url(#clip-path-3)">
      <path id="Trazado_1258764" data-name="Trazado 1258764" d="M55.3,240.252v-5.3a4.459,4.459,0,0,0-4.461-4.459H46.3V121.545a2.444,2.444,0,0,0-2.444-2.444H39.164v-3.489a4.859,4.859,0,0,0-4.859-4.858h-.778V96.54a2.48,2.48,0,0,0-2.48-2.48H29.962V0L25.339,6.724V94.061H24.254a2.48,2.48,0,0,0-2.48,2.48v14.214H21a4.859,4.859,0,0,0-4.858,4.858V119.1H11.448A2.444,2.444,0,0,0,9,121.545V230.488H4.459A4.46,4.46,0,0,0,0,234.947v5.3H20.452v51.3H7.651A4.461,4.461,0,0,0,3.19,296.01v5.3H52.109v-5.3a4.46,4.46,0,0,0-4.459-4.461h-12.8v-51.3Z" fill="#b9dbf4"/>
      <rect id="Rectángulo_456686" data-name="Rectángulo 456686" width="14.397" height="51.298" transform="translate(20.452 240.253)" fill="#7bafdf"/>
      <rect id="Rectángulo_456687" data-name="Rectángulo 456687" width="28.688" height="32.822" transform="translate(13.306 197.665)" fill="#98c2e8"/>
      <rect id="Rectángulo_456688" data-name="Rectángulo 456688" width="14.397" height="32.822" transform="translate(20.452 197.665)" fill="#7bafdf"/>
      <path id="Trazado_1258765" data-name="Trazado 1258765" d="M8.281,121.67v5.3H36.969v-5.3a4.461,4.461,0,0,0-4.461-4.461H12.74a4.461,4.461,0,0,0-4.459,4.461" transform="translate(5.026 71.142)" fill="#a7d0f0"/>
      <path id="Trazado_1258766" data-name="Trazado 1258766" d="M34.524,77.308h-23.8a2.444,2.444,0,0,0-2.444,2.444v66.136a4.46,4.46,0,0,1,4.459-4.459H32.508a4.46,4.46,0,0,1,4.461,4.459V79.752a2.444,2.444,0,0,0-2.444-2.444" transform="translate(5.026 46.924)" fill="#fef8a6"/>
      <path id="Trazado_1258767" data-name="Trazado 1258767" d="M33.067,77.269V73.78a4.857,4.857,0,0,0-4.858-4.858H14.9a4.858,4.858,0,0,0-4.858,4.858v3.489Z" transform="translate(6.095 41.834)" fill="#9ccbee"/>
      <path id="Trazado_1258768" data-name="Trazado 1258768" d="M20.392,94.062H15.768V6.723L20.392,0Z" transform="translate(9.571 0)" fill="#599fd5"/>
      <rect id="Rectángulo_456689" data-name="Rectángulo 456689" width="5.604" height="32.371" transform="translate(24.849 198.117)" fill="#8dbce5"/>
      <rect id="Rectángulo_456690" data-name="Rectángulo 456690" width="5.604" height="51.298" transform="translate(24.849 240.253)" fill="#8dbce5"/>
      <path id="Trazado_1258769" data-name="Trazado 1258769" d="M13.043,84.511H5.6V82.772h7.44a.869.869,0,0,1,0,1.739" transform="translate(3.401 50.24)" fill="#367abd"/>
      <path id="Trazado_1258770" data-name="Trazado 1258770" d="M13.043,90.577H5.6V88.838h7.44a.869.869,0,0,1,0,1.739" transform="translate(3.401 53.922)" fill="#367abd"/>
      <path id="Trazado_1258771" data-name="Trazado 1258771" d="M13.043,96.641H5.6V94.9h7.44a.869.869,0,0,1,0,1.737" transform="translate(3.401 57.604)" fill="#367abd"/>
      <path id="Trazado_1258772" data-name="Trazado 1258772" d="M13.043,102.707H5.6V100.97h7.44a.869.869,0,0,1,0,1.737" transform="translate(3.401 61.286)" fill="#367abd"/>
      <path id="Trazado_1258773" data-name="Trazado 1258773" d="M13.043,108.774H5.6v-1.739h7.44a.869.869,0,0,1,0,1.739" transform="translate(3.401 64.967)" fill="#367abd"/>
      <path id="Trazado_1258774" data-name="Trazado 1258774" d="M13.043,114.839H5.6V113.1h7.44a.869.869,0,0,1,0,1.739" transform="translate(3.401 68.648)" fill="#367abd"/>
      <path id="Trazado_1258775" data-name="Trazado 1258775" d="M13.043,120.9H5.6v-1.737h7.44a.869.869,0,0,1,0,1.737" transform="translate(3.401 72.331)" fill="#367abd"/>
      <path id="Trazado_1258776" data-name="Trazado 1258776" d="M13.043,126.971H5.6v-1.739h7.44a.869.869,0,0,1,0,1.739" transform="translate(3.401 76.012)" fill="#367abd"/>
      <path id="Trazado_1258777" data-name="Trazado 1258777" d="M13.043,133.037H5.6V131.3h7.44a.869.869,0,0,1,0,1.739" transform="translate(3.401 79.694)" fill="#367abd"/>
      <path id="Trazado_1258778" data-name="Trazado 1258778" d="M13.043,139.1H5.6v-1.739h7.44a.869.869,0,0,1,0,1.739" transform="translate(3.401 83.376)" fill="#367abd"/>
    </g>
  </g>
</svg>
