<svg xmlns="http://www.w3.org/2000/svg" xmlns:xlink="http://www.w3.org/1999/xlink" width="75.609" height="80" viewBox="0 0 75.609 80"><defs><clipPath id="a"><rect width="75.609" height="80" fill="none"/></clipPath></defs><g transform="translate(0 0)" clip-path="url(#a)"><path d="M44.052,25a15.826,15.826,0,0,0-7-13.173,8.083,8.083,0,0,1-3.567-6.586H21.96a8.085,8.085,0,0,1-3.569,6.586,15.826,15.826,0,0,0-7,13.173v46.93a4.336,4.336,0,0,0,4.391,4.392h23.74a4.335,4.335,0,0,0,4.391-4.392V61.092a.134.134,0,0,1-.137-.136l.137-29.229V25Z" transform="translate(4.113 1.893)" fill="#b8d0f3"/><path d="M44.052,24.8H11.393V53.894H43.914Z" transform="translate(4.113 8.954)" fill="#fff"/><path d="M33.982,4.021V6.629H17.241V4.159a2.752,2.752,0,0,1,2.744-2.744H31.236a2.557,2.557,0,0,1,2.745,2.606" transform="translate(6.225 0.507)" fill="#fff"/><path d="M5.229,42.345a2.607,2.607,0,1,1-2.608,2.608,2.607,2.607,0,0,1,2.608-2.608" transform="translate(0.946 15.288)" fill="#fff"/><path d="M4.742,5.848a3.43,3.43,0,1,1-3.43,3.431,3.431,3.431,0,0,1,3.43-3.431" transform="translate(0.474 2.112)" fill="#fff"/><path d="M40.517,5.848a2.607,2.607,0,1,1-2.608,2.608,2.606,2.606,0,0,1,2.608-2.608" transform="translate(13.686 2.112)" fill="#fff"/><path d="M52.246,18.45A4.254,4.254,0,1,1,47.991,22.7a4.254,4.254,0,0,1,4.255-4.255" transform="translate(17.326 6.661)" fill="#fff"/><path d="M37.435,51.855c-4.666-4.255-8.1-7.959-8.1-13.311a8.111,8.111,0,0,1,8.1-8.1h.137c3.98,0,5.9,2.059,7.959,6.039,2.058-3.98,3.978-6.039,8.1-6.039a8.112,8.112,0,0,1,8.1,8.1c0,8.1-8.1,12.625-16.056,20.72-3.019-2.744-5.763-5.077-8.233-7.409h0" transform="translate(10.593 10.993)" fill="#fff"/><path d="M56.362,13.316c0,.137.137.411.137.548a1.725,1.725,0,0,1-1.236,1.647c-.136,0-.411.137-.548.137a1.725,1.725,0,0,1-1.647-1.234c0-.137-.137-.412-.137-.55a1.726,1.726,0,0,1,1.236-1.647,1.8,1.8,0,0,1,2.2,1.1" transform="translate(19.11 4.386)" fill="#4e8ae1"/><path d="M55.152,51.124c0,.137.137.412.137.549a1.725,1.725,0,0,1-1.236,1.647c-.136,0-.411.137-.549.137a1.722,1.722,0,0,1-1.645-1.234c0-.139-.139-.412-.139-.55a1.726,1.726,0,0,1,1.236-1.647,1.94,1.94,0,0,1,2.2,1.1" transform="translate(18.673 18.035)" fill="#4e8ae1"/><path d="M48.8,56.165c0,.137.137.412.137.549A1.724,1.724,0,0,1,47.7,58.36c-.137,0-.411.137-.548.137a1.725,1.725,0,0,1-1.647-1.234c0-.137-.136-.412-.136-.55a1.722,1.722,0,0,1,1.234-1.645,1.8,1.8,0,0,1,2.2,1.1" transform="translate(16.38 19.856)" fill="#4e8ae1"/><path d="M41.239,17.15c0,.137.137.412.137.548a1.724,1.724,0,0,1-1.236,1.647c-.137,0-.411.137-.548.137a1.725,1.725,0,0,1-1.647-1.234c0-.137-.137-.412-.137-.55a1.726,1.726,0,0,1,1.236-1.647,1.688,1.688,0,0,1,2.2,1.1" transform="translate(13.65 5.766)" fill="#4e8ae1"/><path d="M18.554,42.356c0,.137.137.412.137.549a1.725,1.725,0,0,1-1.236,1.647c-.137,0-.411.137-.548.137a1.725,1.725,0,0,1-1.647-1.234c0-.137-.136-.412-.136-.55a1.725,1.725,0,0,1,1.234-1.647,1.688,1.688,0,0,1,2.2,1.1" transform="translate(5.46 14.866)" fill="#4e8ae1"/><path d="M13.513,5.754c0,.136.137.411.137.548A1.726,1.726,0,0,1,12.414,7.95c-.137,0-.411.137-.548.137a1.726,1.726,0,0,1-1.647-1.234c0-.139-.136-.412-.136-.55a1.725,1.725,0,0,1,1.234-1.647,1.8,1.8,0,0,1,2.2,1.1" transform="translate(3.64 1.656)" fill="#4e8ae1"/><path d="M9.783,52.438c0,.137.137.412.137.549a1.725,1.725,0,0,1-1.236,1.647c-.137,0-.411.137-.548.137a1.725,1.725,0,0,1-1.647-1.234c0-.137-.136-.412-.136-.55a1.722,1.722,0,0,1,1.234-1.645,1.8,1.8,0,0,1,2.2,1.1" transform="translate(2.294 18.506)" fill="#4e8ae1"/><path d="M5.951,28.439c0,.137.137.412.137.548a1.724,1.724,0,0,1-1.234,1.647c-.137,0-.412.137-.55.137a1.722,1.722,0,0,1-1.645-1.234c0-.137-.139-.412-.139-.55a1.727,1.727,0,0,1,1.236-1.647,1.8,1.8,0,0,1,2.2,1.1" transform="translate(0.91 9.846)" fill="#4e8ae1"/><path d="M34.455,8.781H31.849a1.784,1.784,0,1,1,0-3.567h.96V4.391a1.083,1.083,0,0,0-1.1-1.1H20.458a1.083,1.083,0,0,0-1.1,1.1v.823h.96a1.784,1.784,0,1,1,0,3.567H17.714A1.817,1.817,0,0,1,15.93,7V4.527A4.568,4.568,0,0,1,20.458,0H31.71a4.569,4.569,0,0,1,4.53,4.527V7.135a1.7,1.7,0,0,1-1.784,1.647" transform="translate(5.751 0)" fill="#4e8ae1"/><path d="M39.961,78.58h-23.6a6.149,6.149,0,0,1-6.175-6.175V25.476A17.324,17.324,0,0,1,18.006,10.93,6.1,6.1,0,0,0,20.75,5.716a1.816,1.816,0,0,1,1.783-1.784H34.059A1.7,1.7,0,0,1,35.7,5.716,6.636,6.636,0,0,0,38.45,10.93a17.662,17.662,0,0,1,7.822,14.545V40.159a1.487,1.487,0,0,1-.55,1.234,1.379,1.379,0,0,1-1.233.412A1.816,1.816,0,0,1,42.7,40.021a1.247,1.247,0,0,1,.136-.686V25.476a14.137,14.137,0,0,0-6.174-11.664A9.425,9.425,0,0,1,32.551,7.5H24.178a9.425,9.425,0,0,1-4.116,6.312,14.14,14.14,0,0,0-6.174,11.664V72.543a2.753,2.753,0,0,0,2.744,2.745H40.37a2.753,2.753,0,0,0,2.745-2.745V61.7a1.784,1.784,0,0,1,3.567,0V72.543a7.041,7.041,0,0,1-6.722,6.038" transform="translate(3.677 1.42)" fill="#4e8ae1"/><path d="M44.525,26.958H11.866a1.784,1.784,0,0,1,0-3.567H44.525a1.784,1.784,0,1,1,0,3.567" transform="translate(3.64 8.445)" fill="#4e8ae1"/><path d="M44.525,48.433H11.866a1.784,1.784,0,0,1,0-3.567H44.525A1.817,1.817,0,0,1,46.31,46.65a1.918,1.918,0,0,1-1.784,1.783" transform="translate(3.64 16.198)" fill="#4e8ae1"/><path d="M16.907,44.075a1.817,1.817,0,0,1-1.784-1.784V30.215a1.784,1.784,0,1,1,3.569,0V42.29a1.817,1.817,0,0,1-1.784,1.784" transform="translate(5.46 10.265)" fill="#4e8ae1"/><path d="M45.868,61.485a1.675,1.675,0,0,1-1.236-.548q-2.881-2.881-5.763-5.352c-.686-.686-1.372-1.234-2.058-1.92l-.137-.137c-4.528-4.117-8.645-8.37-8.645-14.545a9.78,9.78,0,0,1,9.742-9.742h.137a8.668,8.668,0,0,1,7.822,4.253,8.972,8.972,0,0,1,8.1-4.253,9.781,9.781,0,0,1,9.744,9.742c0,6.861-5.077,11.389-10.841,16.6q-2.881,2.47-5.764,5.352a1.223,1.223,0,0,1-1.1.548M37.909,32.669h0A6.3,6.3,0,0,0,31.6,38.981c0,4.253,2.608,7.547,7.548,12.075l.136.137c.687.686,1.373,1.234,2.059,1.922,1.509,1.372,3.019,2.744,4.666,4.253,1.647-1.509,3.156-2.881,4.664-4.253,5.49-4.8,9.744-8.647,9.744-14A6.384,6.384,0,0,0,54.1,32.806c-3.019,0-4.528,1.234-6.449,5.077a1.667,1.667,0,0,1-3.02,0c-2.2-3.842-3.7-5.077-6.723-5.214h0" transform="translate(10.119 10.556)" fill="#4e8ae1"/><path d="M5.215,14.966a5.215,5.215,0,1,1,5.213-5.214,5.212,5.212,0,0,1-5.213,5.214m0-6.861a1.784,1.784,0,1,0,0,3.567A1.815,1.815,0,0,0,7,9.889,1.73,1.73,0,0,0,5.215,8.1" transform="translate(0 1.638)" fill="#4e8ae1"/><path d="M52.719,29.215a6.038,6.038,0,1,1,6.039-6.038,6,6,0,0,1-6.039,6.038m0-8.508a2.606,2.606,0,0,0-2.608,2.606,2.523,2.523,0,0,0,2.608,2.608,2.607,2.607,0,0,0,0-5.214" transform="translate(16.853 6.188)" fill="#4e8ae1"/><path d="M40.954,13.144a4.253,4.253,0,1,1,4.253-4.253,4.275,4.275,0,0,1-4.253,4.253m0-5.077a.885.885,0,0,0-.823.823.823.823,0,1,0,1.647,0,.791.791,0,0,0-.823-.823" transform="translate(13.249 1.675)" fill="#4e8ae1"/><path d="M5.665,49.744A4.254,4.254,0,1,1,9.92,45.491a4.275,4.275,0,0,1-4.255,4.253m0-5.214a.823.823,0,0,0,0,1.647.823.823,0,0,0,0-1.647" transform="translate(0.51 14.888)" fill="#4e8ae1"/><path d="M34.024,54.684H21.949a1.784,1.784,0,1,1,0-3.567H34.024a1.784,1.784,0,1,1,0,3.567" transform="translate(7.28 18.455)" fill="#4e8ae1"/></g></svg>