<svg xmlns="http://www.w3.org/2000/svg" xmlns:xlink="http://www.w3.org/1999/xlink" width="83.472" height="80" viewBox="0 0 83.472 80"><defs><clipPath id="a"><rect width="83.472" height="80" fill="none"/></clipPath></defs><g transform="translate(0 0)" clip-path="url(#a)"><path d="M8.8,1.3V70.744A6.944,6.944,0,1,0,15.744,63.8H66.022V1.3Z" transform="translate(3.422 0.505)" fill="#b8d0f3"/><path d="M42.772,28.572l-.417.139L29.3,33.989V20.1a14.867,14.867,0,0,1,13.472,8.472" transform="translate(11.394 7.817)" fill="#fff"/><path d="M33.522,20.1V33.989H18.8A14.664,14.664,0,0,1,33.522,20.1" transform="translate(7.311 7.817)" fill="#fff"/><path d="M46.856,26.2a15.8,15.8,0,0,1,1.389,6.25,14.722,14.722,0,0,1-29.444,0v-.833H33.522l13.056-5.278Z" transform="translate(7.311 10.189)" fill="#fff"/><path d="M57.272,11.3A3.472,3.472,0,1,1,53.8,14.772,3.472,3.472,0,0,1,57.272,11.3" transform="translate(20.922 4.394)" fill="#fff"/><path d="M3.839,45.1A2.639,2.639,0,1,1,1.2,47.739,2.639,2.639,0,0,1,3.839,45.1" transform="translate(0.467 17.539)" fill="#fff"/><path d="M62.411,60.189H13.8a6.944,6.944,0,0,0,0-13.889H62.55a6.945,6.945,0,0,1-.139,13.889" transform="translate(5.367 18.005)" fill="#fff"/><path d="M59.256.556a1.76,1.76,0,0,1,.556,1.25,1.508,1.508,0,0,1-.556,1.25,2.068,2.068,0,0,1-1.25.556A1.839,1.839,0,0,1,56.2,1.806a1.508,1.508,0,0,1,.556-1.25A2.068,2.068,0,0,1,58.006,0a3.432,3.432,0,0,1,1.25.556" transform="translate(21.856 0)" fill="#4e8ae1"/><path d="M56.756,26.856a1.76,1.76,0,0,1,.556,1.25,1.508,1.508,0,0,1-.556,1.25,1.76,1.76,0,0,1-1.25.556A1.839,1.839,0,0,1,53.7,28.106a1.508,1.508,0,0,1,.556-1.25,1.76,1.76,0,0,1,1.25-.556,2.068,2.068,0,0,1,1.25.556" transform="translate(20.883 10.228)" fill="#4e8ae1"/><path d="M46.756,21.856a1.76,1.76,0,0,1,.556,1.25,1.508,1.508,0,0,1-.556,1.25,1.76,1.76,0,0,1-1.25.556A1.839,1.839,0,0,1,43.7,23.106a1.508,1.508,0,0,1,.556-1.25,1.76,1.76,0,0,1,1.25-.556,2.068,2.068,0,0,1,1.25.556" transform="translate(16.994 8.283)" fill="#4e8ae1"/><path d="M46.756,25.556a1.76,1.76,0,0,1,.556,1.25,1.508,1.508,0,0,1-.556,1.25,1.76,1.76,0,0,1-1.25.556A1.839,1.839,0,0,1,43.7,26.806a1.508,1.508,0,0,1,.556-1.25A1.76,1.76,0,0,1,45.506,25a3.432,3.432,0,0,1,1.25.556" transform="translate(16.994 9.722)" fill="#4e8ae1"/><path d="M46.756,29.356a1.76,1.76,0,0,1,.556,1.25,1.354,1.354,0,0,1-.556,1.25,1.76,1.76,0,0,1-1.25.556A1.839,1.839,0,0,1,43.7,30.606a1.508,1.508,0,0,1,.556-1.25,1.76,1.76,0,0,1,1.25-.556,2.068,2.068,0,0,1,1.25.556" transform="translate(16.994 11.2)" fill="#4e8ae1"/><path d="M46.756,33.056a1.76,1.76,0,0,1,.556,1.25,1.354,1.354,0,0,1-.556,1.25,1.76,1.76,0,0,1-1.25.556A1.838,1.838,0,0,1,43.7,34.306a1.508,1.508,0,0,1,.556-1.25,1.76,1.76,0,0,1,1.25-.556,3.432,3.432,0,0,1,1.25.556" transform="translate(16.994 12.639)" fill="#4e8ae1"/><path d="M46.756,36.856a1.76,1.76,0,0,1,.556,1.25,1.354,1.354,0,0,1-.556,1.25,1.76,1.76,0,0,1-1.25.556A1.839,1.839,0,0,1,43.7,38.106a1.508,1.508,0,0,1,.556-1.25,1.76,1.76,0,0,1,1.25-.556,2.068,2.068,0,0,1,1.25.556" transform="translate(16.994 14.117)" fill="#4e8ae1"/><path d="M46.756,40.556a1.76,1.76,0,0,1,.556,1.25,1.354,1.354,0,0,1-.556,1.25,1.76,1.76,0,0,1-1.25.556A1.838,1.838,0,0,1,43.7,41.806a1.508,1.508,0,0,1,.556-1.25A1.76,1.76,0,0,1,45.506,40a3.432,3.432,0,0,1,1.25.556" transform="translate(16.994 15.555)" fill="#4e8ae1"/><path d="M5.456,8.056a1.76,1.76,0,0,1,.556,1.25,1.508,1.508,0,0,1-.556,1.25,2.068,2.068,0,0,1-1.25.556A1.839,1.839,0,0,1,2.4,9.306a1.508,1.508,0,0,1,.556-1.25A2.068,2.068,0,0,1,4.206,7.5a2.617,2.617,0,0,1,1.25.556" transform="translate(0.933 2.917)" fill="#4e8ae1"/><path d="M5.456,36.856a1.76,1.76,0,0,1,.556,1.25,1.354,1.354,0,0,1-.556,1.25,2.068,2.068,0,0,1-1.25.556A1.839,1.839,0,0,1,2.4,38.106a1.508,1.508,0,0,1,.556-1.25,1.76,1.76,0,0,1,1.25-.556,1.76,1.76,0,0,1,1.25.556" transform="translate(0.933 14.117)" fill="#4e8ae1"/><path d="M62.917,62.539H14.306a1.806,1.806,0,1,1,0-3.611H62.917a5.275,5.275,0,0,0,5.278-5.278,5.127,5.127,0,0,0-5.139-5.139H14.306a1.806,1.806,0,0,1,0-3.611H63.194a8.21,8.21,0,0,1,5.972,2.639,8.84,8.84,0,0,1-6.25,15" transform="translate(4.861 17.461)" fill="#4e8ae1"/><path d="M16.25,62.539a8.8,8.8,0,0,1-8.75-8.75,1.806,1.806,0,0,1,3.611,0,5.278,5.278,0,1,0,5.278-5.278,1.806,1.806,0,0,1,0-3.611,8.8,8.8,0,0,1,8.75,8.75,9.044,9.044,0,0,1-8.889,8.889" transform="translate(2.917 17.461)" fill="#4e8ae1"/><path d="M9.306,73.056A1.838,1.838,0,0,1,7.5,71.25V1.806A1.839,1.839,0,0,1,9.306,0H66.528a1.838,1.838,0,0,1,1.806,1.806v62.5a1.806,1.806,0,1,1-3.611,0V3.611H10.972V71.389a1.792,1.792,0,0,1-1.667,1.667" transform="translate(2.917 0)" fill="#4e8ae1"/><path d="M28.194,8.611H14.306a1.806,1.806,0,0,1,0-3.611H28.194A1.839,1.839,0,0,1,30,6.806a2.06,2.06,0,0,1-1.806,1.806" transform="translate(4.861 1.944)" fill="#4e8ae1"/><path d="M40.278,12.311H14.306a1.806,1.806,0,1,1,0-3.611H40.417a1.839,1.839,0,0,1,1.806,1.806,1.956,1.956,0,0,1-1.944,1.806" transform="translate(4.861 3.383)" fill="#4e8ae1"/><path d="M54.167,16.111H14.306a1.806,1.806,0,1,1,0-3.611h40a1.839,1.839,0,0,1,1.806,1.806,1.966,1.966,0,0,1-1.944,1.806" transform="translate(4.861 4.861)" fill="#4e8ae1"/><path d="M34.028,22.272A13.074,13.074,0,0,0,20.972,34.494v.833a13.056,13.056,0,1,0,24.861-5.556,13.174,13.174,0,0,0-11.806-7.5m0,29.583A16.567,16.567,0,0,1,17.5,35.328v-.972a16.547,16.547,0,0,1,31.528-5.972,17.391,17.391,0,0,1,1.528,6.944A16.658,16.658,0,0,1,34.028,51.856" transform="translate(6.806 7.311)" fill="#4e8ae1"/><path d="M34.028,36.239H19.306a1.806,1.806,0,1,1,0-3.611H32.361V20.406a1.806,1.806,0,0,1,3.611,0V34.294c-.278,1.25-.972,1.944-1.944,1.944" transform="translate(6.806 7.233)" fill="#4e8ae1"/><path d="M29.906,33.751A1.8,1.8,0,0,1,28.24,32.64a1.69,1.69,0,0,1,.972-2.222L42.267,25.14a1.715,1.715,0,1,1,1.25,3.194L30.462,33.612a.835.835,0,0,1-.556.139" transform="translate(10.927 9.721)" fill="#4e8ae1"/><path d="M4.306,47.233a.833.833,0,0,0,0,1.667.9.9,0,0,0,.833-.833c.139-.417-.278-.833-.833-.833m0,5.278a4.306,4.306,0,1,1,0-8.611,4.327,4.327,0,0,1,4.306,4.306,4.24,4.24,0,0,1-4.306,4.306" transform="translate(0 17.072)" fill="#4e8ae1"/><path d="M57.778,13.611a1.806,1.806,0,1,0,1.806,1.806,1.932,1.932,0,0,0-1.806-1.806m0,6.944a5.278,5.278,0,1,1,5.278-5.278,5.462,5.462,0,0,1-5.278,5.278" transform="translate(20.417 3.889)" fill="#4e8ae1"/></g></svg>