<svg xmlns="http://www.w3.org/2000/svg" xmlns:xlink="http://www.w3.org/1999/xlink" width="86.945" height="80" viewBox="0 0 86.945 80">
  <defs>
    <clipPath id="clip-path">
      <rect id="Rectángulo_455676" data-name="Rectángulo 455676" width="86.945" height="80" fill="none"/>
    </clipPath>
  </defs>
  <g id="Grupo_1204302" data-name="Grupo 1204302" transform="translate(0 0)">
    <g id="Grupo_1204301" data-name="Grupo 1204301" transform="translate(0 0)" clip-path="url(#clip-path)">
      <path id="Trazado_1255560" data-name="Trazado 1255560" d="M9.27,6.272a3,3,0,1,1-3,3,3.1,3.1,0,0,1,3-3" transform="translate(3.512 3.511)" fill="#fff1e8"/>
      <path id="Trazado_1255561" data-name="Trazado 1255561" d="M31.764,1.214a3.906,3.906,0,0,1,3.945,3.945,3.945,3.945,0,0,1-7.89,0,3.905,3.905,0,0,1,3.945-3.945" transform="translate(15.576 0.679)" fill="#fff1e8"/>
      <path id="Trazado_1255562" data-name="Trazado 1255562" d="M22.623,12.645a3,3,0,1,1-3,3,2.9,2.9,0,0,1,3-3" transform="translate(10.988 7.079)" fill="#fff1e8"/>
      <path id="Trazado_1255563" data-name="Trazado 1255563" d="M59.984,44.914v7.891H12.644V44.914h47.34Z" transform="translate(7.079 25.145)" fill="#fff1e8"/>
      <path id="Trazado_1255564" data-name="Trazado 1255564" d="M76.8,26v2.05c0,11.2-4.26,21.145-12.782,27.616H17C8.476,49.193,3.743,39.252,3.743,28.048V26H76.8Z" transform="translate(2.096 14.555)" fill="#fff1e8"/>
      <path id="Trazado_1255565" data-name="Trazado 1255565" d="M76.746,20.94v7.891H3.844V20.94h72.9Z" transform="translate(2.152 11.723)" fill="#fff1e8"/>
      <path id="Trazado_1255566" data-name="Trazado 1255566" d="M58.771,7.57a6.95,6.95,0,0,1,0,9.782L46.621,29.5H27.211c.317-.318.474-.789.789-1.106L48.987,7.412a6.809,6.809,0,0,1,4.892-2.051A7.382,7.382,0,0,1,58.771,7.57" transform="translate(15.235 3.001)" fill="#fff"/>
      <path id="Trazado_1255567" data-name="Trazado 1255567" d="M18.364,58.293h-.63a2.106,2.106,0,0,1-1.264-.474A37.224,37.224,0,0,1,6.057,45.039a38.393,38.393,0,0,1-3.63-16.411V26.577a1.974,1.974,0,1,1,3.945.159v1.892c0,10.414,4.262,19.565,11.835,25.72A1.957,1.957,0,0,1,20.1,56.4c.315.947-.632,1.894-1.736,1.894" transform="translate(1.359 13.819)" fill="#fdc9a6"/>
      <path id="Trazado_1255568" data-name="Trazado 1255568" d="M43.091,58.293a2.048,2.048,0,0,1-1.262-3.63c7.731-6,11.992-15.148,11.992-26.035V26.736a1.974,1.974,0,1,1,3.945-.159v2.051c0,12.15-4.892,22.407-13.571,29.191a1.229,1.229,0,0,1-1.1.474" transform="translate(23.025 13.819)" fill="#fdc9a6"/>
      <path id="Trazado_1255569" data-name="Trazado 1255569" d="M60.72,55.591a2.087,2.087,0,0,1-2.051-2.05v-6H15.433v6a2.052,2.052,0,0,1-4.1,0V45.65A2.087,2.087,0,0,1,13.38,43.6H60.72a2.087,2.087,0,0,1,2.051,2.05v7.891a2.087,2.087,0,0,1-2.051,2.05" transform="translate(6.343 24.409)" fill="#fdc9a6"/>
      <path id="Trazado_1255570" data-name="Trazado 1255570" d="M84.894,52.759H2.051a2.051,2.051,0,1,1,0-4.1H84.894a2.09,2.09,0,0,1,2.051,2.053,2.339,2.339,0,0,1-2.051,2.05" transform="translate(0 27.24)" fill="#fdc9a6"/>
      <path id="Trazado_1255571" data-name="Trazado 1255571" d="M59.13,33.742H5.793a2.051,2.051,0,0,1,0-4.1H59.13a2.089,2.089,0,0,1,2.05,2.051,2.2,2.2,0,0,1-2.05,2.051" transform="translate(2.096 16.594)" fill="#fdc9a6"/>
      <path id="Trazado_1255572" data-name="Trazado 1255572" d="M27.913,32.177a2.928,2.928,0,0,1-1.1-.315,1.859,1.859,0,0,1-.473-2.683,8.6,8.6,0,0,1,1.1-1.419L48.427,6.773a8.69,8.69,0,0,1,6.311-2.525,9.385,9.385,0,0,1,6.313,2.525,8.954,8.954,0,0,1,0,12.624L48.9,31.547A2.009,2.009,0,0,1,46.059,28.7l12.152-12.15a4.891,4.891,0,0,0-3.472-8.362,4.9,4.9,0,0,0-3.471,1.419L30.124,30.6a3.443,3.443,0,0,0-.632.789,1.94,1.94,0,0,1-1.579.789" transform="translate(14.533 2.378)" fill="#fdc9a6"/>
      <path id="Trazado_1255573" data-name="Trazado 1255573" d="M77.482,31.517H4.58a2.09,2.09,0,0,1-2.051-2.053V21.576A2.089,2.089,0,0,1,4.58,19.523H77.641a2.089,2.089,0,0,1,2.051,2.053v7.888a2.358,2.358,0,0,1-2.21,2.053M6.474,27.57H75.59V23.625H6.474Z" transform="translate(1.416 10.93)" fill="#fdc9a6"/>
      <path id="Trazado_1255574" data-name="Trazado 1255574" d="M9.95,14.84a4.891,4.891,0,1,1,4.892-4.892A4.816,4.816,0,0,1,9.95,14.84M9.95,9A1.018,1.018,0,0,0,9,9.948a1.018,1.018,0,0,0,.947.948,1.02,1.02,0,0,0,.947-.948A.91.91,0,0,0,9.95,9" transform="translate(2.832 2.832)" fill="#fdc9a6"/>
      <path id="Trazado_1255575" data-name="Trazado 1255575" d="M23.3,21.213a4.892,4.892,0,1,1,4.892-4.892A4.916,4.916,0,0,1,23.3,21.213m0-6a.947.947,0,1,0,.947.947,1.018,1.018,0,0,0-.947-.947" transform="translate(10.308 6.399)" fill="#fdc9a6"/>
      <path id="Trazado_1255576" data-name="Trazado 1255576" d="M32.5,11.835A5.962,5.962,0,0,1,26.5,6a6.1,6.1,0,0,1,6-6,5.993,5.993,0,0,1,6,6,5.863,5.863,0,0,1-6,5.839m0-7.891A2.089,2.089,0,0,0,30.447,6a2.052,2.052,0,0,0,4.1,0A1.99,1.99,0,0,0,32.5,3.943" transform="translate(14.839 0)" fill="#fdc9a6"/>
    </g>
  </g>
</svg>
