<svg xmlns="http://www.w3.org/2000/svg" xmlns:xlink="http://www.w3.org/1999/xlink" width="80.929" height="80" viewBox="0 0 80.929 80"><defs><clipPath id="a"><rect width="80.929" height="80" fill="none"/></clipPath></defs><g clip-path="url(#a)"><path d="M46.356,40a8.4,8.4,0,1,1-8.484,8.4A8.407,8.407,0,0,1,46.356,40" transform="translate(12.624 13.333)" fill="#b8d0f3"/><rect width="3.367" height="3.333" transform="translate(38.781 5.067)" fill="#4e8ae1"/><rect width="3.367" height="3.333" transform="translate(35.415 8.4)" fill="#4e8ae1"/><rect width="3.367" height="3.333" transform="translate(35.415 1.733)" fill="#4e8ae1"/><rect width="3.367" height="3.333" transform="translate(32.048 5.067)" fill="#4e8ae1"/><rect width="3.367" height="3.333" transform="translate(26.932 66.667)" fill="#4e8ae1"/><rect width="3.367" height="3.333" transform="translate(23.565 70)" fill="#4e8ae1"/><rect width="3.367" height="3.333" transform="translate(23.565 63.333)" fill="#4e8ae1"/><rect width="3.367" height="3.333" transform="translate(20.199 66.667)" fill="#4e8ae1"/><path d="M46.76,58.8a10,10,0,1,1,10.1-10,10.123,10.123,0,0,1-10.1,10m0-16.667A6.667,6.667,0,1,0,53.493,48.8a6.72,6.72,0,0,0-6.733-6.667" transform="translate(12.22 12.933)" fill="#4e8ae1"/><path d="M48.881,80A18.53,18.53,0,0,1,30.3,61.6a18.316,18.316,0,0,1,8.484-15.333V10a9.94,9.94,0,0,1,2.963-7.067A10.114,10.114,0,0,1,58.98,10V46.267A18.315,18.315,0,0,1,67.462,61.6,18.7,18.7,0,0,1,48.881,80m0-76.667a6.345,6.345,0,0,0-4.713,2A6.758,6.758,0,0,0,42.148,10V47.2a1.669,1.669,0,0,1-.808,1.467,14.991,14.991,0,0,0,7.541,28,14.992,14.992,0,0,0,7.675-28,1.531,1.531,0,0,1-.808-1.467V10a6.925,6.925,0,0,0-6.867-6.667" transform="translate(10.099)" fill="#4e8ae1"/><path d="M44.673,49.667a1.775,1.775,0,0,1-1.752-1.733v-30a1.751,1.751,0,0,1,3.5,0v30a1.987,1.987,0,0,1-1.749,1.733" transform="translate(14.307 5.4)" fill="#4e8ae1"/><path d="M44.673,15.033A1.775,1.775,0,0,1,42.921,13.3V6.633a1.751,1.751,0,0,1,3.5,0V13.3a1.987,1.987,0,0,1-1.749,1.733" transform="translate(14.307 1.633)" fill="#4e8ae1"/><path d="M79.179,60.867H1.751a1.733,1.733,0,1,1,0-3.467H79.179a1.774,1.774,0,0,1,1.751,1.733,1.988,1.988,0,0,1-1.751,1.733" transform="translate(0 19.133)" fill="#4e8ae1"/><path d="M61.5,10.867H54.771a1.733,1.733,0,1,1,0-3.467H61.5a1.774,1.774,0,0,1,1.751,1.733A1.988,1.988,0,0,1,61.5,10.867" transform="translate(17.674 2.467)" fill="#4e8ae1"/><path d="M59.788,17.167H54.671a1.733,1.733,0,1,1,0-3.467h5.117a1.733,1.733,0,1,1,0,3.467" transform="translate(17.64 4.567)" fill="#4e8ae1"/><path d="M61.5,23.367H54.771a1.733,1.733,0,1,1,0-3.467H61.5a1.774,1.774,0,0,1,1.751,1.733A1.873,1.873,0,0,1,61.5,23.367" transform="translate(17.674 6.633)" fill="#4e8ae1"/><path d="M58.138,29.667H54.772a1.733,1.733,0,1,1,0-3.467h3.367a1.773,1.773,0,0,1,1.749,1.733,1.872,1.872,0,0,1-1.749,1.733" transform="translate(17.674 8.733)" fill="#4e8ae1"/><path d="M10.166,53.833a5.067,5.067,0,1,1,0-10.133,4.977,4.977,0,0,1,4.983,5.067,5.062,5.062,0,0,1-4.983,5.067m0-6.667A1.734,1.734,0,1,0,11.917,48.9a1.874,1.874,0,0,0-1.751-1.733" transform="translate(1.683 14.567)" fill="#4e8ae1"/><path d="M8.853,11.333A5.067,5.067,0,1,1,13.97,6.267a5.089,5.089,0,0,1-5.117,5.067m0-6.667A1.774,1.774,0,0,0,7.1,6.4a1.75,1.75,0,0,0,3.5,0A1.689,1.689,0,0,0,8.853,4.667" transform="translate(1.246 0.4)" fill="#4e8ae1"/><path d="M18.112,42.533A1.774,1.774,0,0,1,16.361,40.8V14.133a1.751,1.751,0,0,1,3.5,0V40.8a1.774,1.774,0,0,1-1.751,1.733" transform="translate(5.454 4.133)" fill="#4e8ae1"/><path d="M19.383,22.125a1.653,1.653,0,0,1-1.212-.533l-5.117-5.067a1.678,1.678,0,0,1,0-2.4,1.719,1.719,0,0,1,2.424,0l3.905,3.867,3.905-3.867a1.719,1.719,0,0,1,2.424,0,1.681,1.681,0,0,1,0,2.4l-5.117,5.067a1.653,1.653,0,0,1-1.212.533" transform="translate(4.183 4.542)" fill="#4e8ae1"/><path d="M24.5,35.925a1.654,1.654,0,0,1-1.212-.532l-3.905-3.868-3.905,3.868a1.719,1.719,0,0,1-2.424,0,1.68,1.68,0,0,1,0-2.4l5.117-5.067a1.719,1.719,0,0,1,2.424,0l5.117,5.067a1.68,1.68,0,0,1,0,2.4,2.441,2.441,0,0,1-1.212.532" transform="translate(4.183 9.142)" fill="#4e8ae1"/><path d="M34.943,25.867H8.011a1.733,1.733,0,1,1,0-3.467H34.943a1.733,1.733,0,1,1,0,3.467" transform="translate(2.087 7.467)" fill="#4e8ae1"/><path d="M28.27,32.192a1.656,1.656,0,0,1-1.212-.532L21.94,26.592a1.678,1.678,0,0,1,0-2.4l5.117-5.067a1.719,1.719,0,0,1,2.424,0,1.678,1.678,0,0,1,0,2.4l-3.905,3.867,3.905,3.867a1.68,1.68,0,0,1,0,2.4,2.441,2.441,0,0,1-1.212.532" transform="translate(7.145 6.208)" fill="#4e8ae1"/><path d="M9.316,32.192A1.656,1.656,0,0,1,8.1,31.66a1.68,1.68,0,0,1,0-2.4l3.905-3.867L8.1,21.525a1.678,1.678,0,0,1,0-2.4,1.719,1.719,0,0,1,2.424,0l5.117,5.067a1.678,1.678,0,0,1,0,2.4L10.528,31.66a2.441,2.441,0,0,1-1.212.532" transform="translate(2.533 6.208)" fill="#4e8ae1"/></g></svg>